<?xml version="1.0" encoding="utf-8"?>
<svg version="1.1" xmlns="http://www.w3.org/2000/svg" xmlns:xlink="http://www.w3.org/1999/xlink" height="50" width="50">
  <defs>
    <ellipse id="ellipse-0" opacity="1" rx="25" ry="25" cx="25" cy="25"/>
    <path id="path-1" opacity="1" fill-rule="evenodd" d="M29.99932378306974,15.004161334956255 L27.40577177158446,15 C24.49200503521544,15 22.609000967510525,16.93189975344089 22.609000967510525,19.92202698625716 L22.609000967510525,22.191411004650245 L20.001300417173983,22.191411004650245 C19.77596412929283,22.191411004650245 19.593489591461093,22.374093609229796 19.593489591461093,22.599429897110944 L19.593489591461093,25.887508712794993 C19.593489591461093,26.112845000676145 19.77617219604064,26.295319538507883 20.001300417173983,26.295319538507883 L22.609000967510525,26.295319538507883 L22.609000967510525,34.592189174286986 C22.609000967510525,34.817525462168135 22.791475505342262,34.99999999999987 23.01681179322341,34.99999999999987 L26.41911925345665,34.99999999999987 C26.6444555413378,34.99999999999987 26.826930079169536,34.81731739542032 26.826930079169536,34.592189174286986 L26.826930079169536,26.295319538507883 L29.875940201616814,26.295319538507883 C30.101276489497963,26.295319538507883 30.2837510273297,26.112845000676145 30.2837510273297,25.887508712794993 L30.284999427816572,22.599429897110944 C30.284999427816572,22.491235188248343 30.241929611019348,22.38761794783762 30.165569114572087,22.311049384642544 C30.089208618124825,22.234480821447473 29.985175244218475,22.191411004650245 29.876980535355877,22.191411004650245 L26.826930079169536,22.191411004650245 L26.826930079169536,20.26762585437405 C26.826930079169536,19.342977227094423 27.04727276510318,18.873578644028978 28.251771168190892,18.873578644028978 L29.998907649574114,18.87295444378554 C30.224035870707453,18.87295444378554 30.40651040853919,18.69027183920599 30.40651040853919,18.465143618072652 L30.40651040853919,15.41197216066914 C30.40651040853919,15.187052006283615 30.224243937455267,15.00457746845188 29.99932378306974,15.004161334956255Z"/>
  </defs>
  <g opacity="1">
    <g opacity="1">
      <use xlink:href="#ellipse-0" fill="rgb(255,255,255)" fill-opacity="1"/>
    </g>
    <g opacity="1">
      <g opacity="1">
        <use xlink:href="#path-1" fill="rgb(45,69,94)" fill-opacity="1"/>
      </g>
    </g>
  </g>
</svg>