<?xml version="1.0" encoding="utf-8"?>
<svg version="1.1" xmlns="http://www.w3.org/2000/svg" xmlns:xlink="http://www.w3.org/1999/xlink" height="50" width="50">
  <defs>
    <ellipse id="ellipse-0" opacity="1" rx="25" ry="25" cx="25" cy="25"/>
    <path id="path-1" opacity="1" fill-rule="evenodd" d="M37.31091549508245,17.36631470533214 C36.40469384594009,17.767868458055332 35.43233109175044,18.040197618678846 34.41068436330111,18.16177816579131 C35.45385511316181,17.53709876307284 36.252376191615866,16.54626960546671 36.63083688211452,15.369247604698273 C35.652318660119384,15.947740882967667 34.572215103425705,16.367801270923067 33.421343782876704,16.59551334791067 C32.499753580128456,15.612368467107478 31.188880328452296,15 29.734902508252297,15 C26.94546979696987,15 24.683757812515438,17.261711984454443 24.683757812515438,20.049615886739428 C24.683757812515438,20.445014171657125 24.728374896151344,20.831199370774442 24.81455144542828,21.200487207288436 C20.61732703839493,20.989672492904152 16.89552199775072,18.978765647661852 14.404569127311236,15.923119011745685 C13.969140185749957,16.66780992076345 13.721432896348425,17.535529722259678 13.721432896348425,18.461786815631694 C13.721432896348425,20.214244476674633 14.613814800882354,21.76051408214134 15.967776327196985,22.665166690470542 C15.140006718712895,22.637487201253677 14.361480852672768,22.40977512426607 13.679913662523123,22.031274201951693 L13.679913662523123,22.09435768900409 C13.679913662523123,24.540693475807668 15.421589196952514,26.58237766007744 17.73097588303775,27.047055131668756 C17.30785787708746,27.160911170162557 16.861687040728356,27.223994657214956 16.400107418947655,27.223994657214956 C16.07394808888785,27.223994657214956 15.758530653625867,27.191688509190037 15.449268686169383,27.13013383113508 C16.09237426048861,29.137983058382495 17.95715915102791,30.598076114572272 20.1665697750435,30.638106771215853 C18.43873398522254,31.992068297530487 16.260100700234428,32.79674484379004 13.893785994902291,32.79674484379004 C13.486076774373604,32.79674484379004 13.08448278983469,32.772122972568056 12.689084504916991,32.72750588893214 C14.924645809152004,34.16301730571567 17.578698460529253,35.000000000000135 20.43121465886407,35.000000000000135 C29.722672036272748,35.000000000000135 34.801536453042196,27.304015738686395 34.801536453042196,20.629678205821985 L34.784598858623156,19.975790504889208 C35.77695682522673,19.26799217088869 36.63546354092257,18.378708116165367 37.31091549508245,17.36631470533214Z"/>
  </defs>
  <g opacity="1">
    <g opacity="1">
      <use xlink:href="#ellipse-0" fill="rgb(255,255,255)" fill-opacity="1"/>
    </g>
    <g opacity="1">
      <g opacity="1">
        <use xlink:href="#path-1" fill="rgb(45,69,94)" fill-opacity="1"/>
      </g>
    </g>
  </g>
</svg>