<svg width="82" height="82" viewBox="0 0 82 82" fill="none" xmlns="http://www.w3.org/2000/svg">
<circle opacity="0.3" cx="41" cy="41" r="41" fill="#F59531"/>
<path d="M16.9441 4.60516L64.8274 4.89971L64.3856 76.7247L16.5023 76.4301L16.9441 4.60516Z" fill="#FFEB99"/>
<path d="M49.1696 20.366C49.1636 21.5547 48.9041 22.7285 48.4085 23.809C47.9128 24.8894 47.1925 25.8518 46.2954 26.6318C46.3245 26.4005 46.3399 26.1678 46.3416 25.9347C46.3507 24.4533 45.7709 23.0289 44.7298 21.9749C43.6887 20.9209 42.2715 20.3236 40.7901 20.3145C39.3086 20.3054 37.8842 20.8851 36.8302 21.9263C35.7762 22.9674 35.1789 24.3845 35.1698 25.866C35.1687 26.0991 35.1812 26.332 35.2074 26.5636C34.1632 25.6307 33.3694 24.4511 32.8985 23.1325C32.4276 21.8138 32.2946 20.3982 32.5117 19.015C32.7288 17.6317 33.289 16.3249 34.1413 15.2139C34.9935 14.1029 36.1106 13.2232 37.3904 12.6551C38.6701 12.0871 40.0719 11.8487 41.4675 11.9619C42.8631 12.0751 44.2081 12.5362 45.3796 13.3031C46.5512 14.07 47.5118 15.1182 48.1739 16.352C48.836 17.5858 49.1783 18.9659 49.1696 20.366V20.366Z" fill="#FF9811"/>
<path d="M40.79 20.3145C42.3327 20.324 43.5909 19.0811 43.6004 17.5384C43.6099 15.9958 42.367 14.7375 40.8244 14.728C39.2817 14.7185 38.0234 15.9614 38.0139 17.5041C38.0045 19.0467 39.2473 20.305 40.79 20.3145Z" fill="#E0E0E2"/>
<path d="M46.3415 25.9348C46.3398 26.1678 46.3244 26.4006 46.2953 26.6318C44.7561 27.9732 42.7801 28.7064 40.7384 28.6938C38.6968 28.6813 36.73 27.9238 35.2073 26.5636C35.1811 26.332 35.1686 26.0991 35.1697 25.866C35.1789 24.3846 35.7761 22.9674 36.8301 21.9263C37.8841 20.8852 39.3085 20.3054 40.79 20.3145C42.2715 20.3236 43.6886 20.9209 44.7297 21.9749C45.7709 23.0289 46.3506 24.4533 46.3415 25.9348V25.9348Z" fill="#E0E0E2"/>
<path d="M21.5483 34.5616L26.3367 34.5911L26.3072 39.3794L21.5189 39.35L21.5483 34.5616Z" fill="#91CC04"/>
<path d="M21.4894 44.1383L26.2777 44.1678L26.2483 48.9561L21.4599 48.9266L21.4894 44.1383Z" fill="#91CC04"/>
<path d="M21.4305 53.715L26.2189 53.7444L26.1894 58.5328L21.4011 58.5033L21.4305 53.715Z" fill="#91CC04"/>
<path d="M64.8348 3.7026L16.9515 3.40806C16.634 3.40611 16.3287 3.53035 16.1029 3.75347C15.877 3.97659 15.749 4.28029 15.747 4.59778L15.3052 76.4227C15.3033 76.7402 15.4275 77.0455 15.6506 77.2714C15.8737 77.4972 16.1775 77.6252 16.4949 77.6272L64.3782 77.9217C64.6957 77.9237 65.001 77.7994 65.2269 77.5763C65.4527 77.3532 65.5807 77.0495 65.5827 76.732L66.0245 4.90705C66.0264 4.58956 65.9022 4.2843 65.6791 4.05843C65.456 3.83255 65.1523 3.70455 64.8348 3.7026ZM63.1959 75.5202L17.7067 75.2404L18.1338 5.80959L63.623 6.0894L63.1959 75.5202Z" fill="black"/>
<path d="M34.3394 27.3859C34.3902 27.4395 34.4458 27.4883 34.5056 27.5316C36.2297 29.039 38.4383 29.8764 40.7285 29.8911C43.0186 29.9059 45.2378 29.097 46.9812 27.612C47.046 27.5668 47.1062 27.5153 47.1608 27.4583C48.6068 26.1701 49.6282 24.4739 50.0904 22.5933C50.5526 20.7127 50.4338 18.7362 49.7497 16.9245C49.0656 15.1128 47.8483 13.5511 46.2585 12.4454C44.6687 11.3396 42.781 10.7419 40.8444 10.7309C38.9079 10.72 37.0136 11.2964 35.4114 12.3841C33.8091 13.4718 32.5743 15.0196 31.8698 16.8235C31.1652 18.6273 31.0241 20.6024 31.465 22.4881C31.9059 24.3737 32.9081 26.0815 34.3394 27.3859V27.3859ZM36.3683 25.9693C36.3678 25.9376 36.3657 25.9054 36.3659 25.8738C36.3731 24.7097 36.8424 23.5961 37.6706 22.7781C38.4988 21.96 39.6181 21.5044 40.7822 21.5116C41.9463 21.5187 43.0598 21.988 43.8779 22.8162C44.696 23.6445 45.1516 24.7637 45.1444 25.9278C45.1442 25.9594 45.1418 25.9916 45.1408 26.0233C43.8796 26.9883 42.3334 27.5067 40.7453 27.497C39.1573 27.4872 37.6176 26.9498 36.3683 25.9693V25.9693ZM39.2105 17.5114C39.2125 17.1958 39.308 16.8878 39.485 16.6264C39.6619 16.365 39.9124 16.1619 40.2048 16.0429C40.4972 15.9239 40.8183 15.8942 41.1275 15.9576C41.4367 16.0211 41.7202 16.1748 41.9421 16.3993C42.164 16.6239 42.3143 16.9091 42.374 17.2191C42.4338 17.5291 42.4003 17.8498 42.2778 18.1407C42.1553 18.4317 41.9492 18.6797 41.6858 18.8536C41.4223 19.0274 41.1132 19.1192 40.7975 19.1174C40.3743 19.1143 39.9696 18.9435 39.6722 18.6424C39.3748 18.3414 39.209 17.9346 39.2111 17.5114L39.2105 17.5114ZM40.8343 13.132C42.0662 13.1387 43.2755 13.4623 44.3461 14.0718C45.4167 14.6812 46.3124 15.5559 46.947 16.6117C47.5816 17.6675 47.9338 18.8689 47.9697 20.1002C48.0056 21.3316 47.724 22.5514 47.152 23.6424C46.5883 22.0584 45.4594 20.7384 43.9821 19.9358C44.4313 19.3459 44.7072 18.6425 44.779 17.9045C44.8508 17.1665 44.7155 16.4232 44.3884 15.7578C44.0613 15.0924 43.5552 14.5313 42.927 14.1374C42.2988 13.7435 41.5733 13.5325 40.8319 13.5279C40.0904 13.5234 39.3624 13.7255 38.7294 14.1116C38.0964 14.4977 37.5835 15.0525 37.2482 15.7138C36.9129 16.3752 36.7685 17.1168 36.8312 17.8556C36.8939 18.5944 37.1612 19.3012 37.6031 19.8965C36.116 20.6809 34.9709 21.987 34.3878 23.5639C33.8292 22.466 33.5626 21.2427 33.6137 20.0119C33.6647 18.7811 34.0317 17.5842 34.6793 16.5362C35.3269 15.4883 36.2332 14.6247 37.3112 14.0285C38.3892 13.4323 39.6025 13.1235 40.8343 13.132V13.132Z" fill="black"/>
<path d="M21.5115 40.5471L26.2999 40.5766C26.6174 40.5785 26.9226 40.4543 27.1485 40.2311C27.3744 40.008 27.5024 39.7043 27.5043 39.3868L27.5338 34.5985C27.5357 34.281 27.4115 33.9758 27.1884 33.7499C26.9653 33.524 26.6615 33.396 26.3441 33.3941L21.5557 33.3646C21.2382 33.3626 20.933 33.4869 20.7071 33.71C20.4812 33.9331 20.3532 34.2368 20.3513 34.5543L20.3218 39.3427C20.3199 39.6601 20.4441 39.9654 20.6672 40.1913C20.8904 40.4172 21.1941 40.5451 21.5115 40.5471ZM22.7381 35.7661L25.1322 35.7809L25.1175 38.175L22.7234 38.1603L22.7381 35.7661Z" fill="black"/>
<path d="M29.9206 35.8103L59.8477 35.9944C60.1652 35.9963 60.4704 35.8721 60.6963 35.649C60.9222 35.4258 61.0502 35.1221 61.0521 34.8047C61.0541 34.4872 60.9298 34.1819 60.7067 33.956C60.4836 33.7302 60.1799 33.6022 59.8624 33.6002L29.9354 33.4161C29.6179 33.4142 29.3126 33.5384 29.0867 33.7615C28.8609 33.9846 28.7329 34.2883 28.7309 34.6058C28.729 34.9233 28.8532 35.2286 29.0763 35.4545C29.2994 35.6803 29.6032 35.8083 29.9206 35.8103Z" fill="black"/>
<path d="M29.8911 40.5986L50.2415 40.7238C50.559 40.7257 50.8642 40.6015 51.0901 40.3784C51.316 40.1553 51.444 39.8516 51.4459 39.5341C51.4479 39.2166 51.3236 38.9113 51.1005 38.6854C50.8774 38.4596 50.5737 38.3316 50.2562 38.3296L29.9058 38.2044C29.5883 38.2025 29.2831 38.3267 29.0572 38.5499C28.8313 38.773 28.7033 39.0767 28.7014 39.3942C28.6994 39.7117 28.8237 40.0169 29.0468 40.2428C29.2699 40.4687 29.5736 40.5967 29.8911 40.5986Z" fill="black"/>
<path d="M53.8475 38.3517C53.53 38.3498 53.2247 38.474 52.9989 38.6971C52.773 38.9203 52.645 39.224 52.643 39.5414C52.6411 39.8589 52.7653 40.1642 52.9884 40.3901C53.2116 40.6159 53.5153 40.7439 53.8327 40.7459L55.0298 40.7533C55.3473 40.7552 55.6526 40.631 55.8785 40.4078C56.1043 40.1847 56.2323 39.881 56.2343 39.5635C56.2362 39.246 56.112 38.9408 55.8889 38.7149C55.6657 38.489 55.362 38.361 55.0446 38.3591L53.8475 38.3517Z" fill="black"/>
<path d="M21.4527 50.1238L26.241 50.1532C26.5585 50.1552 26.8638 50.0309 27.0897 49.8078C27.3155 49.5847 27.4435 49.281 27.4455 48.9635L27.4749 44.1752C27.4769 43.8577 27.3526 43.5524 27.1295 43.3265C26.9064 43.1007 26.6027 42.9727 26.2852 42.9707L21.4969 42.9413C21.1794 42.9393 20.8741 43.0636 20.6483 43.2867C20.4224 43.5098 20.2944 43.8135 20.2924 44.131L20.263 48.9193C20.261 49.2368 20.3853 49.5421 20.6084 49.7679C20.8315 49.9938 21.1352 50.1218 21.4527 50.1238ZM22.6792 45.3428L25.0734 45.3575L25.0587 47.7517L22.6645 47.737L22.6792 45.3428Z" fill="black"/>
<path d="M29.8617 45.3869L59.7887 45.571C60.1062 45.573 60.4115 45.4487 60.6374 45.2256C60.8632 45.0025 60.9912 44.6988 60.9932 44.3813C60.9951 44.0638 60.8709 43.7586 60.6478 43.5327C60.4247 43.3068 60.121 43.1788 59.8035 43.1769L29.8764 42.9928C29.5589 42.9908 29.2537 43.1151 29.0278 43.3382C28.8019 43.5613 28.6739 43.865 28.672 44.1825C28.67 44.5 28.7943 44.8052 29.0174 45.0311C29.2405 45.257 29.5442 45.385 29.8617 45.3869Z" fill="black"/>
<path d="M29.8323 50.1753L50.1827 50.3005C50.5001 50.3024 50.8054 50.1782 51.0313 49.955C51.2572 49.7319 51.3852 49.4282 51.3871 49.1107C51.3891 48.7932 51.2648 48.488 51.0417 48.2621C50.8186 48.0362 50.5149 47.9082 50.1974 47.9063L29.847 47.7811C29.5295 47.7792 29.2242 47.9034 28.9984 48.1265C28.7725 48.3496 28.6445 48.6533 28.6425 48.9708C28.6406 49.2883 28.7648 49.5936 28.9879 49.8194C29.2111 50.0453 29.5148 50.1733 29.8323 50.1753Z" fill="black"/>
<path d="M53.7886 47.9284C53.4711 47.9264 53.1659 48.0507 52.94 48.2738C52.7141 48.4969 52.5861 48.8006 52.5842 49.1181C52.5822 49.4356 52.7065 49.7408 52.9296 49.9667C53.1527 50.1926 53.4564 50.3206 53.7739 50.3225L54.971 50.3299C55.2885 50.3319 55.5937 50.2076 55.8196 49.9845C56.0455 49.7614 56.1735 49.4577 56.1754 49.1402C56.1774 48.8227 56.0531 48.5174 55.83 48.2916C55.6069 48.0657 55.3032 47.9377 54.9857 47.9357L53.7886 47.9284Z" fill="black"/>
<path d="M21.3937 59.7004L26.1821 59.7299C26.4996 59.7318 26.8048 59.6076 27.0307 59.3845C27.2566 59.1613 27.3846 58.8576 27.3865 58.5402L27.416 53.7518C27.4179 53.4343 27.2937 53.1291 27.0706 52.9032C26.8475 52.6773 26.5437 52.5493 26.2263 52.5474L21.4379 52.5179C21.1204 52.516 20.8152 52.6402 20.5893 52.8633C20.3634 53.0864 20.2354 53.3902 20.2335 53.7076L20.204 58.496C20.2021 58.8135 20.3263 59.1187 20.5494 59.3446C20.7726 59.5705 21.0763 59.6985 21.3937 59.7004ZM22.6203 54.9195L25.0144 54.9342L24.9997 57.3283L22.6056 57.3136L22.6203 54.9195Z" fill="black"/>
<path d="M29.8027 54.9636L59.7298 55.1477C60.0473 55.1496 60.3525 55.0254 60.5784 54.8023C60.8043 54.5792 60.9323 54.2755 60.9342 53.958C60.9362 53.6405 60.8119 53.3352 60.5888 53.1093C60.3657 52.8835 60.062 52.7555 59.7445 52.7535L29.8174 52.5694C29.5 52.5675 29.1947 52.6917 28.9688 52.9148C28.7429 53.138 28.615 53.4417 28.613 53.7592C28.611 54.0766 28.7353 54.3819 28.9584 54.6078C29.1815 54.8337 29.4852 54.9616 29.8027 54.9636Z" fill="black"/>
<path d="M29.7733 59.7519L50.1237 59.8771C50.4412 59.8791 50.7464 59.7548 50.9723 59.5317C51.1982 59.3086 51.3262 59.0049 51.3281 58.6874C51.3301 58.3699 51.2058 58.0646 50.9827 57.8388C50.7596 57.6129 50.4559 57.4849 50.1384 57.4829L29.788 57.3578C29.4705 57.3558 29.1653 57.4801 28.9394 57.7032C28.7135 57.9263 28.5855 58.23 28.5836 58.5475C28.5816 58.865 28.7059 59.1702 28.929 59.3961C29.1521 59.622 29.4558 59.75 29.7733 59.7519Z" fill="black"/>
<path d="M54.9268 57.5124L53.7297 57.505C53.4122 57.5031 53.1069 57.6273 52.8811 57.8505C52.6552 58.0736 52.5272 58.3773 52.5252 58.6948C52.5233 59.0122 52.6475 59.3175 52.8706 59.5434C53.0938 59.7693 53.3975 59.8973 53.7149 59.8992L54.912 59.9066C55.2295 59.9085 55.5348 59.7843 55.7607 59.5612C55.9865 59.338 56.1145 59.0343 56.1165 58.7169C56.1184 58.3994 55.9942 58.0941 55.7711 57.8682C55.5479 57.6424 55.2442 57.5144 54.9268 57.5124Z" fill="black"/>
</svg>
