<svg width="89" height="89" viewBox="0 0 89 89" fill="none" xmlns="http://www.w3.org/2000/svg">
<g clip-path="url(#clip0)">
<path d="M42.9991 87.1304C66.5114 88.0248 86.297 69.6894 87.1914 46.1771C88.0859 22.6648 69.7505 2.87924 46.2382 1.98479C22.7259 1.09033 2.94031 19.4257 2.04585 42.938C1.1514 66.4503 19.4868 86.2359 42.9991 87.1304Z" fill="#FF583E"/>
<path d="M87.1914 46.1771C87.3348 42.4083 86.9817 38.7359 86.1948 35.221L68.7284 16.3731L20.5436 71.8302L33.3543 85.6541C36.4387 86.4966 39.6668 87.0036 42.9991 87.1304C66.5114 88.0248 86.297 69.6895 87.1914 46.1771Z" fill="#E82E21"/>
<path d="M68.7282 16.3731L22.7198 14.6229L20.5436 71.8302L66.552 73.5805L68.7282 16.3731Z" fill="white"/>
<path d="M68.7284 16.3731L45.7084 15.4974L43.5321 72.7047L66.5522 73.5805L68.7284 16.3731Z" fill="#E9EDF5"/>
<path d="M43.8842 19.0033L25.7072 18.3118L25.1728 32.3577L43.3499 33.0492L43.8842 19.0033Z" fill="#CDD2E1"/>
<path d="M50.7697 55.2583L24.34 54.2529L23.8056 68.2987L50.2354 69.3042L50.7697 55.2583Z" fill="#CDD2E1"/>
<path d="M50.7696 55.2583L44.2052 55.0086L43.6709 69.0545L50.2352 69.3042L50.7696 55.2583Z" fill="#BEC3D2"/>
<path d="M64.6825 37.7911L37.2104 36.746L36.6761 50.7918L64.1482 51.8369L64.6825 37.7911Z" fill="#CDD2E1"/>
<path d="M64.6826 37.7911L44.8889 37.0381L44.3546 51.0839L64.1483 51.8369L64.6826 37.7911Z" fill="#BEC3D2"/>
<path d="M65.3687 19.7552L47.7527 19.085L47.5629 24.074L65.1789 24.7442L65.3687 19.7552Z" fill="#DCE1EB"/>
<path d="M65.0731 27.5259L47.4572 26.8557L47.2674 31.8447L64.8834 32.5149L65.0731 27.5259Z" fill="#DCE1EB"/>
<path d="M34.0877 37.2712L25.2797 36.9361L25.0899 41.9251L33.8979 42.2602L34.0877 37.2712Z" fill="#E9EDF5"/>
<path d="M33.7921 45.0419L24.984 44.7068L24.7942 49.6958L33.6023 50.0309L33.7921 45.0419Z" fill="#E9EDF5"/>
<path d="M64.0416 56.4072L53.7684 56.0164L53.5786 61.0054L63.8518 61.3962L64.0416 56.4072Z" fill="#DCE1EB"/>
<path d="M63.7461 64.1779L53.4729 63.7871L53.2831 68.7761L63.5563 69.1669L63.7461 64.1779Z" fill="#DCE1EB"/>
</g>
<defs>
<clipPath id="clip0">
<rect width="85.2072" height="85.2072" fill="white" transform="translate(3.66541 0.365234) rotate(2.17859)"/>
</clipPath>
</defs>
</svg>
