<svg width="87" height="86" viewBox="0 0 87 86" fill="none" xmlns="http://www.w3.org/2000/svg">
<circle opacity="0.3" cx="43" cy="43" r="43" fill="#343A40"/>
<g clip-path="url(#clip0)">
<path d="M77.1776 27.04L6.44349 27.04C5.64623 27.04 5 26.37 5 25.5437L5 7.58718C5 6.76075 5.64639 6.09088 6.44349 6.09088L77.1776 6.09088C77.9749 6.09088 78.6211 6.76092 78.6211 7.58718V25.5436C78.6213 26.37 77.9749 27.04 77.1776 27.04Z" fill="#E4EAF8"/>
<path d="M22.3226 27.04H6.44349C5.64623 27.04 5 26.37 5 25.5437L5 7.58718C5 6.76075 5.64639 6.09088 6.44349 6.09088L22.3226 6.09088C23.1199 6.09088 23.7661 6.76092 23.7661 7.58718V25.5436C23.7663 26.37 23.1199 27.04 22.3226 27.04Z" fill="#FF5050"/>
<path d="M54.0809 15.0689H29.5404C28.7425 15.0689 28.0969 14.3997 28.0969 13.5727C28.0969 12.7456 28.7425 12.0764 29.5404 12.0764H54.0808C54.8787 12.0764 55.5243 12.7456 55.5243 13.5727C55.5243 14.3997 54.8788 15.0689 54.0809 15.0689Z" fill="#707487"/>
<path d="M71.4036 21.0545H43.9761C43.1782 21.0545 42.5326 20.3853 42.5326 19.5582C42.5326 18.7311 43.1782 18.0619 43.9761 18.0619H71.4036C72.2015 18.0619 72.8471 18.7311 72.8471 19.5582C72.8471 20.3853 72.2015 21.0545 71.4036 21.0545Z" fill="#7F8499"/>
<path d="M38.2018 21.0545H29.5404C28.7425 21.0545 28.0969 20.3853 28.0969 19.5582C28.0969 18.7311 28.7425 18.0619 29.5404 18.0619H38.2018C38.9997 18.0619 39.6453 18.7311 39.6453 19.5582C39.6453 20.3853 38.9997 21.0545 38.2018 21.0545Z" fill="#7F8499"/>
<path d="M14.3831 19.5582C13.5852 19.5582 12.9396 18.889 12.9396 18.0619C12.9396 17.2348 13.5852 16.5656 14.3831 16.5656C15.5771 16.5656 16.5484 15.5587 16.5484 14.3211C16.5484 13.0834 15.5771 12.0766 14.3831 12.0766C13.1891 12.0766 12.2178 13.0834 12.2178 14.3211C12.2178 15.1482 11.5722 15.8174 10.7743 15.8174C9.9764 15.8174 9.33081 15.1482 9.33081 14.3211C9.33081 11.4334 11.5977 9.0838 14.3833 9.0838C17.1688 9.0838 19.4357 11.4336 19.4357 14.3211C19.4357 17.2086 17.1688 19.5582 14.3831 19.5582Z" fill="white"/>
<path d="M14.3972 24.0473C13.5993 24.0473 12.9467 23.3781 12.9467 22.551C12.9467 21.7239 13.5852 21.0547 14.3831 21.0547H14.3972C15.1951 21.0547 15.8407 21.7239 15.8407 22.551C15.8408 23.3781 15.1951 24.0473 14.3972 24.0473Z" fill="white"/>
<path d="M77.1776 53.9745H6.44349C5.64623 53.9745 5 53.3044 5 52.4782L5 34.5218C5 33.6954 5.64639 33.0255 6.44349 33.0255H77.1776C77.9749 33.0255 78.6211 33.6956 78.6211 34.5218V52.4782C78.6213 53.3046 77.9749 53.9745 77.1776 53.9745Z" fill="#E4EAF8"/>
<path d="M22.3226 53.9745H6.44349C5.64623 53.9745 5 53.3044 5 52.4782L5 34.5218C5 33.6954 5.64639 33.0255 6.44349 33.0255H22.3226C23.1199 33.0255 23.7661 33.6956 23.7661 34.5218V52.4782C23.7663 53.3046 23.1199 53.9745 22.3226 53.9745Z" fill="#FFDC64"/>
<path d="M54.0809 42.0036H29.5404C28.7425 42.0036 28.0969 41.3344 28.0969 40.5073C28.0969 39.6803 28.7425 39.011 29.5404 39.011H54.0808C54.8787 39.011 55.5243 39.6803 55.5243 40.5073C55.5244 41.3344 54.8788 42.0036 54.0809 42.0036Z" fill="#707487"/>
<path d="M38.2018 47.9892H29.5404C28.7425 47.9892 28.0969 47.32 28.0969 46.4929C28.0969 45.6658 28.7425 44.9966 29.5404 44.9966H38.2018C38.9997 44.9966 39.6453 45.6658 39.6453 46.4929C39.6453 47.3198 38.9997 47.9892 38.2018 47.9892Z" fill="#7F8499"/>
<path d="M14.3831 46.4927C13.5852 46.4927 12.9396 45.8234 12.9396 44.9964C12.9396 44.1693 13.5852 43.5001 14.3831 43.5001C15.5771 43.5001 16.5484 42.4932 16.5484 41.2555C16.5484 40.0179 15.5771 39.011 14.3831 39.011C13.1891 39.011 12.2178 40.0179 12.2178 41.2555C12.2178 42.0826 11.5722 42.7518 10.7743 42.7518C9.9764 42.7518 9.33081 42.0826 9.33081 41.2555C9.33081 38.368 11.5977 36.0182 14.3833 36.0182C17.1688 36.0182 19.4357 38.368 19.4357 41.2555C19.4357 44.143 17.1688 46.4927 14.3831 46.4927Z" fill="white"/>
<path d="M14.3972 50.9819C13.5993 50.9819 12.9467 50.3127 12.9467 49.4856C12.9467 48.6585 13.5852 47.9893 14.3831 47.9893H14.3972C15.1951 47.9893 15.8407 48.6585 15.8407 49.4856C15.8407 50.3127 15.1951 50.9819 14.3972 50.9819Z" fill="white"/>
<path d="M77.1777 80.9092H6.44349C5.64639 80.9092 5 80.2391 5 79.4129L5 61.4565C5 60.6301 5.64639 59.9602 6.44349 59.9602H77.1777C77.9749 59.9602 78.6211 60.6302 78.6211 61.4565V79.4129C78.6213 80.2391 77.9749 80.9092 77.1777 80.9092Z" fill="#E4EAF8"/>
<path d="M22.3226 80.9092H6.44349C5.64639 80.9092 5 80.2391 5 79.4129L5 61.4565C5 60.6301 5.64639 59.9602 6.44349 59.9602H22.3226C23.1199 59.9602 23.7661 60.6302 23.7661 61.4565V79.4129C23.7663 80.2391 23.1199 80.9092 22.3226 80.9092Z" fill="#7DF5A5"/>
<path d="M54.0809 68.9383H29.5404C28.7425 68.9383 28.0969 68.2691 28.0969 67.442C28.0969 66.6149 28.7425 65.9457 29.5404 65.9457H54.0808C54.8787 65.9457 55.5243 66.6149 55.5243 67.442C55.5243 68.2691 54.8788 68.9383 54.0809 68.9383Z" fill="#707487"/>
<path d="M38.2018 74.9236H29.5404C28.7425 74.9236 28.0969 74.2544 28.0969 73.4273C28.0969 72.6002 28.7425 71.931 29.5404 71.931H38.2018C38.9997 71.931 39.6453 72.6002 39.6453 73.4273C39.6453 74.2544 38.9997 74.9236 38.2018 74.9236Z" fill="#7F8499"/>
<path d="M14.3831 73.4273C13.5852 73.4273 12.9396 72.7581 12.9396 71.931C12.9396 71.1039 13.5852 70.4347 14.3831 70.4347C15.5771 70.4347 16.5484 69.4278 16.5484 68.1902C16.5484 66.9525 15.5771 65.9456 14.3831 65.9456C13.1891 65.9456 12.2178 66.9525 12.2178 68.1902C12.2178 69.0173 11.5722 69.6865 10.7743 69.6865C9.9764 69.6865 9.33081 69.0173 9.33081 68.1902C9.33081 65.3025 11.5977 62.9529 14.3833 62.9529C17.1688 62.9529 19.4357 65.3027 19.4357 68.1902C19.4357 71.0777 17.1688 73.4273 14.3831 73.4273Z" fill="white"/>
<path d="M14.3972 77.9164C13.5993 77.9164 12.9467 77.2471 12.9467 76.4201C12.9467 75.593 13.5852 74.9238 14.3831 74.9238H14.3972C15.1951 74.9238 15.8407 75.593 15.8407 76.4201C15.8408 77.2471 15.1951 77.9164 14.3972 77.9164Z" fill="white"/>
<path d="M77.1777 59.96H69.96V68.8369C69.96 70.9004 71.5798 72.579 73.5708 72.579C74.273 72.579 74.9562 72.367 75.5467 71.9661L76.1258 71.5725L78.6213 77.8176V61.4563C78.6213 60.6299 77.975 59.96 77.1777 59.96Z" fill="#D5DCED"/>
<path d="M76.1218 47.5899C75.4392 46.8823 74.5348 46.4927 73.575 46.4927C71.5822 46.4927 69.9609 48.1716 69.9609 50.2352V53.9746H77.1787C77.9759 53.9746 78.6222 53.3046 78.6222 52.4784V50.182L76.1218 47.5899Z" fill="#D5DCED"/>
<path d="M72.847 50.2352V68.8369C72.847 69.4319 73.4843 69.7888 73.9646 69.4626L77.4591 67.0886L81.9349 78.2898C82.24 79.0533 83.0845 79.4159 83.8209 79.0998L86.0093 78.1601C86.7459 77.8439 87.0956 76.9685 86.7907 76.205L82.3148 65.0037L86.4209 64.1423C86.9851 64.0239 87.1953 63.3019 86.7881 62.8799L74.0794 49.7063C73.6246 49.2346 72.847 49.5685 72.847 50.2352Z" fill="#464655"/>
<path d="M68.5165 47.9892H43.9761C43.1788 47.9892 42.5326 47.3191 42.5326 46.4929C42.5326 45.6665 43.179 44.9966 43.9761 44.9966H68.5165C69.3137 44.9966 69.9599 45.6666 69.9599 46.4929C69.9599 47.3191 69.3137 47.9892 68.5165 47.9892Z" fill="#7F8499"/>
<path d="M68.5164 74.9237H43.9761C43.1788 74.9237 42.5326 74.2536 42.5326 73.4274C42.5326 72.601 43.179 71.9311 43.9761 71.9311H68.5164C69.3137 71.9311 69.9599 72.6011 69.9599 73.4274C69.9599 74.2538 69.3137 74.9237 68.5164 74.9237Z" fill="#7F8499"/>
</g>
<defs>
<clipPath id="clip0">
<rect width="82" height="85" fill="white" transform="translate(5 1)"/>
</clipPath>
</defs>
</svg>
