<svg width="88" height="81" viewBox="0 0 88 81" fill="none" xmlns="http://www.w3.org/2000/svg">
<circle opacity="0.3" cx="48.5" cy="41.5" r="39.5" fill="#96C268"/>
<path d="M27.1283 55.1837L9.49647 72.3576C7.88278 73.9294 5.26659 73.9294 3.6529 72.3576C2.0392 70.7858 2.0392 68.2376 3.6529 66.6658L21.2847 49.4919L27.1283 55.1837Z" fill="#58BFFF"/>
<path d="M68.8941 34.7175V35.8923C68.8941 38.4877 66.7341 40.5917 64.0694 40.5917C61.4048 40.5917 59.2448 38.4877 59.2448 35.8923V34.7175C59.2448 32.1221 61.4048 30.0181 64.0694 30.0181C66.7341 30.0181 68.8941 32.1221 68.8941 34.7175Z" fill="#FFCDAC"/>
<path d="M67.323 40.5917H60.8162C56.3022 40.5917 52.6431 44.1559 52.6431 48.5525V51.5018H75.4961V48.5525C75.4961 44.1558 71.8368 40.5917 67.323 40.5917Z" fill="#FFBC53"/>
<path d="M8.10596 34.7175V35.8923C8.10596 38.4877 10.266 40.5917 12.9306 40.5917C15.5953 40.5917 17.7553 38.4877 17.7553 35.8923V34.7175C17.7553 32.1221 15.5953 30.0181 12.9306 30.0181C10.266 30.0181 8.10596 32.1221 8.10596 34.7175Z" fill="#FFCDAC"/>
<path d="M9.67704 40.5917H16.1838C20.6978 40.5917 24.357 44.1559 24.357 48.5525V51.5018H1.50391V48.5525C1.50391 44.1558 5.16321 40.5917 9.67704 40.5917Z" fill="#95E540"/>
<path d="M38.5 57.4629C49.9621 57.4629 59.2539 48.4124 59.2539 37.2481C59.2539 26.0837 49.9621 17.0332 38.5 17.0332C27.0379 17.0332 17.7461 26.0837 17.7461 37.2481C17.7461 48.4124 27.0379 57.4629 38.5 57.4629Z" fill="#A5DDFF"/>
<path d="M38.5 51.5991C46.6372 51.5991 53.2338 45.1739 53.2338 37.248C53.2338 29.3222 46.6372 22.897 38.5 22.897C30.3628 22.897 23.7662 29.3222 23.7662 37.248C23.7662 45.1739 30.3628 51.5991 38.5 51.5991Z" fill="white"/>
<path d="M43.1731 35.4092V36.5471C43.1731 39.061 41.0808 41.0988 38.5 41.0988C35.9191 41.0988 33.8269 39.061 33.8269 36.5471V35.4092C33.8269 32.8954 35.9191 30.8575 38.5 30.8575C41.0808 30.8574 43.1731 32.8953 43.1731 35.4092Z" fill="#FFCDAC"/>
<path d="M38.5001 41.0988C33.9383 41.0988 30.041 43.859 28.4651 47.7571C31.0965 50.1419 34.6224 51.6028 38.5001 51.6028C42.3779 51.6028 45.9036 50.1419 48.535 47.7571C46.9591 43.859 43.0618 41.0988 38.5001 41.0988Z" fill="#FE6663"/>
<path d="M69.3202 39.3297C70.0005 38.3471 70.3982 37.1641 70.3982 35.8923V34.7174C70.3982 31.3185 67.5591 28.5532 64.0696 28.5532C62.3285 28.5532 60.7494 29.2418 59.604 30.3539C56.6404 21.7689 48.2999 15.5676 38.5 15.5676C28.7001 15.5676 20.3596 21.7688 17.396 30.3539C16.2506 29.2418 14.6717 28.5532 12.9304 28.5532C9.44092 28.5532 6.60185 31.3185 6.60185 34.7174V35.8923C6.60185 37.1641 6.99948 38.3471 7.67985 39.3297C3.29912 40.2289 0 44.0221 0 48.5525V51.5019C0 52.3107 0.673449 52.9667 1.50391 52.9667H9.32422C10.1547 52.9667 10.8281 52.3107 10.8281 51.5019C10.8281 50.693 10.1547 50.037 9.32422 50.037H3.00781V48.5525C3.00781 44.9706 5.99968 42.0564 9.67719 42.0564H16.795C17.3722 44.5292 18.3839 46.8431 19.7488 48.9164L2.58943 65.6301C0.392219 67.7704 0.392219 71.2531 2.58958 73.3935C3.68833 74.4637 5.13133 74.9987 6.57463 74.9987C8.01793 74.9987 9.46123 74.4636 10.56 73.3935L20.02 64.1791C20.6073 63.607 20.6073 62.6795 20.02 62.1073C19.4326 61.5354 18.4806 61.5354 17.893 62.1073L8.43315 71.3218C7.40824 72.3199 5.74101 72.3198 4.71625 71.3219C3.69164 70.3238 3.69164 68.6997 4.71625 67.7016L21.5611 51.2944C25.6467 55.9617 31.7242 58.927 38.5 58.927C49.0767 58.927 57.953 51.7039 60.205 42.0564H67.3228C71.0003 42.0564 73.9922 44.9706 73.9922 48.5525V50.037H59.8555C59.025 50.037 58.3516 50.693 58.3516 51.5019C58.3516 52.3107 59.025 52.9667 59.8555 52.9667H75.4961C76.3266 52.9667 77 52.3107 77 51.5019V48.5525C77 44.0221 73.7009 40.2289 69.3202 39.3297ZM60.7486 34.7175C60.7486 32.9339 62.2383 31.483 64.0694 31.483C65.9006 31.483 67.3902 32.9339 67.3902 34.7175V35.8925C67.3902 37.6759 65.9006 39.1269 64.0694 39.1269C62.2383 39.1269 60.7486 37.6759 60.7486 35.8925V34.7175ZM9.60966 34.7175C9.60966 32.9339 11.0993 31.483 12.9304 31.483C14.7616 31.483 16.2512 32.9339 16.2512 34.7175V35.8925C16.2512 37.6759 14.7616 39.1269 12.9304 39.1269C11.0993 39.1269 9.60966 37.6759 9.60966 35.8925C9.60966 35.8925 9.60966 34.7175 9.60966 34.7175ZM38.5 55.9973C27.8856 55.9973 19.25 47.586 19.25 37.2473C19.25 26.9086 27.8856 18.4973 38.5 18.4973C49.1144 18.4973 57.75 26.9086 57.75 37.2473C57.75 47.586 49.1144 55.9973 38.5 55.9973Z" fill="black"/>
<path d="M38.5 21.427C29.5439 21.427 22.2578 28.5239 22.2578 37.2473C22.2578 41.7751 24.2213 45.8643 27.3618 48.7507C27.4155 48.8073 27.4731 48.8606 27.5362 48.9089C30.4276 51.4901 34.2781 53.0676 38.5 53.0676C42.7219 53.0676 46.5724 51.49 49.4638 48.9089C49.5269 48.8607 49.5845 48.8073 49.6382 48.7507C52.7787 45.8643 54.7422 41.7751 54.7422 37.2473C54.7422 28.524 47.4561 21.427 38.5 21.427ZM30.3042 47.3615C31.9021 44.4166 35.0161 42.5637 38.5 42.5637C41.9839 42.5637 45.0979 44.4166 46.6958 47.3615C44.4403 49.0992 41.5925 50.1379 38.5 50.1379C35.4075 50.1379 32.5597 49.0992 30.3042 47.3615ZM35.3308 36.5471V35.4091C35.3308 33.7069 36.7525 32.3222 38.5 32.3222C40.2475 32.3222 41.6692 33.7069 41.6692 35.4091V36.5471C41.6692 38.2493 40.2475 39.634 38.5 39.634C36.7525 39.634 35.3308 38.2493 35.3308 36.5471ZM48.8958 45.2159C47.518 43.0748 45.5014 41.4419 43.1412 40.5108C44.096 39.4513 44.677 38.0646 44.677 36.5473V35.4092C44.677 32.0918 41.9059 29.3927 38.5 29.3927C35.0941 29.3927 32.323 32.0918 32.323 35.4092V36.5473C32.323 38.0646 32.9038 39.4513 33.8588 40.5108C31.4986 41.442 29.4821 43.0748 28.1042 45.2159C26.3272 43.0213 25.2656 40.2529 25.2656 37.2473C25.2656 30.1395 31.2026 24.3567 38.5 24.3567C45.7974 24.3567 51.7344 30.1395 51.7344 37.2473C51.7344 40.2529 50.6728 43.0213 48.8958 45.2159Z" fill="black"/>
<path d="M22.9797 57.7601C22.5842 57.7601 22.1962 57.9169 21.9165 58.1893C21.6369 58.4618 21.4758 58.8397 21.4758 59.225C21.4758 59.6102 21.6367 59.9882 21.9165 60.2606C22.1962 60.5329 22.5842 60.6898 22.9797 60.6898C23.3753 60.6898 23.7633 60.5331 24.043 60.2606C24.3226 59.9882 24.4836 59.6102 24.4836 59.225C24.4836 58.8397 24.3227 58.4618 24.043 58.1893C23.7633 57.9169 23.3753 57.7601 22.9797 57.7601Z" fill="black"/>
<path d="M38.5305 7.91502C39.361 7.91502 40.0344 7.25906 40.0344 6.45017V1.46619C40.0344 0.6573 39.361 0.00134277 38.5305 0.00134277C37.7001 0.00134277 37.0266 0.6573 37.0266 1.46619V6.45017C37.0266 7.25921 37.7001 7.91502 38.5305 7.91502Z" fill="black"/>
<path d="M38.53 12.7455C38.9271 12.7455 39.3136 12.5887 39.5931 12.3161C39.8729 12.0438 40.0339 11.6659 40.0339 11.2806C40.0339 10.8954 39.873 10.5175 39.5931 10.245C39.3136 9.97253 38.9269 9.8158 38.53 9.8158C38.1344 9.8158 37.7465 9.97239 37.4668 10.245C37.187 10.5176 37.0261 10.8954 37.0261 11.2806C37.0261 11.6659 37.1869 12.0438 37.4668 12.3161C37.7465 12.5886 38.1344 12.7455 38.53 12.7455Z" fill="black"/>
<path d="M47.5734 10.8227C47.9584 10.8227 48.3431 10.6796 48.6368 10.3937L51.28 7.81906C51.8673 7.24703 51.8673 6.31949 51.28 5.74733C50.6926 5.17545 49.7406 5.17545 49.1531 5.74733L46.5098 8.32194C45.9225 8.89396 45.9225 9.8215 46.5098 10.3937C46.8037 10.6796 47.1884 10.8227 47.5734 10.8227Z" fill="black"/>
<path d="M28.3886 10.4113C28.6823 10.6973 29.0671 10.8404 29.452 10.8404C29.8368 10.8404 30.2217 10.6973 30.5154 10.4113C31.1027 9.83932 31.1027 8.91178 30.5154 8.33961L27.8467 5.74025C27.2593 5.16837 26.3073 5.16837 25.7198 5.74025C25.1325 6.31227 25.1325 7.23981 25.7198 7.81198L28.3886 10.4113Z" fill="black"/>
</svg>
