<svg width="82" height="82" fill="none" xmlns="http://www.w3.org/2000/svg"><circle opacity=".3" cx="41" cy="41" r="41" fill="#F59531"/><path d="M16.944 4.605l47.883.295-.441 71.825-47.884-.295.442-71.825z" fill="#FFEB99"/><path d="M49.17 20.366a8.36 8.36 0 01-2.875 6.266 5.586 5.586 0 10-11.088-.068 8.38 8.38 0 1113.963-6.198z" fill="#FF9811"/><path d="M40.79 20.314a2.793 2.793 0 10.034-5.586 2.793 2.793 0 00-.034 5.586z" fill="#E0E0E2"/><path d="M46.342 25.935a5.928 5.928 0 01-.047.697 8.38 8.38 0 01-11.088-.068 5.586 5.586 0 1111.134-.629z" fill="#E0E0E2"/><path d="M21.548 34.562l4.789.03-.03 4.787-4.788-.029.03-4.788zm-.058 9.576l4.788.03-.03 4.788-4.788-.03.03-4.788zm-.06 9.577l4.789.03-.03 4.788-4.788-.03.03-4.788z" fill="#91CC04"/><path d="M64.835 3.703l-47.883-.295a1.197 1.197 0 00-1.205 1.19l-.442 71.825a1.198 1.198 0 001.19 1.204l47.883.295a1.197 1.197 0 001.205-1.19l.442-71.825a1.197 1.197 0 00-1.19-1.204zm-1.64 71.817l-45.488-.28.427-69.43 45.489.28-.427 69.43z" fill="#000"/><path d="M34.34 27.386c.05.053.106.102.166.146a9.547 9.547 0 0012.475.08 1.2 1.2 0 00.18-.154 9.576 9.576 0 10-12.822-.072zm2.028-1.417l-.002-.095a4.39 4.39 0 018.778.054l-.003.095a7.161 7.161 0 01-8.773-.054zm2.843-8.458a1.597 1.597 0 113.191.02 1.597 1.597 0 01-3.19-.02h-.002zm1.623-4.379a7.177 7.177 0 016.318 10.51 6.82 6.82 0 00-3.17-3.706 3.99 3.99 0 10-6.379-.04 6.821 6.821 0 00-3.215 3.668 7.177 7.177 0 016.446-10.432zM21.512 40.547l4.788.03a1.197 1.197 0 001.204-1.19l.03-4.788a1.197 1.197 0 00-1.19-1.205l-4.788-.03a1.197 1.197 0 00-1.205 1.19l-.03 4.789a1.198 1.198 0 001.19 1.204zm1.226-4.78l2.394.014-.015 2.394-2.394-.015.015-2.394zm7.182.043l29.928.184a1.197 1.197 0 00.014-2.394l-29.927-.184a1.198 1.198 0 00-.014 2.394zm-.029 4.789l20.35.125a1.197 1.197 0 00.015-2.394l-20.35-.126a1.197 1.197 0 00-.015 2.395zm23.956-2.247a1.197 1.197 0 00-.014 2.394l1.197.007a1.197 1.197 0 00.015-2.394l-1.198-.007zM21.453 50.124l4.788.03a1.197 1.197 0 001.204-1.19l.03-4.789a1.197 1.197 0 00-1.19-1.204l-4.788-.03a1.197 1.197 0 00-1.205 1.19l-.029 4.788a1.197 1.197 0 001.19 1.205zm1.226-4.781l2.394.014-.014 2.395-2.395-.015.015-2.394zm7.183.044l29.927.184a1.197 1.197 0 10.014-2.394l-29.927-.184a1.197 1.197 0 10-.014 2.394zm-.03 4.788l20.35.126a1.197 1.197 0 00.015-2.395l-20.35-.125a1.197 1.197 0 00-.015 2.394zm23.957-2.247a1.197 1.197 0 10-.015 2.395l1.197.007a1.197 1.197 0 10.015-2.394l-1.197-.008zM21.394 59.7l4.788.03a1.197 1.197 0 001.205-1.19l.029-4.788a1.197 1.197 0 00-1.19-1.205l-4.788-.03a1.197 1.197 0 00-1.204 1.19l-.03 4.789a1.197 1.197 0 001.19 1.204zm1.226-4.78l2.394.014L25 57.328l-2.394-.014.014-2.395zm7.183.044l29.927.184a1.197 1.197 0 00.015-2.395l-29.928-.184a1.198 1.198 0 00-.014 2.395zm-.03 4.788l20.35.125a1.197 1.197 0 10.015-2.394l-20.35-.125a1.197 1.197 0 10-.015 2.394zm25.154-2.24l-1.197-.007a1.197 1.197 0 00-.015 2.394l1.197.008a1.198 1.198 0 00.015-2.395z" fill="#000"/></svg>