<svg width="89" height="89" fill="none" xmlns="http://www.w3.org/2000/svg"><g clip-path="url(#clip0)"><path d="M43 87.13c23.511.895 43.297-17.44 44.191-40.953.895-23.512-17.44-43.298-40.953-44.192C22.726 1.09 2.94 19.425 2.046 42.938 1.15 66.45 19.486 86.236 42.999 87.13z" fill="#FF583E"/><path d="M87.191 46.177a42.662 42.662 0 00-.996-10.956L68.728 16.373 20.544 71.83l12.81 13.824A42.733 42.733 0 0043 87.13c23.512.895 43.298-17.44 44.192-40.953z" fill="#E82E21"/><path d="M68.728 16.373l-46.008-1.75-2.176 57.207 46.008 1.75 2.176-57.207z" fill="#fff"/><path d="M68.728 16.373l-23.02-.876-2.176 57.208 23.02.876 2.176-57.208z" fill="#E9EDF5"/><path d="M43.884 19.003l-18.177-.691-.534 14.046 18.177.691.534-14.046zm6.886 36.255l-26.43-1.005-.534 14.046 26.43 1.005.534-14.046z" fill="#CDD2E1"/><path d="M50.77 55.258l-6.565-.25-.534 14.047 6.564.25.535-14.047z" fill="#BEC3D2"/><path d="M64.683 37.791L37.21 36.746l-.534 14.046 27.472 1.045.535-14.046z" fill="#CDD2E1"/><path d="M64.683 37.791l-19.794-.753-.534 14.046 19.793.753.535-14.046z" fill="#BEC3D2"/><path d="M65.369 19.755l-17.616-.67-.19 4.989 17.616.67.19-4.989zm-.296 7.771l-17.616-.67-.19 4.989 17.616.67.19-4.99z" fill="#DCE1EB"/><path d="M34.088 37.271l-8.808-.335-.19 4.99 8.808.334.19-4.989zm-.296 7.771l-8.808-.335-.19 4.989 8.808.335.19-4.99z" fill="#E9EDF5"/><path d="M64.042 56.407l-10.274-.39-.19 4.988 10.274.391.19-4.989zm-.296 7.771l-10.273-.39-.19 4.988 10.273.39.19-4.988z" fill="#DCE1EB"/></g><defs><clipPath id="clip0"><path fill="#fff" transform="rotate(2.179 -7.772 96.57)" d="M0 0h85.207v85.207H0z"/></clipPath></defs></svg>