<svg width="87" height="86" fill="none" xmlns="http://www.w3.org/2000/svg"><circle opacity=".3" cx="43" cy="43" r="43" fill="#343A40"/><g clip-path="url(#clip0)"><path d="M77.178 27.04H6.443C5.646 27.04 5 26.37 5 25.544V7.587c0-.826.646-1.496 1.443-1.496h70.735c.797 0 1.443.67 1.443 1.496v17.957c0 .826-.646 1.496-1.443 1.496z" fill="#E4EAF8"/><path d="M22.323 27.04H6.443C5.646 27.04 5 26.37 5 25.544V7.587c0-.826.646-1.496 1.443-1.496h15.88c.797 0 1.443.67 1.443 1.496v17.957c0 .826-.646 1.496-1.443 1.496z" fill="#FF5050"/><path d="M54.08 15.069H29.54c-.797 0-1.443-.67-1.443-1.496 0-.827.645-1.497 1.443-1.497h24.54c.799 0 1.444.67 1.444 1.497 0 .827-.645 1.496-1.443 1.496z" fill="#707487"/><path d="M71.404 21.055H43.976c-.798 0-1.443-.67-1.443-1.497 0-.827.645-1.496 1.443-1.496h27.428c.797 0 1.443.67 1.443 1.496 0 .827-.645 1.497-1.443 1.497zm-33.202 0H29.54c-.797 0-1.443-.67-1.443-1.497 0-.827.645-1.496 1.443-1.496h8.662c.798 0 1.443.67 1.443 1.496 0 .827-.645 1.497-1.443 1.497z" fill="#7F8499"/><path d="M14.383 19.558c-.798 0-1.443-.669-1.443-1.496s.645-1.496 1.443-1.496c1.194 0 2.165-1.007 2.165-2.245 0-1.238-.97-2.244-2.165-2.244-1.194 0-2.165 1.006-2.165 2.244 0 .827-.646 1.496-1.444 1.496-.798 0-1.443-.669-1.443-1.496 0-2.888 2.267-5.237 5.052-5.237 2.786 0 5.053 2.35 5.053 5.237 0 2.888-2.267 5.237-5.053 5.237zm.014 4.489c-.798 0-1.45-.669-1.45-1.496s.638-1.496 1.436-1.496h.014c.798 0 1.444.669 1.444 1.496s-.646 1.496-1.444 1.496z" fill="#fff"/><path d="M77.178 53.974H6.443c-.797 0-1.443-.67-1.443-1.496V34.522c0-.827.646-1.496 1.443-1.496h70.735c.797 0 1.443.67 1.443 1.496v17.956c0 .827-.646 1.496-1.443 1.496z" fill="#E4EAF8"/><path d="M22.323 53.974H6.443c-.797 0-1.443-.67-1.443-1.496V34.522c0-.827.646-1.496 1.443-1.496h15.88c.797 0 1.443.67 1.443 1.496v17.956c0 .827-.646 1.496-1.443 1.496z" fill="#FFDC64"/><path d="M54.08 42.004H29.54c-.797 0-1.443-.67-1.443-1.497 0-.827.645-1.496 1.443-1.496h24.54c.799 0 1.444.67 1.444 1.496 0 .827-.645 1.497-1.443 1.497z" fill="#707487"/><path d="M38.202 47.99H29.54c-.797 0-1.443-.67-1.443-1.497 0-.827.645-1.496 1.443-1.496h8.662c.798 0 1.443.669 1.443 1.496s-.645 1.496-1.443 1.496z" fill="#7F8499"/><path d="M14.383 46.493c-.798 0-1.443-.67-1.443-1.497 0-.827.645-1.496 1.443-1.496 1.194 0 2.165-1.007 2.165-2.245 0-1.237-.97-2.244-2.165-2.244-1.194 0-2.165 1.007-2.165 2.244 0 .828-.646 1.497-1.444 1.497-.798 0-1.443-.67-1.443-1.497 0-2.887 2.267-5.237 5.052-5.237 2.786 0 5.053 2.35 5.053 5.237 0 2.888-2.267 5.238-5.053 5.238zm.014 4.489c-.798 0-1.45-.67-1.45-1.496 0-.828.638-1.497 1.436-1.497h.014c.798 0 1.444.67 1.444 1.497 0 .827-.646 1.496-1.444 1.496z" fill="#fff"/><path d="M77.178 80.91H6.443C5.646 80.91 5 80.24 5 79.412V61.457c0-.827.646-1.497 1.443-1.497h70.735c.797 0 1.443.67 1.443 1.496v17.957c0 .826-.646 1.496-1.443 1.496z" fill="#E4EAF8"/><path d="M22.323 80.91H6.443C5.646 80.91 5 80.24 5 79.412V61.457c0-.827.646-1.497 1.443-1.497h15.88c.797 0 1.443.67 1.443 1.496v17.957c0 .826-.646 1.496-1.443 1.496z" fill="#7DF5A5"/><path d="M54.08 68.938H29.54c-.797 0-1.443-.669-1.443-1.496s.645-1.496 1.443-1.496h24.54c.799 0 1.444.669 1.444 1.496s-.645 1.496-1.443 1.496z" fill="#707487"/><path d="M38.202 74.924H29.54c-.797 0-1.443-.67-1.443-1.497 0-.827.645-1.496 1.443-1.496h8.662c.798 0 1.443.67 1.443 1.496 0 .827-.645 1.497-1.443 1.497z" fill="#7F8499"/><path d="M14.383 73.427c-.798 0-1.443-.669-1.443-1.496s.645-1.496 1.443-1.496c1.194 0 2.165-1.007 2.165-2.245 0-1.237-.97-2.244-2.165-2.244-1.194 0-2.165 1.007-2.165 2.244 0 .827-.646 1.496-1.444 1.496-.798 0-1.443-.669-1.443-1.496 0-2.888 2.267-5.237 5.052-5.237 2.786 0 5.053 2.35 5.053 5.237 0 2.888-2.267 5.237-5.053 5.237zm.014 4.489c-.798 0-1.45-.669-1.45-1.496s.638-1.496 1.436-1.496h.014c.798 0 1.444.669 1.444 1.496s-.646 1.496-1.444 1.496z" fill="#fff"/><path d="M77.178 59.96H69.96v8.877c0 2.063 1.62 3.742 3.61 3.742a3.51 3.51 0 001.977-.613l.579-.393 2.495 6.245V61.456c0-.826-.646-1.496-1.443-1.496zm-1.056-12.37a3.517 3.517 0 00-2.547-1.097c-1.993 0-3.614 1.679-3.614 3.742v3.74h7.218c.797 0 1.443-.67 1.443-1.497v-2.296l-2.5-2.592z" fill="#D5DCED"/><path d="M72.847 50.235v18.602c0 .595.637.952 1.118.626l3.494-2.374 4.476 11.2c.305.764 1.15 1.127 1.886.81l2.188-.939c.737-.316 1.087-1.191.782-1.955l-4.476-11.201 4.106-.862c.564-.118.774-.84.367-1.262L74.08 49.706c-.454-.471-1.232-.138-1.232.53z" fill="#464655"/><path d="M68.516 47.99h-24.54c-.797 0-1.443-.67-1.443-1.497 0-.827.646-1.496 1.443-1.496h24.54c.798 0 1.444.67 1.444 1.496s-.646 1.496-1.444 1.496zm0 26.934h-24.54c-.797 0-1.443-.67-1.443-1.497 0-.826.646-1.496 1.443-1.496h24.54c.798 0 1.444.67 1.444 1.496 0 .827-.646 1.497-1.444 1.497z" fill="#7F8499"/></g><defs><clipPath id="clip0"><path fill="#fff" transform="translate(5 1)" d="M0 0h82v85H0z"/></clipPath></defs></svg>