<svg width="88" height="81" fill="none" xmlns="http://www.w3.org/2000/svg"><circle opacity=".3" cx="48.5" cy="41.5" r="39.5" fill="#96C268"/><path d="M27.128 55.184L9.496 72.358c-1.613 1.571-4.23 1.571-5.843 0a3.951 3.951 0 010-5.692l17.632-17.174 5.843 5.692z" fill="#58BFFF"/><path d="M68.894 34.718v1.174c0 2.596-2.16 4.7-4.825 4.7-2.664 0-4.824-2.104-4.824-4.7v-1.175c0-2.595 2.16-4.699 4.824-4.699 2.665 0 4.825 2.104 4.825 4.7z" fill="#FFCDAC"/><path d="M67.323 40.592h-6.507c-4.514 0-8.173 3.564-8.173 7.96v2.95h22.853v-2.95c0-4.396-3.66-7.96-8.173-7.96z" fill="#FFBC53"/><path d="M8.106 34.718v1.174c0 2.596 2.16 4.7 4.825 4.7 2.664 0 4.824-2.104 4.824-4.7v-1.175c0-2.595-2.16-4.699-4.824-4.699-2.665 0-4.825 2.104-4.825 4.7z" fill="#FFCDAC"/><path d="M9.677 40.592h6.507c4.514 0 8.173 3.564 8.173 7.96v2.95H1.504v-2.95c0-4.396 3.66-7.96 8.173-7.96z" fill="#95E540"/><path d="M38.5 57.463c11.462 0 20.754-9.05 20.754-20.215 0-11.164-9.292-20.215-20.754-20.215-11.462 0-20.754 9.05-20.754 20.215 0 11.164 9.292 20.215 20.754 20.215z" fill="#A5DDFF"/><path d="M38.5 51.6c8.137 0 14.734-6.426 14.734-14.352S46.637 22.897 38.5 22.897s-14.734 6.425-14.734 14.351c0 7.926 6.597 14.351 14.734 14.351z" fill="#fff"/><path d="M43.173 35.41v1.137c0 2.514-2.092 4.552-4.673 4.552-2.58 0-4.673-2.038-4.673-4.552V35.41c0-2.514 2.092-4.551 4.673-4.551 2.58 0 4.673 2.037 4.673 4.551z" fill="#FFCDAC"/><path d="M38.5 41.099c-4.562 0-8.459 2.76-10.035 6.658A14.898 14.898 0 0038.5 51.603c3.878 0 7.404-1.461 10.035-3.846C46.959 43.86 43.062 41.1 38.5 41.1z" fill="#FE6663"/><path d="M69.32 39.33a6.017 6.017 0 001.078-3.438v-1.175c0-3.398-2.839-6.164-6.328-6.164a6.4 6.4 0 00-4.466 1.8C56.64 21.77 48.3 15.569 38.5 15.569c-9.8 0-18.14 6.2-21.104 14.786a6.394 6.394 0 00-4.466-1.8c-3.49 0-6.328 2.765-6.328 6.163v1.175c0 1.272.397 2.455 1.078 3.438C3.3 40.229 0 44.022 0 48.553v2.949c0 .809.673 1.465 1.504 1.465h7.82c.83 0 1.504-.656 1.504-1.465s-.673-1.465-1.504-1.465H3.008v-1.484c0-3.582 2.992-6.497 6.67-6.497h7.117a21.26 21.26 0 002.954 6.86L2.589 65.63a5.396 5.396 0 000 7.764 5.696 5.696 0 003.986 1.605 5.697 5.697 0 003.985-1.605l9.46-9.215a1.44 1.44 0 000-2.072 1.533 1.533 0 00-2.127 0l-9.46 9.215a2.681 2.681 0 01-3.717 0 2.516 2.516 0 010-3.62l16.845-16.408c4.086 4.668 10.163 7.633 16.939 7.633 10.577 0 19.453-7.223 21.705-16.87h7.118c3.677 0 6.67 2.914 6.67 6.495v1.485H59.855c-.831 0-1.504.656-1.504 1.465s.673 1.465 1.504 1.465h15.64c.83 0 1.504-.656 1.504-1.465v-2.95c0-4.53-3.3-8.323-7.68-9.222zm-8.571-4.612c0-1.784 1.49-3.235 3.32-3.235 1.832 0 3.321 1.45 3.321 3.235v1.174c0 1.784-1.49 3.235-3.32 3.235-1.832 0-3.321-1.451-3.321-3.235v-1.175zm-51.14 0c0-1.784 1.49-3.235 3.321-3.235 1.832 0 3.321 1.45 3.321 3.235v1.174c0 1.784-1.49 3.235-3.32 3.235-1.832 0-3.321-1.451-3.321-3.235v-1.175zM38.5 55.998c-10.614 0-19.25-8.412-19.25-18.75 0-10.34 8.636-18.75 19.25-18.75s19.25 8.41 19.25 18.75c0 10.338-8.636 18.75-19.25 18.75z" fill="#000"/><path d="M38.5 21.427c-8.956 0-16.242 7.097-16.242 15.82 0 4.528 1.963 8.617 5.104 11.504.054.056.111.11.174.158A16.42 16.42 0 0038.5 53.068a16.42 16.42 0 0010.964-4.16c.063-.047.12-.1.174-.157 3.14-2.887 5.104-6.976 5.104-11.504 0-8.723-7.286-15.82-16.242-15.82zm-8.196 25.934c1.598-2.944 4.712-4.797 8.196-4.797s6.598 1.853 8.196 4.797a13.392 13.392 0 01-8.196 2.777c-3.093 0-5.94-1.039-8.196-2.776zm5.027-10.814V35.41c0-1.702 1.421-3.087 3.169-3.087s3.17 1.385 3.17 3.087v1.138c0 1.702-1.422 3.087-3.17 3.087s-3.17-1.385-3.17-3.087zm13.565 8.669a12.11 12.11 0 00-5.755-4.705 5.902 5.902 0 001.536-3.964V35.41c0-3.317-2.771-6.016-6.177-6.016-3.406 0-6.177 2.699-6.177 6.016v1.138a5.9 5.9 0 001.536 3.964 12.11 12.11 0 00-5.755 4.705 12.619 12.619 0 01-2.838-7.969c0-7.107 5.937-12.89 13.234-12.89s13.234 5.783 13.234 12.89a12.62 12.62 0 01-2.838 7.969zM22.98 57.76c-.396 0-.784.157-1.064.43-.28.272-.44.65-.44 1.035 0 .385.16.763.44 1.036a1.536 1.536 0 002.127 0c.28-.273.44-.65.44-1.036 0-.385-.16-.763-.44-1.036a1.536 1.536 0 00-1.063-.429zM38.53 7.915c.831 0 1.504-.656 1.504-1.465V1.466c0-.809-.673-1.465-1.503-1.465-.83 0-1.504.656-1.504 1.465V6.45c0 .81.673 1.465 1.504 1.465zm0 4.83c.397 0 .784-.156 1.063-.429.28-.272.44-.65.44-1.035 0-.386-.16-.764-.44-1.036a1.533 1.533 0 00-2.126 0c-.28.273-.44.65-.44 1.036 0 .385.16.763.44 1.035.28.273.667.43 1.063.43zm9.043-1.922c.385 0 .77-.143 1.064-.43L51.28 7.82a1.44 1.44 0 000-2.072 1.533 1.533 0 00-2.127 0L46.51 8.322a1.438 1.438 0 000 2.072 1.52 1.52 0 001.063.429zm-19.184-.412c.293.286.678.43 1.063.43.385 0 .77-.144 1.063-.43.588-.572.588-1.5 0-2.071l-2.668-2.6a1.533 1.533 0 00-2.127 0 1.438 1.438 0 000 2.072l2.669 2.6z" fill="#000"/></svg>