<?xml version="1.0" encoding="utf-8"?>
<svg version="1.1" xmlns="http://www.w3.org/2000/svg" xmlns:xlink="http://www.w3.org/1999/xlink" height="90" width="90">
  <defs>
    <ellipse id="ellipse-0" opacity="1" rx="45" ry="45" cx="45" cy="45"/>
    <path id="path-1" opacity="1" fill-rule="evenodd" d="M64.1368408203125,61.9947509765625 L64.1368408203125,43.910888671875 C64.1368408203125,41.69970703125 62.33831787109375,39.90087890625 60.127197265625,39.90087890625 L49.701171875,39.90087890625 L49.701171875,35.8909912109375 C49.701171875,33.679931640625 47.902587890625,31.881103515625 45.6915283203125,31.881103515625 L36.06768798828125,31.881103515625 C33.8565673828125,31.881103515625 32.05767822265625,33.679931640625 32.05767822265625,35.8909912109375 L32.05767822265625,39.90087890625 L21.6319580078125,39.90087890625 C19.42083740234375,39.90087890625 17.62200927734375,41.69970703125 17.62200927734375,43.910888671875 L17.62200927734375,71.9803466796875 C17.62200927734375,74.19140625 19.42083740234375,75.989990234375 21.6319580078125,75.989990234375 L44.76983642578125,75.989990234375 C46.973876953125,78.445068359375 50.16015625,80 53.711181640625,80 C60.34454345703125,80 65.740966796875,74.6036376953125 65.740966796875,67.9703369140625 C65.740966796875,65.7945556640625 65.15142822265625,63.75732421875 64.1368408203125,61.9947509765625 L64.1368408203125,61.9947509765625ZM33.6617431640625,35.8909912109375 C33.6617431640625,34.564453125 34.7412109375,33.4849853515625 36.06768798828125,33.4849853515625 L45.69146728515625,33.4849853515625 C47.0179443359375,33.4849853515625 48.097412109375,34.564453125 48.097412109375,35.8909912109375 L48.097412109375,39.90087890625 L46.49334716796875,39.90087890625 L46.49334716796875,35.8909912109375 C46.49334716796875,35.4482421875 46.135009765625,35.0888671875 45.69146728515625,35.0888671875 L36.06768798828125,35.0888671875 C35.62420654296875,35.0888671875 35.2655029296875,35.4482421875 35.2655029296875,35.8909912109375 L35.2655029296875,39.90087890625 L33.6617431640625,39.90087890625 L33.6617431640625,35.8909912109375 L33.6617431640625,35.8909912109375ZM44.8892822265625,39.90087890625 L44.8892822265625,36.6929931640625 L36.86956787109375,36.6929931640625 L36.86956787109375,39.90087890625 L44.8892822265625,39.90087890625 L44.8892822265625,39.90087890625ZM19.2259521484375,52.7327880859375 L19.2259521484375,43.910888671875 C19.2259521484375,42.5843505859375 20.305419921875,41.5048828125 21.63189697265625,41.5048828125 L60.12713623046875,41.5048828125 C61.45361328125,41.5048828125 62.5330810546875,42.5843505859375 62.5330810546875,43.910888671875 L62.5330810546875,52.7327880859375 C62.5330810546875,54.94384765625 60.73419189453125,56.742431640625 58.5230712890625,56.742431640625 L57.99444580078125,56.742431640625 C56.66156005859375,56.232666015625 55.22137451171875,55.9405517578125 53.711181640625,55.9405517578125 C52.20098876953125,55.9405517578125 50.76080322265625,56.232666015625 49.42791748046875,56.742431640625 L45.69146728515625,56.742431640625 L45.69146728515625,54.33642578125 C45.69146728515625,53.89404296875 45.332763671875,53.53466796875 44.8892822265625,53.53466796875 L36.86956787109375,53.53466796875 C36.426025390625,53.53466796875 36.06768798828125,53.89404296875 36.06768798828125,54.33642578125 L36.06768798828125,56.742431640625 L23.23583984375,56.742431640625 C21.0247802734375,56.742431640625 19.2259521484375,54.94384765625 19.2259521484375,52.7327880859375 L19.2259521484375,52.7327880859375ZM44.08740234375,55.138671875 L44.08740234375,56.742431640625 L37.67144775390625,56.742431640625 L37.67144775390625,55.138671875 L44.08740234375,55.138671875 L44.08740234375,55.138671875ZM21.63189697265625,74.38623046875 C20.305419921875,74.38623046875 19.2259521484375,73.3067626953125 19.2259521484375,71.9803466796875 L19.2259521484375,56.653564453125 C20.24609375,57.6966552734375 21.66558837890625,58.346435546875 23.23583984375,58.346435546875 L23.23583984375,61.5543212890625 C23.23583984375,61.9970703125 23.5943603515625,62.3564453125 24.037841796875,62.3564453125 L28.0477294921875,62.3564453125 C28.4912109375,62.3564453125 28.8497314453125,61.9970703125 28.8497314453125,61.5543212890625 L28.8497314453125,58.346435546875 L46.52398681640625,58.346435546875 C43.591064453125,60.54248046875 41.68145751953125,64.033203125 41.68145751953125,67.97021484375 C41.68145751953125,70.329833984375 42.374267578125,72.5263671875 43.5533447265625,74.38623046875 L21.63189697265625,74.38623046875 L21.63189697265625,74.38623046875ZM62.5330810546875,59.8189697265625 L62.5330810546875,56.653564453125 C61.95062255859375,57.24951171875 61.23626708984375,57.711181640625 60.4390869140625,58.0025634765625 C61.2080078125,58.5228271484375 61.9041748046875,59.138916015625 62.5330810546875,59.8189697265625 L62.5330810546875,59.8189697265625ZM54.51312255859375,78.355224609375 C59.62176513671875,77.9638671875 63.704833984375,73.880859375 64.09619140625,68.7720947265625 L62.53314208984375,68.7720947265625 L62.53314208984375,67.16845703125 L64.09619140625,67.16845703125 C63.704833984375,62.0596923828125 59.62176513671875,57.9766845703125 54.51312255859375,57.5853271484375 L54.51312255859375,59.1483154296875 L52.90936279296875,59.1483154296875 L52.90936279296875,57.5853271484375 C47.8006591796875,57.9766845703125 43.7176513671875,62.0596923828125 43.3262939453125,67.16845703125 L44.88934326171875,67.16845703125 L44.88934326171875,68.7720947265625 L43.32562255859375,68.7720947265625 C43.48748779296875,70.88134765625 44.27655029296875,72.812744140625 45.5101318359375,74.38623046875 L45.6915283203125,74.38623046875 L45.6915283203125,74.622802734375 C47.44464111328125,76.73193359375 50.01416015625,78.1331787109375 52.90936279296875,78.355224609375 L52.90936279296875,76.792236328125 L54.51312255859375,76.792236328125 L54.51312255859375,78.355224609375 L54.51312255859375,78.355224609375ZM27.24578857421875,60.75244140625 L27.24578857421875,58.346435546875 L24.83984375,58.346435546875 L24.83984375,60.75244140625 L27.24578857421875,60.75244140625 L27.24578857421875,60.75244140625Z"/>
    <path id="path-2" opacity="1" fill-rule="evenodd" d="M54.51307950273863,67.63814179668317 L54.51307950273863,60.7524228162365 L52.909339256400926,60.7524228162365 L52.909339256400926,67.9702634129516 C52.909339256400926,68.18292892610422 52.993463272679655,68.38718203762899 53.14421350985114,68.53725928267025 L57.95610724099446,73.34915301381365 L59.09009898043174,72.21516127437636 L54.51307950273863,67.63814179668317Z"/>
    <path id="path-3" opacity="1" fill-rule="evenodd" d="M50.79143302256726,52.73271209635277 L49.187692776229596,52.73271209635277 L49.187692776229596,54.33645234269048 L50.79143302256726,54.33645234269048 L50.79143302256726,52.73271209635277Z"/>
    <path id="path-4" opacity="1" fill-rule="evenodd" d="M53.999586507373394,52.73271209635277 L52.395509764970484,52.73271209635277 L52.395509764970484,54.33645234269048 L53.999586507373394,54.33645234269048 L53.999586507373394,52.73271209635277Z"/>
    <path id="path-5" opacity="1" fill-rule="evenodd" d="M47.58361603382674,52.73271209635277 L45.97953929142386,52.73271209635277 L45.97953929142386,54.33645234269048 L47.58361603382674,54.33645234269048 L47.58361603382674,52.73271209635277Z"/>
    <path id="path-6" opacity="1" fill-rule="evenodd" d="M62.65863975097518,18.932691843753673 L59.96667123005591,20.648821775839764 L61.82312002129486,22.970644625132714 L62.65863975097518,18.932691843753673Z"/>
    <path id="path-7" opacity="1" fill-rule="evenodd" d="M52.892177957080094,26.488307190631076 L52.94803630388917,29.680275214704746 L55.897760810686506,29.31110538166716 L52.892177957080094,26.488307190631076Z"/>
    <path id="path-8" opacity="1" fill-rule="evenodd" d="M70.06155318350348,14.89473906237481 L67.3695846625842,16.610868994460905 L69.22603345382315,18.932691843753854 L70.06155318350348,14.89473906237481Z"/>
    <path id="path-9" opacity="1" fill-rule="evenodd" d="M52.892177957080094,10 L52.94803630388917,13.191968024073669 L55.897760810686506,12.822811650878688 L52.892177957080094,10Z"/>
    <path id="path-10" opacity="1" fill-rule="evenodd" d="M38.96124086132204,20.348431738511863 L38.993544483573075,22.1915552855723 L40.69688756518476,21.978385028322002 L38.96124086132204,20.348431738511863Z"/>
    <path id="path-11" opacity="1" fill-rule="evenodd" d="M48.549023244641205,21.137481361599633 L46.70939925665789,21.020717227004752 L46.78410138311341,22.73563577325647 L48.549023244641205,21.137481361599633Z"/>
    <path id="path-12" opacity="1" fill-rule="evenodd" d="M49.39598384053595,14.034823367973331 L47.55265839583626,14.05309510430907 L47.75287355457966,15.757952418213794 L49.39598384053595,14.034823367973331Z"/>
    <path id="path-13" opacity="1" fill-rule="evenodd" d="M72.1501842596718,54.497297461815165 L72.3779920957546,51.31269870156757 L69.40706833685499,51.41835846601365 L72.1501842596718,54.497297461815165Z"/>
    <path id="path-14" opacity="1" fill-rule="evenodd" d="M33.37237771582821,22.328509184073937 L31.529018621522027,22.332580786461826 L31.716076784119423,24.03895233265964 L33.37237771582821,22.328509184073937Z"/>
    <path id="path-15" opacity="1" fill-rule="evenodd" d="M70.7567540540309,36.93896643372457 L71.84161736796145,35.44849076290454 L70.3536317680232,34.592343824432646 L70.7567540540309,36.93896643372457Z"/>
    <path id="path-16" opacity="1" fill-rule="evenodd" d="M71.91026256524472,42.151492379994174 L69.31486841501328,40.29268811629936 L67.85178352389357,42.880578404278666 L71.91026256524472,42.151492379994174Z"/>
    <path id="path-17" opacity="1" fill-rule="evenodd" d="M65.56091831259128,32.02296082003451 L66.75177788703303,30.615936173362993 L65.33075500405266,29.653153631856185 L65.56091831259128,32.02296082003451Z"/>
  </defs>
  <g opacity="1">
    <g opacity="1">
      <use xlink:href="#ellipse-0" fill="rgb(247,247,247)" fill-opacity="1"/>
    </g>
    <g opacity="1">
      <g opacity="1">
        <g opacity="1">
          <g opacity="1">
            <use xlink:href="#path-1" fill="rgb(0,0,0)" fill-opacity="1"/>
          </g>
          <g opacity="1">
            <use xlink:href="#path-2" fill="rgb(255,157,0)" fill-opacity="1"/>
          </g>
        </g>
        <g opacity="1">
          <use xlink:href="#path-3" fill="rgb(0,0,0)" fill-opacity="1"/>
        </g>
        <g opacity="1">
          <use xlink:href="#path-4" fill="rgb(0,0,0)" fill-opacity="1"/>
        </g>
        <g opacity="1">
          <use xlink:href="#path-5" fill="rgb(0,0,0)" fill-opacity="1"/>
        </g>
        <g opacity="1">
          <use xlink:href="#path-6" fill="rgb(255,157,0)" fill-opacity="1"/>
        </g>
        <g opacity="1">
          <use xlink:href="#path-7" fill-opacity="0" stroke="rgb(121,121,121)" stroke-opacity="1" stroke-width="1"/>
        </g>
        <g opacity="1">
          <use xlink:href="#path-8" fill-opacity="0" stroke="rgb(121,121,121)" stroke-opacity="1" stroke-width="1"/>
        </g>
        <g opacity="1">
          <use xlink:href="#path-9" fill-opacity="0" stroke="rgb(121,121,121)" stroke-opacity="1" stroke-width="1"/>
        </g>
        <g opacity="1">
          <use xlink:href="#path-10" fill-opacity="0" stroke="rgb(121,121,121)" stroke-opacity="1" stroke-width="1"/>
        </g>
        <g opacity="1">
          <use xlink:href="#path-11" fill-opacity="0" stroke="rgb(121,121,121)" stroke-opacity="1" stroke-width="1"/>
        </g>
        <g opacity="1">
          <use xlink:href="#path-12" fill-opacity="0" stroke="rgb(121,121,121)" stroke-opacity="1" stroke-width="1"/>
        </g>
        <g opacity="1">
          <use xlink:href="#path-13" fill="rgb(196,196,196)" fill-opacity="1"/>
        </g>
        <g opacity="1">
          <use xlink:href="#path-14" fill-opacity="0" stroke="rgb(121,121,121)" stroke-opacity="1" stroke-width="1"/>
        </g>
        <g opacity="1">
          <use xlink:href="#path-15" fill-opacity="0" stroke="rgb(121,121,121)" stroke-opacity="1" stroke-width="1"/>
        </g>
        <g opacity="1">
          <use xlink:href="#path-16" fill-opacity="0" stroke="rgb(121,121,121)" stroke-opacity="1" stroke-width="1"/>
        </g>
        <g opacity="1">
          <use xlink:href="#path-17" fill-opacity="0" stroke="rgb(121,121,121)" stroke-opacity="1" stroke-width="1"/>
        </g>
      </g>
    </g>
  </g>
</svg>