<?xml version="1.0" encoding="utf-8"?>
<svg version="1.1" xmlns="http://www.w3.org/2000/svg" xmlns:xlink="http://www.w3.org/1999/xlink" height="130" width="134.2926480659271">
  <defs>
    <path id="path-0" opacity="1" fill-rule="evenodd" d="M130,65 C102.55921112810697,88.1080327342257 100.87447659211,130 65,130 C29.125523407890007,130 1.4210854715202004e-14,100.87447659211 0,65.00000000000001 C0,29.125523407890007 29.125523407889986,1.4210854715202004e-14 64.99999999999999,0 C100.87447659211,0 149,49 130,65Z"/>
    <path id="path-1" opacity="1" fill-rule="evenodd" d="M94.21306496486966,31.54294134699012 L90.7344679989792,33.76054691274526 L93.13383025620215,36.76083679582574 L94.21306496486966,31.54294134699012Z"/>
    <path id="path-2" opacity="1" fill-rule="evenodd" d="M81.59271517261914,41.306406416078744 L81.66489605966136,45.43110928592124 L85.47700350965656,44.95406319451144 L81.59271517261914,41.306406416078744Z"/>
    <path id="path-3" opacity="1" fill-rule="evenodd" d="M103.77920662106827,26.325045898154485 L100.30060965517782,28.542651463909625 L102.69997191240076,31.542941346990105 L103.77920662106827,26.325045898154485Z"/>
    <path id="path-4" opacity="1" fill-rule="evenodd" d="M81.59271517261914,20 L81.66489605966136,24.124702869842494 L85.47700350965656,23.647656778432697 L81.59271517261914,20Z"/>
    <path id="path-5" opacity="1" fill-rule="evenodd" d="M63.59097587413612,33.372378973813966 L63.63315386234754,35.75408735143497 L65.83380126789393,35.47862595419853 L63.59097587413612,33.372378973813966Z"/>
    <path id="path-6" opacity="1" fill-rule="evenodd" d="M75.98086861739654,34.39199922697855 L73.60368241583114,34.241115083583054 L73.7002134816346,36.45715528070353 L75.98086861739654,34.39199922697855Z"/>
    <path id="path-7" opacity="1" fill-rule="evenodd" d="M77.07532218778965,25.213851579862876 L74.69335291539619,25.237462556768858 L74.95207356473429,27.440501497729333 L77.07532218778965,25.213851579862876Z"/>
    <path id="path-8" opacity="1" fill-rule="evenodd" d="M99.03467400675572,67.51565031360924 L99.29181653506986,63.95442991199502 L95.94327467299695,64.07222151991061 L99.03467400675572,67.51565031360924Z"/>
    <path id="path-9" opacity="1" fill-rule="evenodd" d="M88.34545123022917,60.051025390625 L88.34545123022917,64.3536376953125 C90.61763750952605,64.7969970703125 92.33382403296355,66.721923828125 92.33382403296355,69.0224609375 L92.33382403296355,99.517333984375 C92.33382403296355,102.144775390625 90.09728228491667,104.281982421875 87.34835040015105,104.281982421875 L75.38289629858855,104.281982421875 L75.38289629858855,108.0938720703125 L79.37163531226042,108.0938720703125 L79.37163531226042,110 L43.47576128882292,110 L43.47576128882292,108.0938720703125 L47.46419512671355,108.0938720703125 L47.46419512671355,104.281982421875 L35.49895464819792,104.281982421875 C32.7499006931198,104.281982421875 30.513419980229173,102.144775390625 30.513419980229173,99.517333984375 L30.513419980229173,69.0224609375 C30.513419980229173,66.3948974609375 32.7499006931198,64.2576904296875 35.49895464819792,64.2576904296875 L50.4554670993698,64.2576904296875 L50.4554670993698,50.916015625 L78.78719317358855,50.916015625 L88.34545123022917,60.051025390625 L88.34545123022917,60.051025390625ZM52.44969927710417,52.8218994140625 L76.37999712866667,52.8218994140625 L76.37999712866667,62.3515625 L86.35128008765105,62.3515625 L86.35128008765105,92.846435546875 L52.44969927710417,92.846435546875 L52.44969927710417,52.8218994140625 L52.44969927710417,52.8218994140625ZM85.93828570288542,60.4459228515625 L78.37456499976042,53.216552734375 L78.37456499976042,60.4459228515625 L85.93828570288542,60.4459228515625 L85.93828570288542,60.4459228515625ZM32.50765215796355,96.6583251953125 L90.33965289038542,96.6583251953125 L90.33965289038542,69.0224609375 C90.33965289038542,67.7816162109375 89.50298296851042,66.7332763671875 88.3454817478073,66.3388671875 L88.3454817478073,94.7525634765625 L50.4554670993698,94.7525634765625 L50.4554670993698,66.1634521484375 L35.49895464819792,66.1634521484375 C33.84972369116667,66.1634521484375 32.50765215796355,67.4464111328125 32.50765215796355,69.0224609375 L32.50765215796355,96.6583251953125 L32.50765215796355,96.6583251953125ZM90.33965289038542,99.517333984375 C90.33965289038542,101.09375 88.99742876929167,102.3763427734375 87.34838091772917,102.3763427734375 L35.49895464819792,102.3763427734375 C33.84972369116667,102.3763427734375 32.50765215796355,101.09375 32.50765215796355,99.517333984375 L32.50765215796355,98.564453125 L90.33965289038542,98.564453125 L90.33965289038542,99.517333984375 L90.33965289038542,99.517333984375ZM49.4583967868698,108.0938720703125 L73.38872515601042,108.0938720703125 L73.38872515601042,104.281982421875 L49.4583967868698,104.281982421875 L49.4583967868698,108.0938720703125 L49.4583967868698,108.0938720703125Z"/>
    <path id="path-10" opacity="1" fill-rule="evenodd" d="M41.48152911108855,68.069580078125 C45.3293684665573,68.069580078125 48.46129595679167,71.0625 48.46129595679167,74.739990234375 C48.46129595679167,78.4176025390625 45.3293684665573,81.410888671875 41.48152911108855,81.410888671875 C37.63372027319792,81.410888671875 34.50182330054167,78.4176025390625 34.50182330054167,74.739990234375 C34.50182330054167,71.0625 37.63372027319792,68.069580078125 41.48152911108855,68.069580078125 L41.48152911108855,68.069580078125ZM37.8381575290573,77.968994140625 C38.45735918921355,76.6307373046875 39.85430132788542,75.693359375 41.48155962866667,75.693359375 C43.10881792944792,75.693359375 44.50579058569792,76.6307373046875 45.12496172827605,77.968994140625 C45.9505842868698,77.1177978515625 46.4670637790573,75.98876953125 46.4670637790573,74.7401123046875 C46.4670637790573,72.31005859375 44.5466536228073,70.3211669921875 42.08382403296355,70.03369140625 C43.44585406226042,70.300537109375 44.47286211890105,71.4554443359375 44.47286211890105,72.8343505859375 C44.47286211890105,74.410400390625 43.13079058569792,75.693359375 41.48155962866667,75.693359375 C39.83235918921355,75.693359375 38.49022662085417,74.410400390625 38.49022662085417,72.8343505859375 C38.49022662085417,71.4554443359375 39.51726519507292,70.300537109375 40.87932574194792,70.03369140625 C38.41646563452605,70.3211669921875 36.49605547827605,72.31005859375 36.49605547827605,74.7401123046875 C36.49605547827605,75.98876953125 37.01253497046355,77.1177978515625 37.8381575290573,77.968994140625 L37.8381575290573,77.968994140625ZM41.48155962866667,73.7872314453125 C42.03197466772917,73.7872314453125 42.47869097632292,73.3604736328125 42.47869097632292,72.8343505859375 C42.47869097632292,72.3082275390625 42.03197466772917,71.8814697265625 41.48155962866667,71.8814697265625 C40.93114458960417,71.8814697265625 40.48445879858855,72.3082275390625 40.48445879858855,72.8343505859375 C40.48445879858855,73.3604736328125 40.93114458960417,73.7872314453125 41.48155962866667,73.7872314453125 L41.48155962866667,73.7872314453125ZM41.48155962866667,79.505126953125 C40.7885969821823,79.505126953125 40.12847124976042,79.3677978515625 39.52825152319792,79.1220703125 C39.71370684546355,78.2545166015625 40.51934039038542,77.5989990234375 41.48155962866667,77.5989990234375 C42.44377886694792,77.5989990234375 43.2494124118698,78.2545166015625 43.43489825171355,79.1220703125 C42.8346174899948,79.3677978515625 42.17455279272917,79.505126953125 41.48155962866667,79.505126953125 L41.48155962866667,79.505126953125Z"/>
    <path id="path-11" opacity="1" fill-rule="evenodd" d="M41.48152911108855,94.7525634765625 C37.63372027319792,94.7525634765625 34.50182330054167,91.75927734375 34.50182330054167,88.081787109375 C34.50182330054167,84.4041748046875 37.63372027319792,81.410888671875 41.48152911108855,81.410888671875 C45.3293684665573,81.410888671875 48.46129595679167,84.4041748046875 48.46129595679167,88.081787109375 C48.46129595679167,91.75927734375 45.3293684665573,94.7525634765625 41.48152911108855,94.7525634765625 L41.48152911108855,94.7525634765625ZM38.49022662085417,86.176025390625 C38.49022662085417,84.7967529296875 39.51726519507292,83.641845703125 40.87932574194792,83.375 C38.41646563452605,83.662841796875 36.49605547827605,85.65185546875 36.49605547827605,88.081787109375 C36.49605547827605,89.330078125 37.01253497046355,90.45947265625 37.8381575290573,91.310302734375 C38.45735918921355,89.972412109375 39.85430132788542,89.03466796875 41.48155962866667,89.03466796875 C43.10881792944792,89.03466796875 44.50579058569792,89.972412109375 45.12496172827605,91.310302734375 C45.9505842868698,90.45947265625 46.4670637790573,89.330078125 46.4670637790573,88.081787109375 C46.4670637790573,85.65185546875 44.5466536228073,83.662841796875 42.08382403296355,83.375 C43.44585406226042,83.641845703125 44.47286211890105,84.7967529296875 44.47286211890105,86.176025390625 C44.47286211890105,87.7520751953125 43.13079058569792,89.03466796875 41.48155962866667,89.03466796875 C39.83235918921355,89.03466796875 38.49022662085417,87.7520751953125 38.49022662085417,86.176025390625 L38.49022662085417,86.176025390625ZM42.47869097632292,86.176025390625 C42.47869097632292,86.7017822265625 42.03197466772917,87.12890625 41.48155962866667,87.12890625 C40.93114458960417,87.12890625 40.48445879858855,86.7017822265625 40.48445879858855,86.176025390625 C40.48445879858855,85.64990234375 40.93114458960417,85.2227783203125 41.48155962866667,85.2227783203125 C42.03197466772917,85.2227783203125 42.47869097632292,85.64990234375 42.47869097632292,86.176025390625 L42.47869097632292,86.176025390625ZM39.52825152319792,92.4632568359375 C40.12847124976042,92.70947265625 40.7885969821823,92.846435546875 41.48155962866667,92.846435546875 C42.17455279272917,92.846435546875 42.8346174899948,92.70947265625 43.43489825171355,92.4632568359375 C43.2494124118698,91.59619140625 42.44377886694792,90.940673828125 41.48155962866667,90.940673828125 C40.51934039038542,90.940673828125 39.71370684546355,91.59619140625 39.52825152319792,92.4632568359375 L39.52825152319792,92.4632568359375Z"/>
    <path id="path-12" opacity="1" fill-rule="evenodd" d="M66.4090803806198,56.6339111328125 L66.4090803806198,58.457763671875 L68.82122027319792,56.8111572265625 L69.9798811618698,58.36181640625 L66.4090803806198,60.79931640625 L66.4090803806198,66.16357421875 L56.43816363257292,66.16357421875 L56.43816363257292,56.6339111328125 L66.4090803806198,56.6339111328125 L66.4090803806198,56.6339111328125ZM62.52843462866667,61.107177734375 L64.41490923804167,59.8197021484375 L64.41490923804167,58.539794921875 L58.43236529272917,58.539794921875 L58.43236529272917,64.2578125 L64.41490923804167,64.2578125 L64.41490923804167,62.1612548828125 L62.3130110446823,63.59619140625 L59.72148882788542,61.1195068359375 L61.1316145603073,59.7718505859375 L62.52843462866667,61.107177734375 L62.52843462866667,61.107177734375Z"/>
    <path id="path-13" opacity="1" fill-rule="evenodd" d="M66.4090803806198,68.069580078125 L66.4090803806198,69.893310546875 L68.82122027319792,68.246826171875 L69.9798811618698,69.79736328125 L66.4090803806198,72.23486328125 L66.4090803806198,77.5989990234375 L56.43816363257292,77.5989990234375 L56.43816363257292,68.069580078125 L66.4090803806198,68.069580078125 L66.4090803806198,68.069580078125ZM62.52843462866667,72.542724609375 L64.41490923804167,71.2552490234375 L64.41490923804167,69.975341796875 L58.43236529272917,69.975341796875 L58.43236529272917,75.693359375 L64.41490923804167,75.693359375 L64.41490923804167,73.5968017578125 L62.3130110446823,75.03173828125 L59.72148882788542,72.5550537109375 L61.1316145603073,71.2073974609375 L62.52843462866667,72.542724609375 L62.52843462866667,72.542724609375Z"/>
    <path id="path-14" opacity="1" fill-rule="evenodd" d="M66.4090803806198,79.505126953125 L66.4090803806198,81.3292236328125 L68.82122027319792,79.68310546875 L69.9798811618698,81.23291015625 L66.4090803806198,83.67041015625 L66.4090803806198,89.0345458984375 L56.43816363257292,89.0345458984375 L56.43816363257292,79.505126953125 L66.4090803806198,79.505126953125 L66.4090803806198,79.505126953125ZM62.52843462866667,83.978271484375 L64.41490923804167,82.6907958984375 L64.41490923804167,81.410888671875 L58.43236529272917,81.410888671875 L58.43236529272917,87.12890625 L64.41490923804167,87.12890625 L64.41490923804167,85.0323486328125 L62.3130110446823,86.46728515625 L59.72148882788542,83.9906005859375 L61.1316145603073,82.6429443359375 L62.52843462866667,83.978271484375 L62.52843462866667,83.978271484375Z"/>
    <path id="path-15" opacity="1" fill-rule="evenodd" d="M82.36292336813423,64.25771770311667 L70.39745194367651,64.25771770311667 L70.39745194367651,66.16345796664562 L82.36292336813423,66.16345796664562 L82.36292336813423,64.25771770311667Z"/>
    <path id="path-16" opacity="1" fill-rule="evenodd" d="M82.36292336813423,75.69328827733761 L70.39745194367651,75.69328827733761 L70.39745194367651,77.59902854086657 L82.36292336813423,77.59902854086657 L82.36292336813423,75.69328827733761Z"/>
    <path id="path-17" opacity="1" fill-rule="evenodd" d="M82.36292336813423,87.1288588515581 L70.39745194367651,87.1288588515581 L70.39745194367651,89.03459911508708 L82.36292336813423,89.03459911508708 L82.36292336813423,87.1288588515581Z"/>
    <path id="path-18" opacity="1" fill-rule="evenodd" d="M82.36292336813423,83.31700199348461 L70.39745194367651,83.31700199348461 L70.39745194367651,85.22274225701356 L82.36292336813423,85.22274225701356 L82.36292336813423,83.31700199348461Z"/>
    <path id="path-19" opacity="1" fill-rule="evenodd" d="M82.36292336813423,71.88143141926412 L70.39745194367651,71.88143141926412 L70.39745194367651,73.78717168279306 L82.36292336813423,73.78717168279306 L82.36292336813423,71.88143141926412Z"/>
    <path id="path-20" opacity="1" fill-rule="evenodd" d="M74.38581599640708,60.44586084504317 L70.39745194367651,60.44586084504317 L70.39745194367651,62.351601108572126 L74.38581599640708,62.351601108572126 L74.38581599640708,60.44586084504317Z"/>
  </defs>
  <g opacity="1">
    <g opacity="1">
      <use xlink:href="#path-0" fill="rgb(247,247,247)" fill-opacity="1"/>
    </g>
    <g opacity="1">
      <g opacity="1">
        <g opacity="1">
          <use xlink:href="#path-1" fill="rgb(255,157,0)" fill-opacity="1"/>
        </g>
        <g opacity="1">
          <use xlink:href="#path-2" fill-opacity="0" stroke="rgb(121,121,121)" stroke-opacity="1" stroke-width="1"/>
        </g>
        <g opacity="1">
          <use xlink:href="#path-3" fill-opacity="0" stroke="rgb(121,121,121)" stroke-opacity="1" stroke-width="1"/>
        </g>
        <g opacity="1">
          <use xlink:href="#path-4" fill-opacity="0" stroke="rgb(121,121,121)" stroke-opacity="1" stroke-width="1"/>
        </g>
        <g opacity="1">
          <use xlink:href="#path-5" fill-opacity="0" stroke="rgb(121,121,121)" stroke-opacity="1" stroke-width="1"/>
        </g>
        <g opacity="1">
          <use xlink:href="#path-6" fill-opacity="0" stroke="rgb(121,121,121)" stroke-opacity="1" stroke-width="1"/>
        </g>
        <g opacity="1">
          <use xlink:href="#path-7" fill-opacity="0" stroke="rgb(121,121,121)" stroke-opacity="1" stroke-width="1"/>
        </g>
        <g opacity="1">
          <use xlink:href="#path-8" fill="rgb(196,196,196)" fill-opacity="1"/>
        </g>
        <g opacity="1">
          <g opacity="1">
            <use xlink:href="#path-9" fill="rgb(0,0,0)" fill-opacity="1"/>
          </g>
          <g opacity="1">
            <use xlink:href="#path-10" fill="rgb(255,157,0)" fill-opacity="1"/>
          </g>
          <g opacity="1">
            <use xlink:href="#path-11" fill="rgb(255,157,0)" fill-opacity="1"/>
          </g>
          <g opacity="1">
            <use xlink:href="#path-12" fill="rgb(0,0,0)" fill-opacity="1"/>
          </g>
          <g opacity="1">
            <use xlink:href="#path-13" fill="rgb(0,0,0)" fill-opacity="1"/>
          </g>
          <g opacity="1">
            <use xlink:href="#path-14" fill="rgb(0,0,0)" fill-opacity="1"/>
          </g>
          <g opacity="1">
            <use xlink:href="#path-15" fill="rgb(0,0,0)" fill-opacity="1"/>
          </g>
          <g opacity="1">
            <use xlink:href="#path-16" fill="rgb(0,0,0)" fill-opacity="1"/>
          </g>
          <g opacity="1">
            <use xlink:href="#path-17" fill="rgb(0,0,0)" fill-opacity="1"/>
          </g>
          <g opacity="1">
            <use xlink:href="#path-18" fill="rgb(0,0,0)" fill-opacity="1"/>
          </g>
          <g opacity="1">
            <use xlink:href="#path-19" fill="rgb(0,0,0)" fill-opacity="1"/>
          </g>
          <g opacity="1">
            <use xlink:href="#path-20" fill="rgb(0,0,0)" fill-opacity="1"/>
          </g>
        </g>
      </g>
    </g>
  </g>
</svg>