<?xml version="1.0" encoding="utf-8"?>
<svg version="1.1" xmlns="http://www.w3.org/2000/svg" xmlns:xlink="http://www.w3.org/1999/xlink" height="93" width="96">
  <defs>
    <path id="path-0" opacity="1" fill-rule="evenodd" d="M92.93137174473844,46.5 C73.31513980917865,63.03113110986915 72.11079602874838,93 46.46568587236922,93 C20.820575715990056,93 1.0158724787299281e-14,72.16404863897101 0,46.50000000000001 C0,20.835951361029007 20.820575715990042,1.0166226834721434e-14 46.46568587236921,0 C72.11079602874838,0 106.51364915358482,35.05384615384615 92.93137174473844,46.5Z"/>
    <path id="path-1" opacity="1" fill-rule="evenodd" d="M69.05191796106074,20.477843269881305 L66.34634254314597,22.202647598801963 L68.21251318765268,24.536206396753443 L69.05191796106074,20.477843269881305Z"/>
    <path id="path-2" opacity="1" fill-rule="evenodd" d="M59.236090344865715,28.071649434727988 L59.29223103478745,31.279751666827746 L62.25720349589487,30.908715817953453 L59.236090344865715,28.071649434727988Z"/>
    <path id="path-3" opacity="1" fill-rule="evenodd" d="M76.49225036032638,16.41948014300897 L73.78667494241154,18.144284471929627 L75.6528455869183,20.477843269881102 L76.49225036032638,16.41948014300897Z"/>
    <path id="path-4" opacity="1" fill-rule="evenodd" d="M59.236090344865715,11.5 L59.29223103478745,14.708102232099714 L62.25720349589487,14.337066383225427 L59.236090344865715,11.5Z"/>
    <path id="path-5" opacity="1" fill-rule="evenodd" d="M45.23473755715668,21.90073920185523 L45.26754265909889,23.753179051116046 L46.97915730785721,23.53893129770992 L45.23473755715668,21.90073920185523Z"/>
    <path id="path-6" opacity="1" fill-rule="evenodd" d="M54.87132080191488,22.69377717653905 L53.02239820069735,22.576422842786997 L53.09747791854449,24.30000966276959 L54.87132080191488,22.69377717653905Z"/>
    <path id="path-7" opacity="1" fill-rule="evenodd" d="M55.72256246777602,15.555217895449005 L53.86991970035888,15.5735819885981 L54.07114687206629,17.287056720456253 L55.72256246777602,15.555217895449005Z"/>
    <path id="path-8" opacity="1" fill-rule="evenodd" d="M72.80205832697182,48.45661691058501 L73.00205807121614,45.68677882044062 L70.39763662293717,45.778394515486085 L72.80205832697182,48.45661691058501Z"/>
    <path id="path-9" opacity="1" fill-rule="evenodd" d="M64.48828125,42.65087890625 L64.48828125,45.997314453125 C66.2554931640625,46.342041015625 67.59033203125,47.8392333984375 67.59033203125,49.6285400390625 L67.59033203125,73.3468017578125 C67.59033203125,75.390380859375 65.8507080078125,77.0526123046875 63.71270751953125,77.0526123046875 L54.40625,77.0526123046875 L54.40625,80.0174560546875 L57.50860595703125,80.0174560546875 L57.50860595703125,81.5 L29.58953857421875,81.5 L29.58953857421875,80.0174560546875 L32.69171142578125,80.0174560546875 L32.69171142578125,77.0526123046875 L23.3853759765625,77.0526123046875 C21.24725341796875,77.0526123046875 19.50775146484375,75.390380859375 19.50775146484375,73.3468017578125 L19.50775146484375,49.6285400390625 C19.50775146484375,47.5848388671875 21.24725341796875,45.922607421875 23.3853759765625,45.922607421875 L35.01824951171875,45.922607421875 L35.01824951171875,35.5457763671875 L57.05401611328125,35.5457763671875 L64.48828125,42.65087890625 L64.48828125,42.65087890625ZM36.56927490234375,37.0281982421875 L55.18170166015625,37.0281982421875 L55.18170166015625,44.440185546875 L62.93719482421875,44.440185546875 L62.93719482421875,68.1583251953125 L36.56927490234375,68.1583251953125 L36.56927490234375,37.0281982421875 L36.56927490234375,37.0281982421875ZM62.615966796875,42.9578857421875 L56.73309326171875,37.3350830078125 L56.73309326171875,42.9578857421875 L62.615966796875,42.9578857421875 L62.615966796875,42.9578857421875ZM21.058837890625,71.1231689453125 L66.039306640625,71.1231689453125 L66.039306640625,49.6285400390625 C66.039306640625,48.66357421875 65.3885498046875,47.8480224609375 64.48828125,47.541259765625 L64.48828125,69.640869140625 L35.01824951171875,69.640869140625 L35.01824951171875,47.4049072265625 L23.38543701171875,47.4049072265625 C22.1026611328125,47.4049072265625 21.058837890625,48.4027099609375 21.058837890625,49.6285400390625 L21.058837890625,71.1231689453125 L21.058837890625,71.1231689453125ZM66.039306640625,73.3468017578125 C66.039306640625,74.572998046875 64.995361328125,75.5704345703125 63.7127685546875,75.5704345703125 L23.38543701171875,75.5704345703125 C22.1026611328125,75.5704345703125 21.058837890625,74.572998046875 21.058837890625,73.3468017578125 L21.058837890625,72.605712890625 L66.039306640625,72.605712890625 L66.039306640625,73.3468017578125 L66.039306640625,73.3468017578125ZM34.24273681640625,80.0174560546875 L52.855224609375,80.0174560546875 L52.855224609375,77.052734375 L34.24273681640625,77.052734375 L34.24273681640625,80.0174560546875 L34.24273681640625,80.0174560546875Z"/>
    <path id="path-10" opacity="1" fill-rule="evenodd" d="M28.03851318359375,48.887451171875 C31.03131103515625,48.887451171875 33.46722412109375,51.21533203125 33.46722412109375,54.0755615234375 C33.46722412109375,56.9359130859375 31.03131103515625,59.2640380859375 28.03851318359375,59.2640380859375 C25.0457763671875,59.2640380859375 22.60986328125,56.9359130859375 22.60986328125,54.0755615234375 C22.60986328125,51.21533203125 25.0457763671875,48.887451171875 28.03851318359375,48.887451171875 L28.03851318359375,48.887451171875ZM25.20477294921875,56.5869140625 C25.68634033203125,55.546142578125 26.77288818359375,54.8170166015625 28.03851318359375,54.8170166015625 C29.30413818359375,54.8170166015625 30.39068603515625,55.546142578125 30.87225341796875,56.5869140625 C31.514404296875,55.9248046875 31.9161376953125,55.0467529296875 31.9161376953125,54.0755615234375 C31.9161376953125,52.185546875 30.4224853515625,50.638671875 28.5069580078125,50.4150390625 C29.5662841796875,50.62255859375 30.36505126953125,51.5208740234375 30.36505126953125,52.5933837890625 C30.36505126953125,53.8192138671875 29.32122802734375,54.8170166015625 28.03851318359375,54.8170166015625 C26.75579833984375,54.8170166015625 25.7119140625,53.8192138671875 25.7119140625,52.5933837890625 C25.7119140625,51.5208740234375 26.51068115234375,50.62255859375 27.570068359375,50.4150390625 C25.654541015625,50.638671875 24.160888671875,52.185546875 24.160888671875,54.0755615234375 C24.160888671875,55.0467529296875 24.5626220703125,55.9248046875 25.20477294921875,56.5869140625 L25.20477294921875,56.5869140625ZM28.03851318359375,53.33447265625 C28.46661376953125,53.33447265625 28.8140869140625,53.00244140625 28.8140869140625,52.59326171875 C28.8140869140625,52.18408203125 28.46661376953125,51.8521728515625 28.03851318359375,51.8521728515625 C27.61041259765625,51.8521728515625 27.26300048828125,52.18408203125 27.26300048828125,52.59326171875 C27.26300048828125,53.00244140625 27.61041259765625,53.33447265625 28.03851318359375,53.33447265625 L28.03851318359375,53.33447265625ZM28.03851318359375,57.78173828125 C27.49957275390625,57.78173828125 26.98614501953125,57.6749267578125 26.519287109375,57.4837646484375 C26.66351318359375,56.80908203125 27.2901611328125,56.2991943359375 28.03851318359375,56.2991943359375 C28.78692626953125,56.2991943359375 29.41351318359375,56.80908203125 29.55780029296875,57.4837646484375 C29.09088134765625,57.6749267578125 28.5775146484375,57.78173828125 28.03851318359375,57.78173828125 L28.03851318359375,57.78173828125Z"/>
    <path id="path-11" opacity="1" fill-rule="evenodd" d="M28.03851318359375,69.640869140625 C25.0457763671875,69.640869140625 22.60986328125,67.312744140625 22.60986328125,64.4525146484375 C22.60986328125,61.5921630859375 25.0457763671875,59.2640380859375 28.03851318359375,59.2640380859375 C31.03131103515625,59.2640380859375 33.46722412109375,61.5921630859375 33.46722412109375,64.4525146484375 C33.46722412109375,67.312744140625 31.03131103515625,69.640869140625 28.03851318359375,69.640869140625 L28.03851318359375,69.640869140625ZM25.7119140625,62.97021484375 C25.7119140625,61.8974609375 26.51068115234375,60.9991455078125 27.570068359375,60.7916259765625 C25.654541015625,61.0155029296875 24.160888671875,62.5625 24.160888671875,64.452392578125 C24.160888671875,65.42333984375 24.5626220703125,66.3017578125 25.20477294921875,66.9635009765625 C25.68634033203125,65.9229736328125 26.77288818359375,65.193603515625 28.03851318359375,65.193603515625 C29.30413818359375,65.193603515625 30.39068603515625,65.9229736328125 30.87225341796875,66.9635009765625 C31.514404296875,66.3017578125 31.9161376953125,65.42333984375 31.9161376953125,64.452392578125 C31.9161376953125,62.5625 30.4224853515625,61.0155029296875 28.5069580078125,60.7916259765625 C29.5662841796875,60.9991455078125 30.36505126953125,61.8974609375 30.36505126953125,62.97021484375 C30.36505126953125,64.196044921875 29.32122802734375,65.193603515625 28.03851318359375,65.193603515625 C26.75579833984375,65.193603515625 25.7119140625,64.196044921875 25.7119140625,62.97021484375 L25.7119140625,62.97021484375ZM28.8140869140625,62.97021484375 C28.8140869140625,63.3790283203125 28.46661376953125,63.7113037109375 28.03851318359375,63.7113037109375 C27.61041259765625,63.7113037109375 27.26300048828125,63.3790283203125 27.26300048828125,62.97021484375 C27.26300048828125,62.56103515625 27.61041259765625,62.228759765625 28.03851318359375,62.228759765625 C28.46661376953125,62.228759765625 28.8140869140625,62.56103515625 28.8140869140625,62.97021484375 L28.8140869140625,62.97021484375ZM26.519287109375,67.8604736328125 C26.98614501953125,68.0518798828125 27.49957275390625,68.158447265625 28.03851318359375,68.158447265625 C28.5775146484375,68.158447265625 29.09088134765625,68.0518798828125 29.55780029296875,67.8604736328125 C29.41351318359375,67.18603515625 28.78692626953125,66.6761474609375 28.03851318359375,66.6761474609375 C27.2901611328125,66.6761474609375 26.66351318359375,67.18603515625 26.519287109375,67.8604736328125 L26.519287109375,67.8604736328125Z"/>
    <path id="path-12" opacity="1" fill-rule="evenodd" d="M47.42657470703125,39.9930419921875 L47.42657470703125,41.41162109375 L49.302734375,40.130859375 L50.203857421875,41.3369140625 L47.42657470703125,43.2327880859375 L47.42657470703125,47.4049072265625 L39.67144775390625,47.4049072265625 L39.67144775390625,39.9930419921875 L47.42657470703125,39.9930419921875 L47.42657470703125,39.9930419921875ZM44.4083251953125,43.47216796875 L45.87554931640625,42.4708251953125 L45.87554931640625,41.475341796875 L41.22247314453125,41.475341796875 L41.22247314453125,45.922607421875 L45.87554931640625,45.922607421875 L45.87554931640625,44.2919921875 L44.24078369140625,45.4080810546875 L42.22509765625,43.4818115234375 L43.3218994140625,42.43359375 L44.4083251953125,43.47216796875 L44.4083251953125,43.47216796875Z"/>
    <path id="path-13" opacity="1" fill-rule="evenodd" d="M47.42657470703125,48.887451171875 L47.42657470703125,50.305908203125 L49.302734375,49.0252685546875 L50.203857421875,50.231201171875 L47.42657470703125,52.1270751953125 L47.42657470703125,56.2991943359375 L39.67144775390625,56.2991943359375 L39.67144775390625,48.887451171875 L47.42657470703125,48.887451171875 L47.42657470703125,48.887451171875ZM44.4083251953125,52.366455078125 L45.87554931640625,51.3651123046875 L45.87554931640625,50.36962890625 L41.22247314453125,50.36962890625 L41.22247314453125,54.81689453125 L45.87554931640625,54.81689453125 L45.87554931640625,53.186279296875 L44.24078369140625,54.3023681640625 L42.22509765625,52.3760986328125 L43.3218994140625,51.327880859375 L44.4083251953125,52.366455078125 L44.4083251953125,52.366455078125Z"/>
    <path id="path-14" opacity="1" fill-rule="evenodd" d="M47.42657470703125,57.78173828125 L47.42657470703125,59.200439453125 L49.302734375,57.920166015625 L50.203857421875,59.12548828125 L47.42657470703125,61.0213623046875 L47.42657470703125,65.1934814453125 L39.67144775390625,65.1934814453125 L39.67144775390625,57.78173828125 L47.42657470703125,57.78173828125 L47.42657470703125,57.78173828125ZM44.4083251953125,61.2608642578125 L45.87554931640625,60.259521484375 L45.87554931640625,59.2640380859375 L41.22247314453125,59.2640380859375 L41.22247314453125,63.7113037109375 L45.87554931640625,63.7113037109375 L45.87554931640625,62.0806884765625 L44.24078369140625,63.19677734375 L42.22509765625,61.2705078125 L43.3218994140625,60.2222900390625 L44.4083251953125,61.2608642578125 L44.4083251953125,61.2608642578125Z"/>
    <path id="path-15" opacity="1" fill-rule="evenodd" d="M59.835141163600085,45.92266932464622 L50.52866338902186,45.92266932464622 L50.52866338902186,47.40491175183542 L59.835141163600085,47.40491175183542 L59.835141163600085,45.92266932464622Z"/>
    <path id="path-16" opacity="1" fill-rule="evenodd" d="M59.835141163600085,54.81700199348461 L50.52866338902186,54.81700199348461 L50.52866338902186,56.2992444206738 L59.835141163600085,56.2992444206738 L59.835141163600085,54.81700199348461Z"/>
    <path id="path-17" opacity="1" fill-rule="evenodd" d="M59.835141163600085,63.71133466232277 L50.52866338902186,63.71133466232277 L50.52866338902186,65.19357708951199 L59.835141163600085,65.19357708951199 L59.835141163600085,63.71133466232277Z"/>
    <path id="path-18" opacity="1" fill-rule="evenodd" d="M59.835141163600085,60.74655710604338 L50.52866338902186,60.74655710604338 L50.52866338902186,62.22879953323258 L59.835141163600085,62.22879953323258 L59.835141163600085,60.74655710604338Z"/>
    <path id="path-19" opacity="1" fill-rule="evenodd" d="M59.835141163600085,51.85222443720522 L50.52866338902186,51.85222443720522 L50.52866338902186,53.3344668643944 L59.835141163600085,53.3344668643944 L59.835141163600085,51.85222443720522Z"/>
    <path id="path-20" opacity="1" fill-rule="evenodd" d="M53.63072431892342,42.957891768366835 L50.52866338902186,42.957891768366835 L50.52866338902186,44.440134195556034 L53.63072431892342,44.440134195556034 L53.63072431892342,42.957891768366835Z"/>
  </defs>
  <g opacity="1">
    <g opacity="1">
      <use xlink:href="#path-0" fill="rgb(255,255,255)" fill-opacity="1"/>
    </g>
    <g opacity="1">
      <g opacity="1">
        <g opacity="1">
          <use xlink:href="#path-1" fill="rgb(255,157,0)" fill-opacity="1"/>
        </g>
        <g opacity="1">
          <use xlink:href="#path-2" fill-opacity="0" stroke="rgb(121,121,121)" stroke-opacity="1" stroke-width="1"/>
        </g>
        <g opacity="1">
          <use xlink:href="#path-3" fill-opacity="0" stroke="rgb(121,121,121)" stroke-opacity="1" stroke-width="1"/>
        </g>
        <g opacity="1">
          <use xlink:href="#path-4" fill-opacity="0" stroke="rgb(121,121,121)" stroke-opacity="1" stroke-width="1"/>
        </g>
        <g opacity="1">
          <use xlink:href="#path-5" fill-opacity="0" stroke="rgb(121,121,121)" stroke-opacity="1" stroke-width="1"/>
        </g>
        <g opacity="1">
          <use xlink:href="#path-6" fill-opacity="0" stroke="rgb(121,121,121)" stroke-opacity="1" stroke-width="1"/>
        </g>
        <g opacity="1">
          <use xlink:href="#path-7" fill-opacity="0" stroke="rgb(121,121,121)" stroke-opacity="1" stroke-width="1"/>
        </g>
        <g opacity="1">
          <use xlink:href="#path-8" fill="rgb(196,196,196)" fill-opacity="1"/>
        </g>
        <g opacity="1">
          <g opacity="1">
            <use xlink:href="#path-9" fill="rgb(0,0,0)" fill-opacity="1"/>
          </g>
          <g opacity="1">
            <use xlink:href="#path-10" fill="rgb(255,157,0)" fill-opacity="1"/>
          </g>
          <g opacity="1">
            <use xlink:href="#path-11" fill="rgb(255,157,0)" fill-opacity="1"/>
          </g>
          <g opacity="1">
            <use xlink:href="#path-12" fill="rgb(0,0,0)" fill-opacity="1"/>
          </g>
          <g opacity="1">
            <use xlink:href="#path-13" fill="rgb(0,0,0)" fill-opacity="1"/>
          </g>
          <g opacity="1">
            <use xlink:href="#path-14" fill="rgb(0,0,0)" fill-opacity="1"/>
          </g>
          <g opacity="1">
            <use xlink:href="#path-15" fill="rgb(0,0,0)" fill-opacity="1"/>
          </g>
          <g opacity="1">
            <use xlink:href="#path-16" fill="rgb(0,0,0)" fill-opacity="1"/>
          </g>
          <g opacity="1">
            <use xlink:href="#path-17" fill="rgb(0,0,0)" fill-opacity="1"/>
          </g>
          <g opacity="1">
            <use xlink:href="#path-18" fill="rgb(0,0,0)" fill-opacity="1"/>
          </g>
          <g opacity="1">
            <use xlink:href="#path-19" fill="rgb(0,0,0)" fill-opacity="1"/>
          </g>
          <g opacity="1">
            <use xlink:href="#path-20" fill="rgb(0,0,0)" fill-opacity="1"/>
          </g>
        </g>
      </g>
    </g>
  </g>
</svg>