<?xml version="1.0" encoding="utf-8"?>
<svg version="1.1" xmlns="http://www.w3.org/2000/svg" xmlns:xlink="http://www.w3.org/1999/xlink" height="70" width="69.77166748046875">
  <defs>
    <path id="path-0" opacity="1" fill-rule="evenodd" d="M65.224609375,6.98828125 L41.93011474609375,6.98828125 L41.93011474609375,4.658935546875 C41.93011474609375,2.096435546875 39.8336181640625,0 37.271240234375,0 L4.65887451171875,0 C2.09649658203125,0 0,2.096435546875 0,4.658935546875 L0,30.282958984375 C0,43.0947265625 12.2296142578125,43.0947265625 16.30615234375,43.0947265625 C17.0050048828125,43.0947265625 17.47088623046875,42.62890625 17.47088623046875,41.93017578125 C17.47088623046875,41.231201171875 17.0050048828125,40.765380859375 16.30615234375,40.765380859375 C13.7437744140625,40.765380859375 11.64727783203125,38.6689453125 11.64727783203125,36.1064453125 L11.64727783203125,35.640625 C11.99664306640625,33.194580078125 14.09320068359375,31.447509765625 16.53912353515625,31.447509765625 L32.6123046875,31.447509765625 L32.6123046875,33.777099609375 L22.1297607421875,33.777099609375 C21.43096923828125,33.777099609375 20.96502685546875,34.242919921875 20.96502685546875,34.941650390625 C20.96502685546875,37.62060546875 22.0133056640625,40.18310546875 23.7603759765625,42.046630859375 C23.4110107421875,43.21142578125 23.29449462890625,44.259521484375 23.29449462890625,45.42431640625 C23.29449462890625,50.083251953125 26.08984375,54.276123046875 30.2828369140625,56.1396484375 C30.2828369140625,56.838623046875 29.9334716796875,58.236328125 26.7886962890625,58.236328125 C23.5274658203125,58.236328125 20.96502685546875,60.798583984375 20.96502685546875,64.059814453125 L20.96502685546875,69.883544921875 L23.29449462890625,69.883544921875 L23.29449462890625,64.059814453125 C23.29449462890625,62.1962890625 24.69219970703125,60.68212890625 26.55572509765625,60.565673828125 L32.26287841796875,63.361083984375 C32.728759765625,63.593994140625 33.3111572265625,63.826904296875 33.77703857421875,63.943359375 L33.77703857421875,69.883544921875 L36.10650634765625,69.883544921875 L36.10650634765625,63.943359375 C36.6888427734375,63.826904296875 37.15472412109375,63.71044921875 37.62060546875,63.4775390625 L43.3277587890625,60.68212890625 C45.19134521484375,60.798583984375 46.5889892578125,62.312744140625 46.5889892578125,64.17626953125 L46.5889892578125,70 L48.91845703125,70 L48.91845703125,64.17626953125 C48.91845703125,60.9150390625 46.3560791015625,58.352783203125 43.0948486328125,58.352783203125 C39.9500732421875,58.352783203125 39.60064697265625,56.955078125 39.60064697265625,56.25634765625 C44.026611328125,54.392578125 46.70550537109375,49.966796875 46.5889892578125,45.19140625 L46.5889892578125,44.3759765625 C46.5889892578125,42.745361328125 46.2396240234375,41.11474609375 45.42431640625,39.717041015625 L53.22796630859375,39.717041015625 C55.67388916015625,39.717041015625 57.7703857421875,41.464111328125 58.11981201171875,43.91015625 C58.35272216796875,46.47265625 56.48919677734375,48.802001953125 53.46087646484375,49.034912109375 C52.7620849609375,49.034912109375 52.296142578125,49.500732421875 52.296142578125,50.19970703125 C52.296142578125,50.8984375 52.7620849609375,51.364501953125 53.46087646484375,51.364501953125 C57.53741455078125,51.364501953125 69.76702880859375,51.364501953125 69.76702880859375,38.552490234375 L69.76702880859375,11.647216796875 C69.883544921875,9.0849609375 67.7869873046875,6.98828125 65.224609375,6.98828125 L65.224609375,6.98828125ZM16.53912353515625,29.117919921875 C12.928466796875,29.117919921875 9.78369140625,31.796875 9.31781005859375,35.407470703125 C9.20135498046875,37.154541015625 9.667236328125,38.901611328125 10.71551513671875,40.29931640625 C5.00836181640625,39.134765625 2.3294677734375,35.989990234375 2.3294677734375,30.28271484375 L2.3294677734375,4.65869140625 C2.3294677734375,3.377685546875 3.37774658203125,2.329345703125 4.658935546875,2.329345703125 L37.271240234375,2.329345703125 C38.55242919921875,2.329345703125 39.6007080078125,3.377685546875 39.6007080078125,4.65869140625 L39.6007080078125,26.78857421875 C39.6007080078125,28.06982421875 38.55242919921875,29.117919921875 37.271240234375,29.117919921875 L16.53912353515625,29.117919921875 L16.53912353515625,29.117919921875ZM59.1680908203125,48.45263671875 C64.875244140625,47.287841796875 67.5540771484375,44.14306640625 67.5540771484375,38.43603515625 L67.5540771484375,11.647216796875 C67.5540771484375,10.3662109375 66.505859375,9.31787109375 65.224609375,9.31787109375 L41.93011474609375,9.31787109375 L41.93011474609375,26.788818359375 C41.93011474609375,29.35107421875 39.8336181640625,31.44775390625 37.271240234375,31.44775390625 L34.9417724609375,31.44775390625 L34.9417724609375,33.777099609375 L36.10650634765625,33.777099609375 C39.134765625,33.777099609375 41.93011474609375,35.058349609375 43.91015625,37.271240234375 L53.34442138671875,37.271240234375 C57.071533203125,37.271240234375 60.099853515625,39.9501953125 60.56573486328125,43.560791015625 C60.68218994140625,45.307861328125 60.21630859375,47.054931640625 59.1680908203125,48.45263671875 L59.1680908203125,48.45263671875ZM36.10650634765625,36.1064453125 L23.4110107421875,36.1064453125 C23.99334716796875,40.06640625 27.37109375,43.0947265625 31.4476318359375,43.0947265625 L44.14312744140625,43.0947265625 C43.56072998046875,39.134765625 40.18304443359375,36.1064453125 36.10650634765625,36.1064453125 L36.10650634765625,36.1064453125ZM38.0865478515625,54.15966796875 C37.62060546875,54.276123046875 37.271240234375,54.7421875 37.271240234375,55.2080078125 L37.271240234375,55.90673828125 C37.15472412109375,57.537353515625 38.0865478515625,59.16796875 39.60064697265625,59.866943359375 L36.5723876953125,61.381103515625 C35.52410888671875,61.846923828125 34.242919921875,61.846923828125 33.1947021484375,61.381103515625 L30.2828369140625,59.866943359375 C31.7969970703125,59.16796875 32.728759765625,57.537353515625 32.6123046875,55.90673828125 L32.6123046875,55.324462890625 C32.6123046875,54.858642578125 32.26287841796875,54.392822265625 31.7969970703125,54.276123046875 C28.06988525390625,52.878662109375 25.62396240234375,49.38427734375 25.62396240234375,45.42431640625 C25.62396240234375,44.842041015625 25.62396240234375,44.259521484375 25.74041748046875,43.793701171875 C27.37103271484375,44.842041015625 29.35107421875,45.42431640625 31.44757080078125,45.42431640625 L44.25958251953125,45.42431640625 C44.25958251953125,49.38427734375 41.81365966796875,52.878662109375 38.0865478515625,54.15966796875 L38.0865478515625,54.15966796875Z"/>
    <path id="path-1" opacity="1" fill-rule="evenodd" d="M26.7886962890625,12.81201171875 L25.62396240234375,12.81201171875 C24.92510986328125,12.81201171875 24.459228515625,12.34619140625 24.459228515625,11.647216796875 L24.459228515625,8.153076171875 C24.459228515625,6.173095703125 22.945068359375,4.658935546875 20.965087890625,4.658935546875 C18.98504638671875,4.658935546875 17.47088623046875,6.173095703125 17.47088623046875,8.153076171875 L17.47088623046875,11.647216796875 C17.47088623046875,12.34619140625 17.0050048828125,12.81201171875 16.30615234375,12.81201171875 C16.30615234375,12.11328125 15.84027099609375,11.647216796875 15.14141845703125,11.647216796875 L10.4825439453125,11.647216796875 C9.78369140625,11.647216796875 9.31781005859375,12.11328125 9.31781005859375,12.81201171875 L9.31781005859375,25.6240234375 C9.31781005859375,26.32275390625 9.78369140625,26.788818359375 10.4825439453125,26.788818359375 L15.14141845703125,26.788818359375 C15.84027099609375,26.788818359375 16.30615234375,26.32275390625 16.30615234375,25.6240234375 L26.7886962890625,25.6240234375 C28.76873779296875,25.6240234375 30.2828369140625,24.10986328125 30.2828369140625,22.1298828125 L30.2828369140625,16.30615234375 C30.2828369140625,14.326171875 28.76873779296875,12.81201171875 26.7886962890625,12.81201171875 L26.7886962890625,12.81201171875ZM26.7886962890625,23.29443359375 C27.48748779296875,23.29443359375 27.95343017578125,22.82861328125 27.95343017578125,22.129638671875 L27.95343017578125,16.30615234375 C27.95343017578125,15.607177734375 27.48748779296875,15.141357421875 26.7886962890625,15.141357421875 L25.62396240234375,15.141357421875 C23.6439208984375,15.141357421875 22.1297607421875,13.627197265625 22.1297607421875,11.647216796875 L22.1297607421875,8.153076171875 C22.1297607421875,7.4541015625 21.66387939453125,6.98828125 20.96502685546875,6.98828125 C20.2662353515625,6.98828125 19.80035400390625,7.4541015625 19.80035400390625,8.153076171875 L19.80035400390625,11.647216796875 C19.80035400390625,13.627197265625 18.28619384765625,15.141357421875 16.30615234375,15.141357421875 L16.30615234375,23.29443359375 L26.7886962890625,23.29443359375 L26.7886962890625,23.29443359375ZM13.97674560546875,24.459228515625 L11.64727783203125,24.459228515625 L11.64727783203125,13.976806640625 L13.97674560546875,13.976806640625 L13.97674560546875,24.459228515625 L13.97674560546875,24.459228515625Z"/>
    <path id="path-2" opacity="1" fill-rule="evenodd" d="M64.0599365234375,11.647216796875 L59.4010009765625,11.647216796875 C58.7021484375,11.647216796875 58.23626708984375,12.113037109375 58.23626708984375,12.81201171875 L47.7537841796875,12.81201171875 C45.77374267578125,12.81201171875 44.25958251953125,14.326171875 44.25958251953125,16.30615234375 L44.25958251953125,22.129638671875 C44.25958251953125,24.10986328125 45.77374267578125,25.6240234375 47.7537841796875,25.6240234375 L48.91845703125,25.6240234375 C49.6173095703125,25.6240234375 50.08319091796875,26.08984375 50.08319091796875,26.78857421875 L50.08319091796875,30.28271484375 C50.08319091796875,32.262939453125 51.59735107421875,33.777099609375 53.577392578125,33.777099609375 C55.55743408203125,33.777099609375 57.071533203125,32.262939453125 57.071533203125,30.28271484375 L57.071533203125,26.78857421875 C57.071533203125,26.08984375 57.5374755859375,25.6240234375 58.23626708984375,25.6240234375 C58.23626708984375,26.32275390625 58.7021484375,26.78857421875 59.4010009765625,26.78857421875 L64.0599365234375,26.78857421875 C64.75872802734375,26.78857421875 65.224609375,26.32275390625 65.224609375,25.6240234375 L65.224609375,12.81201171875 C65.224609375,12.113037109375 64.75872802734375,11.647216796875 64.0599365234375,11.647216796875 L64.0599365234375,11.647216796875ZM60.56573486328125,24.459228515625 L62.89520263671875,24.459228515625 L62.89520263671875,13.976806640625 L60.56573486328125,13.976806640625 L60.56573486328125,24.459228515625 L60.56573486328125,24.459228515625ZM58.236328125,23.29443359375 C56.25628662109375,23.29443359375 54.74212646484375,24.80859375 54.74212646484375,26.78857421875 L54.74212646484375,30.28271484375 C54.74212646484375,30.981689453125 54.2762451171875,31.447509765625 53.577392578125,31.447509765625 C52.8785400390625,31.447509765625 52.41265869140625,30.981689453125 52.41265869140625,30.28271484375 L52.41265869140625,26.78857421875 C52.41265869140625,24.80859375 50.8985595703125,23.29443359375 48.91851806640625,23.29443359375 L47.7537841796875,23.29443359375 C47.054931640625,23.29443359375 46.58905029296875,22.82861328125 46.58905029296875,22.129638671875 L46.58905029296875,16.30615234375 C46.58905029296875,15.607177734375 47.054931640625,15.141357421875 47.7537841796875,15.141357421875 L58.236328125,15.141357421875 L58.236328125,23.29443359375 L58.236328125,23.29443359375Z"/>
    <rect id="rect-3" opacity="1" x="43.09486217229869" y="30.282858821432455" width="4.658901357143463" height="2.32945067857176" rx="0" ry="0"/>
    <path id="path-4" opacity="1" fill-rule="evenodd" d="M31.44760877944008,5.823626696429223 L31.44760877944008,4.65890135714335 L29.118158100868335,4.65890135714335 L29.118158100868335,5.823626696429223 L27.953432761582462,5.823626696429223 L27.953432761582462,8.153077375000969 L29.118158100868335,8.153077375000969 L29.118158100868335,9.317802714286842 L31.44760877944008,9.317802714286842 L31.44760877944008,8.153077375000969 L32.612334118725954,8.153077375000969 L32.612334118725954,5.823626696429223 L31.44760877944008,5.823626696429223Z"/>
  </defs>
  <g opacity="1">
    <g opacity="1">
      <use xlink:href="#path-0" fill="rgb(79,79,79)" fill-opacity="1"/>
    </g>
    <g opacity="1">
      <use xlink:href="#path-1" fill="rgb(79,79,79)" fill-opacity="1"/>
    </g>
    <g opacity="1">
      <use xlink:href="#path-2" fill="rgb(79,79,79)" fill-opacity="1"/>
    </g>
    <g opacity="1">
      <use xlink:href="#rect-3" fill="rgb(79,79,79)" fill-opacity="1"/>
    </g>
    <g opacity="1">
      <use xlink:href="#path-4" fill="rgb(79,79,79)" fill-opacity="1"/>
    </g>
  </g>
</svg>