<?xml version="1.0" encoding="utf-8"?>
<svg version="1.1" xmlns="http://www.w3.org/2000/svg" xmlns:xlink="http://www.w3.org/1999/xlink" height="98.70463010947879" width="340.70463644281153">
  <defs>
    <path id="path-0" opacity="1" fill-rule="evenodd" d="M58.35231505473894,2.3523150547393925 L291.35232138807237,2.3523150547393983 C317.30970463011965,2.3523150547393983 338.35232138807237,23.39493181269211 338.35232138807237,49.35231505473939 C338.35232138807237,75.30969829678668 317.30970463011965,96.35231505473939 291.35232138807237,96.35231505473939 L58.35231505473894,96.35231505473939 L58.35231505473894,2.3523150547393925Z"/>
    <path id="path-1" opacity="1" fill-rule="evenodd" d="M49.352315054739165,2.3523150547393925 L55.35231505473888,2.3523150547393925 C81.29232120595688,2.3523150547393925 102.35231505473888,23.412308903521392 102.35231505473888,49.35231505473939 C102.35231505473888,75.29232120595739 81.29232120595688,96.35231505473939 55.35231505473888,96.35231505473939 L49.352315054739165,96.35231505473939 C23.412308903521172,96.35231505473939 2.3523150547391722,75.29232120595739 2.352315054739165,49.35231505473939 C2.352315054739165,23.4123089035214 23.412308903521154,2.3523150547393996 49.352315054739165,2.3523150547393925Z"/>
    <path id="path-2" opacity="1" fill-rule="evenodd" d="M64.35231505473917,33.35231505473939 L66.35231505473917,33.35231505473939 C68.55231200298135,33.35231505473939 70.35231505473917,35.15236388286439 70.35231505473917,37.35231505473939 L70.35231505473917,65.35231505473939 C70.35231505473917,67.55226622661439 68.55231200298135,69.35231505473939 66.35231505473917,69.35231505473939 L38.352315054739165,69.35231505473939 C36.15231810649698,69.35231505473939 34.352315054739165,67.55226622661439 34.352315054739165,65.35231505473939 L34.352315054739165,37.35231505473939 C34.352315054739165,35.15236388286439 36.15231810649698,33.35231505473939 38.352315054739165,33.35231505473939 L40.352315054739165,33.35231505473939 L40.352315054739165,29.352315054739393 L44.352315054739165,29.352315054739393 L44.352315054739165,33.35231505473939 L60.352315054739165,33.35231505473939 L60.352315054739165,29.352315054739393 L64.35231505473917,29.352315054739393 L64.35231505473917,33.35231505473939 L64.35231505473917,33.35231505473939ZM38.352315054739165,65.35231505473939 L66.35231505473917,65.35231505473939 L66.35231505473917,43.35231505473939 L38.352315054739165,43.35231505473939 L38.352315054739165,65.35231505473939 L38.352315054739165,65.35231505473939Z"/>
    <rect id="rect-3" opacity="1" x="42.35231505473894" y="47.35231505473939" width="10" height="10" rx="0" ry="0"/>
  </defs>
  <g opacity="1">
    <g opacity="1">
      <use xlink:href="#path-0" fill="rgb(255,255,255)" fill-opacity="1"/>
      <use xlink:href="#path-0" fill-opacity="0" stroke="rgb(128,128,128)" stroke-opacity="1" stroke-width="1" stroke-linecap="butt" stroke-linejoin="miter"/>
    </g>
    <g opacity="1">
      <use xlink:href="#path-1" fill="rgb(250,153,23)" fill-opacity="1"/>
    </g>
    <g opacity="1">
      <g opacity="1">
        <use xlink:href="#path-2" fill="rgb(255,255,255)" fill-opacity="1"/>
      </g>
      <g opacity="1">
        <use xlink:href="#rect-3" fill="rgb(255,255,255)" fill-opacity="1"/>
      </g>
    </g>
  </g>
</svg>