<?xml version="1.0" encoding="utf-8"?>
<svg version="1.1" xmlns="http://www.w3.org/2000/svg" xmlns:xlink="http://www.w3.org/1999/xlink" height="120" width="161.3207568942987">
  <defs>
    <path id="path-0" opacity="1" fill-rule="evenodd" d="M96.18145701753112,23.402427963145158 C86.40791931491283,23.150236863587487 77.09950052644882,20.80652077668026 68.21089686179936,18.242326243453142 C59.322293197149904,15.678131710226026 50.518256607801234,12.831543550548112 40.97878848860474,11.472429840357064 C34.84314515026449,10.598066686800822 27.82558802664472,10.474236326538971 22.882944500583278,12.919130878538203 C18.124536388569958,15.26888747082406 16.587227769709415,19.325086832572012 15.76118865918219,23.100402694213813 C15.13901660518362,25.934909843134484 14.773566029776696,28.917409373831507 16.476988546549478,31.57070136139336 C17.660927600760346,33.41305550187456 19.760003219833187,34.960935005147704 21.212744763392948,36.72627270205141 C26.26713763895899,42.866446419425635 22.694178707501187,50.436709785189784 17.218460581775926,56.431911373476964 C14.6512457958595,59.243766627227785 11.668746265162483,61.925751015338115 9.68595037462821,64.92033155679239 C7.703154484093936,67.91491209824667 6.786507792887306,71.34289890061743 8.521642962897879,74.39788449585798 C10.240166743117225,77.41813718517142 14.337139516170907,79.69691783925842 18.775400843117005,81.29614163824986 C27.78934499437296,84.54442340560648 38.40704332365436,85.47315110757036 48.76802017434411,86.00018520185556 C71.6962684652671,87.16600273993055 94.74532686376259,86.66011041447054 117.73398020847183,86.15119783632123 C126.2420320342678,85.96394216958379 134.7863268923355,85.7751763765017 143.15544709442307,84.79208412613018 C147.80361598327642,84.24994876839841 152.60128738025085,83.38766662559944 155.9764197605586,81.3082226490071 C160.25913807400502,78.66852179854718 161.32075689429874,74.19854781836327 158.45000671310632,70.88835087087574 C153.6357239263407,65.33561630157297 140.32849057722566,63.95536082255674 136.95939870229654,57.99640226654131 C135.10798380374743,54.71640784594691 137.00923287167024,51.06341221822231 139.70178814419316,48.020507633739015 C145.47651128616045,41.495251698477325 155.15491102906537,35.77036272588369 155.66382360721465,28.31033858327949 C156.01417291917502,23.187990022203895 151.36147365128767,18.056580703060355 144.16723174534306,15.632827919886314 C136.62717090647206,13.09279540817371 126.16954596972427,13.411432066896277 120.60926076869823,17.617133936765242 C114.87833129072598,21.95270667227469 104.81182907724428,23.61988615677571 96.18145701753112,23.402427963145158Z"/>
    <path id="path-1" opacity="1" fill-rule="evenodd" d="M149.37112712903001,34.51393760712931 C149.37112712903001,34.51393760712931 147.66770461225724,33.822299741276524 142.24937128762897,36.30796770458149 C136.83103796300068,38.79363566788646 136.15450136059448,38.478019261853206 134.7515939864084,38.09746742299971 C133.34868661222234,37.71691558414622 132.56644116569015,37.62781812981147 131.06235532641207,35.55290453225314 C131.06235532641207,35.55290453225314 130.00526688515237,29.803853538145002 128.97536071809648,28.90834861576357 C127.9454545510406,28.01284369338213 123.58722992036135,29.417261193912882 123.58722992036135,29.417261193912882 C123.58722992036135,29.417261193912882 118.35917251515981,30.619321764259627 117.35644862230775,23.628946914843674 C117.35644862230775,23.628946914843674 118.06318775160709,18.361626224681032 117.09972714371611,16.744280909553684 C117.09972714371611,16.744280909553684 119.04476987563395,17.582401030838167 122.25227823168481,16.229327826025745 C125.45978658773566,14.876254621213322 128.02700137365207,17.688109874964134 128.02700137365207,17.688109874964134 C128.02700137365207,17.688109874964134 128.83642909438808,19.782655115003006 128.7518620190873,21.030019475689457 C128.66729494378652,22.277383836375904 129.17922777462513,22.748543255908803 130.715026267141,22.144492718046116 C130.715026267141,22.144492718046116 131.47008943946938,21.075323266029155 130.40243011379707,19.308475442780797 C129.33477078812476,17.541627619532434 128.57819748945175,16.224797446991772 128.87569237934912,14.852092599698812 C129.1731872692465,13.479387752405854 130.02640865397754,11.578138684483044 132.77030822221877,10.623738834659996 C135.51420779046,9.669338984836948 139.24270973541744,9.491144076167455 141.03220945383566,8.754202419974977 C142.82170917225386,8.017260763782497 143.25360530682568,7.523449449079749 143.25360530682568,7.523449449079749 C143.25360530682568,7.523449449079749 142.15272320157095,8.627351807023812 144.74712026169118,13.302702970081018 C147.34151732181138,17.978054133138222 145.6879289744123,20.00917406670151 145.6879289744123,20.00917406670151 C145.6879289744123,20.00917406670151 144.30767349539607,23.298229245363846 138.2158238210509,23.02942675601495 C138.2158238210509,23.02942675601495 132.34596271937025,23.2438646969562 135.54592044369784,25.73255291295048 C135.54592044369784,25.73255291295048 137.595161893397,25.315758041825227 140.66071837305012,24.341726549521642 C143.72627485270323,23.367695057218054 145.935589694936,27.387651386694248 146.48527568439107,30.184405376998495 C147.0349616738461,32.98115936730274 149.37112712903001,34.513937607129314 149.37112712903001,34.51393760712931Z"/>
    <path id="path-2" opacity="1" fill-rule="evenodd" d="M141.51393975778123,11.054124842887177 C141.74951946754766,11.946609512579299 139.12643000687896,15.531649454794358 136.88389238506375,18.38276799350625 L136.8582202372046,18.363136351025712 C140.02042480291576,14.341669895204861 141.66948277128088,11.748782961429269 141.48222710454343,11.063185600955116 L141.51393975778123,11.054124842887177Z"/>
    <path id="path-3" opacity="1" fill-rule="evenodd" d="M136.91711516464625,18.340484455855893 C135.12610531988335,20.617754983598235 132.87299681365553,23.335982403980335 131.0699059581354,25.34898082140775 C130.89775155484452,25.54076686717916 130.7271072778983,25.7416136710185 130.56401363267537,25.95303135927044 L130.5111592106124,25.912257947964708 C130.67727310852464,25.705370638746736 130.84791738547085,25.503013708562733 131.0200717887617,25.308207410102018 C132.82316264428187,23.292188739985292 135.1140243091261,20.580001824981814 136.90352402754434,18.30424142358413 L136.91711516464625,18.340484455855893Z"/>
    <path id="path-4" opacity="1" fill-rule="evenodd" d="M130.55495287460744,25.851852894178364 L130.5911959068792,25.912257947964633 C127.30969135994025,30.00923072101832 127.0922331663097,36.369882884712425 127.08468253458639,36.42575755946473 L126.39304466873364,35.6344513548646 C126.40059530045691,35.571026048389015 127.25079643249862,29.97600794143587 130.55495287460744,25.851852894178364Z"/>
    <path id="path-5" opacity="1" fill-rule="evenodd" d="M145.5671188668398,32.29254175413925 C145.5671188668398,32.29254175413925 141.6981751718293,30.2810534630565 138.68245286154982,31.002893855802412 C135.66673055127035,31.724734248548323 128.87871263203843,28.450780333332556 128.87871263203843,28.450780333332556 C128.87871263203843,28.450780333332556 125.99588144008877,27.280432416223597 125.41599292374059,25.945480727547057 C125.41599292374059,25.945480727547057 123.43923753858495,23.8539557401975 123.3259780627357,22.774215403767943 C123.21271858688644,21.694475067338388 121.28277711841517,18.970207141577667 120.03239250503941,18.87204892917498 "/>
    <path id="path-6" opacity="1" fill-rule="evenodd" d="M145.00686199297218,34.22852372798917 C145.00686199297218,34.22852372798917 143.0587990083651,32.91622393448251 143.2853179600636,31.38495582100063 "/>
    <path id="path-7" opacity="1" fill-rule="evenodd" d="M142.01832195689667,35.92439561303871 C142.01832195689667,35.92439561303871 139.23062872466028,34.91261096211871 138.9512553508988,30.940978675671545 "/>
    <path id="path-8" opacity="1" fill-rule="evenodd" d="M137.52116570250894,36.951281527405285 C137.52116570250894,36.951281527405285 134.85730283053442,34.74196668517253 135.74223686850328,30.880573621885333 "/>
    <path id="path-9" opacity="1" fill-rule="evenodd" d="M132.11642351498256,35.87154119097576 C132.11642351498256,35.87154119097576 130.34353518635533,32.15210000408624 131.9216172165218,29.732877599946164 "/>
    <path id="path-10" opacity="1" fill-rule="evenodd" d="M145.61242265717965,29.84009657041679 C145.61242265717965,29.84009657041679 143.59640398706279,30.48039014055125 144.0298102479793,31.540498834500283 "/>
    <path id="path-11" opacity="1" fill-rule="evenodd" d="M143.17960911593764,26.18257056365826 C143.17960911593764,26.18257056365826 140.48252346438076,27.03730207473397 140.41909815790518,30.853391347681537 "/>
    <path id="path-12" opacity="1" fill-rule="evenodd" d="M139.41939451774238,25.30216690472332 C139.41939451774238,25.30216690472332 136.96543920767522,28.331480352104716 137.13910373731073,31.084440678413927 "/>
    <path id="path-13" opacity="1" fill-rule="evenodd" d="M135.1215749408493,26.490636337968226 C135.1215749408493,26.490636337968226 132.68272089422885,28.820761287773557 132.9938069212281,30.11493956514437 "/>
    <path id="path-14" opacity="1" fill-rule="evenodd" d="M133.6507118811537,25.667617480130335 C133.6507118811537,25.667617480130335 131.36438059534342,26.076861719532303 131.04574393662085,25.32632892623792 "/>
    <path id="path-15" opacity="1" fill-rule="evenodd" d="M130.68029336121378,22.90710652209782 C130.68029336121378,22.90710652209782 131.8355400148763,24.43686450923505 132.1330349047737,24.094065828997984 "/>
    <path id="path-16" opacity="1" fill-rule="evenodd" d="M142.1300713064013,21.93911553517282 C142.1300713064013,21.93911553517282 136.3674291751912,22.357420532642735 135.06419013975244,20.6207752362875 "/>
    <path id="path-17" opacity="1" fill-rule="evenodd" d="M129.46766190645474,15.199421658969868 C129.46766190645474,15.199421658969868 132.17229818973485,21.002837201485615 134.13546243778853,21.7427991103674 "/>
    <path id="path-18" opacity="1" fill-rule="evenodd" d="M132.3066994344091,12.434380321903404 C132.3066994344091,12.434380321903404 133.96783841353155,17.77267695026491 136.02463049495407,19.43985643476593 "/>
    <path id="path-19" opacity="1" fill-rule="evenodd" d="M130.17440103575393,6.238331929776941 C130.17440103575393,6.238331929776941 125.79503463624938,8.118439228874543 123.16137429116804,6.2156800346070895 "/>
    <path id="path-20" opacity="1" fill-rule="evenodd" d="M121.82793272883623,0 C121.82793272883623,0 122.82914649534365,3.9263284961074874 124.1776893211221,4.873177714207255 "/>
    <path id="path-21" opacity="1" fill-rule="evenodd" d="M129.51296569679414,1.8378237614472255 C129.51296569679414,1.8378237614472255 127.0499496286591,2.76957171610046 126.13028268476319,2.0552819550778016 "/>
    <path id="path-22" opacity="1" fill-rule="evenodd" d="M128.57064685772855,24.189203788711325 C128.57064685772855,24.189203788711325 128.57064685772855,27.6096399593588 127.6388989030753,27.852770300848533 "/>
    <path id="path-23" opacity="1" fill-rule="evenodd" d="M120.95658982796931,28.621424610278765 C120.95658982796931,28.621424610278765 124.65639937237826,28.938551142656678 126.36133201549569,27.029751443010582 "/>
    <path id="path-24" opacity="1" fill-rule="evenodd" d="M127.61624700790537,20.14810569040992 C127.61624700790537,20.14810569040992 126.72225221186861,23.621396283120383 124.2531956383549,24.551634111428925 "/>
    <path id="path-25" opacity="1" fill-rule="evenodd" d="M118.73821422766855,24.966918856209574 C118.73821422766855,24.966918856209574 121.3567733093033,25.872994663003624 123.60837168918647,23.55948110298948 "/>
    <path id="path-26" opacity="1" fill-rule="evenodd" d="M124.706233541752,17.16560615971298 C124.706233541752,17.16560615971298 124.45857282122829,20.11186265813824 122.85632876954742,21.490608010809822 "/>
    <path id="path-27" opacity="1" fill-rule="evenodd" d="M118.83788256641594,20.477313233545033 C118.83788256641594,20.477313233545033 121.01095437637704,20.490904370646945 121.51986695452638,19.784165241347637 "/>
    <ellipse id="ellipse-28" opacity="1" rx="32.92075431351651" ry="2.340695834217854" cx="32.92075431351651" cy="107.197828701802"/>
    <path id="path-29" opacity="1" fill-rule="evenodd" d="M67.80617617664154,103.343994140625 C67.36823367175873,104.16845703125 66.82610415515717,104.9356689453125 66.37307070789154,105.7496337890625 C65.22385500964936,107.8033447265625 64.58205508289154,110.1214599609375 63.99462222156342,112.398681640625 C63.63369082507904,112.33984375 63.275795927618105,112.2733154296875 62.92092227039154,112.188720703125 C62.966225615118105,112.5426025390625 63.06820010242279,112.88671875 63.222939482305605,113.2081298828125 C63.57027529773529,113.8740234375 64.2528467088681,114.2742919921875 64.8840722948056,114.6834716796875 C65.0629510789853,114.515869140625 65.33522891101654,114.49755859375 65.5349512010556,114.6396484375 C66.29453372058686,115.0882568359375 66.90009402332123,115.74365234375 67.70348452625092,116.13623046875 C67.9858789354306,116.275146484375 68.28186892566498,116.386962890625 68.55519961414154,116.5379638671875 C69.23023318347748,116.91845703125 69.74216555652436,117.53759765625 70.1514062791806,118.1990966796875 C70.37188052234467,118.555419921875 70.5666894823056,119.0220947265625 70.3401727586728,119.37548828125 C70.25519656238373,119.4952392578125 70.14484499988373,119.5947265625 70.0170068651181,119.6668701171875 C69.68972109851654,119.89453125 69.29798220691498,120.010986328125 68.89951418933686,119.9991455078125 C68.65940188464936,119.9749755859375 68.42835330066498,119.888916015625 68.18975161609467,119.84814453125 C67.87714480457123,119.7938232421875 67.55548953113373,119.8209228515625 67.2383661180478,119.7938232421875 C66.77977847156342,119.7335205078125 66.33039187488373,119.6168212890625 65.90039919910248,119.4464111328125 L64.35704897937592,118.9149169921875 C63.912453642461855,118.771728515625 63.47974490222748,118.593994140625 63.06287478503998,118.38330078125 C62.81218813953217,118.2474365234375 62.57660769519623,118.0888671875 62.321389189336855,117.966552734375 C62.03516482410248,117.839111328125 61.73925112781342,117.7344970703125 61.43647097644623,117.6539306640625 L60.54096316394623,117.3927001953125 C60.41304873523529,117.3438720703125 60.27546023425873,117.32568359375 60.139260283086855,117.33984375 C60.01392458972748,117.364013671875 59.905190458868105,117.439453125 59.782876005743105,117.4742431640625 C59.590554228399355,117.507568359375 59.392800322149355,117.4881591796875 59.21053408679779,117.4183349609375 L58.17458437976654,117.1163330078125 C57.95568179187592,117.0670166015625 57.746804228399355,116.980712890625 57.55695437488373,116.861083984375 C57.08126162586029,116.5228271484375 57.00122927722748,115.8538818359375 57.00122927722748,115.2679443359375 C57.002175322149355,114.8721923828125 57.11119937000092,114.33349609375 57.21007632312592,113.844970703125 C57.33344363269623,113.2353515625 57.441018095586855,112.7037353515625 57.30324648914154,112.625244140625 C57.73461245593842,112.7275390625 57.85366152820404,112.5943603515625 57.97225283679779,112.461669921875 L57.981301298711855,112.4515380859375 C58.458413115118105,111.8958740234375 58.81112002429779,111.2445068359375 59.015725126836855,110.541259765625 C58.63697146472748,110.2647705078125 58.32054995593842,109.911865234375 58.08699893054779,109.5052490234375 C58.63367556628998,107.416748046875 59.196938505743105,105.2965087890625 60.31140994128998,103.451171875 C60.67385195789154,102.85009765625 61.09064578113373,102.288330078125 61.46515749988373,101.6949462890625 C62.54792117175873,99.974853515625 62.77141665515717,97.807861328125 64.00971316394623,96.1995849609375 C64.25273989734467,95.8660888671875 64.25273989734467,95.4139404296875 64.00971316394623,95.08056640625 C63.97521304187592,95.033203125 63.935524931524355,94.9869384765625 63.895852079961855,94.940673828125 C63.772316923711855,94.7965087890625 63.64887332019623,94.652587890625 63.68201541003998,94.4765625 C63.68972109851654,94.4337158203125 63.695473661993105,94.3740234375 63.70156191882904,94.310791015625 C63.718667021368105,94.1328125 63.73848818836029,93.9266357421875 63.81238650378998,93.989501953125 C63.481179228399355,93.665283203125 63.46636294421967,93.3673095703125 63.45324038562592,93.103515625 C63.451638212774355,93.0714111328125 63.45006655750092,93.039794921875 63.44794558582123,93.0086669921875 C63.40264224109467,92.28076171875 62.96924685535248,91.6419677734375 62.550942411993105,91.0455322265625 C62.46650027332123,90.9046630859375 62.35390566882904,90.7828369140625 62.22022341785248,90.6876220703125 C62.10846804675873,90.6181640625 61.97557925281342,90.587890625 61.86382388171967,90.5169677734375 C61.46968936023529,90.269287109375 61.496865263555605,89.6878662109375 61.30809878406342,89.2574462890625 C61.06043337878998,88.69573974609375 60.438271513555605,88.4012451171875 60.029030790899355,87.940673828125 C59.50350283679779,87.354736328125 59.37061404285248,86.539306640625 58.82093142566498,86.02581787109375 C58.76525210437592,85.97064208984375 58.70514773425873,85.920166015625 58.641213408086855,85.87481689453125 C58.916054716680605,86.7431640625 58.94928835925873,87.64923095703125 58.964394560430605,88.5552978515625 C58.98598574695404,89.8597412109375 58.86255740222748,91.183349609375 58.73900698718842,92.5084228515625 C58.56873416003998,94.3343505859375 58.39821719226654,96.1630859375 58.606484404180605,97.9482421875 C58.89190005359467,100.39013671875 57.39838503894623,102.8289794921875 55.28420352039154,104.0506591796875 C54.470253935430605,104.518798828125 53.57927798328217,104.8314208984375 52.69585513171967,105.1485595703125 C51.37146853503998,105.624267578125 50.04859255847748,106.112060546875 48.74988650378998,106.65869140625 C47.36963748035248,107.237060546875 46.031655302618105,107.8984375 46.031655302618105,107.8984375 C44.93032168445404,108.4368896484375 43.85907839832123,109.0347900390625 42.82264041003998,109.689453125 C41.54659365711029,110.508056640625 40.27053164539154,111.338623046875 39.36444949207123,112.5587158203125 C38.81029604968842,112.5322265625 38.27753542957123,112.336669921875 37.83771609363373,111.99853515625 C37.494912138555605,112.2733154296875 37.06755923328217,112.4847412109375 36.73986147937592,112.7867431640625 C36.26416873035248,113.230712890625 36.021035185430605,113.8514404296875 35.87001895007904,114.497802734375 L36.00592898425873,114.497802734375 L35.96062563953217,115.4144287109375 C35.926247587774355,115.54931640625 35.988625517461855,115.6903076171875 36.11164187488373,115.7557373046875 L36.81234072742279,116.240478515625 C37.325783720586855,116.5892333984375 37.89057253894623,117.0257568359375 37.91925906238373,117.6463623046875 C37.93489932117279,117.8271484375 37.88088320789154,118.0069580078125 37.76825808582123,118.1492919921875 C37.61422061023529,118.327392578125 37.36806582507904,118.3863525390625 37.138527861211855,118.4346923828125 C35.909279814336855,118.69287109375 34.651345244024355,118.945068359375 33.405495634649355,118.7774658203125 C32.815041533086855,118.6973876953125 32.20343874988373,118.49658203125 31.81684207019623,118.0435791015625 C31.464989653204043,117.626708984375 31.353234282110293,117.06201171875 31.262627592657168,116.5213623046875 C31.031579008672793,115.1319580078125 30.88056277332123,113.735107421875 30.88056277332123,113.735107421875 C30.837807646368105,113.33984375 30.677697172735293,112.672119140625 30.577752104375918,112.2552490234375 C30.526223173711855,112.0404052734375 30.490700712774355,111.8922119140625 30.495446196172793,111.88232421875 C30.347771635625918,111.7391357421875 30.285058012579043,111.7596435546875 30.232720366094668,111.73876953125 C30.170525541875918,111.7001953125 30.129784575079043,111.6348876953125 30.122475615118105,111.56201171875 C29.89472292957123,110.65673828125 29.784081450079043,109.7259521484375 29.79328249988373,108.79248046875 C29.781945219610293,108.550048828125 29.818902006719668,108.3077392578125 29.902001371954043,108.0797119140625 C30.06812380847748,107.685546875 30.472832670782168,107.4364013671875 30.883584013555605,107.32470703125 C31.294335356329043,107.212890625 31.726235380743105,107.21435546875 32.15058230457123,107.173583984375 C32.50780581531342,107.138671875 32.861428251836855,107.073486328125 33.20766543445404,106.9788818359375 C33.26642703113373,106.9566650390625 33.40126895007904,106.9693603515625 33.51722048816498,106.9803466796875 C33.59237002429779,106.9874267578125 33.65956973132904,106.9937744140625 33.69301699695404,106.9893798828125 C33.90166567859467,107.283935546875 33.88373660144623,107.3316650390625 33.85701846179779,107.37451171875 C33.97481631336029,107.348876953125 34.09410952625092,107.326171875 34.213417997930605,107.303466796875 C34.50336550769623,107.2506103515625 34.91109561023529,107.123779296875 35.33544253406342,107.01806640625 C35.32940005359467,106.9501953125 35.32033633289154,106.87158203125 35.32033633289154,106.799072265625 C35.31902407703217,106.631591796875 35.41341494617279,106.47802734375 35.56346987781342,106.4034423828125 L41.620583525274355,103.167236328125 L42.75318240222748,102.563232421875 C45.23432253894623,101.23583984375 47.80304812488373,100.0096435546875 50.28417300281342,98.6822509765625 C50.37645815906342,98.71044921875 50.500771513555605,98.500732421875 50.579018583868105,98.3687744140625 C50.64290713367279,98.260986328125 50.67609499988373,98.2049560546875 50.63604067859467,98.3726806640625 C50.95618533191498,97.889404296875 51.05736636218842,97.890869140625 51.11626528796967,97.824462890625 C51.15624331531342,97.7645263671875 51.17139529285248,97.69140625 51.158547392461855,97.62060546875 C51.12441348132904,97.0955810546875 50.941750517461855,96.588623046875 50.76018618640717,96.084716796875 C50.523903837774355,95.4290771484375 50.28951357898529,94.778564453125 50.38686465320404,94.1004638671875 C50.41109561023529,93.9256591796875 50.45787905750092,93.751953125 50.50444888171967,93.578857421875 C50.59429263171967,93.2451171875 50.683449736211855,92.9139404296875 50.608864775274355,92.582763671875 C50.52881716785248,92.2369384765625 50.281167021368105,91.95458984375 50.14675234851654,91.6239013671875 C50.00295352039154,91.265869140625 50.00031374988373,90.8721923828125 49.99767397937592,90.4791259765625 C49.99489687976654,90.0633544921875 49.992104521368105,89.6483154296875 49.82207583484467,89.277099609375 C49.60460757312592,88.80255126953125 49.45710085925873,88.29901123046875 49.38414858875092,87.7821044921875 C49.22895144519623,86.751953125 48.91675662097748,85.751708984375 48.45844363269623,84.81622314453125 C48.23854922351654,84.34375 47.95113467273529,83.90576171875 47.60521792468842,83.5159912109375 C47.42400454578217,83.31817626953125 47.21862124500092,83.1414794921875 47.04647158679779,82.9376220703125 C46.517922392461855,82.30792236328125 46.32613467273529,81.46826171875 46.17511843738373,80.6573486328125 C45.903298369024355,79.18798828125 45.72057437000092,77.66278076171875 46.05431460437592,76.20550537109375 C46.16909121570404,75.7086181640625 46.336709013555605,75.21636962890625 46.336709013555605,74.7059326171875 C46.33443545398529,74.5228271484375 46.31153201160248,74.33154296875 46.28862856921967,74.14031982421875 C46.235390654180605,73.69580078125 46.182167997930605,73.25140380859375 46.38805483875092,72.910400390625 C46.204873076055605,72.76239013671875 46.02381228503998,72.33746337890625 45.91533755359467,72.0828857421875 C45.84369753894623,71.91473388671875 45.80371951160248,71.82086181640625 45.815712919805605,71.9302978515625 C45.63684939441498,71.3834228515625 45.50574587878998,71.2657470703125 45.353615751836855,71.1812744140625 C44.87133120593842,70.81268310546875 44.64153384265717,70.20123291015625 44.76165103015717,69.606201171875 C44.447548857305605,69.74969482421875 44.11682986316498,69.4295654296875 43.97034548816498,69.11541748046875 C43.82386111316498,68.80133056640625 43.70757388171967,68.41925048828125 43.39045046863373,68.286376953125 C43.17450808582123,68.18975830078125 42.925332060430605,68.2486572265625 42.69881533679779,68.18975830078125 C42.334877958868105,68.0946044921875 42.112893095586855,67.73968505859375 41.85616396961029,67.46337890625 C41.333657255743105,66.89251708984375 40.59218691882904,66.60107421875 39.906594267461855,66.2552490234375 C37.875466337774355,65.22235107421875 36.21886538562592,63.5853271484375 34.59850405750092,61.97705078125 C33.78302859363373,61.1661376953125 32.961525908086855,60.35064697265625 32.31366824207123,59.396240234375 C32.13245486316498,59.12744140625 31.961815825079043,58.849609375 31.81079958972748,58.565673828125 L31.756432524297793,58.5943603515625 C31.730767241094668,58.69708251953125 31.702080717657168,58.7967529296875 31.671868315313418,58.89642333984375 C31.597878447149355,59.135009765625 31.514824858282168,59.37213134765625 31.431756010625918,59.606201171875 C31.18561648425873,60.30084228515625 30.916802397344668,61.0272216796875 30.41242312488373,61.54669189453125 C30.258202543829043,61.70703125 30.081719389532168,61.84429931640625 29.888405790899355,61.95440673828125 C29.470971098516543,62.17645263671875 29.013649931524355,62.3134765625 28.542885771368105,62.35760498046875 C28.36469363269623,62.3787841796875 28.18348025378998,62.392333984375 28.00226687488373,62.4029541015625 C27.82105349597748,62.41351318359375 27.641350737188418,62.424072265625 27.46314333972748,62.424072265625 L23.751259794805605,62.522216796875 C25.025811186407168,60.681396484375 25.126992216680605,58.27728271484375 25.043923369024355,56.0286865234375 C24.980828276250918,54.31671142578125 24.83753298816498,52.60009765625 24.694268217657168,50.884033203125 C24.354058256719668,46.80853271484375 24.014092436407168,42.73614501953125 24.74945925769623,38.7362060546875 C24.874794951055605,38.05517578125 25.042412748907168,37.35595703125 25.46222781238373,36.8062744140625 C26.01343630847748,36.0859375 26.917992582891543,35.73712158203125 27.79688357410248,35.53326416015625 C28.675774565313418,35.32940673828125 29.590920439336855,35.231201171875 30.415444365118105,34.8597412109375 C31.113121977422793,34.547119140625 31.73529910144623,34.042724609375 32.481301298711855,33.87664794921875 C33.02192019519623,33.75433349609375 33.58368777332123,33.82379150390625 34.131875029180605,33.90533447265625 C35.13610171375092,34.0533447265625 36.12825869617279,34.2572021484375 36.12825869617279,34.2572021484375 L36.30645083484467,34.29193115234375 L36.44387148914154,34.3236083984375 L36.542031279180605,34.3477783203125 L36.67189883289154,34.384033203125 L36.798745146368105,34.42327880859375 L36.92409609851654,34.465576171875 L36.975441923711855,34.4852294921875 L37.10228823718842,34.53656005859375 L37.22460269031342,34.59246826171875 C37.22460269031342,34.59246826171875 37.31568240222748,34.64105224609375 37.34442996082123,34.65631103515625 C37.342263212774355,34.6551513671875 37.34723757800873,34.65777587890625 37.34723757800873,34.65777587890625 C37.375161161993105,34.674072265625 37.45263003406342,34.7222900390625 37.45263003406342,34.7222900390625 L37.559853544805605,34.79779052734375 L37.66103457507904,34.880859375 C37.72144412097748,34.93524169921875 37.73804568347748,34.953369140625 37.75466250476654,34.97149658203125 C37.810708036993105,35.0308837890625 37.84980105457123,35.0802001953125 37.84375857410248,35.07415771484375 C37.89510439929779,35.140625 37.94178103503998,35.2138671875 37.934365263555605,35.20404052734375 C37.96874331531342,35.26031494140625 38.01628970203217,35.37457275390625 38.04651736316498,35.44720458984375 C38.06545352039154,35.49267578125 38.07756899890717,35.5218505859375 38.07538699207123,35.5101318359375 C38.13825320300873,35.746337890625 38.15479373035248,35.8447265625 38.16390322742279,35.94403076171875 C38.174477568243105,35.9923095703125 38.174477568243105,36.043701171875 38.174477568243105,36.09503173828125 C38.16625308093842,36.5692138671875 38.14708804187592,36.74072265625 38.11708926257904,36.91046142578125 C39.770302763555605,37.88702392578125 40.80626772937592,39.64404296875 40.86054324207123,41.56341552734375 C40.91480349597748,43.48272705078125 38.36475466785248,46.55865478515625 38.384377470586855,46.3638916015625 C38.373818388555605,46.46502685546875 38.36475466785248,46.69610595703125 38.36475466785248,46.69610595703125 C38.37703799304779,47.0205078125 38.409829130743105,47.34381103515625 38.46291445789154,47.6640625 C39.37366580066498,47.48712158203125 40.30025576648529,47.4046630859375 41.227944365118105,47.41796875 C41.78066348132904,47.427001953125 42.334877958868105,47.4677734375 42.88909243640717,47.5130615234375 C43.48342227039154,46.79498291015625 44.03797244128998,46.0447998046875 44.55022524890717,45.2659912109375 C45.16333865222748,44.37652587890625 45.774941435430605,43.470458984375 45.774941435430605,43.470458984375 C46.19539736804779,42.8826904296875 46.578225126836855,42.268798828125 46.921120634649355,41.63262939453125 C47.22164248523529,41.0482177734375 47.45571230945404,40.43060302734375 47.78945254382904,39.86578369140625 C48.47504519519623,38.7030029296875 49.601601591680605,37.71539306640625 49.742043486211855,36.369873046875 L50.06520937976654,36.436279296875 C50.24340151843842,36.1463623046875 50.46389102039154,35.84283447265625 50.54543398914154,35.6737060546875 C50.98871707019623,34.71588134765625 51.330361357305605,33.7142333984375 51.56476687488373,32.68511962890625 C51.67501162586029,32.152099609375 51.75957583484467,31.59332275390625 52.05103396472748,31.14031982421875 C52.249672880743105,30.8544921875 52.48992251453217,30.5999755859375 52.76380251941498,30.38525390625 C53.22589968738373,29.9910888671875 53.71820925769623,29.612060546875 54.29206179675873,29.4217529296875 C54.80292605457123,29.23638916015625 56.009072294805605,29.44744873046875 55.85352419910248,29.51239013671875 C56.664467802618105,29.22998046875 57.34703921375092,29.25714111328125 57.822731962774355,29.6241455078125 C58.29842471179779,29.9910888671875 58.50379275378998,30.6268310546875 58.577797880743105,31.23089599609375 C58.681984892461855,32.06146240234375 58.582314482305605,32.9388427734375 58.17005251941498,33.66522216796875 C57.69739626941498,34.4852294921875 56.886452665899355,35.03790283203125 56.206887236211855,35.69329833984375 C55.73426150378998,36.14971923828125 55.320778837774355,36.6636962890625 54.97614382800873,37.22308349609375 C54.903664579961855,38.46441650390625 54.86589907703217,39.71783447265625 55.06977175769623,40.9410400390625 C55.15735720691498,41.468017578125 55.29326724109467,41.98602294921875 55.33857058582123,42.517578125 C55.41698550281342,43.40887451171875 55.24416445789154,44.2998046875 55.071877470586855,45.18798828125 C54.87255190906342,46.215576171875 54.673928251836855,47.239501953125 54.86589907703217,48.25604248046875 C54.98763369617279,48.8382568359375 54.72693728503998,49.43359375 54.21654604968842,49.739013671875 C53.70461367664154,50.01080322265625 53.10207461414154,50.041015625 52.53728579578217,50.1920166015625 C51.43187808093842,50.4759521484375 50.466897001836855,51.18572998046875 49.35695742664154,51.449951171875 C48.874428740118105,51.56597900390625 47.85024355945404,51.732177734375 47.791665068243105,51.73492431640625 C48.107216826055605,52.20672607421875 48.389199247930605,52.74298095703125 48.53394412097748,53.322509765625 C48.76046084461029,54.2860107421875 48.54753970203217,55.3128662109375 48.777077665899355,56.2763671875 C48.964333525274355,57.0751953125 49.43700503406342,57.7637939453125 49.900612822149355,58.434326171875 L52.59316348132904,62.325927734375 C53.193459501836855,63.23876953125 53.85596560535248,64.109130859375 54.575966826055605,64.930908203125 C55.81275271472748,66.27642822265625 57.945046415899355,67.34710693359375 58.58081912097748,68.970458984375 C58.59742068347748,68.93121337890625 58.61403750476654,68.8934326171875 58.629128447149355,68.85418701171875 C59.51709841785248,69.50958251953125 59.84931277332123,70.72674560546875 60.55907534656342,71.5723876953125 C60.90338992175873,71.983154296875 61.32924746570404,72.31689453125 61.708291044805605,72.6959228515625 C62.171730986211855,73.1875 62.595864286993105,73.714599609375 62.976784697149355,74.27252197265625 C64.03388308582123,75.7327880859375 65.09096621570404,77.2052001953125 65.8460321336728,78.84368896484375 C66.23865603503998,79.69537353515625 66.54370974597748,80.58331298828125 66.85781191882904,81.46527099609375 C68.08554934558686,84.94305419921875 70.0985498338681,88.24420166015625 70.93515872058686,91.83984375 C71.1405420213681,92.7156982421875 71.67209719714936,93.5009765625 71.7551660448056,94.406982421875 C71.84275149402436,95.364501953125 71.40480898914154,96.287109375 70.95176028308686,97.13427734375 C70.25861453113373,98.427001953125 69.4975213914853,99.6834716796875 68.87987612781342,101.0123291015625 C68.5189599901181,101.78857421875 68.20636843738373,102.5888671875 67.80617617664154,103.343994140625 L67.80617617664154,103.343994140625ZM33.69301699695404,106.9893798828125 C33.73015688953217,106.9844970703125 33.72564028796967,106.96630859375 33.64409731921967,106.92138671875 C33.66164492664154,106.9454345703125 33.67792605457123,106.9678955078125 33.69301699695404,106.9893798828125 L33.69301699695404,106.9893798828125ZM51.76561831531342,41.8531494140625 C51.801857939336855,41.68402099609375 51.83507632312592,41.514892578125 51.86528872546967,41.34423828125 C50.66321658191498,43.04461669921875 49.53063296375092,44.805419921875 48.81935977039154,46.7052001953125 L48.929604521368105,46.65081787109375 C49.341835966680605,46.47381591796875 49.71923159656342,46.22479248046875 50.04407595691498,45.9154052734375 C51.03170107898529,44.85980224609375 51.46358584461029,43.27117919921875 51.76561831531342,41.8531494140625 L51.76561831531342,41.8531494140625Z"/>
    <linearGradient id="linearGradient-30" x1="0.4996078677416315" y1="0.9800960128445262" x2="0.4996078677416315" y2="0.012607144585643056">
      <stop offset="1" stop-color="rgb(128,128,128)" stop-opacity="0.1"/>
      <stop offset="0.54" stop-color="rgb(128,128,128)" stop-opacity="0.12"/>
      <stop offset="0" stop-color="rgb(128,128,128)" stop-opacity="0.25"/>
    </linearGradient>
    <path id="path-31" opacity="1" fill-rule="evenodd" d="M53.327091608862744,32.932835324273775 C53.438840958367344,32.405801229988576 53.52340803366812,31.853094987844223 53.81486241818687,31.398546958102553 C54.01411010540995,31.112758660446087 54.254853099354825,30.85827346600119 54.529152179209504,30.643483785774198 C54.99125084067446,30.252361062508108 55.48506215537721,29.876339602688585 56.06042029269142,29.686063683261843 C56.63577843000563,29.495787763835096 57.312315032411846,29.521459911694258 57.79555546270199,29.886910487101186 C58.27879589299214,30.25236106250811 58.4826629495208,30.88208374822996 58.55816926675364,31.48311403340333 C58.6608578581903,32.30915314393055 58.55816926675364,33.17898591845282 58.14892502735167,33.89931618485407 C57.68078586050808,34.71629453731335 56.86833788708277,35.258429895045104 56.18576077929793,35.913824728626125 C55.69124772862395,36.38693659473943 55.26119161819995,36.92311044669661 54.906683765373685,37.50851814858362 C54.745357909570636,37.81363840645754 54.54979385134565,38.0993848542267 54.323774996336184,38.36022940696999 C54.09134664304981,38.623390763656175 53.74785124001719,38.76067685459091 53.398067547061615,38.73021036141089 C53.106613162542864,38.68339644472653 52.86952332643176,38.48103951454254 52.64300437473325,38.287743342426474 C52.36363100097176,38.04310287459209 51.61158808133271,37.6066763609863 51.585915933473544,37.21857389040952 C51.567794417337666,36.90446761072093 52.15523356540913,36.19168797604296 52.29869556815152,35.8972133388349 C52.74502431732726,34.94809847197443 53.089739547680594,33.95444796216004 53.327091608862744,32.932835324273775Z"/>
    <path id="path-32" opacity="1" fill-rule="evenodd" d="M53.327091608862744,32.932835324273775 C53.438840958367344,32.405801229988576 53.52340803366812,31.853094987844223 53.81486241818687,31.398546958102553 C54.01411010540995,31.112758660446087 54.254853099354825,30.85827346600119 54.529152179209504,30.643483785774198 C54.99125084067446,30.252361062508108 55.48506215537721,29.876339602688585 56.06042029269142,29.686063683261843 C56.63577843000563,29.495787763835096 57.312315032411846,29.521459911694258 57.79555546270199,29.886910487101186 C58.27879589299214,30.25236106250811 58.4826629495208,30.88208374822996 58.55816926675364,31.48311403340333 C58.6608578581903,32.30915314393055 58.55816926675364,33.17898591845282 58.14892502735167,33.89931618485407 C57.68078586050808,34.71629453731335 56.86833788708277,35.258429895045104 56.18576077929793,35.913824728626125 C55.69124772862395,36.38693659473943 55.26119161819995,36.92311044669661 54.906683765373685,37.50851814858362 C54.745357909570636,37.81363840645754 54.54979385134565,38.0993848542267 54.323774996336184,38.36022940696999 C54.09134664304981,38.623390763656175 53.74785124001719,38.76067685459091 53.398067547061615,38.73021036141089 C53.106613162542864,38.68339644472653 52.86952332643176,38.48103951454254 52.64300437473325,38.287743342426474 C52.36363100097176,38.04310287459209 51.61158808133271,37.6066763609863 51.585915933473544,37.21857389040952 C51.567794417337666,36.90446761072093 52.15523356540913,36.19168797604296 52.29869556815152,35.8972133388349 C52.74502431732726,34.94809847197443 53.089739547680594,33.95444796216004 53.327091608862744,32.932835324273775Z"/>
    <path id="path-33" opacity="1" fill-rule="evenodd" d="M37.47076498996719,48.026548139117715 C38.680683452416424,47.704815396682214 39.92935990760735,47.55235184903985 41.18114541878874,47.573510235720704 C43.269650153448985,47.60371276261383 45.42007006824015,48.109605088073835 47.40890646415305,47.46931151793939 C47.92232999238753,47.29123381200468 48.42158541714977,47.074671044337336 48.90242141901854,46.82146731608167 C49.30260490035257,46.62213063858697 49.71033901340989,46.41675345571365 50.016894661375204,46.0905661652678 C51.00602741712535,45.04253848207604 51.431883046318546,43.464456451909776 51.741458946973175,42.055508572345055 C52.051034847627804,40.64656069278033 52.131071543894606,39.199859654599194 52.211108240161415,37.760709248141346 C52.72606132368936,38.00081933694176 53.26819668142112,38.23790917305288 53.83902443970135,38.18958513002385 C54.40985219798159,38.14126108699483 54.979169829917176,37.706344699733705 54.97614957722786,37.13249668876415 C54.891582501927076,38.46593825109603 54.825136942762185,39.815991203219134 55.05014576811604,41.1328213757598 C55.13773309610612,41.655325091011015 55.27364446712524,42.170278174538964 55.320458383809594,42.69882239516881 C55.489592534411145,44.6076220948149 54.48837876790374,46.51491166811633 54.84627871158739,48.39803921990327 C54.96742625950549,48.97724233230768 54.706316528763296,49.569293465967306 54.196924383384996,49.87041240594357 C53.68348142620171,50.146765527015745 53.079430888339026,50.18149843294285 52.51464363543741,50.32345030934058 C51.40772102480404,50.605843935791384 50.441240164223736,51.30956281240141 49.3297871745564,51.57232479637168 C48.81181383833915,51.69464503028888 48.2726987332967,51.723337430837354 47.76227602880273,51.854718422822486 C47.028354625299556,52.04801459493855 46.362388907305956,52.467829718753116 45.61487636670087,52.60072083708291 C45.05461949283323,52.70038917583025 44.477751229174366,52.63243349032069 43.9114538499281,52.680757533349706 C43.41915266157001,52.72153094465544 42.935912231279865,52.85140181029592 42.44210091657711,52.86348282105317 C41.23399984085174,52.8936853479463 40.0908341979466,52.20959811381681 39.28744698258923,51.302012180678126 C38.484059767231855,50.39442624753944 37.97514718908254,49.12592011802779 37.47076498996719,48.026548139117715Z"/>
    <path id="path-34" opacity="1" fill-rule="evenodd" d="M37.47076498996719,48.026548139117715 C38.680683452416424,47.704815396682214 39.92935990760735,47.55235184903985 41.18114541878874,47.573510235720704 C43.269650153448985,47.60371276261383 45.42007006824015,48.109605088073835 47.40890646415305,47.46931151793939 C47.92232999238753,47.29123381200468 48.42158541714977,47.074671044337336 48.90242141901854,46.82146731608167 C49.30260490035257,46.62213063858697 49.71033901340989,46.41675345571365 50.016894661375204,46.0905661652678 C51.00602741712535,45.04253848207604 51.431883046318546,43.464456451909776 51.741458946973175,42.055508572345055 C52.051034847627804,40.64656069278033 52.131071543894606,39.199859654599194 52.211108240161415,37.760709248141346 C52.72606132368936,38.00081933694176 53.26819668142112,38.23790917305288 53.83902443970135,38.18958513002385 C54.40985219798159,38.14126108699483 54.979169829917176,37.706344699733705 54.97614957722786,37.13249668876415 C54.891582501927076,38.46593825109603 54.825136942762185,39.815991203219134 55.05014576811604,41.1328213757598 C55.13773309610612,41.655325091011015 55.27364446712524,42.170278174538964 55.320458383809594,42.69882239516881 C55.489592534411145,44.6076220948149 54.48837876790374,46.51491166811633 54.84627871158739,48.39803921990327 C54.96742625950549,48.97724233230768 54.706316528763296,49.569293465967306 54.196924383384996,49.87041240594357 C53.68348142620171,50.146765527015745 53.079430888339026,50.18149843294285 52.51464363543741,50.32345030934058 C51.40772102480404,50.605843935791384 50.441240164223736,51.30956281240141 49.3297871745564,51.57232479637168 C48.81181383833915,51.69464503028888 48.2726987332967,51.723337430837354 47.76227602880273,51.854718422822486 C47.028354625299556,52.04801459493855 46.362388907305956,52.467829718753116 45.61487636670087,52.60072083708291 C45.05461949283323,52.70038917583025 44.477751229174366,52.63243349032069 43.9114538499281,52.680757533349706 C43.41915266157001,52.72153094465544 42.935912231279865,52.85140181029592 42.44210091657711,52.86348282105317 C41.23399984085174,52.8936853479463 40.0908341979466,52.20959811381681 39.28744698258923,51.302012180678126 C38.484059767231855,50.39442624753944 37.97514718908254,49.12592011802779 37.47076498996719,48.026548139117715Z"/>
    <path id="path-35" opacity="1" fill-rule="evenodd" d="M91.77943872285681,49.88249341670083 C95.9842482417215,49.88249346106523 99.77499675464492,52.415490254731836 101.38396658346738,56.30028615411626 C102.99293641228988,60.18508205350068 102.10324679470234,64.65658061990024 99.12978150886175,67.62961396714613 C96.15631622302118,70.60264731439202 91.68468845420793,71.49168732594082 87.80012633879998,69.88215315063655 C83.91556422339204,68.27261897533228 81.38311815718723,64.48150252147332 81.38372896623994,60.27669304697303 C81.38456290032573,54.53589083462328 86.03863644992272,49.882493356134205 91.77943872284987,49.88249341670083 L91.77943872285681,47.315278630784405 C86.53628774686983,47.315278666362516 81.8094395580476,50.47375725566621 79.80311364923502,55.317855572651546 C77.79678774042242,60.1619538896369 78.90611735131625,65.73765730836854 82.61380091972451,69.44490894719054 C86.32148448813277,73.15216058601254 91.89731710880014,74.26084060547868 96.74118165074302,72.25395036027305 C101.58504619268591,70.24706011506744 104.74297407048982,65.51984398738188 104.7423632653901,60.27669304697303 C104.73404001710549,53.12116248836815 98.93497020258006,47.32276824115622 91.77943872285623,47.315278630784405 L91.77943872285681,49.88249341670083Z"/>
    <rect id="rect-36" opacity="1" x="75.47913495863219" y="32.98719987268146" width="3.038374205449312" height="3.198447597982998" rx="0" ry="0"/>
    <rect id="rect-37" opacity="1" x="97.27780874375196" y="46.13435982926262" width="3.038374205449255" height="3.1984475979829696" rx="0" ry="0"/>
    <rect id="rect-38" opacity="1" x="102.60855474039022" y="51.32315394950342" width="3.038374205449255" height="3.198447597982913" rx="0" ry="0"/>
    <rect id="rect-39" opacity="1" x="102.679530678589" y="65.91248456523203" width="3.0383742054493688" height="3.198447597982856" rx="0" ry="0"/>
    <rect id="rect-40" opacity="1" x="77.91043837352947" y="51.32315394950342" width="3.0383742054493688" height="3.198447597982913" rx="0" ry="0"/>
    <rect id="rect-41" opacity="1" x="77.8409725616753" y="65.91248456523203" width="3.038374205449312" height="3.198447597982856" rx="0" ry="0"/>
    <rect id="rect-42" opacity="1" x="83.2426944965124" y="46.13435982926262" width="3.038374205449312" height="3.1984475979829696" rx="0" ry="0"/>
    <rect id="rect-43" opacity="1" x="75.47913495863219" y="61.776248507216906" width="3.038374205449312" height="3.198447597982856" rx="0" ry="0"/>
    <rect id="rect-44" opacity="1" x="97.27780874375196" y="71.22208879304503" width="3.038374205449255" height="3.198447597982913" rx="0" ry="0"/>
    <rect id="rect-45" opacity="1" x="83.2426944965124" y="71.22208879304503" width="3.038374205449312" height="3.198447597982913" rx="0" ry="0"/>
    <rect id="rect-46" opacity="1" x="61.08612076770896" y="47.70187097501662" width="3.678667775583776" height="2.718227420381993" rx="0" ry="0"/>
    <rect id="rect-47" opacity="1" x="104.41466584859961" y="58.997616033048644" width="3.678667775583776" height="2.71822742038205" rx="0" ry="0"/>
    <path id="path-48" opacity="1" fill-rule="evenodd" d="M115.92937922660708,31.170517880059347 C120.13418874547175,31.170517924423756 123.92493725839516,33.703514718090375 125.53390708721763,37.588310617474804 C127.14287691604011,41.47310651685923 126.25318729845256,45.94460508325881 123.27972201261198,48.9176384305047 C120.30625672677142,51.8906717777506 115.83462895795819,52.7797117892994 111.95006684255024,51.170177613995136 C108.06550472714231,49.56064343869086 105.5330586609375,45.769526984831884 105.53366946999022,41.56471751033159 C105.534503404076,35.82391529798182 110.18857695367298,31.170517819492726 115.92937922660013,31.170517880059357 L115.92937922660708,28.603303094142916 C110.68622825062013,28.603303129721038 105.95938006179792,31.76178171902473 103.95305415298532,36.60588003601009 C101.94672824417273,41.44997835299546 103.05605785506657,47.02568177172712 106.76374142347481,50.73293341054913 C110.47142499188307,54.44018504937114 116.04725761255042,55.54886506883727 120.8911221544933,53.54197482363165 C125.73498669643617,51.53508457842602 128.89291457424008,46.80786845074044 128.89230376914037,41.56471751033159 C128.88398052085574,34.40918695172668 123.08491070633033,28.610792704514736 115.92937922660651,28.60330309414292 L115.92937922660708,31.170517880059347Z"/>
    <rect id="rect-49" opacity="1" x="99.6290754623825" y="14.276734462384638" width="3.038374205449255" height="3.1984475979829696" rx="0" ry="0"/>
    <rect id="rect-50" opacity="1" x="121.4277492475021" y="27.42238429262136" width="3.0383742054493688" height="3.198447597982998" rx="0" ry="0"/>
    <rect id="rect-51" opacity="1" x="126.75849524414059" y="32.61117841286182" width="3.0383742054491414" height="3.198447597982998" rx="0" ry="0"/>
    <rect id="rect-52" opacity="1" x="126.82947118233926" y="47.20050902859043" width="3.0383742054493688" height="3.198447597982913" rx="0" ry="0"/>
    <rect id="rect-53" opacity="1" x="102.06037887727973" y="32.61117841286182" width="3.0383742054493688" height="3.198447597982998" rx="0" ry="0"/>
    <rect id="rect-54" opacity="1" x="101.99091306542562" y="47.20050902859043" width="3.038374205449255" height="3.198447597982913" rx="0" ry="0"/>
    <rect id="rect-55" opacity="1" x="107.39263500026266" y="27.42238429262136" width="3.038374205449255" height="3.198447597982998" rx="0" ry="0"/>
    <rect id="rect-56" opacity="1" x="99.6290754623825" y="43.06427297057576" width="3.038374205449255" height="3.1984475979829696" rx="0" ry="0"/>
    <rect id="rect-57" opacity="1" x="121.4277492475021" y="52.51011325640343" width="3.0383742054493688" height="3.198447597982913" rx="0" ry="0"/>
    <rect id="rect-58" opacity="1" x="107.39263500026266" y="52.51011325640343" width="3.038374205449255" height="3.198447597982913" rx="0" ry="0"/>
    <rect id="rect-59" opacity="1" x="85.23455114511461" y="28.989895438375015" width="3.678667775583719" height="2.7182274203821066" rx="0" ry="0"/>
    <rect id="rect-60" opacity="1" x="128.5630962260051" y="40.28564049640727" width="3.6786677755838895" height="2.7182274203821066" rx="0" ry="0"/>
    <path id="path-61" opacity="1" fill-rule="evenodd" d="M67.6234577137279,30.370150917391264 L67.9904184154795,30.370150917391264 C73.65924663796046,30.56348373205643 78.12670832680432,35.2652263072284 78.03029120583614,40.936530807253696 C77.93387408486794,46.60783530727899 73.30917285474303,51.155003185920954 67.63704885082977,51.15552992524634 L67.26857802273358,51.15552992524634 C61.599456499747774,50.96218661754556 57.13188494166254,46.259986039154896 57.228718991928105,40.58839511211136 C57.32555304219368,34.91680418506782 61.951040205384906,30.36985417333657 67.62345771372793,30.370150917391264 L67.62345771372792,27.802936131474844 C60.55016504202451,27.802062729223053 54.78198080615445,33.47158471662341 54.66083397722359,40.54383990349586 C54.53968714829273,47.616095090368304 60.11030783353981,53.47984935923508 67.17948056839887,53.721234584818106 C67.33049320286452,53.721234584818106 67.48150583733019,53.7287852165414 67.63251847179586,53.7287852165414 C74.70551623572479,53.72883303340791 80.47291225634456,48.059093706891474 80.59364210675915,40.987126394039365 C80.71437195717374,33.91515908118726 75.14386338215029,28.051863497226126 68.07498549078026,27.810486763198128 C67.9239728563146,27.810486763198128 67.77296022184893,27.802936131474844 67.62194758738326,27.802936131474844 L67.6234577137279,30.370150917391264Z"/>
    <rect id="rect-62" opacity="1" x="66.20997945512926" y="24.76758217871486" width="3.038374205449312" height="3.198447597982998" rx="0" ry="0"/>
    <rect id="rect-63" opacity="1" x="73.55825424822888" y="26.874208429510986" width="3.038374205449255" height="3.1984475979829696" rx="0" ry="0"/>
    <rect id="rect-64" opacity="1" x="78.70778508350827" y="32.24421771111031" width="3.038374205449312" height="3.1984475979829696" rx="0" ry="0"/>
    <rect id="rect-65" opacity="1" x="78.27135856990247" y="46.82750782146036" width="3.038374205449312" height="3.1984475979829696" rx="0" ry="0"/>
    <rect id="rect-66" opacity="1" x="54.02476998009416" y="31.38797607368997" width="3.038374205449312" height="3.1984475979829696" rx="0" ry="0"/>
    <rect id="rect-67" opacity="1" x="53.44790171643524" y="45.96673580500578" width="3.0383742054494256" height="3.1984475979830265" rx="0" ry="0"/>
    <rect id="rect-68" opacity="1" x="59.53220075905722" y="26.386437620186825" width="3.038374205449312" height="3.1984475979829696" rx="0" ry="0"/>
    <rect id="rect-69" opacity="1" x="65.21178594131112" y="53.53699917077006" width="3.038374205449312" height="3.198447597982856" rx="0" ry="0"/>
    <rect id="rect-70" opacity="1" x="72.68842147370657" y="51.94683612984659" width="3.038374205449312" height="3.198447597982856" rx="0" ry="0"/>
    <rect id="rect-71" opacity="1" x="58.66236798453491" y="51.45906532052254" width="3.0383742054494256" height="3.198447597982856" rx="0" ry="0"/>
    <rect id="rect-72" opacity="1" x="51.32315394950331" y="38.98391158731329" width="3.678667775583776" height="2.7182274203821066" rx="0" ry="0"/>
    <rect id="rect-73" opacity="1" x="80.25264433409205" y="39.98814560650999" width="3.678667775583776" height="2.718227420382078" rx="0" ry="0"/>
    <path id="path-74" opacity="1" fill-rule="evenodd" d="M34.14848703172241,107.04983632002575 C33.774365134161826,107.09549804465927 33.411612563458135,107.20857042565434 33.077807453360805,107.38357424219488 C32.62476954996378,107.65992736326706 32.34539617620228,108.14769817259116 32.146059498707594,108.63999936094928 C31.646207678626215,109.87528271087845 31.542008960844903,111.2313761683802 31.52086719201971,112.56632785705673 C31.50274567588383,113.6415378144523 31.538988708155593,114.74241991970705 31.924070926043058,115.7451438125591 C32.029692279571776,116.06257075200608 32.21292982150638,116.34858742511081 32.45714552570688,116.57722342846495 C32.67197588423231,116.74618992653213 32.920785811618856,116.86673138203616 33.186536550176086,116.93059299311463 C33.76038456114563,117.0816056275803 34.42635027913924,117.0816056275803 34.89599957232748,116.71917530486269 C35.41850328757871,116.30993106546072 35.54988427956384,115.58960079905947 35.66012350272379,114.93571609182312 C35.81113613718946,114.0538023065436 36.021043699096744,113.12356447823507 36.676438532677764,112.50894305595978 C37.162699215657234,112.05590515256276 37.858867460543976,111.82938620086425 38.21223702519366,111.26761920065195 C38.63356227535289,110.6001433563137 38.411573702688344,109.72880045544676 38.14277121333945,108.98581829387565 C37.90870162991766,108.3425044710519 37.565902949680584,107.03624518292385 36.892386599963686,106.70703763978867 C36.218870250246795,106.3778300966535 34.84918565564314,106.92298570707457 34.14848703172241,107.04983632002575Z"/>
    <path id="path-75" opacity="1" fill-rule="evenodd" d="M58.985535022291465,110.2135510120814 C58.781938147847626,110.93368983139473 58.420874681529455,111.5995940242758 57.92844658103177,112.16312412303323 C57.62642131210042,112.50743292961494 57.25644035765953,112.92573792708484 57.415003623848484,113.3531036826227 C57.47949336940267,113.49777849367729 57.57545277380449,113.62624027698942 57.695887123954634,113.72912514244221 C59.909732345221386,115.89615644702461 63.0070014781123,116.95022463559499 66.08010858948872,117.3337967271378 C66.12955286211223,117.34720793578185 66.18167695133087,117.34720793578185 66.23112122395439,117.3337967271378 C66.32172880463379,117.29302331583207 66.34287057345898,117.18278409267214 66.35495158421624,117.08160562758013 C66.40402364846938,116.76131402813148 66.40402364846938,116.43541636644852 66.35495158421624,116.11512476699984 C66.20393894975057,115.36006159467148 65.54703398982488,114.8360477530756 64.90372016700113,114.42227313463965 C64.26040634417737,114.00849851620372 63.556687467567336,113.60680490852504 63.19727739753904,112.93177843246347 C62.74423949414203,112.09214818483436 62.93904579260275,110.9988167113029 62.40597119293892,110.2135510120814 C61.9740750583671,109.57476756829159 61.172197969354386,109.30747520528736 60.4110942916474,109.18213471868084 C60.14682218133248,109.14136130737512 59.585055181120175,108.85141704920102 59.3540058503877,108.98581829387548 C59.11842614062125,109.12172966489459 59.06557171855827,109.95078902811112 58.985535022291465,110.2135510120814Z"/>
    <path id="path-76" opacity="1" fill-rule="evenodd" d="M33.846461762791044,106.97130975010319 C33.84748397403631,106.81717909263435 33.73228123568105,106.6870065069222 33.57916939978681,106.66928448117183 C33.43133286437387,106.65410751229524 33.281987701834794,106.6732278272224 33.14274288618102,106.72515915592415 C32.7964427569518,106.81920318021764 32.44282602056042,106.88386452630066 32.08565444492132,106.9184553280402 C31.661308942072782,106.95922873934592 31.2279026811563,106.95771861300126 30.81563818906502,107.06946796250587 C30.403373696973738,107.18121731201046 30.000169962950395,107.42736790618952 29.8325459386935,107.82453113483423 C29.75101334909059,108.05140485099744 29.71409341163394,108.29189722137478 29.723816841878218,108.53278039047825 C29.715282945712737,109.45974568483234 29.825925208414322,110.38396385171129 30.05302438501335,111.28272046409809 C30.061116735724955,111.35566818264422 30.102331771671697,111.4208324962357 30.16477373451798,111.45940524642302 C30.217628156580965,111.48054701524822 30.281053463056548,111.45940524642302 30.333907885119533,111.48356726793753 C30.380328680506313,111.51114512922516 30.4151964608325,111.55459574778548 30.432066097522217,111.60588750185471 C30.687277449769205,112.17973551282427 30.74617237721082,112.8139885775801 30.81412806272037,113.44220113695731 C30.81412806272037,113.44220113695731 30.96514069718604,114.83000724769686 31.19619002791852,116.20875260036846 C31.286797608597922,116.7448474527216 31.39854695810252,117.30812457927857 31.751916522752193,117.7188789450252 C32.13850886698431,118.17191684842223 32.75162016291493,118.36672314688293 33.34207956367572,118.44675984314976 C34.58944392436216,118.612873741062 35.84888929580587,118.362192767849 37.08115239304574,118.10547128925734 C37.316099986683255,118.08200915251032 37.53708222605949,117.98291160151908 37.7108750787676,117.82307766280653 C37.823453084760395,117.68199257150218 37.87751610217532,117.50304398385877 37.861887713233266,117.32322584272515 C37.83319531268479,116.70709429410519 37.26689793343852,116.26613740146543 36.75345497625524,115.92786910026233 L36.0467158469559,115.45217930169545 C35.99740826936144,115.42492874248589 35.95503701484199,115.38669126889516 35.92288548669404,115.34042995219085 C35.88938831736816,115.26995012464988 35.87731166291439,115.19118933473402 35.88815258076694,115.11391100049234 L35.933456371106644,114.2078351936983 C34.976933833588696,114.22300942615085 34.106375810667735,114.76333577237713 33.66826685412157,115.61376282057371 C33.57010864171889,115.80856911903443 33.47799093469482,116.0365981970776 33.274123878166165,116.11210451431043 C33.02193277860849,116.2072424740238 32.741049278502345,115.9943146594272 32.65648220320157,115.73910330718022 C32.59766538893807,115.4755674221908 32.605450592166754,115.20152826854118 32.67913409837142,114.94175659720146 C33.09290871680736,112.72489112324537 32.99626063074933,110.44611046915834 33.248451730306996,108.20508297368774 C33.264039860632735,107.95361020646735 33.341318236751036,107.70984620126194 33.47346055566085,107.49532359169906 C33.59578078957804,107.3261894410975 33.82380986762121,107.17819705932114 33.846461762791044,106.97130975010319Z"/>
    <path id="path-77" opacity="1" fill-rule="evenodd" d="M64.68928222605992,115.56694890388945 C64.79348094384122,115.73910330718033 64.95506446271949,115.8689741728208 65.05171254877752,116.0471690814903 C65.14836063483554,116.22536399015978 65.1468505084909,116.48510572144075 64.97318597885537,116.58628418653277 C64.87067376678023,116.63145214042 64.75651226689229,116.64307970059377 64.64699868840952,116.61950696611521 C62.42976118105694,116.34431382027584 60.34821713185105,115.40280085291431 58.677469247981485,113.91940106186894 C58.4000684650892,113.6849606472363 58.154369940765626,113.41540296869123 57.94656809716764,113.11752397285623 C57.751761798706916,112.81549870392489 57.58715802713934,112.46061901293055 57.25493023131486,112.3367886526687 C57.05636492167312,113.19759794270293 56.955055529270744,114.07797656267961 56.95290496238351,114.96138823968212 C56.95290496238351,115.54278688237497 57.032941658650316,116.20724247402393 57.50863145721719,116.54400064888239 C57.69930678504827,116.66239836844325 57.90864768404427,116.74766649071721 58.12778325852644,116.79619174844007 L59.16524005730562,117.08915625930348 C59.34819556224589,117.15828722047614 59.54623313028913,117.17756982578562 59.73908806827517,117.14503093405577 C59.86140830219237,117.11180815447332 59.97013739900765,117.03479171089583 60.095477885614166,117.01213981572599 C60.232043584439936,116.9976269850003 60.37011143258401,117.01520865854674 60.49868161963752,117.06348411144434 L61.39418654201895,117.32473596906993 C61.69717288472005,117.40186839242052 61.993579642900784,117.50285876999489 62.28063070633244,117.6267612380013 C62.53584205857943,117.74757134557382 62.77293189469054,117.9061346117628 63.0221027415589,118.04053585643723 C63.439945267421436,118.25010766498026 63.87369474799374,118.4263341710568 64.31930127161901,118.56756995072244 L65.89587317544064,119.11423568748819 C66.32678542780604,119.28440964471191 66.77727219859257,119.40007516694088 67.2368653694958,119.45854449406991 C67.55399190187373,119.48572676827374 67.87564881328561,119.45854449406991 68.18975509297421,119.51290904247756 C68.42835505542996,119.5536824537833 68.65940438616245,119.63975965542873 68.90102460130751,119.66392167694323 C69.2991487982696,119.67482750697275 69.69045165476857,119.55902301295481 70.01851809635349,119.33320400746341 C70.14637358921979,119.26173297035224 70.25715869478316,119.16331457424711 70.34319526045468,119.04476987563397 C70.5697142121532,118.69291043732895 70.37490791369247,118.22930164951933 70.15291934102794,117.87442195852499 C69.74367510162597,117.21902712494396 69.23174227078734,116.60440570266867 68.55520566838112,116.2298943691938 C68.2803626736536,116.07888173472813 67.98437791010089,115.96713238522352 67.70198428365008,115.82971088785976 C66.8985970682927,115.44009829093832 66.29001615139605,114.78923383639128 65.53042260003372,114.34374656471752 C64.81311258632176,113.92695169359227 64.35101392485682,115.01273253540046 64.68928222605992,115.56694890388945Z"/>
    <path id="path-78" opacity="1" fill-rule="evenodd" d="M42.546299634358434,52.0948285116226 C41.7134542992615,52.66703039771566 40.759201170315194,53.03818627343801 39.75860640212213,53.17909922708612 C39.23521344647923,53.244264417422634 38.70788406240691,53.27252321695187 38.18052437195588,53.26366630238691 C35.98153228187707,53.2610242639297 33.78647596466361,53.077682008258165 31.617515278077775,52.71549043927653 C32.481307547221405,51.764110842142784 33.35416057443298,50.752326191222785 33.68034786487884,49.504961830536345 C33.84198256000029,48.84699729980748 33.87530959011166,48.164049544294244 33.77850607728152,47.49347353945362 C33.6477037407724,46.63318128412066 33.442565291151155,45.78584832841912 33.1653947813509,44.960991659464334 C34.09051923587556,45.0106014071879 35.018119695799,44.986868570162095 35.93949687648525,44.890015721265435 C36.46502084442583,44.83716129920245 37.75164849007335,44.35845124794628 38.20468639347037,44.720881570663884 C38.62903189631891,45.05763974552234 38.30888511125168,46.249129431456474 38.30133447952839,46.79881542091152 L38.30133447952839,46.85771034835313 C38.325090553724834,47.6921295987132 38.50487297203602,48.51472379759573 38.8313888265029,49.282973257871795 C39.495844418151854,50.76893758101401 40.91687330847383,51.98911966749663 42.546299634358434,52.0948285116226Z"/>
    <path id="path-79" opacity="1" fill-rule="evenodd" d="M38.307374984907014,46.79126478918853 C36.968363724199946,47.666031108305134 35.316589681055376,47.91930312825397 33.77699595093686,47.485922907730625 C33.64619361442773,46.625630652397675 33.44105516480649,45.77829769669613 33.16388465500623,44.95344102774134 C34.08900910953089,45.0030507754649 35.01660956945434,44.979317938439095 35.93798675014059,44.882465089542436 C36.46351071808117,44.82961066747944 37.75013836372869,44.35090061622327 38.203176267125706,44.71333093894088 C38.63507240169753,45.05008911379933 38.314925616630305,46.24157879973349 38.307374984907014,46.79126478918853Z"/>
    <ellipse id="ellipse-80" opacity="1" rx="5.52706242144361" ry="5.527062421443581" cx="20.900148610049023" cy="30.611771132536425"/>
    <path id="path-81" opacity="1" fill-rule="evenodd" d="M58.731833796389196,69.87505609361097 C58.737949397314964,70.78277067412498 58.26425395055915,71.62623565749985 57.48597956204736,72.0934316939117 C57.05870514487707,72.31775163971496 56.600769872461484,72.47802898506042 56.12686585185635,72.56912149247853 C53.598914350901,73.17317203034122 51.00904766981472,73.67000359773328 48.41314048334982,73.52201121595692 C47.85137348313751,73.49029856271913 47.28054572485728,73.42385300355424 46.776163525741936,73.1777024093752 C46.271781326626595,72.93155181519614 45.84139531839942,72.47096328007585 45.76588900116659,71.91523678524219 C45.762506507034395,71.77773281881274 45.73543065749469,71.64184270602857 45.68585230489978,71.51354317756349 C45.58580599115816,71.3719181426293 45.45457716701651,71.25515548807807 45.30228021335698,71.17225462367108 C44.82589644496993,70.80634213620627 44.59967736354692,70.20094236649136 44.71937144431947,69.61229410964069 C44.40375503828622,69.75273585969377 44.07454749515105,69.43560932731586 43.92655511337469,69.12301317397191 C43.77856273159833,68.81041702062798 43.66228300305977,68.4328854344638 43.34515647068185,68.30150444247866 C43.129208403395936,68.2093867354546 42.88003755652758,68.26375128386225 42.65200847848442,68.20485635642063 C42.28806802942215,68.11122852305192 42.06607945675761,67.75181845302362 41.80935797816597,67.48301596367473 C41.28534413657008,66.92275908980709 40.54236197499898,66.632814831633 39.85676461452483,66.28850602505126 C37.82262442827222,65.26313023702936 36.16450570183915,63.63823429017873 34.54111988133317,62.040520617531925 C33.72414152887388,61.2356232758299 32.901122671035964,60.42468542874924 32.25327846917824,59.47330583161551 C32.07055318147478,59.206013468611275 31.90594940990719,58.93117047388375 31.75040639640755,58.64877684743295 C31.259265142840515,57.70710055211708 30.83341319836574,56.73278763176071 30.47585976151728,55.73272287590083 C30.27048257864396,55.19813814989235 30.062085143081333,54.63335089699075 30.176854745275243,53.92057126231278 C30.154202850105396,54.020239601060126 30.451893073397738,53.21237126240444 30.678216691701273,52.907276485048115 C31.239983691913572,52.081237374520896 31.976925348106054,51.29899192798873 32.943406208686355,51.0452907020864 C33.90988706926665,50.79158947618407 34.8748578035023,51.09814512414939 35.85643992752917,51.306542559712014 C36.18237863262954,51.379072212086854 36.51284026401896,51.42952436955089 36.845572683279336,51.45755519417769 C37.88604973474781,51.53155138506587 38.915955901803684,51.252178011304366 39.92170004734507,50.974314763887534 L41.018051773565844,50.672289494956196 C41.56773776302089,50.521276860490524 41.842580757748415,49.85682126884157 42.398307252582086,49.740541540303 C42.646575578620315,49.70481673530571 42.899418694661584,49.71763839433417 43.142799540497855,49.77829469891942 C44.270863919956426,49.99273263986067 45.407989057482936,50.269085760932846 46.400142065922395,50.8429337719024 C46.62102836478781,50.97115745456118 46.832480028909806,51.11498495879692 47.03288500433356,51.27331978012957 C47.739624133632915,51.83206652765255 48.2983708811559,52.57655881556831 48.50374806402922,53.44639159009058 C48.73026701572772,54.402301566258274 48.51733920113112,55.42314697524621 48.74687840551895,56.37905695141392 C48.934134072256384,57.168853029669386 49.40831374447859,57.85747064283285 49.873432658632865,58.52343636082645 L52.572028436534424,62.37727879239037 C53.174356976126376,63.28420419906681 53.83783503163277,64.14899612844931 54.55784457975804,64.96563534713198 C56.004545617939144,66.54069712460893 58.695590764117426,67.73218681054308 58.731833796389196,69.87505609361097Z"/>
    <path id="path-82" opacity="1" fill-rule="evenodd" d="M51.525510879687346,32.932835324273775 C51.637260229191945,32.405801229988576 51.720317178148065,31.853094987844223 52.011771562666816,31.398546958102553 C52.211019249889894,31.112758660446087 52.45176224383477,30.85827346600119 52.72606132368945,30.643483785774198 C53.18967011149906,30.252361062508108 53.68197129985715,29.876339602688585 54.257329437171364,29.686063683261843 C54.832687574485576,29.495787763835096 55.50922417689179,29.521459911694258 55.99246460718194,29.886910487101186 C56.47570503747209,30.25236106250811 56.67957209400075,30.88208374822996 56.75507841123358,31.48311403340333 C56.85776700267024,32.30915314393055 56.75507841123358,33.17898591845282 56.34583417183162,33.89931618485407 C55.87769500498803,34.71629453731335 55.06524703156271,35.258429895045104 54.382669923777875,35.913824728626125 C53.88864568690715,36.387384289198174 53.45864387564453,36.92349044349961 53.10359290985363,37.508518148583605 C52.94226705405058,37.81363840645754 52.74670299582559,38.0993848542267 52.52068414081614,38.36022940696999 C52.288255787529756,38.623390763656175 51.94476038449714,38.76067685459091 51.59497669154156,38.73021036141089 C51.305032433367465,38.68339644472653 51.06643247091171,38.48103951454254 50.8399135192132,38.287743342426474 C50.560540145451704,38.04310287459209 49.806987099468,37.6066763609863 49.78282507795349,37.21857389040952 C49.76470356181761,36.90446761072093 50.35214270988907,36.19168797604296 50.49560471263147,35.8972133388349 C50.94175488820818,34.94787432141671 51.28695092455048,33.95429687370417 51.525510879687346,32.932835324273775Z"/>
    <path id="path-83" opacity="1" fill-rule="evenodd" d="M70.95026605100672,96.9561518323402 C70.25560793246463,98.23824909895374 69.49450425475764,99.48712358598485 68.87535245344839,100.80697401121483 C68.51443225707544,101.57864857333442 68.2018361037315,102.37297503062385 67.8001424960528,103.12350782391826 C67.36220585610235,103.94199630272219 66.82309075105991,104.70309998042919 66.36552246862891,105.5125277011652 C65.21329606765583,107.55270839279643 64.57149237117673,109.85414094205328 63.97801271772664,112.12084058538301 C62.31792996054653,111.87221002871082 60.72071913735594,111.3083679537719 59.27245902777629,110.45970160626061 C59.17430081537361,110.40231680516365 59.08067298200489,110.3419117513774 58.99006540132548,110.27697631855715 C58.602797315098954,109.99945972662283 58.27900596548296,109.64272299326211 58.040195930536406,109.23045876171005 C58.58837179364679,107.15705529049636 59.151648920203755,105.04891891335558 60.26763228890506,103.21713565728697 C60.631572737967346,102.61308511942428 61.048367609092594,102.06188900362457 61.42287894256746,101.47293972920846 C62.50865978437564,99.76649695974638 62.732158483384836,97.6130567922659 63.971972212348,96.01534311961908 C64.21516909416957,95.6847691979147 64.21516909416957,95.23446405165606 63.971972212348,94.90389012995169 C63.82851020960562,94.71814458955893 63.60048113156245,94.5414598072341 63.64276466921284,94.31192060284629 C63.67447732245063,94.14429657858939 63.849651978430806,93.99328394412372 63.781696292921254,93.83623080427942 C63.749983639683464,93.76072448704659 63.672967196105965,93.71995107574087 63.6125621423197,93.66558652733322 C63.40114445406776,93.47078022887251 63.42832672827158,93.13855243304802 63.41020521213571,92.8531385539079 C63.36339129545135,92.12978803481734 62.929985034534866,91.49402484371686 62.50412940534167,90.90356544295608 C62.41918099953408,90.76358439638187 62.30666356548609,90.64233273229362 62.17341173586184,90.54717562561709 C62.061662386357256,90.47921994010753 61.92877126802746,90.4490174132144 61.81702191852286,90.37955160136019 C61.4213688162228,90.1318908808365 61.450061216771275,89.55502261717761 61.259785297344536,89.12765686163976 C61.01212457682084,88.56437973508281 60.38844239647761,88.27745572959803 59.97919815707563,87.81988744716705 C59.458204568169066,87.23848880447422 59.32531344983927,86.42755095739355 58.591392046336104,85.76762574477857 C58.715204243992574,85.8637145250382 58.89341731526744,87.53145331533761 58.91304895774799,88.42997849040836 C58.965903379810975,91.50912610716342 58.195738944036044,94.69700282073376 58.556659140408996,97.75651879500828 C58.840562893204456,100.18329183087164 57.348558064683615,102.60553448770102 55.22683055044092,103.81816594246035 C54.4113623243263,104.28328485661464 53.52038778097882,104.59437088361392 52.63545374300999,104.90998728964718 C51.308052686056726,105.37963658283542 49.98518200813744,105.86438713947024 48.68345309904335,106.40803262354663 C48.68345309904335,106.40803262354663 47.303197620027106,106.97886038182688 45.96522567866125,107.63878559444186 C44.8625644360974,108.17396853622122 43.78934260698828,108.76779442381658 42.75016669088712,109.41771442844744 C41.4725998033075,110.23016240187279 40.19503291572791,111.05620151240002 39.287446982589216,112.26883296715937 C38.41006357634367,112.24467094564486 37.60667636098629,111.71763685135966 37.050949866152614,111.03807999626414 C36.49522337131894,110.35852314116862 36.144874059358585,109.52795365160742 35.82623740063601,108.71852593087141 C35.543843774185206,108.01631718060605 35.265980526768374,107.29145653517081 35.24483875794317,106.53488323649779 C35.25255549598067,106.36898641450645 35.35471250199445,106.2222091070154 35.50760074191347,106.1573516503336 L41.57377826839952,102.94229266255942 L42.707883153236715,102.33824212469675 C45.19204099019702,101.01990182581142 47.76529628149208,99.80122986567346 50.249454118452384,98.48439969313279 C50.41707814270928,98.53423386250647 50.55147938738372,98.34395794307973 50.6013135567574,98.18237442420146 C50.651147726131065,98.02079090532318 50.68588063205817,97.81239346976055 50.84293377190247,97.73990740521704 C50.92146034182462,97.70215424660063 51.02414893326128,97.70366437294527 51.12532739835327,97.43637200994105 C51.12142113266968,97.57777372268556 50.178478180253514,95.13040908165023 50.35214270988903,93.93891939571607 C50.42613890077721,93.43151694391142 50.68739075840283,92.93166512383004 50.57413128255357,92.42879305105936 C50.49409458628677,92.08297411813297 50.246433865763066,91.80360074437147 50.112032621088616,91.47590332758097 C49.81000735215727,90.74349205042245 50.112032621088616,89.86157826514292 49.78584533064276,89.14426825143099 C49.56909095126379,88.67261270880958 49.421589618278304,88.17212542723125 49.347908690692314,87.65830392828876 C49.1916906322783,86.63497734292056 48.87895982913651,85.6417769094898 48.42069111507309,84.71355755620814 C48.20013703763159,84.24422158829377 47.91274445189411,83.80931776385918 47.56746973034205,83.42239953152666 C47.384744442638585,83.22608310672129 47.17936725976527,83.0509084507411 47.00570273012974,82.84704139421245 C46.47866863584454,82.22184908752457 46.28386233738384,81.38825934527407 46.13435982926282,80.58185187722738 C45.86253708722461,79.12155970194434 45.6813219258658,77.60690297825363 46.013549721690275,76.1602019400725 C46.128319323884185,75.66639062536974 46.30349397986437,75.17710968970097 46.29594334814109,74.67121736424096 C46.2883927164178,74.00223139355805 45.99391807920974,73.2214960733705 46.45903699336401,72.73825564308036 C46.65168479999645,72.56532157532024 46.885783557244054,72.44515087993315 47.138593848459536,72.38941645746466 C48.207763300476486,72.07077979874208 49.3207264164885,71.92580766965504 50.427649027121866,71.78536591960197 L55.49412291344517,71.12242045429767 C56.074011429793345,71.04540401072018 56.66749108324343,70.971407819832 57.17942391408208,70.68297368800256 C57.86653140090088,70.30393197549373 58.32258955698721,69.60172322522834 58.601962930748705,68.87082207441449 C59.49142734775151,69.52017640261688 59.82365514357599,70.72978760468692 60.53341452556466,71.5679077259714 C60.87923345849105,71.97715196537337 61.3065992140289,72.30786963485319 61.68564092653774,72.68389109467272 C62.14909675144421,73.17203759708816 62.57372623755578,73.69562948424357 62.95565718239405,74.24989211408173 C64.01274562365374,75.70112353129684 65.06983406491345,77.16292583292454 65.82489723724181,78.7908420324645 C66.21904021319722,79.63651278547226 66.52408573481787,80.5184265707518 66.83819201450648,81.39580997699734 C68.07498549078032,84.84946892722726 70.09100416089706,88.12795322147701 70.92761415583688,91.69789190024551 C71.13299133871018,92.5707449274571 71.666065938374,93.35903087936791 71.74912288733015,94.25151554906003 C71.84275072069886,95.19836476715979 71.40481408074842,96.11350133202177 70.95026605100672,96.9561518323402Z"/>
    <path id="path-84" opacity="1" fill-rule="evenodd" d="M44.417346175388104,68.27281204193031 C44.29321500913386,68.502331579823 44.22882023807793,68.7593913513769 44.230090508650676,69.02032458253535 C44.34334998449993,68.46157783501238 45.112004293930156,68.15200193435777 45.16183846330384,67.59929569221343 C45.18449035847368,67.34408433996646 45.137676441789324,67.35616535072371 44.98062330194504,67.49056659539815 C44.742023339489286,67.69745390461611 44.63782462170798,68.05384372195508 44.417346175388104,68.27281204193031Z"/>
    <path id="path-85" opacity="1" fill-rule="evenodd" d="M46.759552135950706,69.97019405332453 C46.59725393203787,70.10725471828165 46.476005154879296,70.28651476382214 46.409202823990384,70.4881673895418 C46.278505267433694,70.77213120694124 46.25333984500389,71.09339191881108 46.33822688579151,71.39424319633582 C46.451486361640754,71.34138877427283 46.48923952025717,71.20245715056443 46.52397242618427,71.08164704299189 C46.57959093784066,70.8934601163163 46.66035680400653,70.71364177277718 46.76408251498468,70.5470623169834 C46.85469009566407,70.39604968251773 47.27299509313394,70.05929150765928 47.27148496678929,69.90072824147033 C47.26695458775532,69.6575978999806 46.87130148545529,69.88411685167911 46.759552135950706,69.97019405332453Z"/>
    <path id="path-86" opacity="1" fill-rule="evenodd" d="M47.02986475164425,51.26274889571674 C46.67464981867015,51.56843129290463 46.28308798818419,51.829134376932835 45.86404721356925,52.038953836870284 C44.76920561369313,52.5931702053593 43.556574158933785,52.8861347162227 42.454181927334375,53.42373969492049 C41.91033462648807,53.70243365683096 41.382019627498885,54.010449367119506 40.87156951813415,54.34642689150572 L37.59459535022905,56.42285061540872 C37.331326508961034,56.573648500620806 37.08869523970872,56.75790613814923 36.87275495748314,56.97102647851911 C36.478611981527735,57.390841602333666 36.48012210787239,58.129293384870806 36.117691785154776,58.5793110355785 C35.75526146243717,59.02932868628619 35.13006915574928,59.283029912188525 34.527528744231255,59.31323243908166 C33.923959634655326,59.31680872023139 33.32443291053605,59.214587624899885 32.75615054194892,59.01120717015033 C32.41198188931999,58.90825003906143 32.0741414121231,58.78521559661958 31.744365891028924,58.64273634205408 C31.399481643387443,58.49635184010806 31.07305548324147,58.30982260573893 30.771844525069987,58.087009847220415 C30.187425629687837,57.64605295458065 29.714756083810283,57.004249258101545 29.62716875582019,56.27485823363236 C29.5877954389683,55.774342685507 29.654168429854224,55.271142801116056 29.8219750542809,54.797954668558106 C29.91269063597683,54.49011474332 30.02938982191959,54.19053631360547 30.170814239896604,53.902449746176686 C30.251363296635667,53.73858297877206 30.34425196709944,53.58107610276827 30.44867748731345,53.43129032664377 C31.203740659641806,52.365141127316136 32.528121463905755,51.86528930723477 33.81021873051931,51.61913871305572 C34.48373508023621,51.48775772107059 35.16933244071036,51.407721024803784 35.85039942215054,51.29295142260987 C36.176338127250915,51.36548107498472 36.50679975864033,51.41593323244875 36.83953217790071,51.44396405707555 C37.88000922936917,51.51796024796372 38.909915396425056,51.23858687420223 39.915659541966434,50.960723626785395 L41.012011268187216,50.65869835785405 C41.56169725764226,50.507685723388384 41.83654025236979,49.84323013173943 42.39226674720346,49.72695040320086 C42.640535073241686,49.69122559820357 42.893378189282956,49.704047257232034 43.13675903511922,49.76470356181728 C44.2648234145778,49.97914150275853 45.4019485521043,50.25549462383071 46.394101560543774,50.82934263480026 C46.61611891193961,50.958414724706856 46.82858584491526,51.103255603006176 47.02986475164425,51.26274889571674Z"/>
    <path id="path-87" opacity="1" fill-rule="evenodd" d="M49.70278838168662,36.593381583721566 C49.562346631633545,37.92984339874277 48.43428225217498,38.91142552276964 47.73962413363289,40.06667217643203 C47.40588621146375,40.62692905029967 47.17181662804197,41.24155047257496 46.87130148545528,41.82143898892314 C46.52692162134497,42.45368898272058 46.14361890283558,43.063947258242095 45.723605463516165,43.64869186595778 L44.49587274531025,45.430640952652716 C43.77403235256434,46.47866863584448 43.04464132809514,47.535757077104186 42.12195413150988,48.41314048334974 C40.51366957445048,48.68647335173261 39.16512674867203,49.88098329035608 37.639899140568744,50.460871806704255 C36.419717054086114,50.924480594513874 35.08929574444355,50.98790590098945 33.80870860417465,51.23707674785781 C32.52812146390575,51.486247594726166 31.20072040695249,51.992139920186176 30.448677487313446,53.049228361445884 C30.16863971973027,53.46615040033713 29.956594351780133,53.92490239830617 29.820464927936257,54.40834207163693 C29.651681714673565,54.88075845025945 29.585778721577896,55.38378363974748 29.627168755820183,55.88373551036655 C29.719286462844256,56.61161640849109 30.18591550334318,57.251909978625534 30.77033439872533,57.69588712395461 C31.35475329410748,58.13986426928369 32.05394179168354,58.402626253253956 32.75464041560426,58.620084446884526 C33.32311148961416,58.822743866701416 33.92251039592837,58.92494316871577 34.526018617886585,58.92210971581587 C35.130069155749275,58.891907188922744 35.743180451679905,58.6593477318456 36.117691785154776,58.188188312312704 C36.49220311862964,57.71702889277981 36.47408160249376,56.999718879067856 36.87275495748313,56.5799037552533 C37.08923990755363,56.36676840468779 37.33237194554232,56.182515941660874 37.596105476573705,56.03172789214291 L40.87307964447878,53.95530416823991 C41.38317728360102,53.62143283778961 41.91098448234231,53.31543573212011 42.45418192733433,53.03865747703331 C43.55657415893378,52.499542371990835 44.76920561369312,52.208087987472084 45.864047213569236,51.65387161898306 C46.958888813445355,51.099655250494045 47.978224096088645,50.18451868563207 48.19719241606387,48.97641760990669 C48.86466826040214,45.26452705474047 51.433393172663216,42.135545268611736 53.633647256828056,39.06998878895859 C53.56116119228453,39.054887525512015 53.58381308745439,38.89028375394444 53.556630813250564,38.82081794209023 C53.27574731314441,38.09293704396569 52.650555006456536,37.5447611808553 51.9468361298465,37.19894224792891 C51.24311725323646,36.85312331500252 50.45785155401497,36.75647522894449 49.70278838168662,36.593381583721566Z"/>
    <path id="path-88" opacity="1" fill-rule="evenodd" d="M38.11709906548026,36.62056385792554 C38.15795219572897,36.21796329284765 38.0786030658082,35.81228429749115 37.8890699874371,35.45474631985055 C37.52512953837483,34.85069578198786 36.76251573432319,34.63776796739126 36.07691837384903,34.49581609099353 C36.07691837384903,34.49581609099353 35.08174511272026,34.29194903446487 34.07751109352354,34.14546677903317 C33.5278251040685,34.06543008276636 32.964547977511536,33.9944541445675 32.42392274612443,34.11828450482935 C31.668859573796073,34.28288827639693 31.05423815152079,34.78274009647831 30.35504965394473,35.09382612347759 C29.529010543417506,35.46229695157383 28.61387397855553,35.55894503763186 27.73196019327601,35.76281209416052 C26.850046407996484,35.96667915068918 25.946990853891766,36.312498083615566 25.39428461174741,37.028297970982855 C24.97446948793284,37.57194345505928 24.80684546367595,38.26660157360136 24.681504977069437,38.94313817600758 C23.63498742022233,44.589500578679065 24.761541673336243,50.380835110437594 24.975979614277495,56.11931522013314 C25.05903656323362,58.35279208388044 24.957858098141614,60.74030183478271 23.681801336906688,62.57510534354063 L27.398222271106874,62.47694713113795 C28.34960186824061,62.452785109623434 29.371957403573205,62.40295094024977 30.11644969148897,61.8155117921783 C30.7748647777593,61.2990485823057 31.085950804758582,60.46696896639985 31.368344431209387,59.67868301448904 C31.590333003873926,59.058021086835126 31.81383170288312,58.425278148423956 31.842524103431597,57.76686306215363 C31.901419030873214,56.41832023637517 31.13578497413225,55.09393943211123 31.38948620003458,53.76653837515797 C31.575231740427355,52.77589549306316 32.29556200682862,51.975528530395096 33.06723656894819,51.32466407584805 C33.83891113106777,50.673799621301 34.6966628948328,50.11656300012267 35.32034507517602,49.31921629014393 C36.434818317532674,47.91026841057921 36.64774613212928,45.98485732114188 36.508814508420855,44.19535760272366 C36.425757559464735,43.130718529740676 36.23548164003799,42.06607945675768 36.327599347062055,41.0014403837747 C36.39706515891626,40.20560380014061 36.64925625847393,39.384095068647355 37.170249847380504,38.76343314099344 C37.7561788691073,38.0597142643834 38.06575476976194,37.61875737174365 38.11709906548026,36.62056385792554Z"/>
    <path id="path-89" opacity="1" fill-rule="evenodd" d="M37.88906998743714,35.45474631985043 C37.5311700437535,34.859756540055685 36.788187882182385,34.645318599114425 36.10712090074221,34.50336672271669 C36.46917431467856,34.632197460228625 36.778979669148754,34.87622222573596 36.989034686021725,35.19802484125879 C37.1792616219318,35.55531679087919 37.258652315021116,35.96120828137555 37.21706376406489,36.36384237933379 C37.165719468346566,37.36052576680723 36.85614356769194,37.80148265944699 36.2641740405865,38.506711662401685 C35.74318045167993,39.1273735900556 35.490989352122256,39.9473721952042 35.421523540268055,40.74471890518295 C35.32940583324399,41.80935797816595 35.519681752670735,42.87399705114894 35.602738701626855,43.93863612413193 C35.74167032533528,45.72813584255015 35.528742510738674,47.65354693198748 34.41577939472667,49.062494811552206 C33.79058708803879,49.85380101615233 32.93283532427377,50.421608521743266 32.16267088849884,51.067942597256334 C31.392506452723904,51.714276672769415 30.66915593363334,52.51917401447145 30.48341039324056,53.509816896566264 C30.2342395463722,54.837217953519534 30.99987360311316,56.16159875778348 30.93644829663758,57.51014158356194 C30.9077558960891,58.16855666983227 30.682747070735246,58.80129960824344 30.46075849807071,59.42196153589736 C30.179874997964557,60.210247487808175 29.867278844620614,61.040816977369374 29.208863758350287,61.55728018724197 C28.453800586021927,62.14471933531344 27.43748555606795,62.19606363103177 26.490636337968187,62.220225652546276 L23.858486119231518,62.28969146440048 C23.799591191789908,62.38633955045851 23.739186138003635,62.48298763651654 23.674250705183397,62.5751053435406 L27.39067163938359,62.47694713113792 C28.342051236517328,62.452785109623406 29.364406771849925,62.40295094024974 30.10889905976569,61.81551179217827 C30.767314146036025,61.299048582305666 31.078400173035305,60.46696896639981 31.36079379948611,59.678683014489 C31.58278237215065,59.05802108683508 31.806281071159844,58.425278148423914 31.834973471708324,57.76686306215358 C31.893868399149937,56.41832023637512 31.128234342408973,55.09393943211117 31.381935568311306,53.76653837515791 C31.56768110870408,52.77589549306309 32.288011375105334,51.97552853039503 33.05968593722492,51.32466407584798 C33.831360499344505,50.67379962130093 34.68911226310953,50.116563000122596 35.31279444345275,49.31921629014385 C36.42726768580941,47.91026841057912 36.640195500406016,45.984857321141796 36.50126387669759,44.19535760272357 C36.41820692774147,43.13071852974058 36.22793100831473,42.06607945675758 36.32004871533879,41.00144038377459 C36.389514527193,40.2056038001405 36.64170562675067,39.38409506864724 37.16269921565724,38.76343314099333 C37.754668742762675,38.05971426438329 38.06877502245128,37.61875737174353 38.115588939135634,36.62056385792543 C38.156904265297754,36.2181138566404 38.07808231242268,35.81244353917671 37.88906998743714,35.45474631985043Z"/>
    <path id="path-90" opacity="1" fill-rule="evenodd" d="M65.81130610013992,93.65048526388632 L58.990065401325495,110.28452695028005 C58.60279731509897,110.00701035834574 58.279005965482966,109.65027362498502 58.04019593053641,109.23800939343296 C58.5883717936468,107.16460592221928 59.15164892020376,105.0564695450785 60.26763228890508,103.22468628900991 C60.63157273796735,102.62063575114723 61.04836760909261,102.06943963534752 61.42287894256747,101.48049036093141 C62.50865978437565,99.77404759146933 62.73215848338485,97.62060742398886 63.97197221234802,96.02289375134205 C64.21516909416957,95.69231982963768 64.21516909416957,95.24201468337904 63.97197221234802,94.91144076167468 C63.82851020960563,94.72569522128192 63.60048113156247,94.5490104389571 63.64276466921285,94.31947123456928 C63.67447732245064,94.15184721031238 63.84965197843082,94.00083457584671 63.78169629292127,93.84378143600242 C63.749983639683485,93.76827511876958 63.672967196105986,93.72750170746386 63.61256214231972,93.67313715905621 C63.40114445406778,93.47833086059549 63.42832672827159,93.14610306477101 63.41020521213572,92.86068918563089 C63.363391295451365,92.13733866654033 62.92998503453488,91.50157547543985 62.504129405341686,90.91111607467909 C62.4191809995341,90.77113502810488 62.306663565486105,90.64988336401663 62.173411735861855,90.55472625734009 C62.06166238635727,90.48677057183053 61.928771268027475,90.45656804493741 61.817021918522876,90.3871022330832 C61.42136881622282,90.1394415125595 61.45006121677129,89.56257324890062 61.25978529734454,89.13520749336278 C61.012124576820845,88.57193036680583 60.38844239647762,88.28500636132105 59.97919815707564,87.82743807889008 C59.45820456816907,87.24603943619724 59.325313449839285,86.43510158911658 58.724283164665906,85.80839915608405 L59.25584763798507,82.59938067368853 L65.81130610013992,93.65048526388632Z"/>
  </defs>
  <g opacity="1">
    <g opacity="0.1">
      <use xlink:href="#path-0" fill="rgb(255,193,7)" fill-opacity="1"/>
    </g>
    <g opacity="1">
      <g opacity="0.8">
        <use xlink:href="#path-1" fill="rgb(255,193,7)" fill-opacity="1"/>
      </g>
      <g opacity="0.8">
        <use xlink:href="#path-2" fill="rgb(68,64,83)" fill-opacity="1"/>
      </g>
      <g opacity="0.8">
        <use xlink:href="#path-3" fill="rgb(68,64,83)" fill-opacity="1"/>
      </g>
      <g opacity="0.8">
        <use xlink:href="#path-4" fill="rgb(68,64,83)" fill-opacity="1"/>
      </g>
      <g opacity="0.8">
        <use xlink:href="#path-5" fill-opacity="0" stroke="rgb(68,64,83)" stroke-opacity="1" stroke-width="1"/>
      </g>
      <g opacity="0.8">
        <use xlink:href="#path-6" fill-opacity="0" stroke="rgb(68,64,83)" stroke-opacity="1" stroke-width="1"/>
      </g>
      <g opacity="0.8">
        <use xlink:href="#path-7" fill-opacity="0" stroke="rgb(68,64,83)" stroke-opacity="1" stroke-width="1"/>
      </g>
      <g opacity="0.8">
        <use xlink:href="#path-8" fill-opacity="0" stroke="rgb(68,64,83)" stroke-opacity="1" stroke-width="1"/>
      </g>
      <g opacity="0.8">
        <use xlink:href="#path-9" fill-opacity="0" stroke="rgb(68,64,83)" stroke-opacity="1" stroke-width="1"/>
      </g>
      <g opacity="0.8">
        <use xlink:href="#path-10" fill-opacity="0" stroke="rgb(68,64,83)" stroke-opacity="1" stroke-width="1"/>
      </g>
      <g opacity="0.8">
        <use xlink:href="#path-11" fill-opacity="0" stroke="rgb(68,64,83)" stroke-opacity="1" stroke-width="1"/>
      </g>
      <g opacity="0.8">
        <use xlink:href="#path-12" fill-opacity="0" stroke="rgb(68,64,83)" stroke-opacity="1" stroke-width="1"/>
      </g>
      <g opacity="0.8">
        <use xlink:href="#path-13" fill-opacity="0" stroke="rgb(68,64,83)" stroke-opacity="1" stroke-width="1"/>
      </g>
      <g opacity="0.8">
        <use xlink:href="#path-14" fill-opacity="0" stroke="rgb(68,64,83)" stroke-opacity="1" stroke-width="1"/>
      </g>
      <g opacity="0.8">
        <use xlink:href="#path-15" fill-opacity="0" stroke="rgb(68,64,83)" stroke-opacity="1" stroke-width="1"/>
      </g>
      <g opacity="0.8">
        <use xlink:href="#path-16" fill-opacity="0" stroke="rgb(68,64,83)" stroke-opacity="1" stroke-width="1"/>
      </g>
      <g opacity="0.8">
        <use xlink:href="#path-17" fill-opacity="0" stroke="rgb(68,64,83)" stroke-opacity="1" stroke-width="1"/>
      </g>
      <g opacity="0.8">
        <use xlink:href="#path-18" fill-opacity="0" stroke="rgb(68,64,83)" stroke-opacity="1" stroke-width="1"/>
      </g>
      <g opacity="0.8">
        <use xlink:href="#path-19" fill-opacity="0" stroke="rgb(68,64,83)" stroke-opacity="1" stroke-width="0.75"/>
      </g>
      <g opacity="0.8">
        <use xlink:href="#path-20" fill-opacity="0" stroke="rgb(68,64,83)" stroke-opacity="1" stroke-width="0.75"/>
      </g>
      <g opacity="0.8">
        <use xlink:href="#path-21" fill-opacity="0" stroke="rgb(68,64,83)" stroke-opacity="1" stroke-width="0.75"/>
      </g>
      <g opacity="0.8">
        <use xlink:href="#path-22" fill-opacity="0" stroke="rgb(68,64,83)" stroke-opacity="1" stroke-width="1"/>
      </g>
      <g opacity="0.8">
        <use xlink:href="#path-23" fill-opacity="0" stroke="rgb(68,64,83)" stroke-opacity="1" stroke-width="1"/>
      </g>
      <g opacity="0.8">
        <use xlink:href="#path-24" fill-opacity="0" stroke="rgb(68,64,83)" stroke-opacity="1" stroke-width="1"/>
      </g>
      <g opacity="0.8">
        <use xlink:href="#path-25" fill-opacity="0" stroke="rgb(68,64,83)" stroke-opacity="1" stroke-width="1"/>
      </g>
      <g opacity="0.8">
        <use xlink:href="#path-26" fill-opacity="0" stroke="rgb(68,64,83)" stroke-opacity="1" stroke-width="1"/>
      </g>
      <g opacity="0.8">
        <use xlink:href="#path-27" fill-opacity="0" stroke="rgb(68,64,83)" stroke-opacity="1" stroke-width="1"/>
      </g>
    </g>
    <g opacity="0.1">
      <use xlink:href="#ellipse-28" fill="rgb(255,193,7)" fill-opacity="1"/>
    </g>
    <g opacity="1">
      <use xlink:href="#path-29" fill="url(#linearGradient-30)"/>
    </g>
    <g opacity="1">
      <use xlink:href="#path-31" fill="rgb(251,190,190)" fill-opacity="1"/>
    </g>
    <g opacity="0.1">
      <use xlink:href="#path-32" fill="rgb(0,0,0)" fill-opacity="1"/>
    </g>
    <g opacity="1">
      <use xlink:href="#path-33" fill="rgb(255,193,7)" fill-opacity="1"/>
    </g>
    <g opacity="0.1">
      <use xlink:href="#path-34" fill="rgb(0,0,0)" fill-opacity="1"/>
    </g>
    <g opacity="1">
      <use xlink:href="#path-35" fill="rgb(63,61,86)" fill-opacity="1"/>
    </g>
    <g opacity="1">
      <use xlink:href="#rect-36" fill="rgb(63,61,86)" fill-opacity="1"/>
    </g>
    <g opacity="1">
      <use xlink:href="#rect-37" fill="rgb(63,61,86)" fill-opacity="1"/>
    </g>
    <g opacity="1">
      <use xlink:href="#rect-38" fill="rgb(63,61,86)" fill-opacity="1"/>
    </g>
    <g opacity="1">
      <use xlink:href="#rect-39" fill="rgb(63,61,86)" fill-opacity="1"/>
    </g>
    <g opacity="1">
      <use xlink:href="#rect-40" fill="rgb(63,61,86)" fill-opacity="1"/>
    </g>
    <g opacity="1">
      <use xlink:href="#rect-41" fill="rgb(63,61,86)" fill-opacity="1"/>
    </g>
    <g opacity="1">
      <use xlink:href="#rect-42" fill="rgb(63,61,86)" fill-opacity="1"/>
    </g>
    <g opacity="1">
      <use xlink:href="#rect-43" fill="rgb(63,61,86)" fill-opacity="1"/>
    </g>
    <g opacity="1">
      <use xlink:href="#rect-44" fill="rgb(63,61,86)" fill-opacity="1"/>
    </g>
    <g opacity="1">
      <use xlink:href="#rect-45" fill="rgb(63,61,86)" fill-opacity="1"/>
    </g>
    <g opacity="1">
      <use xlink:href="#rect-46" fill="rgb(63,61,86)" fill-opacity="1"/>
    </g>
    <g opacity="1">
      <use xlink:href="#rect-47" fill="rgb(63,61,86)" fill-opacity="1"/>
    </g>
    <g opacity="1">
      <use xlink:href="#path-48" fill="rgb(63,61,86)" fill-opacity="1"/>
    </g>
    <g opacity="1">
      <use xlink:href="#rect-49" fill="rgb(63,61,86)" fill-opacity="1"/>
    </g>
    <g opacity="1">
      <use xlink:href="#rect-50" fill="rgb(63,61,86)" fill-opacity="1"/>
    </g>
    <g opacity="1">
      <use xlink:href="#rect-51" fill="rgb(63,61,86)" fill-opacity="1"/>
    </g>
    <g opacity="1">
      <use xlink:href="#rect-52" fill="rgb(63,61,86)" fill-opacity="1"/>
    </g>
    <g opacity="1">
      <use xlink:href="#rect-53" fill="rgb(63,61,86)" fill-opacity="1"/>
    </g>
    <g opacity="1">
      <use xlink:href="#rect-54" fill="rgb(63,61,86)" fill-opacity="1"/>
    </g>
    <g opacity="1">
      <use xlink:href="#rect-55" fill="rgb(63,61,86)" fill-opacity="1"/>
    </g>
    <g opacity="1">
      <use xlink:href="#rect-56" fill="rgb(63,61,86)" fill-opacity="1"/>
    </g>
    <g opacity="1">
      <use xlink:href="#rect-57" fill="rgb(63,61,86)" fill-opacity="1"/>
    </g>
    <g opacity="1">
      <use xlink:href="#rect-58" fill="rgb(63,61,86)" fill-opacity="1"/>
    </g>
    <g opacity="1">
      <use xlink:href="#rect-59" fill="rgb(63,61,86)" fill-opacity="1"/>
    </g>
    <g opacity="1">
      <use xlink:href="#rect-60" fill="rgb(63,61,86)" fill-opacity="1"/>
    </g>
    <g opacity="1">
      <use xlink:href="#path-61" fill="rgb(63,61,86)" fill-opacity="1"/>
    </g>
    <g opacity="1">
      <use xlink:href="#rect-62" fill="rgb(63,61,86)" fill-opacity="1"/>
    </g>
    <g opacity="1">
      <use xlink:href="#rect-63" fill="rgb(63,61,86)" fill-opacity="1"/>
    </g>
    <g opacity="1">
      <use xlink:href="#rect-64" fill="rgb(63,61,86)" fill-opacity="1"/>
    </g>
    <g opacity="1">
      <use xlink:href="#rect-65" fill="rgb(63,61,86)" fill-opacity="1"/>
    </g>
    <g opacity="1">
      <use xlink:href="#rect-66" fill="rgb(63,61,86)" fill-opacity="1"/>
    </g>
    <g opacity="1">
      <use xlink:href="#rect-67" fill="rgb(63,61,86)" fill-opacity="1"/>
    </g>
    <g opacity="1">
      <use xlink:href="#rect-68" fill="rgb(63,61,86)" fill-opacity="1"/>
    </g>
    <g opacity="1">
      <use xlink:href="#rect-69" fill="rgb(63,61,86)" fill-opacity="1"/>
    </g>
    <g opacity="1">
      <use xlink:href="#rect-70" fill="rgb(63,61,86)" fill-opacity="1"/>
    </g>
    <g opacity="1">
      <use xlink:href="#rect-71" fill="rgb(63,61,86)" fill-opacity="1"/>
    </g>
    <g opacity="1">
      <use xlink:href="#rect-72" fill="rgb(63,61,86)" fill-opacity="1"/>
    </g>
    <g opacity="1">
      <use xlink:href="#rect-73" fill="rgb(63,61,86)" fill-opacity="1"/>
    </g>
    <g opacity="1">
      <use xlink:href="#path-74" fill="rgb(251,190,190)" fill-opacity="1"/>
    </g>
    <g opacity="1">
      <use xlink:href="#path-75" fill="rgb(251,190,190)" fill-opacity="1"/>
    </g>
    <g opacity="1">
      <use xlink:href="#path-76" fill="rgb(63,61,86)" fill-opacity="1"/>
    </g>
    <g opacity="1">
      <use xlink:href="#path-77" fill="rgb(63,61,86)" fill-opacity="1"/>
    </g>
    <g opacity="1">
      <use xlink:href="#path-78" fill="rgb(251,190,190)" fill-opacity="1"/>
    </g>
    <g opacity="0.1">
      <use xlink:href="#path-79" fill="rgb(0,0,0)" fill-opacity="1"/>
    </g>
    <g opacity="1">
      <use xlink:href="#ellipse-80" fill="rgb(251,190,190)" fill-opacity="1"/>
    </g>
    <g opacity="1">
      <use xlink:href="#path-81" fill="rgb(255,193,7)" fill-opacity="1"/>
    </g>
    <g opacity="1">
      <use xlink:href="#path-82" fill="rgb(251,190,190)" fill-opacity="1"/>
    </g>
    <g opacity="1">
      <use xlink:href="#path-83" fill="rgb(63,61,86)" fill-opacity="1"/>
    </g>
    <g opacity="0.1">
      <use xlink:href="#path-84" fill="rgb(0,0,0)" fill-opacity="1"/>
    </g>
    <g opacity="0.1">
      <use xlink:href="#path-85" fill="rgb(0,0,0)" fill-opacity="1"/>
    </g>
    <g opacity="0.1">
      <use xlink:href="#path-86" fill="rgb(0,0,0)" fill-opacity="1"/>
    </g>
    <g opacity="1">
      <use xlink:href="#path-87" fill="rgb(255,193,7)" fill-opacity="1"/>
    </g>
    <g opacity="1">
      <use xlink:href="#path-88" fill="rgb(63,61,86)" fill-opacity="1"/>
    </g>
    <g opacity="0.1">
      <use xlink:href="#path-89" fill="rgb(0,0,0)" fill-opacity="1"/>
    </g>
    <g opacity="0.1">
      <use xlink:href="#path-90" fill="rgb(0,0,0)" fill-opacity="1"/>
    </g>
  </g>
</svg>