<?xml version="1.0" encoding="utf-8"?>
<svg version="1.1" xmlns="http://www.w3.org/2000/svg" xmlns:xlink="http://www.w3.org/1999/xlink" height="124.56647749903698" width="121.8498120689253">
  <defs>
    <rect id="rect-0" opacity="1" x="10.664860126260237" y="15.882682637072548" width="52.10511313328112" height="68.5048070040082" rx="0" ry="0"/>
    <linearGradient id="linearGradient-1" x1="0.4999846272098386" y1="1" x2="0.4999846272098386" y2="0">
      <stop offset="1" stop-color="rgb(128,128,128)" stop-opacity="0.1"/>
      <stop offset="0.54" stop-color="rgb(128,128,128)" stop-opacity="0.12"/>
      <stop offset="0" stop-color="rgb(128,128,128)" stop-opacity="0.25"/>
    </linearGradient>
    <rect id="rect-2" opacity="1" x="4.885736401052782" y="17.10058268495436" width="52.36947791164658" height="26.18313253012047" rx="0" ry="0"/>
    <linearGradient id="linearGradient-3" x1="0.5000000000000001" y1="0.9999386465427323" x2="0.5000000000000001" y2="-0.00006135345726726121">
      <stop offset="1" stop-color="rgb(179,179,179)" stop-opacity="0.05"/>
      <stop offset="0.54" stop-color="rgb(179,179,179)" stop-opacity="0.1"/>
      <stop offset="0" stop-color="rgb(179,179,179)" stop-opacity="0.25"/>
    </linearGradient>
    <rect id="rect-4" opacity="1" x="11.195590805899428" y="16.944565172276725" width="50.91244979919679" height="67.09558232931727" rx="0" ry="0"/>
    <rect id="rect-5" opacity="1" x="5.616584480841311" y="17.625929115003828" width="51.02971887550203" height="25.57269076305221" rx="0" ry="0"/>
    <rect id="rect-6" opacity="1" x="22.071658993792425" y="51.76294572801055" width="13.8425702811245" height="1.055421686747025" rx="0" ry="0"/>
    <rect id="rect-7" opacity="1" x="23.19129966624996" y="55.83618789653758" width="13.8425702811245" height="1.055421686747025" rx="0" ry="0"/>
    <rect id="rect-8" opacity="1" x="22.233409471102505" y="50.84593299564142" width="36.13172690763052" height="1.055421686747025" rx="0" ry="0"/>
    <rect id="rect-9" opacity="1" x="24.851663413323422" y="26.910025593579576" width="13.84257028112449" height="1.055421686746968" rx="0" ry="0"/>
    <rect id="rect-10" opacity="1" x="25.32225640211709" y="28.052340057071206" width="22.28915662650602" height="1.055421686746968" rx="0" ry="0"/>
    <path id="path-11" opacity="1" fill-rule="evenodd" d="M30.956586397805694,30.992536113162032 L43.62646591587797,30.992536113162032 C43.9500787414849,30.992536113162032 44.21281129740409,31.255268669081218 44.21281129740409,31.578881494688147 C44.21281129740409,31.902494320295077 43.9500787414849,32.16522687621426 43.62646591587797,32.16522687621426 L30.956586397805694,32.16522687621426 C30.632973572198765,32.16522687621426 30.37024101627958,31.902494320295077 30.37024101627958,31.578881494688147 C30.37024101627958,31.255268669081218 30.632973572198765,30.992536113162032 30.956586397805694,30.992536113162032Z"/>
    <ellipse id="ellipse-12" opacity="1" rx="2.464257028112452" ry="2.4642570281124563" cx="16.795320999759152" cy="56.37456445919997"/>
    <rect id="rect-13" opacity="1" x="24.779191487220714" y="61.60437225885528" width="13.84257028112449" height="1.055421686747025" rx="0" ry="0"/>
    <rect id="rect-14" opacity="1" x="25.89722573397512" y="65.67761442738231" width="13.8425702811245" height="1.055421686747025" rx="0" ry="0"/>
    <rect id="rect-15" opacity="1" x="24.93933553882789" y="60.68735952648569" width="36.13172690763052" height="1.055421686747025" rx="0" ry="0"/>
    <ellipse id="ellipse-16" opacity="1" rx="2.4642570281124483" ry="2.4642570281124563" cx="19.499698096694253" cy="66.21641677523667"/>
    <rect id="rect-17" opacity="1" x="27.483142798963854" y="71.44467560410123" width="13.8425702811245" height="1.055421686747025" rx="0" ry="0"/>
    <rect id="rect-18" opacity="1" x="28.602783471420935" y="75.51631134692536" width="13.8425702811245" height="1.055421686747025" rx="0" ry="0"/>
    <rect id="rect-19" opacity="1" x="27.643712635762768" y="70.52760541681948" width="36.13172690763052" height="1.055421686747025" rx="0" ry="0"/>
    <ellipse id="ellipse-20" opacity="1" rx="2.464257028112449" ry="2.4642570281124563" cx="22.20562416441941" cy="76.05784330608094"/>
    <path id="path-21" opacity="1" fill-rule="evenodd" d="M8.655729945912858,36.12259617923751 C9.611679500673052,39.436057578728025 12.899012846732113,41.50717781621357 16.30049411886187,40.939030693972825 C19.701975390991606,40.37088357173208 22.13776487127552,37.34383398938755 21.96497477581866,33.89956199372985 C21.792184680361792,30.455289998072153 19.0656692309015,27.68721971896283 15.62440464470804,27.462355215382104 L16.106332355551412,29.144282926225475 C16.45372541074896,30.364628285084326 15.7503547723698,31.636437235296427 14.53203516679639,31.990869271607007 C13.31168980793754,32.33826232680454 12.03988085772545,31.63489168842539 11.68544882141487,30.416572082851985 L11.203521110571495,28.734644372008614 C8.881445843963052,30.413744443898903 7.86227529114962,33.369082005304286 8.655729945912858,36.12259617923751Z"/>
    <linearGradient id="linearGradient-22" x1="0.6536122980803419" y1="1.0127583470634194" x2="0.340921983171066" y2="0.08587192234932081">
      <stop offset="1" stop-color="rgb(0,0,0)" stop-opacity="0.02"/>
      <stop offset="0.55" stop-color="rgb(0,0,0)" stop-opacity="0.09"/>
      <stop offset="0" stop-color="rgb(0,0,0)" stop-opacity="0.12"/>
    </linearGradient>
    <path id="path-23" opacity="1" fill-rule="evenodd" d="M21.56817974510962,31.830226701325763 C20.65249332760211,28.504696984497837 17.389578570641092,26.393602229476944 13.980884767198148,26.921272644682404 C10.572190963755205,27.448943059887863 8.100302579243255,30.447793104552584 8.232972939053107,33.89453476710018 C8.36564329886295,37.34127642964778 11.060736946179494,40.141241430869165 14.49990665274014,40.40532710293219 L14.035649624627693,38.718580114980384 C13.702904509061668,37.49478908261641 14.420455211192241,36.231899846866604 15.642075327438938,35.89127087803258 C16.865866359802908,35.55852576246656 18.128755595552715,36.27607646459712 18.469384564386733,37.49769658084382 L18.933641592499182,39.18444356879563 C21.273969561455516,37.533254395462336 22.327672793947976,34.59188037207787 21.56817974510962,31.830226701325763Z"/>
    <ellipse id="ellipse-24" opacity="1" rx="2.6104417670682727" ry="2.6104417670682665" cx="14.77101724503013" cy="32.735241877514284"/>
    <path id="path-25" opacity="1" fill-rule="evenodd" d="M15.6388624760333,35.89127087803266 C14.417242359786613,36.231899846866675 13.699691657656041,37.49478908261647 14.032436773222065,38.71858011498045 L14.496693801334512,40.405327102932254 C16.071746330337376,40.52498740987078 17.639477899044675,40.0940173770389 18.93203516679636,39.186049994498525 L18.46777813868391,37.49930300654672 C18.127870967393267,36.27623136763469 16.86365469814127,35.55761666830405 15.6388624760333,35.89127087803266 L15.6388624760333,35.89127087803266Z"/>
    <path id="path-26" opacity="1" fill-rule="evenodd" d="M12.196292194908791,33.28886123947828 C11.887246705874157,32.95422309291901 11.674145286978657,32.54244899703239 11.579424725029268,32.09689336799234 C11.487004353847452,31.647609440435208 11.57406906081194,31.17999700766566 11.821995006153765,30.794082123012423 C12.103119504145733,30.381230717389933 12.568982957960989,30.133841159156997 13.039665688884686,29.96356003465901 C13.51034841980838,29.79327891016102 14.003521110571434,29.682435536667043 14.450107455952955,29.459142363976284 C15.19589405347406,29.082121642017754 15.759462030715385,28.42192547976688 16.014766090491108,27.626210637068652 C16.163267953869745,27.981526513744026 16.262187088961905,28.355581385240086 16.308741994105564,28.73785722341403 C16.353784562549812,29.124518052053087 16.237574383192317,29.51266005110715 15.987456853543314,29.81094959289194 C16.32159339972805,29.528218669197162 16.393882556354555,29.95552790614495 16.37942472502926,30.227013849920052 C16.631633560370624,30.403720677229288 17.10231629129432,30.31536726357467 17.208340387679865,30.604523890080692 C17.327980432586347,30.889020618369063 17.377562917346033,31.198084773371093 17.352918700932875,31.5057287093578 C17.312758058362594,31.810949592891934 17.568179745109575,32.25753593827346 17.27902311860356,32.36034718325338 "/>
    <path id="path-27" opacity="1" fill-rule="evenodd" d="M16.10633235555133,29.711351199317726 C16.10633235555133,29.711351199317726 17.905529142699923,29.38203393024142 17.37058938366378,32.33303794630568 "/>
    <path id="path-28" opacity="1" fill-rule="evenodd" d="M104.80673396197719,117.09127087803245 L87.87018777723824,117.09127087803245 L87.87018777723824,48.26074878967904 L119.49749701418602,48.26074878967904 L104.80673396197719,117.09127087803245Z"/>
    <linearGradient id="linearGradient-29" x1="0.4999999999999997" y1="1" x2="0.4999999999999997" y2="0">
      <stop offset="1" stop-color="rgb(128,128,128)" stop-opacity="0.1"/>
      <stop offset="0.54" stop-color="rgb(128,128,128)" stop-opacity="0.12"/>
      <stop offset="0" stop-color="rgb(128,128,128)" stop-opacity="0.25"/>
    </linearGradient>
    <path id="path-30" opacity="1" fill-rule="evenodd" d="M103.96336046800113,117.09127087803245 L87.36095082944689,117.09127087803245 L87.36095082944689,48.26074878967904 L118.36336046800112,48.26074878967904 L103.96336046800113,117.09127087803245Z"/>
    <rect id="rect-31" opacity="1" x="59.439221663890294" y="29.42223078021061" width="52.24899598393574" height="68.69397590361446" rx="0" ry="0"/>
    <linearGradient id="linearGradient-32" x1="0.4999846272098386" y1="1.0000000000000002" x2="0.4999846272098386" y2="6.646487402461065e-17">
      <stop offset="1" stop-color="rgb(128,128,128)" stop-opacity="0.1"/>
      <stop offset="0.54" stop-color="rgb(128,128,128)" stop-opacity="0.12"/>
      <stop offset="0" stop-color="rgb(128,128,128)" stop-opacity="0.25"/>
    </linearGradient>
    <rect id="rect-33" opacity="1" x="57.13210754393299" y="29.476693226459247" width="52.36947791164656" height="26.1831325301205" rx="0" ry="0"/>
    <linearGradient id="linearGradient-34" x1="0.5" y1="0.9999386465427329" x2="0.5" y2="0">
      <stop offset="1" stop-color="rgb(179,179,179)" stop-opacity="0.05"/>
      <stop offset="0.54" stop-color="rgb(179,179,179)" stop-opacity="0.1"/>
      <stop offset="0" stop-color="rgb(179,179,179)" stop-opacity="0.25"/>
    </linearGradient>
    <rect id="rect-35" opacity="1" x="60.0796258342466" y="29.95510390927211" width="50.91244979919676" height="67.09558232931728" rx="0" ry="0"/>
    <rect id="rect-36" opacity="1" x="57.82572575087943" y="30.00783174447224" width="51.02971887550203" height="25.57269076305221" rx="0" ry="0"/>
    <rect id="rect-37" opacity="1" x="70.76766593494244" y="63.510134031653365" width="13.84257028112449" height="1.055421686746968" rx="0" ry="0"/>
    <rect id="rect-38" opacity="1" x="71.21258664223478" y="67.70972603625262" width="13.84257028112444" height="1.055421686746968" rx="0" ry="0"/>
    <rect id="rect-39" opacity="1" x="70.92752376318981" y="64.4355401976187" width="36.13172690763048" height="1.055421686747025" rx="0" ry="0"/>
    <rect id="rect-40" opacity="1" x="77.53547378659687" y="39.43533640054454" width="13.84257028112449" height="1.055421686746996" rx="0" ry="0"/>
    <rect id="rect-41" opacity="1" x="77.75801053120449" y="41.324032066317045" width="22.28915662650599" height="1.055421686746996" rx="0" ry="0"/>
    <path id="path-42" opacity="1" fill-rule="evenodd" d="M82.89470704240603,44.35501332295837 L95.56458656047829,44.35501332295837 C95.88819938608523,44.35501332295837 96.15093194200443,44.61774587887757 96.15093194200443,44.941358704484514 C96.15093194200443,45.26497153009146 95.88819938608523,45.52770408601066 95.56458656047829,45.52770408601066 L82.89470704240603,45.52770408601066 C82.57109421679908,45.52770408601066 82.30836166087988,45.26497153009146 82.30836166087988,44.941358704484514 C82.30836166087988,44.61774587887757 82.57109421679908,44.35501332295837 82.89470704240603,44.35501332295837Z"/>
    <ellipse id="ellipse-43" opacity="1" rx="2.464257028112428" ry="2.4642570281124563" cx="64.98899999926275" cy="66.0918041439827"/>
    <rect id="rect-44" opacity="1" x="71.84406235902134" y="73.65824755618826" width="13.84257028112449" height="1.055421686747025" rx="0" ry="0"/>
    <rect id="rect-45" opacity="1" x="72.28915237765068" y="77.85783061347558" width="13.84257028112449" height="1.055421686746968" rx="0" ry="0"/>
    <rect id="rect-46" opacity="1" x="72.00392018726848" y="74.5836537221536" width="36.13172690763054" height="1.055421686747025" rx="0" ry="0"/>
    <ellipse id="ellipse-47" opacity="1" rx="2.4642570281124563" ry="2.4642570281124563" cx="66.06539642334167" cy="76.23991766851759"/>
    <rect id="rect-48" opacity="1" x="72.91903061604603" y="83.80652144474845" width="13.84257028112449" height="1.055421686747025" rx="0" ry="0"/>
    <rect id="rect-49" opacity="1" x="73.36395132333837" y="88.00611344934725" width="13.84257028112449" height="1.055421686747025" rx="0" ry="0"/>
    <rect id="rect-50" opacity="1" x="73.07888844429317" y="84.7319276107138" width="36.13172690763054" height="1.055421686747025" rx="0" ry="0"/>
    <ellipse id="ellipse-51" opacity="1" rx="2.4642570281124563" ry="2.4642570281124563" cx="67.14036468036659" cy="86.38819155707779"/>
    <path id="path-52" opacity="1" fill-rule="evenodd" d="M60.23323998607355,44.792475697309754 C60.63569324557322,48.21872759827481 63.5427113173845,50.79902955602837 66.99251166477464,50.79208131196407 C70.44231201216476,50.78513306789976 73.33891256689728,48.19314203987756 73.72756098695316,44.765296780748045 C74.11620940700904,41.337451521618526 71.873434286412,38.162759092192445 68.5127580583627,37.383640355944294 L68.71838054832254,39.12179296638606 C68.8590470183464,40.37771834881551 67.962984037039,41.513017969416815 66.70874199410567,41.66797770534189 C65.44820669738223,41.81324968709561 64.30700060200465,40.913204125080846 64.15452512663579,39.65351987401658 L63.94890263667596,37.915367263574815 C61.38385749860189,39.194627352675916 59.897376186065856,41.945870975229646 60.23323998607355,44.792475697309754Z"/>
    <linearGradient id="linearGradient-53" x1="0.5796307040149478" y1="0.9929189581449682" x2="0.4244061863708807" y2="0.015375048552146275">
      <stop offset="1" stop-color="rgb(0,0,0)" stop-opacity="0.02"/>
      <stop offset="0.55" stop-color="rgb(0,0,0)" stop-opacity="0.09"/>
      <stop offset="0" stop-color="rgb(0,0,0)" stop-opacity="0.12"/>
    </linearGradient>
    <path id="path-54" opacity="1" fill-rule="evenodd" d="M73.6693845643868,42.65111023546224 C73.3046725606406,39.22162595989847 70.42763484082717,36.609912248044296 66.97896280527598,36.57768751805333 C63.5302907697248,36.54546278806236 60.604951449511354,39.102958519345144 60.17621784786624,42.525028761294635 C59.74748424622114,45.947099003244105 61.95148097983051,49.14722289961994 65.30151307844302,49.96677288606465 L65.11677412261974,48.22701384992008 C64.98648597203561,46.96472383379382 65.90021151857702,45.83423071847355 67.16175404229845,45.696893367992374 C68.42404405842473,45.56660521740824 69.554537173745,46.48033076394964 69.69187452422617,47.7418732876711 L69.87661348004946,49.481632323815674 C72.45425493668705,48.2318608226848 73.97128228753046,45.49979801210192 73.6693845643868,42.65111023546224Z"/>
    <ellipse id="ellipse-55" opacity="1" rx="2.6104417670682665" ry="2.6104417670682665" cx="66.8214246474758" cy="42.43679477732081"/>
    <path id="path-56" opacity="1" fill-rule="evenodd" d="M67.1617540422984,45.69689336799247 C65.90021151857695,45.83423071847365 64.98648597203555,46.964723833793926 65.11677412261967,48.22701384992018 L65.30151307844297,49.96677288606476 C66.83632226522346,50.34105175232285 68.45347625600495,50.17070547520401 69.8766134800494,49.484845175221395 L69.69187452422611,47.74508613907682 C69.55616626113311,46.482248900351934 68.42516971961304,45.56668027150234 67.1617540422984,45.69689336799247 L67.1617540422984,45.69689336799247Z"/>
    <path id="path-57" opacity="1" fill-rule="evenodd" d="M64.18665364069197,42.57078895032163 C63.93558229570095,42.19027642270556 63.79184168885503,41.749064907483486 63.770589383663875,41.2936805165867 C63.7523543988013,40.83589741794299 63.913771548999705,40.38911780578669 64.22038858045102,40.048700596908 C64.56416368085262,39.68564838807266 65.06536850012972,39.51697368927747 65.55693476518998,39.425407424217234 C66.04850103025024,39.333841159157 66.54809942382451,39.31135119931761 67.03002713466789,39.15070862903649 C67.82701361025725,38.899547633611185 68.49009766537472,38.33945569176676 68.87099099008958,37.5956885487152 C68.96017742001173,37.97006617879226 68.99747435247706,38.35492727901407 68.98183436358354,38.73946364911681 C68.96356635695899,39.12854631779846 68.78574788414716,39.49289985522663 68.49026809852332,39.746692564779465 C68.86456528727834,39.521792966385895 68.86777813868396,39.95392148044212 68.81155323908555,40.22058814710878 C69.0316335603707,40.435849191285484 69.51034841980845,40.4246042113658 69.56817974510966,40.72821866919713 C69.64119910282879,41.02798603792351 69.64119910282879,41.34090109966755 69.56817974510965,41.640668468393926 C69.47821990575223,41.93464437200838 69.6597460101699,42.41817850855456 69.35613155233855,42.47119055674734 "/>
    <path id="path-58" opacity="1" fill-rule="evenodd" d="M68.62520785755942,39.67440340815298 C68.62520785755942,39.67440340815298 70.45332030735861,39.640668468393955 69.44930424310158,42.46637127963892 "/>
    <rect id="rect-59" opacity="1" x="37.74328014671619" y="2.4165720828518715" width="52.24899598393574" height="68.69397590361446" rx="0" ry="0"/>
    <linearGradient id="linearGradient-60" x1="0.4999846272098386" y1="1.0000233852485851" x2="0.4999846272098386" y2="0">
      <stop offset="1" stop-color="rgb(128,128,128)" stop-opacity="0.1"/>
      <stop offset="0.54" stop-color="rgb(128,128,128)" stop-opacity="0.12"/>
      <stop offset="0" stop-color="rgb(128,128,128)" stop-opacity="0.25"/>
    </linearGradient>
    <rect id="rect-61" opacity="1" x="37.68223597000929" y="2.3523150547393925" width="52.36947791164658" height="26.18313253012048" rx="0" ry="0"/>
    <linearGradient id="linearGradient-62" x1="0.5000000000000001" y1="1" x2="0.5000000000000001" y2="0">
      <stop offset="1" stop-color="rgb(179,179,179)" stop-opacity="0.05"/>
      <stop offset="0.54" stop-color="rgb(179,179,179)" stop-opacity="0.1"/>
      <stop offset="0" stop-color="rgb(179,179,179)" stop-opacity="0.25"/>
    </linearGradient>
    <rect id="rect-63" opacity="1" x="38.411553239085606" y="2.9482989904823853" width="50.91244979919679" height="67.09558232931727" rx="0" ry="0"/>
    <rect id="rect-64" opacity="1" x="38.353721913784284" y="2.8856483880726955" width="51.029718875502" height="25.57269076305221" rx="0" ry="0"/>
    <rect id="rect-65" opacity="1" x="49.08625203426618" y="35.672796982450336" width="13.84257028112449" height="1.055421686746982" rx="0" ry="0"/>
    <rect id="rect-66" opacity="1" x="49.08625203426618" y="39.89609015514122" width="13.84257028112449" height="1.055421686746982" rx="0" ry="0"/>
    <rect id="rect-67" opacity="1" x="49.08625203426618" y="37.78524678164683" width="36.13172690763052" height="1.055421686746982" rx="0" ry="0"/>
    <rect id="rect-68" opacity="1" x="58.353721913784284" y="12.447094171205208" width="13.84257028112451" height="1.055421686746987" rx="0" ry="0"/>
    <rect id="rect-69" opacity="1" x="58.353721913784284" y="14.792475697309783" width="22.28915662650603" height="1.055421686746987" rx="0" ry="0"/>
    <path id="path-70" opacity="1" fill-rule="evenodd" d="M63.16336046800116,17.84307810694827 L75.83323998607344,17.84307810694827 C76.15685281168037,17.84307810694827 76.41958536759955,18.105810662867448 76.41958536759955,18.429423488474374 C76.41958536759955,18.753036314081296 76.15685281168037,19.015768870000475 75.83323998607344,19.015768870000475 L63.16336046800116,19.015768870000475 C62.83974764239424,19.015768870000475 62.57701508647506,18.753036314081296 62.57701508647506,18.429423488474374 C62.57701508647506,18.105810662867448 62.83974764239424,17.84307810694827 63.16336046800116,17.84307810694827Z"/>
    <ellipse id="ellipse-71" opacity="1" rx="2.4642570281124523" ry="2.4642570281124523" cx="43.16336046800131" cy="36.9049254965065"/>
    <rect id="rect-72" opacity="1" x="49.08625203426618" y="45.87841947240997" width="13.84257028112449" height="1.055421686746989" rx="0" ry="0"/>
    <rect id="rect-73" opacity="1" x="49.08625203426618" y="50.10171264510075" width="13.84257028112449" height="1.055421686746989" rx="0" ry="0"/>
    <rect id="rect-74" opacity="1" x="49.08625203426618" y="47.99086927160681" width="36.13172690763052" height="1.055421686746982" rx="0" ry="0"/>
    <ellipse id="ellipse-75" opacity="1" rx="2.4642570281124523" ry="2.4642570281124523" cx="43.16336046800131" cy="47.110547986466365"/>
    <rect id="rect-76" opacity="1" x="49.08625203426618" y="56.08564838807263" width="13.84257028112449" height="1.055421686746989" rx="0" ry="0"/>
    <rect id="rect-77" opacity="1" x="49.08625203426618" y="60.3073351350605" width="13.84257028112449" height="1.055421686746989" rx="0" ry="0"/>
    <rect id="rect-78" opacity="1" x="49.08625203426618" y="58.19649176156656" width="36.13172690763052" height="1.055421686746989" rx="0" ry="0"/>
    <ellipse id="ellipse-79" opacity="1" rx="2.4642570281124523" ry="2.4642570281124523" cx="43.16336046800131" cy="57.316170476426116"/>
    <path id="path-80" opacity="1" fill-rule="evenodd" d="M40.68464560856338,15.224604211365836 C40.72791830968632,18.67294331271328 43.34852767138588,21.54149358814618 46.77892320682146,21.89547318502703 C50.209318742257025,22.249452781907877 53.360476845956725,19.97648628087859 54.10700213404161,16.60964576211415 C54.85352742212647,13.242805243349709 52.95842574846728,9.850937947035224 49.69990665274009,8.72179296638592 L49.72079018687664,10.471190556747365 C49.73596574407088,11.74463226105026 48.71631174124705,12.789454028400797 47.4428785402903,12.8053271029321 C46.17440638303359,12.816959030967704 45.1345485999786,11.802218585667665 45.11516769691679,10.533841159157 L45.09428416278025,8.784443568795554 C42.41514219274044,9.788716006099733 40.652090105747696,12.363607014024652 40.68464560856338,15.224604211365836Z"/>
    <linearGradient id="linearGradient-81" x1="0.5381700667773089" y1="0.98057492112496" x2="0.48760811975050855" y2="-0.023239167778926408">
      <stop offset="1" stop-color="rgb(0,0,0)" stop-opacity="0.02"/>
      <stop offset="0.55" stop-color="rgb(0,0,0)" stop-opacity="0.09"/>
      <stop offset="0" stop-color="rgb(0,0,0)" stop-opacity="0.12"/>
    </linearGradient>
    <path id="path-82" opacity="1" fill-rule="evenodd" d="M54.26697492583255,14.509744773614903 C54.265433233533685,11.061009958858465 51.6795462930871,8.16089487675484 48.25354265146896,7.76558076500639 C44.8275390098508,7.370266653257941 41.649130493939644,9.605260627343876 40.86221240738973,12.963017933104503 C40.0752943208398,16.32077523886514 41.92970297413463,19.73525137801186 45.174605447920904,20.90331907080366 L45.174605447920904,19.152315054739397 C45.178135403558656,17.88330336047406 46.205995360081275,16.855443403951455 47.47500705434661,16.851913448313695 C48.74401874861194,16.855443403951455 49.771878705134554,17.883303360474066 49.77540866077234,19.152315054739397 L49.77540866077234,20.90171264510084 C52.47015360343614,19.930673807554534 54.26662581249304,17.374106239658488 54.26697492583255,14.509744773614903Z"/>
    <ellipse id="ellipse-83" opacity="1" rx="2.6104417670682736" ry="2.6104417670682727" cx="47.47821990575216" cy="13.576411440281568"/>
    <path id="path-84" opacity="1" fill-rule="evenodd" d="M47.47340062864363,16.85191344831378 C46.2043889343783,16.85544340395156 45.1765289778557,17.883303360474166 45.17299902221794,19.152315054739482 L45.17299902221794,20.901712645100925 C46.6602727142032,21.4348082012459 48.28652854308408,21.4348082012459 49.77380223506934,20.901712645100925 L49.77380223506934,19.152315054739482 C49.77027227943157,17.88330336047415 48.74241232290896,16.855443403951536 47.47340062864363,16.85191344831378 L47.47340062864363,16.85191344831378Z"/>
    <path id="path-85" opacity="1" fill-rule="evenodd" d="M44.845288178844605,13.4302267013257 C44.63610895750933,13.025190508925895 44.54009715727687,12.571215638462574 44.56737653225825,12.116170476426106 C44.5971010453156,11.658574026846102 44.804664124828186,11.230763457406265 45.1456897852703,10.924202604940165 C45.526412676836564,10.602917464377915 46.04207532743897,10.485648388072693 46.540067295310465,10.44227489409679 C47.03805926318195,10.398901400120888 47.54247693386468,10.42621063706868 48.03404319892491,10.329825094900004 C48.852730849240935,10.163739927051102 49.570749218517754,9.676575167235566 50.02761749611366,8.977214653132933 C50.076498534665454,9.358787106291796 50.07271481801037,9.74526673606114 50.016372516193975,10.125809030642971 C49.957239654612636,10.510548087122116 49.742252446664814,10.853946573330655 49.42199500615381,11.07520662100442 C49.81878215474819,10.892074090883941 49.775408660772285,11.320989753534542 49.690268098523276,11.57962429168715 C49.886252034266256,11.817375295703211 50.36496689370401,11.855929512570684 50.38906327924617,12.16436324751044 C50.429028105329685,12.470517227462993 50.39487052549036,12.781791946966461 50.289464885671876,13.0719937695988 C50.168982957961035,13.354724693293576 50.29749701418592,13.854323086867877 49.990669704948985,13.875206621004423 "/>
    <path id="path-86" opacity="1" fill-rule="evenodd" d="M49.563360468001065,11.018981721406135 C49.563360468001065,11.018981721406135 51.385047214989015,11.17962429168726 50.088661672820336,13.881632323815772 "/>
    <path id="path-87" opacity="1" fill-rule="evenodd" d="M32.97058938366378,51.30653192220946 L21.537657656756153,43.30171264510102 L5.707938781254143,43.30171264510102 L5.707938781254143,51.30653192220946 L5.707938781254143,55.2278170627717 L5.707938781254143,122.21416244429781 L104.64127211458748,122.21416244429781 L104.64127211458748,51.30653192220946 L32.97058938366378,51.30653192220946Z"/>
    <linearGradient id="linearGradient-88" x1="0.5" y1="1" x2="0.5" y2="0">
      <stop offset="1" stop-color="rgb(128,128,128)" stop-opacity="0.1"/>
      <stop offset="0.54" stop-color="rgb(128,128,128)" stop-opacity="0.12"/>
      <stop offset="0" stop-color="rgb(128,128,128)" stop-opacity="0.25"/>
    </linearGradient>
    <path id="path-89" opacity="1" fill-rule="evenodd" d="M6.554525126635781,52.116170476425964 L6.554525126635781,55.92339939208862 L6.554525126635781,120.94669256477938 L103.96336046800124,120.94669256477938 L103.96336046800124,52.116170476425964 L33.397898620611684,52.116170476425964 "/>
    <path id="path-90" opacity="1" fill-rule="evenodd" d="M33.39789862061169,52.11617047642633 L22.140067295310487,44.34588935192835 L6.554525126635781,44.34588935192835 L6.554525126635781,52.11617047642633 "/>
    <rect id="rect-91" opacity="1" x="28.43243677322198" y="62.27360019530181" width="53.65461847389558" height="48.5140562248996" rx="0" ry="0"/>
    <linearGradient id="linearGradient-92" x1="0.4999999999999999" y1="1" x2="0.4999999999999999" y2="0">
      <stop offset="1" stop-color="rgb(128,128,128)" stop-opacity="0.1"/>
      <stop offset="0.54" stop-color="rgb(128,128,128)" stop-opacity="0.12"/>
      <stop offset="0" stop-color="rgb(128,128,128)" stop-opacity="0.25"/>
    </linearGradient>
    <rect id="rect-93" opacity="1" x="29.161754042298526" y="62.62701384991999" width="52.43694779116467" height="47.27871485943774" rx="0" ry="0"/>
    <rect id="rect-94" opacity="1" x="45.43645283747901" y="98.01335923144609" width="20.61686746987952" height="1.688353413654625" rx="0" ry="0"/>
    <rect id="rect-95" opacity="1" x="32.85492673306135" y="101.39167248445813" width="45.05060240963855" height="1.68835341365461" rx="0" ry="0"/>
    <rect id="rect-96" opacity="1" x="32.85492673306135" y="104.76998573747017" width="45.05060240963855" height="1.688353413654625" rx="0" ry="0"/>
    <path id="path-97" opacity="1" fill-rule="evenodd" d="M42.55131227523013,80.70412228365485 C42.632835486207455,87.2153467405494 47.5806202855125,92.63211013923166 54.05787439223998,93.30134044254429 C60.53512849896745,93.97057074585692 66.48589158603649,89.67984600298253 67.89696155597163,83.32283636778949 C69.30803152590676,76.96582673259645 65.73151736978357,70.56032545411803 59.57942472502933,68.4262106370685 L59.619585367599605,71.73062830775122 C59.64194781334642,74.12597009054585 57.72560252214437,76.08968571478884 55.33042874109357,76.1258090306428 C52.93508695829895,76.1481714763896 50.97137133405595,74.23182618518757 50.935248018202,71.83665240413677 L50.895087375631725,68.53223473345403 C45.82538192974911,70.42412168916059 42.48758748540154,75.2932915976746 42.55131227523013,80.70412228365485Z"/>
    <linearGradient id="linearGradient-98" x1="0.5272427379267691" y1="0.9902176232501739" x2="0.4766512604794456" y2="-0.013387863857100158">
      <stop offset="1" stop-color="rgb(0,0,0)" stop-opacity="0.02"/>
      <stop offset="0.55" stop-color="rgb(0,0,0)" stop-opacity="0.09"/>
      <stop offset="0" stop-color="rgb(0,0,0)" stop-opacity="0.12"/>
    </linearGradient>
    <path id="path-99" opacity="1" fill-rule="evenodd" d="M68.20593074912577,79.35633111899644 C68.20472826362915,72.84319121245004 63.32208829068856,67.36509646800027 56.85197107940375,66.61771693894256 C50.381853868118924,65.87033740988487 44.37888508333716,70.09100807975014 42.89282892295997,76.43235099560192 C41.40677276258279,82.7736939114537 44.909535534766405,89.22197648097017 51.03805926318199,91.42701384992013 L51.03805926318199,88.1225961792374 C51.047743064085154,85.73116689921281 52.98397938074774,83.7949305825502 55.37540866077235,83.78524678164703 C57.76683794079696,83.7949305825502 59.70307425745955,85.73116689921278 59.71275805836271,88.12259617923739 L59.71275805836271,91.42701384992013 C64.80628287882588,89.59744169304209 68.20403840000617,84.76847725458003 68.20593074912577,79.35633111899644Z"/>
    <path id="path-100" opacity="1" fill-rule="evenodd" d="M55.04127211458751,80.74749577763089 C55.46684514552264,80.74749577763089 55.81235645193691,81.09300708404515 55.81235645193691,81.51858011498028 L55.81235645193691,85.41416244429755 C55.81235645827844,85.83973546374264 55.46684515701269,86.18524677530542 55.04127211458751,86.18524678164695 C54.61569908365237,86.18524678164695 54.27018777723811,85.83973547523269 54.27018777723811,85.41416244429755 L54.27018777723811,81.51858011498028 C54.27018777089658,81.09300709553521 54.61569907216232,80.74749578397243 55.041272103097455,80.74749577763089 L55.04127211458751,80.74749577763089Z"/>
    <ellipse id="ellipse-101" opacity="1" rx="4.930120481927709" ry="4.930120481927716" cx="55.04930424310158" cy="76.54829899048242"/>
    <path id="path-102" opacity="1" fill-rule="evenodd" d="M55.04127211458748,82.73464437200859 C52.64984283456287,82.74432817291174 50.713606517900274,84.68056448957434 50.70392271699711,87.07199376959895 L50.70392271699711,90.37641144028169 C53.51179054798761,91.38276303347273 56.58199866110702,91.38276303347273 59.389866492097525,90.37641144028169 L59.389866492097525,87.0784194724102 C59.38367645160881,84.68010672436111 57.43959025204885,82.73817503481175 55.04127211458748,82.73464437200859 L55.04127211458748,82.73464437200859Z"/>
    <path id="path-103" opacity="1" fill-rule="evenodd" d="M50.077416692900854,76.27520662100427 C49.68235818051447,75.51074950492998 49.50088005409687,74.65386196001009 49.55211548808158,73.7948853358637 C49.60880665305211,72.93139534693412 50.00083228672387,72.12428374819814 50.6444849659932,71.54588935192795 C51.36255725514983,70.93384115915687 52.33605123105344,70.71697368927734 53.27741669290083,70.64147168124522 C54.218782154748226,70.56596967321309 55.17139259651528,70.6109495928918 56.09669380133456,70.42942348847413 C57.642276191406864,70.11633855316512 58.99793541803218,69.19694354202231 59.86054922302132,67.87681304670707 C59.919986974025335,68.59970461297213 59.979424725029354,69.33384115915686 59.83966568888478,70.04709417120506 C59.6999066527402,70.76034718325326 59.333641592499234,71.45914236397614 58.71516769691691,71.8398652555424 C59.46376207442694,71.49287730373518 59.381834363583565,72.30572870935768 59.219585367599635,72.79247569730948 C59.59066970494902,73.2406684683938 60.491874524226134,73.31456405072313 60.53846086960767,73.894483729438 C60.58504721498921,74.47440340815285 60.57701508647514,75.07360019530145 60.35050906237876,75.60853995433759 C60.12400303828238,76.14347971337372 60.366573319406875,77.08484517522113 59.78826006639483,77.12661224349422 "/>
    <path id="path-104" opacity="1" fill-rule="evenodd" d="M58.98826006639479,71.72098975353458 C58.98826006639479,71.72098975353458 62.42761749611365,72.02139135996029 59.97942472502932,77.12661224349442 "/>
  </defs>
  <g opacity="1">
    <g transform="translate(36.7174166929008, 50.13508613907665) rotate(-15.708643445861753) translate(-36.7174166929008, -50.13508613907665)" opacity="1">
      <use xlink:href="#rect-0" fill="url(#linearGradient-1)" fill-opacity="1"/>
    </g>
    <g transform="translate(31.07047535687607, 30.192148950014598) rotate(-15.370005495761246) translate(-31.07047535687607, -30.192148950014598)" opacity="1">
      <use xlink:href="#rect-2" fill="url(#linearGradient-3)" fill-opacity="1"/>
    </g>
    <g transform="translate(36.651815705497825, 50.49235633693536) rotate(-15.370005495761246) translate(-36.651815705497825, -50.49235633693536)" opacity="1">
      <use xlink:href="#rect-4" fill="rgb(238,238,238)" fill-opacity="1"/>
    </g>
    <g transform="translate(31.131443918592325, 30.412274496529932) rotate(-15.370005495761246) translate(-31.131443918592325, -30.412274496529932)" opacity="1">
      <use xlink:href="#rect-5" fill="rgb(255,193,7)" fill-opacity="1"/>
    </g>
    <g transform="translate(28.992944134354676, 52.29065657138406) rotate(-15.370005495761246) translate(-28.992944134354676, -52.29065657138406)" opacity="1">
      <use xlink:href="#rect-6" fill="rgb(189,189,189)" fill-opacity="1"/>
    </g>
    <g transform="translate(30.11258480681221, 56.36389873991109) rotate(-15.370005495761246) translate(-30.11258480681221, -56.36389873991109)" opacity="1">
      <use xlink:href="#rect-7" fill="rgb(245,245,245)" fill-opacity="1"/>
    </g>
    <g transform="translate(40.299272924917766, 51.37364383901493) rotate(-15.370005495761246) translate(-40.299272924917766, -51.37364383901493)" opacity="1">
      <use xlink:href="#rect-8" fill="rgb(105,240,174)" fill-opacity="1"/>
    </g>
    <g transform="translate(31.772948553885666, 27.43773643695306) rotate(-15.370005495761246) translate(-31.772948553885666, -27.43773643695306)" opacity="1">
      <use xlink:href="#rect-9" fill="rgb(255,255,255)" fill-opacity="1"/>
    </g>
    <g transform="translate(36.4668347153701, 28.58005090044469) rotate(-15.370005495761246) translate(-36.4668347153701, -28.58005090044469)" opacity="1">
      <use xlink:href="#rect-10" fill="rgb(255,255,255)" fill-opacity="1"/>
    </g>
    <g transform="translate(37.29152615684183, 31.578881494688147) rotate(-15.370005495761246) translate(-37.29152615684183, -31.578881494688147)" opacity="0.2">
      <use xlink:href="#path-11" fill="rgb(0,0,0)" fill-opacity="1"/>
    </g>
    <g transform="translate(16.795320999759152, 56.37456445919997) rotate(-15.370005495761246) translate(-16.795320999759152, -56.37456445919997)" opacity="1">
      <use xlink:href="#ellipse-12" fill="rgb(105,240,174)" fill-opacity="1"/>
    </g>
    <g transform="translate(31.700476627782958, 62.13208310222879) rotate(-15.370005495761246) translate(-31.700476627782958, -62.13208310222879)" opacity="1">
      <use xlink:href="#rect-13" fill="rgb(189,189,189)" fill-opacity="1"/>
    </g>
    <g transform="translate(32.81851087453737, 66.20532527075582) rotate(-15.370005495761246) translate(-32.81851087453737, -66.20532527075582)" opacity="1">
      <use xlink:href="#rect-14" fill="rgb(245,245,245)" fill-opacity="1"/>
    </g>
    <g transform="translate(43.00519899264315, 61.215070369859205) rotate(-15.370005495761246) translate(-43.00519899264315, -61.215070369859205)" opacity="1">
      <use xlink:href="#rect-15" fill="rgb(224,224,224)" fill-opacity="1"/>
    </g>
    <g transform="translate(19.499698096694253, 66.21641677523667) rotate(-15.370005495761246) translate(-19.499698096694253, -66.21641677523667)" opacity="1">
      <use xlink:href="#ellipse-16" fill="rgb(224,224,224)" fill-opacity="1"/>
    </g>
    <g transform="translate(34.4044279395261, 71.97238644747475) rotate(-15.370005495761246) translate(-34.4044279395261, -71.97238644747475)" opacity="1">
      <use xlink:href="#rect-17" fill="rgb(189,189,189)" fill-opacity="1"/>
    </g>
    <g transform="translate(35.52406861198318, 76.04402219029888) rotate(-15.370005495761246) translate(-35.52406861198318, -76.04402219029888)" opacity="1">
      <use xlink:href="#rect-18" fill="rgb(245,245,245)" fill-opacity="1"/>
    </g>
    <g transform="translate(45.70957608957803, 71.055316260193) rotate(-15.370005495761246) translate(-45.70957608957803, -71.055316260193)" opacity="1">
      <use xlink:href="#rect-19" fill="rgb(224,224,224)" fill-opacity="1"/>
    </g>
    <g transform="translate(22.20562416441941, 76.05784330608094) rotate(-15.370005495761246) translate(-22.20562416441941, -76.05784330608094)" opacity="1">
      <use xlink:href="#ellipse-20" fill="rgb(224,224,224)" fill-opacity="1"/>
    </g>
    <g opacity="1">
      <use xlink:href="#path-21" fill="url(#linearGradient-22)" fill-opacity="1"/>
    </g>
    <g opacity="1">
      <use xlink:href="#path-23" fill="rgb(255,193,7)" fill-opacity="1"/>
    </g>
    <g transform="translate(14.77101724503013, 32.735241877514284) rotate(-15.370005495761246) translate(-14.77101724503013, -32.735241877514284)" opacity="1">
      <use xlink:href="#ellipse-24" fill="rgb(255,255,255)" fill-opacity="1"/>
      <use xlink:href="#ellipse-24" fill-opacity="0" stroke="rgb(255,255,255)" stroke-opacity="1" stroke-width="1"/>
    </g>
    <g opacity="1">
      <use xlink:href="#path-25" fill="rgb(255,255,255)" fill-opacity="1"/>
      <use xlink:href="#path-25" fill-opacity="0" stroke="rgb(255,255,255)" stroke-opacity="1" stroke-width="1"/>
    </g>
    <g opacity="1">
      <use xlink:href="#path-26" fill="rgb(255,255,255)" fill-opacity="1"/>
      <use xlink:href="#path-26" fill-opacity="0" stroke="rgb(255,255,255)" stroke-opacity="1" stroke-width="1"/>
    </g>
    <g opacity="1">
      <use xlink:href="#path-27" fill="rgb(255,255,255)" fill-opacity="1"/>
    </g>
    <g opacity="1">
      <use xlink:href="#path-28" fill="url(#linearGradient-29)" fill-opacity="1"/>
    </g>
    <g opacity="1">
      <use xlink:href="#path-30" fill="rgb(189,189,189)" fill-opacity="1"/>
    </g>
    <g transform="translate(85.56371965585816, 63.76921873201784) rotate(-6.050002163263211) translate(-85.56371965585816, -63.76921873201784)" opacity="1">
      <use xlink:href="#rect-31" fill="url(#linearGradient-32)" fill-opacity="1"/>
    </g>
    <g transform="translate(83.31684649975627, 42.5682594915195) rotate(-6.050002163263211) translate(-83.31684649975627, -42.5682594915195)" opacity="1">
      <use xlink:href="#rect-33" fill="url(#linearGradient-34)" fill-opacity="1"/>
    </g>
    <g transform="translate(85.53585073384498, 63.50289507393075) rotate(-6.050002163263211) translate(-85.53585073384498, -63.50289507393075)" opacity="1">
      <use xlink:href="#rect-35" fill="rgb(245,245,245)" fill-opacity="1"/>
    </g>
    <g transform="translate(83.34058518863044, 42.794177125998345) rotate(-6.050002163263211) translate(-83.34058518863044, -42.794177125998345)" opacity="1">
      <use xlink:href="#rect-36" fill="rgb(255,193,7)" fill-opacity="1"/>
    </g>
    <g transform="translate(77.68895107550469, 64.03784487502685) rotate(-6.050002163263211) translate(-77.68895107550469, -64.03784487502685)" opacity="1">
      <use xlink:href="#rect-37" fill="rgb(189,189,189)" fill-opacity="1"/>
    </g>
    <g transform="translate(78.133871782797, 68.2374368796261) rotate(-6.050002163263211) translate(-78.133871782797, -68.2374368796261)" opacity="1">
      <use xlink:href="#rect-38" fill="rgb(245,245,245)" fill-opacity="1"/>
    </g>
    <g transform="translate(88.99338721700505, 64.96325104099222) rotate(-6.050002163263211) translate(-88.99338721700505, -64.96325104099222)" opacity="1">
      <use xlink:href="#rect-39" fill="rgb(105,240,174)" fill-opacity="1"/>
    </g>
    <g transform="translate(84.45675892715911, 39.96304724391804) rotate(-6.050002163263211) translate(-84.45675892715911, -39.96304724391804)" opacity="1">
      <use xlink:href="#rect-40" fill="rgb(255,255,255)" fill-opacity="1"/>
    </g>
    <g transform="translate(88.90258884445748, 41.85174290969054) rotate(-6.050002163263211) translate(-88.90258884445748, -41.85174290969054)" opacity="1">
      <use xlink:href="#rect-41" fill="rgb(255,255,255)" fill-opacity="1"/>
    </g>
    <g transform="translate(89.22964680144216, 44.941358704484514) rotate(-6.050002163263211) translate(-89.22964680144216, -44.941358704484514)" opacity="0.2">
      <use xlink:href="#path-42" fill="rgb(0,0,0)" fill-opacity="1"/>
    </g>
    <g transform="translate(64.98899999926275, 66.0918041439827) rotate(-6.050002163263211) translate(-64.98899999926275, -66.0918041439827)" opacity="1">
      <use xlink:href="#ellipse-43" fill="rgb(105,240,174)" fill-opacity="1"/>
    </g>
    <g transform="translate(78.76534749958358, 74.18595839956177) rotate(-6.050002163263211) translate(-78.76534749958358, -74.18595839956177)" opacity="1">
      <use xlink:href="#rect-44" fill="rgb(189,189,189)" fill-opacity="1"/>
    </g>
    <g transform="translate(79.21043751821293, 78.38554145684907) rotate(-6.050002163263211) translate(-79.21043751821293, -78.38554145684907)" opacity="1">
      <use xlink:href="#rect-45" fill="rgb(245,245,245)" fill-opacity="1"/>
    </g>
    <g transform="translate(90.06978364108375, 75.11136456552711) rotate(-6.050002163263211) translate(-90.06978364108375, -75.11136456552711)" opacity="1">
      <use xlink:href="#rect-46" fill="rgb(224,224,224)" fill-opacity="1"/>
    </g>
    <g transform="translate(66.06539642334167, 76.23991766851759) rotate(-6.050002163263211) translate(-66.06539642334167, -76.23991766851759)" opacity="1">
      <use xlink:href="#ellipse-47" fill="rgb(224,224,224)" fill-opacity="1"/>
    </g>
    <g transform="translate(79.84031575660828, 84.33423228812197) rotate(-6.050002163263211) translate(-79.84031575660828, -84.33423228812197)" opacity="1">
      <use xlink:href="#rect-48" fill="rgb(189,189,189)" fill-opacity="1"/>
    </g>
    <g transform="translate(80.28523646390062, 88.53382429272077) rotate(-6.050002163263211) translate(-80.28523646390062, -88.53382429272077)" opacity="1">
      <use xlink:href="#rect-49" fill="rgb(245,245,245)" fill-opacity="1"/>
    </g>
    <g transform="translate(91.14475189810844, 85.25963845408731) rotate(-6.050002163263211) translate(-91.14475189810844, -85.25963845408731)" opacity="1">
      <use xlink:href="#rect-50" fill="rgb(224,224,224)" fill-opacity="1"/>
    </g>
    <g transform="translate(67.14036468036659, 86.38819155707779) rotate(-6.050002163263211) translate(-67.14036468036659, -86.38819155707779)" opacity="1">
      <use xlink:href="#ellipse-51" fill="rgb(224,224,224)" fill-opacity="1"/>
    </g>
    <g opacity="1">
      <use xlink:href="#path-52" fill="url(#linearGradient-53)" fill-opacity="1"/>
    </g>
    <g opacity="1">
      <use xlink:href="#path-54" fill="rgb(255,193,7)" fill-opacity="1"/>
    </g>
    <g transform="translate(66.8214246474758, 42.43679477732081) rotate(-6.050002163263211) translate(-66.8214246474758, -42.43679477732081)" opacity="1">
      <use xlink:href="#ellipse-55" fill="rgb(255,255,255)" fill-opacity="1"/>
      <use xlink:href="#ellipse-55" fill-opacity="0" stroke="rgb(255,255,255)" stroke-opacity="1" stroke-width="1"/>
    </g>
    <g opacity="1">
      <use xlink:href="#path-56" fill="rgb(255,255,255)" fill-opacity="1"/>
      <use xlink:href="#path-56" fill-opacity="0" stroke="rgb(255,255,255)" stroke-opacity="1" stroke-width="1"/>
    </g>
    <g opacity="1">
      <use xlink:href="#path-57" fill="rgb(255,255,255)" fill-opacity="1"/>
      <use xlink:href="#path-57" fill-opacity="0" stroke="rgb(255,255,255)" stroke-opacity="1" stroke-width="1"/>
    </g>
    <g opacity="1">
      <use xlink:href="#path-58" fill="rgb(255,255,255)" fill-opacity="1"/>
    </g>
    <g opacity="1">
      <use xlink:href="#rect-59" fill="url(#linearGradient-60)" fill-opacity="1"/>
    </g>
    <g opacity="1">
      <use xlink:href="#rect-61" fill="url(#linearGradient-62)" fill-opacity="1"/>
    </g>
    <g opacity="1">
      <use xlink:href="#rect-63" fill="rgb(245,245,245)" fill-opacity="1"/>
    </g>
    <g opacity="1">
      <use xlink:href="#rect-64" fill="rgb(255,193,7)" fill-opacity="1"/>
    </g>
    <g opacity="1">
      <use xlink:href="#rect-65" fill="rgb(189,189,189)" fill-opacity="1"/>
    </g>
    <g opacity="1">
      <use xlink:href="#rect-66" fill="rgb(245,245,245)" fill-opacity="1"/>
    </g>
    <g opacity="1">
      <use xlink:href="#rect-67" fill="rgb(105,240,174)" fill-opacity="1"/>
    </g>
    <g opacity="1">
      <use xlink:href="#rect-68" fill="rgb(255,255,255)" fill-opacity="1"/>
    </g>
    <g opacity="1">
      <use xlink:href="#rect-69" fill="rgb(255,255,255)" fill-opacity="1"/>
    </g>
    <g opacity="0.2">
      <use xlink:href="#path-70" fill="rgb(0,0,0)" fill-opacity="1"/>
    </g>
    <g opacity="1">
      <use xlink:href="#ellipse-71" fill="rgb(105,240,174)" fill-opacity="1"/>
    </g>
    <g opacity="1">
      <use xlink:href="#rect-72" fill="rgb(189,189,189)" fill-opacity="1"/>
    </g>
    <g opacity="1">
      <use xlink:href="#rect-73" fill="rgb(245,245,245)" fill-opacity="1"/>
    </g>
    <g opacity="1">
      <use xlink:href="#rect-74" fill="rgb(224,224,224)" fill-opacity="1"/>
    </g>
    <g opacity="1">
      <use xlink:href="#ellipse-75" fill="rgb(224,224,224)" fill-opacity="1"/>
    </g>
    <g opacity="1">
      <use xlink:href="#rect-76" fill="rgb(189,189,189)" fill-opacity="1"/>
    </g>
    <g opacity="1">
      <use xlink:href="#rect-77" fill="rgb(245,245,245)" fill-opacity="1"/>
    </g>
    <g opacity="1">
      <use xlink:href="#rect-78" fill="rgb(224,224,224)" fill-opacity="1"/>
    </g>
    <g opacity="1">
      <use xlink:href="#ellipse-79" fill="rgb(224,224,224)" fill-opacity="1"/>
    </g>
    <g opacity="1">
      <use xlink:href="#path-80" fill="url(#linearGradient-81)" fill-opacity="1"/>
    </g>
    <g opacity="1">
      <use xlink:href="#path-82" fill="rgb(255,193,7)" fill-opacity="1"/>
    </g>
    <g opacity="1">
      <use xlink:href="#ellipse-83" fill="rgb(255,255,255)" fill-opacity="1"/>
      <use xlink:href="#ellipse-83" fill-opacity="0" stroke="rgb(255,255,255)" stroke-opacity="1" stroke-width="1"/>
    </g>
    <g opacity="1">
      <use xlink:href="#path-84" fill="rgb(255,255,255)" fill-opacity="1"/>
      <use xlink:href="#path-84" fill-opacity="0" stroke="rgb(255,255,255)" stroke-opacity="1" stroke-width="1"/>
    </g>
    <g opacity="1">
      <use xlink:href="#path-85" fill="rgb(255,255,255)" fill-opacity="1"/>
      <use xlink:href="#path-85" fill-opacity="0" stroke="rgb(255,255,255)" stroke-opacity="1" stroke-width="1"/>
    </g>
    <g opacity="1">
      <use xlink:href="#path-86" fill="rgb(255,255,255)" fill-opacity="1"/>
    </g>
    <g opacity="1">
      <use xlink:href="#path-87" fill="url(#linearGradient-88)" fill-opacity="1"/>
    </g>
    <g opacity="1">
      <use xlink:href="#path-89" fill="rgb(255,255,255)" fill-opacity="1"/>
    </g>
    <g opacity="1">
      <use xlink:href="#path-90" fill="rgb(189,189,189)" fill-opacity="1"/>
    </g>
    <g opacity="1">
      <use xlink:href="#rect-91" fill="url(#linearGradient-92)" fill-opacity="1"/>
    </g>
    <g opacity="1">
      <use xlink:href="#rect-93" fill="rgb(255,255,255)" fill-opacity="1"/>
    </g>
    <g opacity="1">
      <use xlink:href="#rect-94" fill="rgb(189,189,189)" fill-opacity="1"/>
    </g>
    <g opacity="1">
      <use xlink:href="#rect-95" fill="rgb(224,224,224)" fill-opacity="1"/>
    </g>
    <g opacity="1">
      <use xlink:href="#rect-96" fill="rgb(224,224,224)" fill-opacity="1"/>
    </g>
    <g opacity="1">
      <use xlink:href="#path-97" fill="url(#linearGradient-98)" fill-opacity="1"/>
    </g>
    <g opacity="1">
      <use xlink:href="#path-99" fill="rgb(189,189,189)" fill-opacity="1"/>
    </g>
    <g opacity="1">
      <use xlink:href="#path-100" fill="rgb(255,255,255)" fill-opacity="1"/>
      <use xlink:href="#path-100" fill-opacity="0" stroke="rgb(255,255,255)" stroke-opacity="1" stroke-width="1"/>
    </g>
    <g opacity="1">
      <use xlink:href="#ellipse-101" fill="rgb(255,255,255)" fill-opacity="1"/>
      <use xlink:href="#ellipse-101" fill-opacity="0" stroke="rgb(255,255,255)" stroke-opacity="1" stroke-width="1"/>
    </g>
    <g opacity="1">
      <use xlink:href="#path-102" fill="rgb(255,255,255)" fill-opacity="1"/>
      <use xlink:href="#path-102" fill-opacity="0" stroke="rgb(255,255,255)" stroke-opacity="1" stroke-width="1"/>
    </g>
    <g opacity="1">
      <use xlink:href="#path-103" fill="rgb(255,255,255)" fill-opacity="1"/>
      <use xlink:href="#path-103" fill-opacity="0" stroke="rgb(255,255,255)" stroke-opacity="1" stroke-width="1"/>
    </g>
    <g opacity="1">
      <use xlink:href="#path-104" fill="rgb(255,255,255)" fill-opacity="1"/>
    </g>
  </g>
</svg>