<?xml version="1.0" encoding="utf-8"?>
<svg version="1.1" xmlns="http://www.w3.org/2000/svg" xmlns:xlink="http://www.w3.org/1999/xlink" height="120" width="124.94527339104161">
  <defs>
    <path id="path-0" opacity="1" fill-rule="evenodd" d="M16.12024459317192,34.30842689847141 C16.120014393352903,30.46615923225565 13.407557750937592,27.158293835125075 9.639770885861358,26.405430626302824 C5.871984020785113,25.65256741748058 2.096634432128503,27.664066859674648 0.6198833925043564,31.21121039198457 C-0.85686764711979,34.7583539242945 0.37564315056884556,38.8547317945718 3.564540163602208,40.99808354174397 L3.564540163602208,41.03430343411574 C3.8276365933451366,41.28641642508522 4.138068229804287,41.48391517310837 4.477911362542438,41.61539648999322 L4.488934808046888,41.579176597621455 C4.865306733127428,41.90358085103816 6.455832441626793,42.42168278974735 8.281000061578041,42.41695845595973 L8.320369509808222,42.41695845595973 C9.476256509846369,42.41695845595973 10.731354519424583,42.21381210309198 11.835273847798891,41.61539648999322 C11.835273847798891,41.61539648999322 11.844722515374134,41.594924376913525 11.86047029466621,41.55398015075414 C12.140330323864058,41.422827316978456 12.397175490461384,41.24734304166351 12.62108803447333,41.034303434115735 L12.633686257906986,40.942966314221714 C14.817249660417607,39.44031210936365 16.121181833572887,36.9590717094074 16.12024459317192,34.30842689847141Z"/>
    <linearGradient id="linearGradient-1" x1="0.5000253471610417" y1="0.9999980156766778" x2="0.5000253471610417" y2="0.00001947805726952694">
      <stop offset="1" stop-color="rgb(128,128,128)" stop-opacity="0.1"/>
      <stop offset="0.54" stop-color="rgb(128,128,128)" stop-opacity="0.12"/>
      <stop offset="0" stop-color="rgb(128,128,128)" stop-opacity="0.25"/>
    </linearGradient>
    <ellipse id="ellipse-2" opacity="1" rx="7.817197640584965" ry="7.817197640584979" cx="7.977067921241002" cy="34.021817315355676"/>
    <path id="path-3" opacity="1" fill-rule="evenodd" d="M4.846409397976921,37.10208294488484 C4.846409397976921,37.10208294488484 2.9834471077247207,37.25956073780557 3.4763525995666,40.64848284145971 C3.7322107686491046,40.89329840213173 4.034096542821793,41.084920932546304 4.364527351639497,41.21225334011592 L5.4117546745623315,37.66585344354106 L4.846409397976921,37.10208294488484Z"/>
    <path id="path-4" opacity="1" fill-rule="evenodd" d="M10.890407090274575,37.10208294488484 C10.890407090274575,37.10208294488484 12.753369380526845,37.25956073780557 12.260463888684951,40.64848284145971 C12.005069941667534,40.89312345459094 11.703734408179606,41.08473645812324 11.373863914541225,41.21225334011592 L10.326636591618353,37.66585344354106 L10.890407090274575,37.10208294488484Z"/>
    <path id="path-5" opacity="1" fill-rule="evenodd" d="M4.9267230723665225,31.539967298924807 C4.9267230723665225,31.539967298924807 4.040123098222819,34.11945354696632 3.556666273956182,33.876937745868396 C3.556666273956182,33.876937745868396 8.222733278197381,37.90679446670981 12.34077756307444,33.876937745868396 C11.845187964264172,33.02991059179619 11.24987691484365,32.2453265799489 10.567577614787034,31.539967298924807 L4.9267230723665225,31.539967298924807Z"/>
    <ellipse id="ellipse-6" opacity="1" rx="3.4660862221852504" ry="3.4660862221852504" cx="7.917226359931188" cy="31.2990262757562"/>
    <path id="path-7" opacity="1" fill-rule="evenodd" d="M10.854187197902718,37.10208294488484 L4.810189505605164,37.10208294488484 L4.246419006948954,39.519367066218024 C4.246419006948954,39.519367066218024 3.9157156418154253,40.639034173884404 4.326732681338524,41.131939665726286 C4.737749720861623,41.62484515756816 8.589656535702643,42.74451226523454 11.413233362771306,41.21225334011585 C11.659927370460387,40.56779975235237 11.688144340553773,39.860162404324065 11.493547037160877,39.198112368659736 C11.17859145131942,38.07057137134732 11.413233362771306,39.117798694270164 11.413233362771306,39.117798694270164 L10.854187197902718,37.10208294488484Z"/>
    <path id="path-8" opacity="1" fill-rule="evenodd" d="M10.93450087229234,37.10208294488484 L4.89050317999474,37.10208294488484 L4.326732681338527,39.519367066218024 C4.326732681338527,39.519367066218024 3.996029316204996,40.639034173884404 4.407046355728097,41.131939665726286 C4.818063395251199,41.62484515756816 8.669970210092242,42.74451226523454 11.493547037160921,41.21225334011585 C11.740241044850002,40.567799752352386 11.768458014943388,39.86016240432405 11.573860711550484,39.198112368659736 C11.258905125709024,38.07057137134732 11.493547037160912,39.117798694270164 11.493547037160912,39.117798694270164 L10.93450087229234,37.10208294488484Z"/>
    <path id="path-9" opacity="1" fill-rule="evenodd" d="M10.890407090274515,37.10208294488484 L4.846409397976942,37.10208294488484 L4.28263889932073,39.519367066218024 C4.28263889932073,39.519367066218024 3.9519355341872004,40.639034173884404 4.3629525737103005,41.131939665726286 C4.7739696132334,41.62484515756816 8.625876428074434,42.74451226523454 11.449453255143101,41.21225334011585 C11.696147262832191,40.56779975235237 11.724364232925577,39.860162404324065 11.529766929532673,39.198112368659736 C11.214811343691215,38.07057137134732 11.449453255143101,39.117798694270164 11.449453255143101,39.117798694270164 L10.890407090274515,37.10208294488484Z"/>
    <path id="path-10" opacity="1" fill-rule="evenodd" d="M6.698348242724705,35.09581586307513 L9.117207141987087,35.09581586307513 L9.117207141987087,37.179247063416355 C9.117207141987087,37.76457255015014 8.642707082364371,38.23907260977285 8.057381595630588,38.23907260977285 L7.758173789081205,38.23907260977285 C7.172848302347424,38.239072609772855 6.698348242724706,37.76457255015015 6.698348242724706,37.17924706341636 L6.698348242724705,35.09581586307513Z"/>
    <path id="path-11" opacity="1" fill-rule="evenodd" d="M6.698348242724705,35.00605352111006 L9.117207141987087,35.00605352111006 L9.117207141987087,37.089484721451285 C9.117207141987087,37.67481020818507 8.642707082364371,38.14931026780778 8.057381595630588,38.14931026780778 L7.758173789081205,38.14931026780778 C7.172848302347424,38.149310267807785 6.698348242724706,37.67481020818508 6.698348242724706,37.08948472145129 L6.698348242724705,35.00605352111006Z"/>
    <path id="path-12" opacity="1" fill-rule="evenodd" d="M6.703072576512341,35.354079443464876 C7.482953080498919,35.642896376469004 8.340476193858928,35.642896376469004 9.120356697845498,35.354079443464876 L9.120356697845498,35.056446414844686 L6.703072576512341,35.056446414844686 L6.703072576512341,35.354079443464876Z"/>
    <ellipse id="ellipse-13" opacity="1" rx="3.4660862221852504" ry="3.4660862221852504" cx="7.917226359931188" cy="32.050195347988165"/>
    <path id="path-14" opacity="1" fill-rule="evenodd" d="M4.603893596879061,30.73525577710001 L11.217960899549645,30.73525577710001 C11.217960899549645,30.73525577710001 10.647891289176608,28.066007187093586 8.143994381737032,28.23608320344798 C5.6400974742974554,28.406159219802372 4.603893596879061,30.73525577710001 4.603893596879061,30.73525577710001Z"/>
    <ellipse id="ellipse-15" opacity="1" rx="0.3228294754874854" ry="0.604714724815576" cx="4.523579922489437" cy="31.903741000571895"/>
    <ellipse id="ellipse-16" opacity="1" rx="0.32282947548748364" ry="0.604714724815576" cx="11.29355024015155" cy="31.903741000571895"/>
    <path id="path-17" opacity="1" fill-rule="evenodd" d="M4.603893596879061,30.823443341135633 L11.217960899549645,30.823443341135633 C11.217960899549645,30.823443341135633 10.647891289176608,28.155769529058407 8.143994381737032,28.3258455454128 C5.6400974742974554,28.495921561767197 4.603893596879061,30.823443341135633 4.603893596879061,30.823443341135633Z"/>
    <path id="path-18" opacity="1" fill-rule="evenodd" d="M0.11262694277986177,8.060028374444265 C0.1128571425988792,4.217760708228499 2.82531378501418,0.9098953110979255 6.593100650090409,0.15703210227567432 C10.360887515166638,-0.5958311065465746 14.136237103823268,1.4156683356474893 15.612988143447414,4.96281186795741 C17.08973918307157,8.50995540026733 15.857228385382935,12.606333270544631 12.668331372349577,14.749685017716816 L12.668331372349577,14.785904910088583 C12.405234942606658,15.038017901058065 12.094803306147497,15.235516649081214 11.754960173409348,15.366997965966066 L11.743936727904899,15.3307780735943 C11.367564802824358,15.655182327011001 9.777039094324996,16.1732842657202 7.951871474373752,16.168559931932574 L7.91250202614357,16.168559931932574 C6.756615026105421,16.168559931932574 5.501517016527213,15.965413579064837 4.3975976881529055,15.366997965966066 C4.3975976881529055,15.366997965966066 4.388149020577662,15.346525852886371 4.37240124128559,15.305581626726983 C4.092541212087744,15.174428792951302 3.8356960454904163,14.998944517636346 3.611783501478468,14.785904910088577 L3.5991852780448075,14.694567790194553 C1.4156218755341745,13.191913585336499 0.11168970237890254,10.710673185380239 0.11262694277986177,8.060028374444265Z"/>
    <linearGradient id="linearGradient-19" x1="0.5002677211985821" y1="0.9999980156766775" x2="0.5002677211985821" y2="0.000019478057270080567">
      <stop offset="1" stop-color="rgb(128,128,128)" stop-opacity="0.1"/>
      <stop offset="0.54" stop-color="rgb(128,128,128)" stop-opacity="0.12"/>
      <stop offset="0" stop-color="rgb(128,128,128)" stop-opacity="0.25"/>
    </linearGradient>
    <ellipse id="ellipse-20" opacity="1" rx="7.817197640584993" ry="7.817197640584936" cx="8.177064718250392" cy="8.060028374444187"/>
    <path id="path-21" opacity="1" fill-rule="evenodd" d="M5.110972090083748,11.037933438575237 C5.110972090083748,11.037933438575237 3.2480097998314803,11.195411231495969 3.7409152916733768,14.58433333515012 C3.996309238690794,14.82897394828136 4.297644772178719,15.020586951813648 4.627515265817101,15.148103833806342 L5.6747425887399725,11.60170393723146 L5.110972090083748,11.037933438575237Z"/>
    <path id="path-22" opacity="1" fill-rule="evenodd" d="M11.1565445603106,11.037933438575237 C11.1565445603106,11.037933438575237 13.019506850562856,11.195411231495969 12.526601358720965,14.58433333515012 C12.271207411703559,14.828973948281355 11.969871878215617,15.020586951813648 11.640001384577246,15.148103833806342 L10.592774061654382,11.60170393723146 L11.1565445603106,11.037933438575237Z"/>
    <path id="path-23" opacity="1" fill-rule="evenodd" d="M5.192860542402562,5.477392570544342 C5.192860542402562,5.477392570544342 5.049555750844699,5.894708721784269 4.84640939797696,6.378165546050901 C4.402322021940506,7.434841536548979 4.909400515145252,11.491469482186911 5.969226061501756,11.922958634789705 C7.159758175982466,12.407990236985547 8.725087437614508,12.71822148903938 10.351833038485633,12.126104987657442 C11.769133174772193,11.611152604806662 12.20062232737499,6.9939037163709425 11.202213120257564,5.867937496987743 C11.085679553496224,5.735656150934331 10.96284687501806,5.604949582810129 10.83528986275227,5.477392570544339 L5.192860542402562,5.477392570544342Z"/>
    <ellipse id="ellipse-24" opacity="1" rx="3.4660862221852504" ry="3.4660862221852504" cx="8.183363829967217" cy="5.23487676944637"/>
    <path id="path-25" opacity="1" fill-rule="evenodd" d="M11.120324667938796,11.037933438575237 L5.076326975641249,11.037933438575237 L4.512556476985039,13.455217559908416 C4.512556476985039,13.455217559908416 4.1818531118515105,14.574884667574796 4.592870151374609,15.067790159416674 C5.003887190897708,15.560695651258554 8.855794005738723,16.680362758924936 11.679370832807383,15.148103833806246 C11.928137768130973,14.504346550387043 11.958568259795383,13.796699298772694 11.765983618913786,13.133962862350135 C11.45102803307233,12.006421865037721 11.685669944524216,13.053649187960566 11.685669944524216,13.053649187960566 L11.120324667938796,11.037933438575237Z"/>
    <path id="path-26" opacity="1" fill-rule="evenodd" d="M11.200638342328286,11.037933438575237 L5.151916316243126,11.037933438575237 L4.588145817586919,13.455217559908416 C4.588145817586919,13.455217559908416 4.257442452453391,14.574884667574796 4.668459491976488,15.067790159416674 C5.079476531499585,15.560695651258554 8.931383346340596,16.680362758924936 11.754960173409238,15.148103833806246 C12.001654181098317,14.503650246042774 12.029871151191703,13.796012898014455 11.835273847798806,13.133962862350135 C11.52031826195735,12.006421865037721 11.754960173409238,13.053649187960566 11.754960173409238,13.053649187960566 L11.200638342328286,11.037933438575237Z"/>
    <path id="path-27" opacity="1" fill-rule="evenodd" d="M11.156544560310511,11.037933438575237 L5.110972090083772,11.037933438575237 L4.547201591427565,13.455217559908416 C4.547201591427565,13.455217559908416 4.216498226294037,14.574884667574796 4.627515265817134,15.067790159416674 C5.038532305340231,15.560695651258554 8.890439120181242,16.680362758924936 11.714015947249884,15.148103833806246 C11.960709954938963,14.503650246042774 11.988926925032349,13.796012898014455 11.794329621639452,13.133962862350135 C11.479374035797996,12.006421865037721 11.714015947249884,13.053649187960566 11.714015947249884,13.053649187960566 L11.156544560310511,11.037933438575237Z"/>
    <path id="path-28" opacity="1" fill-rule="evenodd" d="M6.964485712760734,9.031666356765186 L9.383344612023116,9.031666356765186 L9.383344612023116,11.116672335035627 C9.383344612023116,11.397755546282578 9.271684741120445,11.667326320988641 9.072928896370037,11.866082165739048 C8.874173051619628,12.064838010489458 8.604602276913566,12.17649788139213 8.323519065666616,12.17649788139213 L8.024311259117233,12.17649788139213 C7.43898577238345,12.17649788139213 6.964485712760734,11.701997821769412 6.964485712760734,11.116672335035629 L6.964485712760734,9.031666356765186Z"/>
    <path id="path-29" opacity="1" fill-rule="evenodd" d="M6.964485712760734,8.941904014800343 L9.383344612023116,8.941904014800343 L9.383344612023116,11.023760437212346 C9.383344612023116,11.304843648459292 9.271684741120445,11.57441442316535 9.072928896370037,11.77317026791576 C8.874173051619628,11.971926112666164 8.604602276913564,12.083585983568835 8.323519065666616,12.083585983568835 L8.024311259117233,12.083585983568835 C7.43898577238345,12.083585983568835 6.964485712760734,11.609085923946123 6.964485712760734,11.023760437212346 L6.964485712760734,8.941904014800343Z"/>
    <path id="path-30" opacity="1" fill-rule="evenodd" d="M6.969210046548369,9.291504715084425 C7.749090550534945,9.58032164808858 8.606613663894953,9.58032164808858 9.386494167881533,9.291504715084425 L9.386494167881533,8.993871686464217 L6.969210046548369,8.993871686464217 L6.969210046548369,9.291504715084425Z"/>
    <ellipse id="ellipse-31" opacity="1" rx="3.4660862221852504" ry="3.4660862221852007" cx="8.183363829967217" cy="5.987620619607416"/>
    <path id="path-32" opacity="1" fill-rule="evenodd" d="M4.870031066915033,4.671106270790233 L11.484098369585674,4.671106270790233 C11.484098369585674,4.671106270790233 10.920327870929466,2.001857680783883 8.421155297277487,2.1719336971382694 C5.9219827236255105,2.342009713492656 4.870031066915033,4.671106270790233 4.870031066915033,4.671106270790233Z"/>
    <ellipse id="ellipse-33" opacity="1" rx="0.32282947548748364" ry="0.6047147248155689" cx="4.78814261459627" cy="5.839591494261942"/>
    <ellipse id="ellipse-34" opacity="1" rx="0.32282947548748364" ry="0.6047147248155689" cx="11.558112932258442" cy="5.839591494261942"/>
    <path id="path-35" opacity="1" fill-rule="evenodd" d="M4.870031066915033,4.760868612754949 L11.484098369585674,4.760868612754949 C11.484098369585674,4.760868612754949 10.920327870929466,2.09162002274861 8.421155297277487,2.261696039102996 C5.9219827236255105,2.431772055457382 4.870031066915033,4.760868612754949 4.870031066915033,4.760868612754949Z"/>
    <path id="path-36" opacity="1" fill-rule="evenodd" d="M16.12024459317193,111.88986158086827 C16.119263628051698,108.04779143397985 13.406432930454763,104.74056836180438 9.638741608384981,103.98823460774031 C5.871050286315191,103.23590085367621 2.096126177587711,105.24764706438525 0.6196819598286549,108.79470449946432 C-0.8567622579304013,112.34176193454341 0.3758070634165332,116.43785125376341 3.5645401636021994,118.58109300207002 L3.5645401636021994,118.61731289444178 C3.8276365933451197,118.86942588541127 4.13806822980428,119.06692463343443 4.477911362542429,119.19840595031928 L4.48893480804688,119.16218605794751 C4.86530673312742,119.4865903113642 6.455832441626786,120.0046922500734 8.281000061578034,119.99996791628578 L8.320369509808216,119.99996791628578 C9.476256509846364,119.99996791628578 10.731354519424578,119.79682156341806 11.835273847798886,119.19840595031928 C11.835273847798886,119.19840595031928 11.84472251537413,119.17793383723958 11.860470294666207,119.1369896110802 C12.140330323864054,119.00583677730455 12.39717549046139,118.83035250198957 12.621088034473335,118.6173128944418 L12.63368625790699,118.52597577454777 C14.817708732855456,117.02300599646443 16.12170049275618,114.54106323394339 16.12024459317193,111.88986158086827Z"/>
    <linearGradient id="linearGradient-37" x1="0.5000253143974771" y1="0.9999006183268891" x2="0.5000253143974771" y2="-0.00007797089113583594">
      <stop offset="1" stop-color="rgb(128,128,128)" stop-opacity="0.1"/>
      <stop offset="0.54" stop-color="rgb(128,128,128)" stop-opacity="0.12"/>
      <stop offset="0" stop-color="rgb(128,128,128)" stop-opacity="0.25"/>
    </linearGradient>
    <ellipse id="ellipse-38" opacity="1" rx="7.817197640584993" ry="7.817197640585007" cx="8.060531151489045" cy="111.89143635879743"/>
    <path id="path-39" opacity="1" fill-rule="evenodd" d="M4.6794829374809614,114.94808031938896 C4.6794829374809614,114.94808031938896 2.8165206472287396,115.1055581123097 3.309426139070624,118.49448021596392 C3.5648200860880346,118.73912082909516 3.8661556195759523,118.93073383262747 4.196026113214326,119.05825071462016 L5.243253436137172,115.5118508180452 L4.6794829374809614,114.94808031938896Z"/>
    <path id="path-40" opacity="1" fill-rule="evenodd" d="M10.723480629778544,114.94808031938896 C10.723480629778544,114.94808031938896 12.586442920030807,115.1055581123097 12.093537428188915,118.49448021596392 C11.838143481171498,118.73912082909516 11.536807947683574,118.93073383262747 11.206937454045192,119.05825071462016 L10.159710131122324,115.5118508180452 L10.723480629778544,114.94808031938896Z"/>
    <ellipse id="ellipse-41" opacity="1" rx="3.4660862221852504" ry="3.4660862221852646" cx="7.750299899435159" cy="109.14502365026023"/>
    <path id="path-42" opacity="1" fill-rule="evenodd" d="M10.687260737406795,114.94808031938896 L4.643263045109248,114.94808031938896 L4.0794925464530385,117.36536444072215 C4.0794925464530385,117.36536444072215 3.74878918131951,118.48503154838853 4.159806220842609,118.9779370402304 C4.5708232603657075,119.47084253207228 8.422730075206722,120.59050963973867 11.246306902275384,119.05825071461997 C11.493000909964465,118.41379712685651 11.521217880057858,117.7061597788282 11.326620576664963,117.04410974316387 C11.011664990823506,115.91656874585146 11.246306902275393,116.9637960687743 11.246306902275393,116.9637960687743 L10.687260737406795,114.94808031938896Z"/>
    <path id="path-43" opacity="1" fill-rule="evenodd" d="M10.76914918972554,114.94808031938896 L4.723576719498816,114.94808031938896 L4.15980622084261,117.36536444072215 C4.15980622084261,117.36536444072215 3.8291028557090834,118.48503154838853 4.240119895232179,118.9779370402304 C4.651136934755275,119.47084253207228 8.503043749596268,120.59050963973867 11.326620576664908,119.05825071461997 C11.57331458435398,118.41379712685651 11.601531554447373,117.7061597788282 11.406934251054478,117.04410974316387 C11.091978665213023,115.91656874585146 11.326620576664908,116.9637960687743 11.326620576664908,116.9637960687743 L10.76914918972554,114.94808031938896Z"/>
    <path id="path-44" opacity="1" fill-rule="evenodd" d="M10.723480629778585,114.94808031938896 L4.679482937480973,114.94808031938896 L4.115712438824758,117.36536444072213 C4.115712438824758,117.36536444072213 3.785009073691227,118.4850315483885 4.196026113214329,118.97793704023039 C4.6070431527374325,119.47084253207227 8.45894996757849,120.58893486180943 11.293550240151628,119.05352638083234 C11.540244247840711,118.40907279306887 11.568461217934104,117.70143544504056 11.373863914541207,117.03938540937624 C11.058908328699747,115.91184441206384 11.293550240151637,116.95907173498667 11.293550240151637,116.95907173498667 L10.723480629778585,114.94808031938896Z"/>
    <path id="path-45" opacity="1" fill-rule="evenodd" d="M6.532996560157997,112.9418132375788 L8.95028068149118,112.9418132375788 L8.95028068149118,115.02524443792008 C8.950280681491183,115.30632764916705 8.83862081058851,115.5758984238731 8.639864965838102,115.77465426862352 C8.441109121087694,115.97341011337396 8.171538346381627,116.08506998427663 7.890455135134677,116.08506998427663 L7.591247328585293,116.08506998427663 C7.310164117338344,116.08506998427664 7.040593342632282,115.97341011337396 6.841837497881873,115.77465426862356 C6.643081653131464,115.57589842387316 6.53142178222879,115.30632764916707 6.53142178222879,115.02524443792012 L6.532996560157997,112.9418132375788Z"/>
    <path id="path-46" opacity="1" fill-rule="evenodd" d="M6.532996560157997,112.85205089561418 L8.95028068149118,112.85205089561418 L8.95028068149118,114.93548209595548 C8.95028068149118,115.21656530720244 8.838620810588507,115.48613608190853 8.639864965838099,115.68489192665895 C8.44110912108769,115.88364777140934 8.171538346381627,115.99530764231201 7.890455135134677,115.99530764231201 L7.591247328585293,115.99530764231201 C7.310164117338344,115.99530764231201 7.040593342632282,115.88364777140934 6.841837497881873,115.68489192665895 C6.643081653131464,115.48613608190853 6.53142178222879,115.21656530720244 6.53142178222879,114.93548209595548 L6.532996560157997,112.85205089561418Z"/>
    <path id="path-47" opacity="1" fill-rule="evenodd" d="M6.537720893945561,113.20007681796905 C7.317601397932146,113.48889375097319 8.17512451129217,113.48889375097319 8.955005015278754,113.20007681796905 L8.955005015278754,112.91189245692408 L6.537720893945561,112.91189245692408 L6.537720893945561,113.20007681796905Z"/>
    <ellipse id="ellipse-48" opacity="1" rx="3.4660862221852504" ry="3.4660862221852646" cx="7.750299899435159" cy="109.89619272249196"/>
    <path id="path-49" opacity="1" fill-rule="evenodd" d="M4.436967136383032,108.66944071563921 L11.051034439053666,108.66944071563921 C11.051034439053666,108.66944071563921 10.48253960660983,106.00176690356219 7.986516588816269,106.17184291991657 C5.490493571022706,106.34191893627096 4.436967136383032,108.66944071563921 4.436967136383032,108.66944071563921Z"/>
    <path id="path-50" opacity="1" fill-rule="evenodd" d="M4.436967136383032,108.57967837367494 L11.051034439053666,108.57967837367494 C11.051034439053666,108.57967837367494 10.487263940397458,105.91042978366846 7.988091366745483,106.08050580002286 C5.488918793093509,106.25058181637726 4.436967136383032,108.57967837367494 4.436967136383032,108.57967837367494Z"/>
    <ellipse id="ellipse-51" opacity="1" rx="0.3228294754875316" ry="0.604714724815576" cx="4.356653461993454" cy="109.74973837507545"/>
    <ellipse id="ellipse-52" opacity="1" rx="0.3228294754875298" ry="0.604714724815576" cx="11.12662377965568" cy="109.74973837507545"/>
    <path id="path-53" opacity="1" fill-rule="evenodd" d="M16.12024459317192,86.29814545332067 C16.12001439335291,82.4558777871049 13.40755775093761,79.14801238997431 9.639770885861367,78.39514918115205 C5.871984020785131,77.64228597232979 2.0966344321285075,79.65378541452387 0.6198833925043564,83.20092894683381 C-0.856867647119799,86.74807247914376 0.37564315056884556,90.84445034942107 3.564540163602208,92.98780209659327 L3.564540163602208,93.02402198896503 C3.8276365933451277,93.27613497993453 4.138068229804287,93.47363372795769 4.477911362542438,93.60511504484253 L4.488934808046888,93.56889515247077 C4.865306733127428,93.89329940588746 6.455832441626793,94.41140134459667 8.281000061578041,94.40667701080906 L8.320369509808222,94.40667701080906 C9.476256509846369,94.40667701080906 10.731354519424583,94.20353065794131 11.835273847798891,93.60511504484253 C11.835273847798891,93.60511504484253 11.844722515374134,93.58464293176284 11.86047029466621,93.54369870560345 C12.140330323864058,93.41254587182779 12.397175490461402,93.2370615965128 12.621088034473338,93.02402198896505 L12.633686257906994,92.93268486907102 C14.817249660417625,91.43003066421295 16.121181833572898,88.94879026425666 16.12024459317192,86.29814545332067Z"/>
    <linearGradient id="linearGradient-54" x1="0.5000253471610417" y1="0.9997058236426983" x2="0.5000253471610417" y2="-0.00017531663204935826">
      <stop offset="1" stop-color="rgb(128,128,128)" stop-opacity="0.1"/>
      <stop offset="0.54" stop-color="rgb(128,128,128)" stop-opacity="0.12"/>
      <stop offset="0" stop-color="rgb(128,128,128)" stop-opacity="0.25"/>
    </linearGradient>
    <ellipse id="ellipse-55" opacity="1" rx="7.817197640584965" ry="7.817197640584979" cx="7.977067921241002" cy="86.00681153641749"/>
    <path id="path-56" opacity="1" fill-rule="evenodd" d="M4.846409397976942,89.08707716594677 C4.846409397976942,89.08707716594677 2.9834471077247153,89.2445549588675 3.4763525995666007,92.63347706252166 C3.731746546584021,92.87811767565293 4.03308208007194,93.06973067918521 4.362952573710309,93.1972475611779 L5.410179896633158,89.65084766460299 L4.846409397976942,89.08707716594677Z"/>
    <path id="path-57" opacity="1" fill-rule="evenodd" d="M10.890407090274575,89.08707716594677 C10.890407090274575,89.08707716594677 12.753369380526845,89.2445549588675 12.260463888684951,92.63347706252166 C12.005069941667525,92.87811767565293 11.703734408179606,93.06973067918521 11.373863914541225,93.1972475611779 L10.326636591618353,89.65084766460299 L10.890407090274575,89.08707716594677Z"/>
    <path id="path-58" opacity="1" fill-rule="evenodd" d="M4.9267230723665225,83.52653629791598 C4.9267230723665225,83.52653629791598 4.040123098222819,88.09339229261712 3.556666273956182,87.84457737980237 C3.556666273956182,87.84457737980237 8.222733278197381,91.87443410064384 12.34077756307444,87.84457737980237 C12.34077756307444,87.84457737980237 11.614804937709877,84.57533839876804 10.567577614787034,83.52653629791598 L4.9267230723665225,83.52653629791598Z"/>
    <ellipse id="ellipse-59" opacity="1" rx="3.4660862221852504" ry="3.466086222185236" cx="7.917226359931188" cy="83.284020496818"/>
    <path id="path-60" opacity="1" fill-rule="evenodd" d="M10.854187197902752,89.08707716594677 L4.810189505605168,89.08707716594677 L4.246419006948955,91.50436128727995 C4.246419006948955,91.50436128727995 3.915715641815424,92.62402839494634 4.326732681338525,93.1169338867882 C4.737749720861626,93.60983937863008 8.589656535702666,94.72950648629647 11.413233362771342,93.19724756117778 C11.659927370460416,92.55279397341431 11.688144340553809,91.84515662538597 11.493547037160912,91.18310658972167 C11.178591451319456,90.05556559240927 11.413233362771342,91.1027929153321 11.413233362771342,91.1027929153321 L10.854187197902752,89.08707716594677Z"/>
    <path id="path-61" opacity="1" fill-rule="evenodd" d="M10.934500872292297,89.08707716594677 L4.890503179994735,89.08707716594677 L4.326732681338526,91.50436128727995 C4.326732681338526,91.50436128727995 3.9960293162049974,92.62402839494634 4.407046355728096,93.1169338867882 C4.818063395251195,93.60983937863008 8.669970210092213,94.72950648629647 11.493547037160875,93.19724756117778 C11.740241044849938,92.55279397341431 11.76845801494333,91.84515662538597 11.573860711550434,91.18310658972167 C11.258905125708978,90.05556559240927 11.493547037160866,91.1027929153321 11.493547037160866,91.1027929153321 L10.934500872292297,89.08707716594677Z"/>
    <path id="path-62" opacity="1" fill-rule="evenodd" d="M10.890407090274515,89.08707716594677 L4.846409397976942,89.08707716594677 L4.28263889932073,91.50436128727995 C4.28263889932073,91.50436128727995 3.9519355341872004,92.62402839494634 4.3629525737103005,93.1169338867882 C4.7739696132334,93.60983937863008 8.625876428074434,94.72950648629647 11.449453255143101,93.19724756117778 C11.696147262832184,92.55279397341431 11.72436423292557,91.84515662538597 11.529766929532673,91.18310658972167 C11.214811343691215,90.05556559240927 11.449453255143101,91.1027929153321 11.449453255143101,91.1027929153321 L10.890407090274515,89.08707716594677Z"/>
    <path id="path-63" opacity="1" fill-rule="evenodd" d="M6.698348242724705,87.08553441792424 L9.117207141987087,87.08553441792424 L9.117207141987087,89.16896561826552 C9.117207141987091,89.45004882951248 9.00554727108442,89.71961960421854 8.806791426334012,89.91837544896896 C8.608035581583604,90.11713129371938 8.338464806877537,90.22879116462207 8.057381595630588,90.22879116462207 L7.758173789081205,90.22879116462207 C7.172848302347424,90.22879116462207 6.698348242724706,89.75429110499934 6.698348242724706,89.16896561826556 L6.698348242724705,87.08553441792424Z"/>
    <path id="path-64" opacity="1" fill-rule="evenodd" d="M6.698348242724705,86.99262252010135 L9.117207141987087,86.99262252010135 L9.117207141987087,89.07605372044262 C9.117207141987087,89.6613792071764 8.642707082364371,90.13587926679912 8.057381595630588,90.13587926679912 L7.758173789081205,90.13587926679912 C7.172848302347424,90.13587926679912 6.698348242724706,89.6613792071764 6.698348242724706,89.07605372044262 L6.698348242724705,86.99262252010135Z"/>
    <path id="path-65" opacity="1" fill-rule="evenodd" d="M6.703072576512341,87.34064844245613 C7.482953080498919,87.62946537546023 8.340476193858928,87.62946537546023 9.120356697845498,87.34064844245613 L9.120356697845498,87.04301541383597 L6.703072576512341,87.04301541383597 L6.703072576512341,87.34064844245613Z"/>
    <ellipse id="ellipse-66" opacity="1" rx="3.4660862221852504" ry="3.4660862221852646" cx="7.917226359931188" cy="84.03676434697913"/>
    <path id="path-67" opacity="1" fill-rule="evenodd" d="M4.603893596879061,82.72024999816188 L11.217960899549645,82.72024999816188 C11.217960899549645,82.72024999816188 10.647891289176608,80.05257618608475 8.143994381737032,80.22265220243912 C5.6400974742974554,80.3927282187935 4.603893596879061,82.72024999816188 4.603893596879061,82.72024999816188Z"/>
    <ellipse id="ellipse-68" opacity="1" rx="0.3228294754874854" ry="0.604714724815576" cx="4.523579922489437" cy="83.88873522163371"/>
    <ellipse id="ellipse-69" opacity="1" rx="0.32282947548748364" ry="0.604714724815576" cx="11.29355024015155" cy="83.88873522163371"/>
    <path id="path-70" opacity="1" fill-rule="evenodd" d="M4.603893596879061,82.81001234012649 L11.217960899549645,82.81001234012649 C11.217960899549645,82.81001234012649 10.647891289176608,80.14076375012014 8.143994381737032,80.31398932233294 C5.6400974742974554,80.48721489454574 4.603893596879061,82.81001234012649 4.603893596879061,82.81001234012649Z"/>
    <path id="path-71" opacity="1" fill-rule="evenodd" d="M16.12024459317192,60.1710048298429 C16.120014393352903,56.32873716362711 13.407557750937592,53.020871766496526 9.639770885861358,52.26800855767427 C5.871984020785113,51.515145348852016 2.096634432128503,53.5266447910461 0.6198833925043564,57.07378832335604 C-0.85686764711979,60.62093185566599 0.37564315056884556,64.71730972594331 3.564540163602208,66.8606614731155 L3.564540163602208,66.89688136548727 C3.8276365933451366,67.14899435645675 4.138068229804287,67.34649310447992 4.477911362542438,67.47797442136476 L4.488934808046888,67.44175452899299 C4.865306733127428,67.76615878240969 6.455832441626793,68.2842607211189 8.281000061578041,68.27953638733128 L8.320369509808222,68.27953638733128 C9.476256509846369,68.27953638733128 10.731354519424583,68.07639003446353 11.835273847798891,67.47797442136476 C11.835273847798891,67.47797442136476 11.844722515374134,67.45750230828507 11.86047029466621,67.41655808212568 C12.140330323864058,67.28540524835 12.397175490461393,67.10992097303505 12.621088034473338,66.89688136548727 L12.633686257906994,66.80554424559325 C14.817249660417625,65.30289004073518 16.121181833572898,62.821649640778894 16.12024459317192,60.1710048298429Z"/>
    <linearGradient id="linearGradient-72" x1="0.5000253471610417" y1="0.9999980156766767" x2="0.5000253471610417" y2="0.000019478057270080556">
      <stop offset="1" stop-color="rgb(128,128,128)" stop-opacity="0.1"/>
      <stop offset="0.54" stop-color="rgb(128,128,128)" stop-opacity="0.12"/>
      <stop offset="0" stop-color="rgb(128,128,128)" stop-opacity="0.25"/>
    </linearGradient>
    <ellipse id="ellipse-73" opacity="1" rx="7.817197640584993" ry="7.817197640585007" cx="8.060531151489045" cy="60.17100482984286"/>
    <path id="path-74" opacity="1" fill-rule="evenodd" d="M4.6794829374809614,63.22764879043393 C4.6794829374809614,63.22764879043393 2.8165206472287396,63.38512658335466 3.309426139070624,66.7740486870088 C3.564820086088039,67.01868930014004 3.8661556195759568,67.21030230367234 4.196026113214326,67.33781918566501 L5.243253436137172,63.79141928909015 L4.6794829374809614,63.22764879043393Z"/>
    <path id="path-75" opacity="1" fill-rule="evenodd" d="M10.723480629778544,63.22764879043393 C10.723480629778544,63.22764879043393 12.586442920030807,63.38512658335466 12.093537428188915,66.7740486870088 C11.838143481171498,67.01868930014004 11.536807947683574,67.21030230367234 11.206937454045192,67.33781918566501 L10.159710131122324,63.79141928909015 L10.723480629778544,63.22764879043393Z"/>
    <ellipse id="ellipse-76" opacity="1" rx="3.4660862221852504" ry="3.4660862221852646" cx="7.750299899435159" cy="57.42616689923456"/>
    <path id="path-77" opacity="1" fill-rule="evenodd" d="M10.687260737406795,63.22764879043393 L4.643263045109248,63.22764879043393 L4.0794925464530385,65.64493291176711 C4.0794925464530385,65.64493291176711 3.74878918131951,66.7646000194335 4.159806220842609,67.25750551127537 C4.5708232603657075,67.75041100311725 8.422730075206722,68.87007811078364 11.246306902275384,67.33781918566494 C11.493000909964465,66.69336559790148 11.52121788005785,65.98572824987315 11.326620576664963,65.32367821420883 C11.011664990823506,64.1961372168964 11.246306902275393,65.24336453981925 11.246306902275393,65.24336453981925 L10.687260737406795,63.22764879043393Z"/>
    <path id="path-78" opacity="1" fill-rule="evenodd" d="M10.769149189725583,63.22764879043393 L4.72357671949882,63.22764879043393 L4.1598062208426105,65.64493291176711 C4.1598062208426105,65.64493291176711 3.829102855709082,66.7646000194335 4.240119895232181,67.25750551127537 C4.65113693475528,67.75041100311725 8.503043749596294,68.87007811078364 11.326620576664956,67.33781918566494 C11.573314584354037,66.69336559790148 11.60153155444743,65.98572824987315 11.406934251054535,65.32367821420883 C11.091978665213079,64.1961372168964 11.326620576664965,65.24336453981925 11.326620576664965,65.24336453981925 L10.769149189725583,63.22764879043393Z"/>
    <path id="path-79" opacity="1" fill-rule="evenodd" d="M10.723480629778503,63.22764879043393 L4.679482937480965,63.22764879043393 L4.115712438824757,65.64493291176711 C4.115712438824757,65.64493291176711 3.785009073691229,66.7646000194335 4.196026113214327,67.25750551127537 C4.6070431527374245,67.75041100311725 8.458949967578437,68.87007811078364 11.282526794647081,67.33781918566494 C11.529220802336162,66.69336559790148 11.557437772429548,65.98572824987315 11.362840469036652,65.32367821420883 C11.047884883195195,64.1961372168964 11.282526794647081,65.24336453981925 11.282526794647081,65.24336453981925 L10.723480629778503,63.22764879043393Z"/>
    <path id="path-80" opacity="1" fill-rule="evenodd" d="M6.532996560157926,61.22295648655313 L8.9502806814911,61.22295648655313 L8.9502806814911,63.306387686894354 C8.950280681491101,63.587470898141305 8.838620810588427,63.857041672847366 8.63986496583802,64.05579751759777 C8.441109121087612,64.25455336234818 8.17153834638155,64.36621323325085 7.8904551351346015,64.36621323325085 L7.591247328585219,64.36621323325085 C7.00653692524533,64.36534442040008 6.5329959146799705,63.89109873571184 6.532996560157926,63.30638768689436 L6.532996560157926,61.22295648655313Z"/>
    <path id="path-81" opacity="1" fill-rule="evenodd" d="M6.532996560157997,61.13319414458806 L8.95028068149118,61.13319414458806 L8.95028068149118,63.21662534492932 C8.95028068149118,63.49770855617628 8.838620810588507,63.76727933088233 8.639864965838099,63.966035175632754 C8.44110912108769,64.16479102038316 8.171538346381627,64.27645089128583 7.890455135134677,64.27645089128583 L7.591247328585293,64.27645089128583 C7.310164117338344,64.27645089128583 7.040593342632282,64.16479102038316 6.841837497881873,63.966035175632754 C6.643081653131464,63.76727933088233 6.53142178222879,63.49770855617628 6.53142178222879,63.21662534492932 L6.532996560157997,61.13319414458806Z"/>
    <path id="path-82" opacity="1" fill-rule="evenodd" d="M6.537720893945561,61.48122006694336 C7.317601397932146,61.77003699994752 8.17512451129217,61.770036999947514 8.955005015278754,61.48122006694336 L8.955005015278754,61.18358703832314 L6.537720893945561,61.18358703832314 L6.537720893945561,61.48122006694336Z"/>
    <ellipse id="ellipse-83" opacity="1" rx="3.4660862221852504" ry="3.466086222185236" cx="7.750299899435159" cy="58.17733597146626"/>
    <path id="path-84" opacity="1" fill-rule="evenodd" d="M4.436967136383032,56.95058396461371 L11.051034439053666,56.95058396461371 C11.051034439053666,56.95058396461371 10.48253960660983,54.28291015253652 7.986516588816269,54.45298616889091 C5.490493571022706,54.623062185245296 4.436967136383032,56.95058396461371 4.436967136383032,56.95058396461371Z"/>
    <path id="path-85" opacity="1" fill-rule="evenodd" d="M4.436967136383032,56.860821622648814 L11.051034439053666,56.860821622648814 C11.051034439053666,56.860821622648814 10.487263940397458,54.191573032642346 7.988091366745483,54.36164904899674 C5.488918793093509,54.53172506535113 4.436967136383032,56.860821622648814 4.436967136383032,56.860821622648814Z"/>
    <ellipse id="ellipse-86" opacity="1" rx="0.3228294754875316" ry="0.6047147248155476" cx="4.356653461993454" cy="58.029306846120846"/>
    <ellipse id="ellipse-87" opacity="1" rx="0.3228294754875298" ry="0.6047147248155476" cx="11.12662377965568" cy="58.029306846120846"/>
    <path id="path-88" opacity="1" fill-rule="evenodd" d="M4.805465171817572,55.156911903246716 C4.908260958785095,54.83866432608525 5.085937785716702,54.54973696314176 5.3235671105267635,54.31440571112084 C6.035366734528454,53.6104799767652 7.202277180071043,53.46245085141972 7.800692793169805,52.66088888545323 C7.86506249882825,52.77579630303209 7.878542151536257,52.912358288967404 7.83788016292543,53.037633092113964 C7.797218174314608,53.16290789526053 7.706106397539447,53.265521350385065 7.586522994797605,53.32072083779105 C8.159742161029051,53.32072083779105 8.824298447154526,53.267178388198005 9.148702700571224,52.794745009435836 C9.312116999062347,53.175463094718616 9.241614651363683,53.61625603380852 8.9676032387124,53.92701034053585 C9.476256509846353,53.950632009473956 10.017980117493655,54.29550837597034 10.051050454007004,54.80258686917508 C10.049796514553611,55.1487205364087 9.871552545471168,55.470153827320736 9.578617075244821,55.65454172887622 C9.289925793008145,55.8337412707393 8.96892576320244,55.954651281966115 8.633750317720457,56.01044154087705 C7.67156100297481,56.21988700546161 4.1739792222054515,57.11593564718053 4.805465171817572,55.156911903246716Z"/>
    <rect id="rect-89" opacity="1" x="32.34833115365302" y="5.5892018035179944" width="92.59694223738859" height="4.990471257657845" rx="0" ry="0"/>
    <linearGradient id="linearGradient-90" x1="0.5" y1="1.0000000000000002" x2="0.5" y2="0">
      <stop offset="1" stop-color="rgb(128,128,128)" stop-opacity="0.1"/>
      <stop offset="0.54" stop-color="rgb(128,128,128)" stop-opacity="0.12"/>
      <stop offset="0" stop-color="rgb(128,128,128)" stop-opacity="0.25"/>
    </linearGradient>
    <rect id="rect-91" opacity="1" x="32.73572652423809" y="5.963998950669293" width="91.94813373055507" height="4.116469506947766" rx="0" ry="0"/>
    <rect id="rect-92" opacity="1" x="32.73572652423809" y="5.963998950669293" width="65.01313202939377" height="4.116469506947766" rx="0" ry="0"/>
    <rect id="rect-93" opacity="1" x="32.34833115365302" y="32.602942401139785" width="92.59694223738859" height="4.99047125765782" rx="0" ry="0"/>
    <linearGradient id="linearGradient-94" x1="0.5" y1="0.9999999999999999" x2="0.5" y2="0">
      <stop offset="1" stop-color="rgb(128,128,128)" stop-opacity="0.1"/>
      <stop offset="0.54" stop-color="rgb(128,128,128)" stop-opacity="0.12"/>
      <stop offset="0" stop-color="rgb(128,128,128)" stop-opacity="0.25"/>
    </linearGradient>
    <rect id="rect-95" opacity="1" x="32.73572652423809" y="32.9777395482912" width="91.94813373055507" height="4.11646950694778" rx="0" ry="0"/>
    <rect id="rect-96" opacity="1" x="32.73572652423809" y="32.9777395482912" width="90.13871388989611" height="4.11646950694778" rx="0" ry="0"/>
    <rect id="rect-97" opacity="1" x="32.34833115365302" y="57.700178258916594" width="92.59694223738859" height="4.990471257657877" rx="0" ry="0"/>
    <linearGradient id="linearGradient-98" x1="0.5" y1="0.9999999999999999" x2="0.5" y2="0">
      <stop offset="1" stop-color="rgb(128,128,128)" stop-opacity="0.1"/>
      <stop offset="0.54" stop-color="rgb(128,128,128)" stop-opacity="0.12"/>
      <stop offset="0" stop-color="rgb(128,128,128)" stop-opacity="0.25"/>
    </linearGradient>
    <rect id="rect-99" opacity="1" x="32.73572652423809" y="58.07497540606778" width="91.94813373055507" height="4.1164695069478086" rx="0" ry="0"/>
    <rect id="rect-100" opacity="1" x="32.73572652423809" y="58.07497540606778" width="14.098986800192876" height="4.1164695069478086" rx="0" ry="0"/>
    <rect id="rect-101" opacity="1" x="32.34833115365302" y="83.80054765759792" width="92.59694223738859" height="4.99047125765782" rx="0" ry="0"/>
    <linearGradient id="linearGradient-102" x1="0.5" y1="1.0000000000000018" x2="0.5" y2="0">
      <stop offset="1" stop-color="rgb(128,128,128)" stop-opacity="0.1"/>
      <stop offset="0.54" stop-color="rgb(128,128,128)" stop-opacity="0.12"/>
      <stop offset="0" stop-color="rgb(128,128,128)" stop-opacity="0.25"/>
    </linearGradient>
    <rect id="rect-103" opacity="1" x="32.73572652423809" y="84.1753448047491" width="91.94813373055507" height="4.116469506947752" rx="0" ry="0"/>
    <rect id="rect-104" opacity="1" x="32.73572652423809" y="84.1753448047491" width="83.43803380111893" height="4.116469506947752" rx="0" ry="0"/>
    <rect id="rect-105" opacity="1" x="32.34833115365302" y="109.41903500994226" width="92.59694223738859" height="4.99047125765782" rx="0" ry="0"/>
    <linearGradient id="linearGradient-106" x1="0.5" y1="0.9999999999999981" x2="0.5" y2="0">
      <stop offset="1" stop-color="rgb(128,128,128)" stop-opacity="0.1"/>
      <stop offset="0.54" stop-color="rgb(128,128,128)" stop-opacity="0.12"/>
      <stop offset="0" stop-color="rgb(128,128,128)" stop-opacity="0.25"/>
    </linearGradient>
    <rect id="rect-107" opacity="1" x="32.73572652423809" y="109.79383215709345" width="91.94813373055507" height="4.116469506947752" rx="0" ry="0"/>
    <rect id="rect-108" opacity="1" x="32.73572652423809" y="109.79383215709345" width="28.65938353364345" height="4.116469506947752" rx="0" ry="0"/>
  </defs>
  <g opacity="1">
    <g opacity="0.5">
      <g opacity="1">
        <use xlink:href="#path-0" fill="url(#linearGradient-1)" fill-opacity="1"/>
      </g>
    </g>
    <g opacity="1">
      <use xlink:href="#ellipse-2" fill="rgb(245,245,245)" fill-opacity="1"/>
    </g>
    <g opacity="1">
      <use xlink:href="#path-3" fill="rgb(253,165,125)" fill-opacity="1"/>
    </g>
    <g opacity="1">
      <use xlink:href="#path-4" fill="rgb(253,165,125)" fill-opacity="1"/>
    </g>
    <g opacity="1">
      <use xlink:href="#path-5" fill="rgb(51,51,51)" fill-opacity="1"/>
    </g>
    <g opacity="1">
      <use xlink:href="#ellipse-6" fill="rgb(51,51,51)" fill-opacity="1"/>
    </g>
    <g opacity="0.1">
      <use xlink:href="#path-7" fill="rgb(0,0,0)" fill-opacity="1"/>
    </g>
    <g opacity="0.1">
      <use xlink:href="#path-8" fill="rgb(0,0,0)" fill-opacity="1"/>
    </g>
    <g opacity="1">
      <use xlink:href="#path-9" fill="rgb(253,216,53)" fill-opacity="1"/>
    </g>
    <g opacity="0.1">
      <use xlink:href="#path-10" fill="rgb(0,0,0)" fill-opacity="1"/>
    </g>
    <g opacity="1">
      <use xlink:href="#path-11" fill="rgb(253,165,125)" fill-opacity="1"/>
    </g>
    <g opacity="0.1">
      <use xlink:href="#path-12" fill="rgb(0,0,0)" fill-opacity="1"/>
    </g>
    <g opacity="1">
      <use xlink:href="#ellipse-13" fill="rgb(253,165,125)" fill-opacity="1"/>
    </g>
    <g opacity="1">
      <use xlink:href="#path-14" fill="rgb(51,51,51)" fill-opacity="1"/>
    </g>
    <g opacity="1">
      <use xlink:href="#ellipse-15" fill="rgb(253,165,125)" fill-opacity="1"/>
    </g>
    <g opacity="1">
      <use xlink:href="#ellipse-16" fill="rgb(253,165,125)" fill-opacity="1"/>
    </g>
    <g opacity="0.1">
      <use xlink:href="#path-17" fill="rgb(0,0,0)" fill-opacity="1"/>
    </g>
    <g opacity="0.5">
      <g opacity="1">
        <use xlink:href="#path-18" fill="url(#linearGradient-19)" fill-opacity="1"/>
      </g>
    </g>
    <g opacity="1">
      <use xlink:href="#ellipse-20" fill="rgb(245,245,245)" fill-opacity="1"/>
    </g>
    <g opacity="1">
      <use xlink:href="#path-21" fill="rgb(190,124,94)" fill-opacity="1"/>
    </g>
    <g opacity="1">
      <use xlink:href="#path-22" fill="rgb(190,124,94)" fill-opacity="1"/>
    </g>
    <g opacity="1">
      <use xlink:href="#path-23" fill="rgb(51,51,51)" fill-opacity="1"/>
    </g>
    <g opacity="1">
      <use xlink:href="#ellipse-24" fill="rgb(51,51,51)" fill-opacity="1"/>
    </g>
    <g opacity="0.1">
      <use xlink:href="#path-25" fill="rgb(0,0,0)" fill-opacity="1"/>
    </g>
    <g opacity="0.1">
      <use xlink:href="#path-26" fill="rgb(0,0,0)" fill-opacity="1"/>
    </g>
    <g opacity="1">
      <use xlink:href="#path-27" fill="rgb(58,210,159)" fill-opacity="1"/>
    </g>
    <g opacity="0.1">
      <use xlink:href="#path-28" fill="rgb(0,0,0)" fill-opacity="1"/>
    </g>
    <g opacity="1">
      <use xlink:href="#path-29" fill="rgb(190,124,94)" fill-opacity="1"/>
    </g>
    <g opacity="0.1">
      <use xlink:href="#path-30" fill="rgb(0,0,0)" fill-opacity="1"/>
    </g>
    <g opacity="1">
      <use xlink:href="#ellipse-31" fill="rgb(190,124,94)" fill-opacity="1"/>
    </g>
    <g opacity="1">
      <use xlink:href="#path-32" fill="rgb(51,51,51)" fill-opacity="1"/>
    </g>
    <g opacity="1">
      <use xlink:href="#ellipse-33" fill="rgb(190,124,94)" fill-opacity="1"/>
    </g>
    <g opacity="1">
      <use xlink:href="#ellipse-34" fill="rgb(190,124,94)" fill-opacity="1"/>
    </g>
    <g opacity="0.1">
      <use xlink:href="#path-35" fill="rgb(0,0,0)" fill-opacity="1"/>
    </g>
    <g opacity="0.5">
      <g opacity="1">
        <use xlink:href="#path-36" fill="url(#linearGradient-37)" fill-opacity="1"/>
      </g>
    </g>
    <g opacity="1">
      <use xlink:href="#ellipse-38" fill="rgb(245,245,245)" fill-opacity="1"/>
    </g>
    <g opacity="1">
      <use xlink:href="#path-39" fill="rgb(77,138,240)" fill-opacity="1"/>
    </g>
    <g opacity="1">
      <use xlink:href="#path-40" fill="rgb(77,138,240)" fill-opacity="1"/>
    </g>
    <g opacity="1">
      <use xlink:href="#ellipse-41" fill="rgb(51,51,51)" fill-opacity="1"/>
    </g>
    <g opacity="1">
      <use xlink:href="#path-42" fill="rgb(77,138,240)" fill-opacity="1"/>
    </g>
    <g opacity="1">
      <use xlink:href="#path-43" fill="rgb(77,138,240)" fill-opacity="1"/>
    </g>
    <g opacity="1">
      <use xlink:href="#path-44" fill="rgb(77,138,240)" fill-opacity="1"/>
    </g>
    <g opacity="0.1">
      <use xlink:href="#path-45" fill="rgb(0,0,0)" fill-opacity="1"/>
    </g>
    <g opacity="1">
      <use xlink:href="#path-46" fill="rgb(253,165,125)" fill-opacity="1"/>
    </g>
    <g opacity="0.1">
      <use xlink:href="#path-47" fill="rgb(0,0,0)" fill-opacity="1"/>
    </g>
    <g opacity="1">
      <use xlink:href="#ellipse-48" fill="rgb(253,165,125)" fill-opacity="1"/>
    </g>
    <g opacity="0.1">
      <use xlink:href="#path-49" fill="rgb(0,0,0)" fill-opacity="1"/>
    </g>
    <g opacity="1">
      <use xlink:href="#path-50" fill="rgb(51,51,51)" fill-opacity="1"/>
    </g>
    <g opacity="1">
      <use xlink:href="#ellipse-51" fill="rgb(253,165,125)" fill-opacity="1"/>
    </g>
    <g opacity="1">
      <use xlink:href="#ellipse-52" fill="rgb(253,165,125)" fill-opacity="1"/>
    </g>
    <g opacity="0.5">
      <g opacity="1">
        <use xlink:href="#path-53" fill="url(#linearGradient-54)" fill-opacity="1"/>
      </g>
    </g>
    <g opacity="1">
      <use xlink:href="#ellipse-55" fill="rgb(245,245,245)" fill-opacity="1"/>
    </g>
    <g opacity="1">
      <use xlink:href="#path-56" fill="rgb(190,124,94)" fill-opacity="1"/>
    </g>
    <g opacity="1">
      <use xlink:href="#path-57" fill="rgb(190,124,94)" fill-opacity="1"/>
    </g>
    <g opacity="1">
      <use xlink:href="#path-58" fill="rgb(51,51,51)" fill-opacity="1"/>
    </g>
    <g opacity="1">
      <use xlink:href="#ellipse-59" fill="rgb(51,51,51)" fill-opacity="1"/>
    </g>
    <g opacity="0.1">
      <use xlink:href="#path-60" fill="rgb(0,0,0)" fill-opacity="1"/>
    </g>
    <g opacity="0.1">
      <use xlink:href="#path-61" fill="rgb(0,0,0)" fill-opacity="1"/>
    </g>
    <g opacity="1">
      <use xlink:href="#path-62" fill="rgb(245,95,68)" fill-opacity="1"/>
    </g>
    <g opacity="0.1">
      <use xlink:href="#path-63" fill="rgb(0,0,0)" fill-opacity="1"/>
    </g>
    <g opacity="1">
      <use xlink:href="#path-64" fill="rgb(190,124,94)" fill-opacity="1"/>
    </g>
    <g opacity="0.1">
      <use xlink:href="#path-65" fill="rgb(0,0,0)" fill-opacity="1"/>
    </g>
    <g opacity="1">
      <use xlink:href="#ellipse-66" fill="rgb(190,124,94)" fill-opacity="1"/>
    </g>
    <g opacity="1">
      <use xlink:href="#path-67" fill="rgb(51,51,51)" fill-opacity="1"/>
    </g>
    <g opacity="1">
      <use xlink:href="#ellipse-68" fill="rgb(190,124,94)" fill-opacity="1"/>
    </g>
    <g opacity="1">
      <use xlink:href="#ellipse-69" fill="rgb(190,124,94)" fill-opacity="1"/>
    </g>
    <g opacity="0.1">
      <use xlink:href="#path-70" fill="rgb(0,0,0)" fill-opacity="1"/>
    </g>
    <g opacity="0.5">
      <g opacity="1">
        <use xlink:href="#path-71" fill="url(#linearGradient-72)" fill-opacity="1"/>
      </g>
    </g>
    <g opacity="1">
      <use xlink:href="#ellipse-73" fill="rgb(245,245,245)" fill-opacity="1"/>
    </g>
    <g opacity="1">
      <use xlink:href="#path-74" fill="rgb(77,138,240)" fill-opacity="1"/>
    </g>
    <g opacity="1">
      <use xlink:href="#path-75" fill="rgb(77,138,240)" fill-opacity="1"/>
    </g>
    <g opacity="1">
      <use xlink:href="#ellipse-76" fill="rgb(51,51,51)" fill-opacity="1"/>
    </g>
    <g opacity="1">
      <use xlink:href="#path-77" fill="rgb(77,138,240)" fill-opacity="1"/>
    </g>
    <g opacity="1">
      <use xlink:href="#path-78" fill="rgb(77,138,240)" fill-opacity="1"/>
    </g>
    <g opacity="1">
      <use xlink:href="#path-79" fill="rgb(77,138,240)" fill-opacity="1"/>
    </g>
    <g opacity="0.1">
      <use xlink:href="#path-80" fill="rgb(0,0,0)" fill-opacity="1"/>
    </g>
    <g opacity="1">
      <use xlink:href="#path-81" fill="rgb(190,124,94)" fill-opacity="1"/>
    </g>
    <g opacity="0.1">
      <use xlink:href="#path-82" fill="rgb(0,0,0)" fill-opacity="1"/>
    </g>
    <g opacity="1">
      <use xlink:href="#ellipse-83" fill="rgb(190,124,94)" fill-opacity="1"/>
    </g>
    <g opacity="0.1">
      <use xlink:href="#path-84" fill="rgb(0,0,0)" fill-opacity="1"/>
    </g>
    <g opacity="1">
      <use xlink:href="#path-85" fill="rgb(51,51,51)" fill-opacity="1"/>
    </g>
    <g opacity="1">
      <use xlink:href="#ellipse-86" fill="rgb(190,124,94)" fill-opacity="1"/>
    </g>
    <g opacity="1">
      <use xlink:href="#ellipse-87" fill="rgb(190,124,94)" fill-opacity="1"/>
    </g>
    <g opacity="1">
      <use xlink:href="#path-88" fill="rgb(51,51,51)" fill-opacity="1"/>
    </g>
    <g opacity="0.5">
      <g opacity="1">
        <use xlink:href="#rect-89" fill="url(#linearGradient-90)" fill-opacity="1"/>
      </g>
    </g>
    <g opacity="1">
      <use xlink:href="#rect-91" fill="rgb(245,245,245)" fill-opacity="1"/>
    </g>
    <g opacity="1">
      <use xlink:href="#rect-92" fill="rgb(58,210,159)" fill-opacity="1"/>
    </g>
    <g opacity="0.5">
      <g opacity="1">
        <use xlink:href="#rect-93" fill="url(#linearGradient-94)" fill-opacity="1"/>
      </g>
    </g>
    <g opacity="1">
      <use xlink:href="#rect-95" fill="rgb(245,245,245)" fill-opacity="1"/>
    </g>
    <g opacity="1">
      <use xlink:href="#rect-96" fill="rgb(255,193,7)" fill-opacity="1"/>
    </g>
    <g opacity="0.5">
      <g opacity="1">
        <use xlink:href="#rect-97" fill="url(#linearGradient-98)" fill-opacity="1"/>
      </g>
    </g>
    <g opacity="1">
      <use xlink:href="#rect-99" fill="rgb(245,245,245)" fill-opacity="1"/>
    </g>
    <g opacity="1">
      <use xlink:href="#rect-100" fill="rgb(245,95,68)" fill-opacity="1"/>
    </g>
    <g opacity="0.5">
      <g opacity="1">
        <use xlink:href="#rect-101" fill="url(#linearGradient-102)" fill-opacity="1"/>
      </g>
    </g>
    <g opacity="1">
      <use xlink:href="#rect-103" fill="rgb(245,245,245)" fill-opacity="1"/>
    </g>
    <g opacity="1">
      <use xlink:href="#rect-104" fill="rgb(255,193,7)" fill-opacity="1"/>
    </g>
    <g opacity="0.5">
      <g opacity="1">
        <use xlink:href="#rect-105" fill="url(#linearGradient-106)" fill-opacity="1"/>
      </g>
    </g>
    <g opacity="1">
      <use xlink:href="#rect-107" fill="rgb(245,245,245)" fill-opacity="1"/>
    </g>
    <g opacity="1">
      <use xlink:href="#rect-108" fill="rgb(58,210,159)" fill-opacity="1"/>
    </g>
  </g>
</svg>