<?xml version="1.0" encoding="utf-8"?>
<svg version="1.1" xmlns="http://www.w3.org/2000/svg" xmlns:xlink="http://www.w3.org/1999/xlink" height="80" width="79.99896240234375">
  <defs>
    <path id="path-0" opacity="1" fill-rule="evenodd" d="M63.15716552734375,9.825439453125 C63.15716552734375,14.4696044921875 59.38031005859375,18.2464599609375 54.73614501953125,18.2464599609375 C50.09197998046875,18.2464599609375 46.31524658203125,14.4696044921875 46.31524658203125,9.825439453125 C46.31524658203125,5.1812744140625 50.09197998046875,1.404541015625 54.73614501953125,1.404541015625 C59.38031005859375,1.404541015625 63.15716552734375,5.1812744140625 63.15716552734375,9.825439453125 L63.15716552734375,9.825439453125ZM60.35003662109375,9.8255615234375 C60.35003662109375,6.7293701171875 57.83221435546875,4.2115478515625 54.73614501953125,4.2115478515625 C51.63995361328125,4.2115478515625 49.12213134765625,6.7293701171875 49.12213134765625,9.8255615234375 C49.12213134765625,11.4830322265625 49.85760498046875,12.95947265625 51.00286865234375,13.98828125 C52.32354736328125,13.759521484375 53.33258056640625,12.61279296875 53.33258056640625,11.22900390625 L56.13958740234375,11.22900390625 C56.13958740234375,12.886474609375 55.40411376953125,14.363037109375 54.25885009765625,15.3917236328125 C54.41888427734375,15.4044189453125 54.57183837890625,15.439453125 54.73614501953125,15.439453125 C57.83221435546875,15.439453125 60.35003662109375,12.921630859375 60.35003662109375,9.8255615234375 L60.35003662109375,9.8255615234375Z"/>
    <path id="path-1" opacity="1" fill-rule="evenodd" d="M19.64886474609375,26.6673583984375 C19.64886474609375,31.3115234375 15.87213134765625,35.08837890625 11.22796630859375,35.08837890625 C6.58380126953125,35.08837890625 2.8070068359375,31.3115234375 2.8070068359375,26.6673583984375 C2.8070068359375,22.023193359375 6.58380126953125,18.2464599609375 11.22796630859375,18.2464599609375 C15.87213134765625,18.2464599609375 19.64886474609375,22.023193359375 19.64886474609375,26.6673583984375 L19.64886474609375,26.6673583984375ZM16.84185791015625,26.66748046875 C16.84185791015625,23.5712890625 14.32403564453125,21.053466796875 11.22796630859375,21.053466796875 C8.13177490234375,21.053466796875 5.61395263671875,23.5712890625 5.61395263671875,26.66748046875 C5.61395263671875,29.7635498046875 8.13177490234375,32.2813720703125 11.22796630859375,32.2813720703125 C11.39215087890625,32.2813720703125 11.54510498046875,32.246337890625 11.70513916015625,32.233642578125 C10.55987548828125,31.2049560546875 9.82440185546875,29.7283935546875 9.82440185546875,28.0709228515625 L12.63140869140625,28.0709228515625 C12.63140869140625,29.4547119140625 13.64056396484375,30.6014404296875 14.96124267578125,30.8302001953125 C16.10650634765625,29.8013916015625 16.84185791015625,28.324951171875 16.84185791015625,26.66748046875 L16.84185791015625,26.66748046875Z"/>
    <path id="path-2" opacity="1" fill-rule="evenodd" d="M70.61810302734375,0.0740966796875 L79.03900146484375,2.881103515625 C79.61297607421875,3.0718994140625 79.99896240234375,3.606689453125 79.99896240234375,4.2115478515625 C79.99896240234375,4.81640625 79.61297607421875,5.3511962890625 79.03900146484375,5.54345703125 L71.57806396484375,8.0303955078125 L71.57806396484375,11.22900390625 L75.78851318359375,11.22900390625 C76.56463623046875,11.22900390625 77.19195556640625,11.8563232421875 77.19195556640625,12.6324462890625 L77.19195556640625,21.053466796875 C77.19195556640625,24.9228515625 74.04400634765625,28.0709228515625 70.17449951171875,28.0709228515625 L63.15704345703125,28.0709228515625 L63.15704345703125,33.684814453125 L68.77105712890625,33.684814453125 C72.64044189453125,33.684814453125 75.78851318359375,36.8328857421875 75.78851318359375,40.7022705078125 L75.78851318359375,51.9302978515625 L78.59552001953125,51.9302978515625 L78.59552001953125,54.7371826171875 L58.94659423828125,54.7371826171875 L58.94659423828125,61.754638671875 C58.94659423828125,62.53076171875 58.31927490234375,63.158203125 57.54315185546875,63.158203125 L42.10467529296875,63.158203125 L42.10467529296875,70.1756591796875 C42.10467529296875,70.9517822265625 41.47735595703125,71.5791015625 40.70123291015625,71.5791015625 L21.05230712890625,71.5791015625 L21.05230712890625,78.5965576171875 C21.05230712890625,79.3726806640625 20.42498779296875,80 19.64886474609375,80 L0,80 L0,77.193115234375 L5.61395263671875,77.193115234375 L5.61395263671875,60.3511962890625 L1.40350341796875,60.3511962890625 C0.62738037109375,60.3511962890625 0,59.723876953125 0,58.94775390625 L0,43.50927734375 C0,39.639892578125 3.14801025390625,36.4918212890625 7.01739501953125,36.4918212890625 C7.01739501953125,36.4918212890625 18.25103759765625,36.5164794921875 18.25115966796875,36.4927978515625 C18.53924560546875,36.5391845703125 26.60321044921875,39.2005615234375 26.60321044921875,39.2005615234375 L35.46478271484375,35.4041748046875 L39.44512939453125,27.442138671875 C39.53216552734375,27.26953125 39.65423583984375,27.1165771484375 39.80157470703125,26.9915771484375 L48.22259521484375,19.97412109375 C48.47515869140625,19.7650146484375 48.79376220703125,19.64990234375 49.12213134765625,19.64990234375 L68.77105712890625,19.64990234375 L68.77105712890625,1.404541015625 C68.77105712890625,0.9541015625 68.98724365234375,0.5301513671875 69.35345458984375,0.264892578125 C69.72125244140625,0.0010986328125 70.18853759765625,-0.0718994140625 70.61810302734375,0.0740966796875 L70.61810302734375,0.0740966796875ZM71.57806396484375,3.3526611328125 L71.57806396484375,5.070556640625 L74.15765380859375,4.2115478515625 L71.57806396484375,3.3526611328125 L71.57806396484375,3.3526611328125ZM74.38507080078125,21.053466796875 C74.38507080078125,23.3748779296875 72.49591064453125,25.263916015625 70.17449951171875,25.263916015625 L61.75360107421875,25.263916015625 C60.97747802734375,25.263916015625 60.35015869140625,25.891357421875 60.35015869140625,26.66748046875 L60.35015869140625,35.08837890625 C60.35015869140625,35.864501953125 60.97747802734375,36.4918212890625 61.75360107421875,36.4918212890625 L68.77105712890625,36.4918212890625 C71.09246826171875,36.4918212890625 72.98150634765625,38.3809814453125 72.98150634765625,40.702392578125 L72.98150634765625,51.9302978515625 L68.77105712890625,51.9302978515625 L68.77105712890625,42.1058349609375 C68.77105712890625,41.3297119140625 68.14373779296875,40.702392578125 67.36761474609375,40.702392578125 L57.54315185546875,40.702392578125 C56.76702880859375,40.702392578125 56.13970947265625,41.3297119140625 56.13970947265625,42.1058349609375 L56.13970947265625,60.3511962890625 L51.92913818359375,60.3511962890625 L51.92913818359375,28.0709228515625 C51.92913818359375,27.5389404296875 51.62884521484375,27.0533447265625 51.15301513671875,26.8148193359375 C50.67864990234375,26.5789794921875 50.10748291015625,26.628173828125 49.68365478515625,26.9481201171875 L44.06964111328125,31.1585693359375 C43.94195556640625,31.252685546875 43.83099365234375,31.369140625 43.74407958984375,31.50244140625 L39.29779052734375,38.171875 L38.11041259765625,36.389404296875 L41.82403564453125,28.960693359375 L49.63031005859375,22.4569091796875 L52.38250732421875,22.4569091796875 L54.83575439453125,28.591552734375 C55.05059814453125,29.125 55.56561279296875,29.474365234375 56.13970947265625,29.474365234375 C56.71368408203125,29.474365234375 57.22882080078125,29.125 57.44354248046875,28.591552734375 L59.89678955078125,22.4569091796875 L70.17449951171875,22.4569091796875 C70.95074462890625,22.4569091796875 71.57806396484375,21.82958984375 71.57806396484375,21.053466796875 L71.57806396484375,14.0360107421875 L74.38507080078125,14.0360107421875 L74.38507080078125,21.053466796875 L74.38507080078125,21.053466796875ZM56.13958740234375,24.292724609375 L56.87359619140625,22.4569091796875 L55.40557861328125,22.4569091796875 L56.13958740234375,24.292724609375 L56.13958740234375,24.292724609375ZM40.70123291015625,60.3511962890625 C39.92510986328125,60.3511962890625 39.29779052734375,60.9786376953125 39.29779052734375,61.7547607421875 L39.29779052734375,68.772216796875 L32.28033447265625,68.772216796875 L32.28033447265625,57.5443115234375 C32.28033447265625,53.6748046875 29.13226318359375,50.52685546875 25.26287841796875,50.52685546875 L19.64886474609375,50.52685546875 L19.64886474609375,46.531005859375 L27.87054443359375,47.705810546875 C28.15399169921875,47.7464599609375 28.44036865234375,47.69873046875 28.69720458984375,47.571044921875 L39.92510986328125,41.95703125 C40.13006591796875,41.8546142578125 40.29144287109375,41.6988525390625 40.42193603515625,41.517822265625 C40.43316650390625,41.5023193359375 40.45416259765625,41.4967041015625 40.46539306640625,41.4813232421875 L45.94610595703125,33.2611083984375 L49.12213134765625,30.8779296875 L49.12213134765625,60.3511962890625 L40.70123291015625,60.3511962890625 L40.70123291015625,60.3511962890625ZM25.26287841796875,58.9476318359375 L25.26287841796875,68.7720947265625 L29.47332763671875,68.7720947265625 L29.47332763671875,57.544189453125 C29.47332763671875,55.2227783203125 27.58428955078125,53.333740234375 25.26287841796875,53.333740234375 L18.24542236328125,53.333740234375 C17.46929931640625,53.333740234375 16.84185791015625,52.706298828125 16.84185791015625,51.93017578125 L16.84185791015625,44.9127197265625 C16.84185791015625,44.5057373046875 17.01873779296875,44.1197509765625 17.32476806640625,43.850341796875 C17.63201904296875,43.5850830078125 18.04046630859375,43.462890625 18.44329833984375,43.5218505859375 L27.83270263671875,44.8636474609375 L37.24725341796875,40.15771484375 L36.82196044921875,39.5191650390625 L35.97003173828125,38.241943359375 L27.21929931640625,41.9920654296875 C26.90496826171875,42.1253662109375 26.54840087890625,42.1436767578125 26.22283935546875,42.03271484375 L18.01800537109375,39.298828125 L14.03497314453125,39.298828125 L14.03497314453125,49.1231689453125 L11.22796630859375,49.1231689453125 L11.22796630859375,39.298828125 L7.01751708984375,39.298828125 C4.69610595703125,39.298828125 2.8070068359375,41.1878662109375 2.8070068359375,43.50927734375 L2.8070068359375,57.544189453125 L5.61395263671875,57.544189453125 L5.61395263671875,44.9127197265625 L8.42095947265625,44.9127197265625 L8.42095947265625,77.1929931640625 L12.63140869140625,77.1929931640625 L12.63140869140625,58.9476318359375 C12.63140869140625,58.1715087890625 13.25885009765625,57.544189453125 14.03497314453125,57.544189453125 L23.85931396484375,57.544189453125 C24.63543701171875,57.544189453125 25.26287841796875,58.1715087890625 25.26287841796875,58.9476318359375 L25.26287841796875,58.9476318359375ZM58.94659423828125,51.93017578125 L65.96405029296875,51.93017578125 L65.96405029296875,43.50927734375 L58.94659423828125,43.50927734375 L58.94659423828125,51.93017578125 L58.94659423828125,51.93017578125ZM19.64886474609375,68.7720947265625 C18.87274169921875,68.7720947265625 18.24542236328125,69.3995361328125 18.24542236328125,70.1756591796875 L18.24542236328125,77.193115234375 L15.43841552734375,77.193115234375 L15.43841552734375,60.3511962890625 L22.45587158203125,60.3511962890625 L22.45587158203125,68.7720947265625 L19.64886474609375,68.7720947265625 L19.64886474609375,68.7720947265625Z"/>
    <rect id="rect-3" opacity="1" x="33.683772881223376" y="7.01852814524409" width="2.806981475532716" height="2.8069814755327123" rx="0" ry="0"/>
    <rect id="rect-4" opacity="1" x="28.069809930158044" y="7.01852814524409" width="2.8069814755327123" height="2.8069814755327123" rx="0" ry="0"/>
    <rect id="rect-5" opacity="1" x="22.455846979092257" y="7.01852814524409" width="2.8069814755327123" height="2.8069814755327123" rx="0" ry="0"/>
  </defs>
  <g opacity="1">
    <g opacity="1">
      <use xlink:href="#path-0" fill="rgb(250,153,23)" fill-opacity="1"/>
    </g>
    <g opacity="1">
      <use xlink:href="#path-1" fill="rgb(0,0,0)" fill-opacity="1"/>
    </g>
    <g opacity="1">
      <use xlink:href="#path-2" fill="rgb(0,0,0)" fill-opacity="1"/>
    </g>
    <g opacity="1">
      <use xlink:href="#rect-3" fill="rgb(250,153,23)" fill-opacity="1"/>
    </g>
    <g opacity="1">
      <use xlink:href="#rect-4" fill="rgb(250,153,23)" fill-opacity="1"/>
    </g>
    <g opacity="1">
      <use xlink:href="#rect-5" fill="rgb(250,153,23)" fill-opacity="1"/>
    </g>
  </g>
</svg>