<?xml version="1.0" encoding="utf-8"?>
<svg version="1.1" xmlns="http://www.w3.org/2000/svg" xmlns:xlink="http://www.w3.org/1999/xlink" height="80" width="85.21403368617212">
  <defs>
    <path id="path-0" opacity="1" fill-rule="evenodd" d="M82.55109513347927,69.34824578922763 L45.269955395778936,69.34824578922763 C43.80001331469247,69.34824578922763 42.60701684308606,68.15524931762123 42.60701684308606,66.68530723653475 L42.60701684308606,13.426536182677237 C42.60701684308606,11.95659410159077 43.80001331469247,10.76359762998436 45.269955395778936,10.76359762998436 L82.55109513347927,10.76359762998436 C84.02103721456572,10.76359762998436 85.21403368617214,11.95659410159077 85.21403368617214,13.426536182677237 L85.21403368617214,66.68530723653475 C85.21403368617214,68.15524931762123 84.02103721456572,69.34824578922763 82.55109513347927,69.34824578922763Z"/>
    <path id="path-1" opacity="1" fill-rule="evenodd" d="M55.92170960655048,26.741228946141433 L45.26995539577894,26.741228946141433 C43.80001331469247,26.741228946141433 42.60701684308606,25.548232474535016 42.60701684308606,24.07829039344854 C42.60701684308606,22.608348312362065 43.80001331469247,21.415351840755648 45.26995539577894,21.415351840755648 L55.92170960655048,21.415351840755648 C57.391651687636944,21.415351840755648 58.58464815924336,22.608348312362065 58.58464815924336,24.07829039344854 C58.58464815924336,25.548232474535016 57.391651687636944,26.741228946141433 55.92170960655048,26.741228946141433Z"/>
    <path id="path-2" opacity="1" fill-rule="evenodd" d="M55.92170960655048,37.39298315691275 L45.26995539577894,37.39298315691275 C43.80001331469247,37.39298315691275 42.60701684308606,36.19998668530633 42.60701684308606,34.73004460421984 C42.60701684308606,33.260102523133355 43.80001331469247,32.067106051526935 45.26995539577894,32.067106051526935 L55.92170960655048,32.067106051526935 C57.391651687636944,32.067106051526935 58.58464815924336,33.260102523133355 58.58464815924336,34.73004460421984 C58.58464815924336,36.19998668530633 57.391651687636944,37.39298315691275 55.92170960655048,37.39298315691275Z"/>
    <path id="path-3" opacity="1" fill-rule="evenodd" d="M55.92170960655048,48.044737367684945 L45.26995539577894,48.044737367684945 C43.80001331469247,48.044737367684945 42.60701684308606,46.851740896078525 42.60701684308606,45.38179881499204 C42.60701684308606,43.91185673390555 43.80001331469247,42.71886026229913 45.26995539577894,42.71886026229913 L55.92170960655048,42.71886026229913 C57.391651687636944,42.71886026229913 58.58464815924336,43.91185673390555 58.58464815924336,45.38179881499204 C58.58464815924336,46.851740896078525 57.391651687636944,48.044737367684945 55.92170960655048,48.044737367684945Z"/>
    <path id="path-4" opacity="1" fill-rule="evenodd" d="M55.92170960655048,58.69649157845623 L45.26995539577894,58.69649157845623 C43.80001331469247,58.69649157845623 42.60701684308606,57.50349510684981 42.60701684308606,56.033553025763325 C42.60701684308606,54.56361094467684 43.80001331469247,53.37061447307042 45.26995539577894,53.37061447307042 L55.92170960655048,53.37061447307042 C57.391651687636944,53.37061447307042 58.58464815924336,54.56361094467684 58.58464815924336,56.033553025763325 C58.58464815924336,57.50349510684981 57.391651687636944,58.69649157845623 55.92170960655048,58.69649157845623Z"/>
    <path id="path-5" opacity="1" fill-rule="evenodd" d="M71.89934092270772,26.741228946141433 L66.57346381732197,26.741228946141433 C65.10352173623549,26.741228946141433 63.91052526462909,25.548232474535016 63.91052526462909,24.07829039344854 C63.91052526462909,22.608348312362065 65.10352173623549,21.415351840755648 66.57346381732197,21.415351840755648 L71.89934092270772,21.415351840755648 C73.3692830037942,21.415351840755648 74.5622794754006,22.608348312362065 74.5622794754006,24.07829039344854 C74.5622794754006,25.548232474535016 73.3692830037942,26.741228946141433 71.89934092270772,26.741228946141433Z"/>
    <path id="path-6" opacity="1" fill-rule="evenodd" d="M71.89934092270772,37.39298315691275 L66.57346381732197,37.39298315691275 C65.10352173623549,37.39298315691275 63.91052526462909,36.19998668530633 63.91052526462909,34.73004460421984 C63.91052526462909,33.260102523133355 65.10352173623549,32.067106051526935 66.57346381732197,32.067106051526935 L71.89934092270772,32.067106051526935 C73.3692830037942,32.067106051526935 74.5622794754006,33.260102523133355 74.5622794754006,34.73004460421984 C74.5622794754006,36.19998668530633 73.3692830037942,37.39298315691275 71.89934092270772,37.39298315691275Z"/>
    <path id="path-7" opacity="1" fill-rule="evenodd" d="M71.89934092270772,48.044737367684945 L66.57346381732197,48.044737367684945 C65.10352173623549,48.044737367684945 63.91052526462909,46.851740896078525 63.91052526462909,45.38179881499204 C63.91052526462909,43.91185673390555 65.10352173623549,42.71886026229913 66.57346381732197,42.71886026229913 L71.89934092270772,42.71886026229913 C73.3692830037942,42.71886026229913 74.5622794754006,43.91185673390555 74.5622794754006,45.38179881499204 C74.5622794754006,46.851740896078525 73.3692830037942,48.044737367684945 71.89934092270772,48.044737367684945Z"/>
    <path id="path-8" opacity="1" fill-rule="evenodd" d="M71.89934092270772,58.69649157845623 L66.57346381732197,58.69649157845623 C65.10352173623549,58.69649157845623 63.91052526462909,57.50349510684981 63.91052526462909,56.033553025763325 C63.91052526462909,54.56361094467684 65.10352173623549,53.37061447307042 66.57346381732197,53.37061447307042 L71.89934092270772,53.37061447307042 C73.3692830037942,53.37061447307042 74.5622794754006,54.56361094467684 74.5622794754006,56.033553025763325 C74.5622794754006,57.50349510684981 73.3692830037942,58.69649157845623 71.89934092270772,58.69649157845623Z"/>
    <path id="path-9" opacity="1" fill-rule="evenodd" d="M46.968910192397026,0.7243192863324633 C46.361760202383046,0.21836096132081623 45.54690100525903,0 44.77997470208348,0.15977631316157256 L2.1729578589973975,8.148591971240213 C0.910724985020965,8.382930563877185 0,9.480061247586653 0,10.76359762998462 L0,69.34824578922797 C0,70.62645629452055 0.910724985020965,71.7289128553354 2.17295785899739,71.96325144797237 L44.77997470208347,79.95206710605102 C44.939751015245044,79.98402236868333 45.104853205512,79.99999999999949 45.269955395778965,79.99999999999949 C45.88775714000371,79.99999999999949 46.489581252912295,79.78696491578407 46.968910192397026,79.38752413288013 C47.58138605951639,78.88156580786848 47.93289394847184,78.1252912589037 47.93289394847184,77.33706144730661 L47.93289394847184,2.774781971905975 C47.93289394847184,1.981226283203497 47.581386059516376,1.230277611344105 46.968910192397026,0.7243192863324633Z"/>
    <path id="path-10" opacity="1" fill-rule="evenodd" d="M36.620730976632515,48.955462352705766 L28.20051927301761,39.33160242327382 L36.716596764529456,28.381599094600844 C37.62199587244504,27.220557885626764 37.40896078822961,25.54823247453566 36.2532454563609,24.642833366620092 C35.09753012449219,23.737434258704525 33.42520471340106,23.950469342919952 32.51447972838008,25.106184674788643 L24.626855735303756,35.246654683443 L17.980161107782315,27.651953931163003 C17.00552559749672,26.53351973903201 15.322548432194814,26.43232807402968 14.225417748485345,27.40163770720988 C13.117635310565102,28.370947340390074 13.005791891352002,30.053924505691953 13.975101524532212,31.15638106650679 L21.29818254443765,39.528659876173094 L13.873909859529885,49.072631649024245 C12.968510751614303,50.23367285799833 13.181545835829734,51.90599826908944 14.337261167698447,52.81139737700501 C14.82724186139394,53.18953465148739 15.407762465880989,53.3706144730705 15.977631316157265,53.3706144730705 C16.771187004859744,53.3706144730705 17.554090939351454,53.01910658411504 18.081352772784644,52.34272019173107 L24.8718460821515,43.60828173889854 L32.615671393382414,52.45456361094416 C33.14293322681561,53.061713600958136 33.87790426735884,53.3706144730705 34.618201185007464,53.3706144730705 C35.241328806337606,53.3706144730705 35.86445642766773,53.15225351174969 36.37041475267938,52.710205712002676 C37.47819719059962,51.74089607882247 37.590040609812725,50.05791891352061 36.620730976632515,48.955462352705766Z"/>
  </defs>
  <g opacity="1">
    <g opacity="1">
      <use xlink:href="#path-0" fill="rgb(236,239,241)" fill-opacity="1"/>
    </g>
    <g opacity="1">
      <g opacity="1">
        <use xlink:href="#path-1" fill="rgb(56,142,60)" fill-opacity="1"/>
      </g>
      <g opacity="1">
        <use xlink:href="#path-2" fill="rgb(56,142,60)" fill-opacity="1"/>
      </g>
      <g opacity="1">
        <use xlink:href="#path-3" fill="rgb(56,142,60)" fill-opacity="1"/>
      </g>
      <g opacity="1">
        <use xlink:href="#path-4" fill="rgb(56,142,60)" fill-opacity="1"/>
      </g>
      <g opacity="1">
        <use xlink:href="#path-5" fill="rgb(56,142,60)" fill-opacity="1"/>
      </g>
      <g opacity="1">
        <use xlink:href="#path-6" fill="rgb(56,142,60)" fill-opacity="1"/>
      </g>
      <g opacity="1">
        <use xlink:href="#path-7" fill="rgb(56,142,60)" fill-opacity="1"/>
      </g>
      <g opacity="1">
        <use xlink:href="#path-8" fill="rgb(56,142,60)" fill-opacity="1"/>
      </g>
    </g>
    <g opacity="1">
      <use xlink:href="#path-9" fill="rgb(46,125,50)" fill-opacity="1"/>
    </g>
    <g opacity="1">
      <use xlink:href="#path-10" fill="rgb(250,250,250)" fill-opacity="1"/>
    </g>
  </g>
</svg>