<?xml version="1.0" encoding="utf-8"?>
<svg version="1.1" xmlns="http://www.w3.org/2000/svg" xmlns:xlink="http://www.w3.org/1999/xlink" height="80" width="79.9359130859375">
  <defs>
    <path id="path-0" opacity="1" fill-rule="evenodd" d="M40.02410888671875,47.980712890625 C40.88836669921875,47.980712890625 41.58905029296875,47.2799072265625 41.58905029296875,46.4156494140625 L41.58905029296875,45.1680908203125 C42.39959716796875,44.64990234375 42.93914794921875,43.744140625 42.93914794921875,42.712646484375 C42.93914794921875,41.1055908203125 41.63177490234375,39.797607421875 40.02410888671875,39.797607421875 C38.417022705078125,39.797607421875 37.109039306640625,41.1055908203125 37.109039306640625,42.712646484375 C37.109039306640625,43.744140625 37.649200439453125,44.64990234375 38.459136962890625,45.1680908203125 L38.459136962890625,46.4156494140625 C38.459136962890625,47.2799072265625 39.15985107421875,47.980712890625 40.02410888671875,47.980712890625 L40.02410888671875,47.980712890625ZM40.02410888671875,42.4979248046875 C40.14251708984375,42.4979248046875 40.23895263671875,42.5943603515625 40.23895263671875,42.7127685546875 C40.23895263671875,42.8311767578125 40.14251708984375,42.9276123046875 40.02410888671875,42.9276123046875 C39.90570068359375,42.9276123046875 39.80987548828125,42.8311767578125 39.80987548828125,42.7127685546875 C39.80987548828125,42.5943603515625 39.90570068359375,42.4979248046875 40.02410888671875,42.4979248046875 L40.02410888671875,42.4979248046875Z"/>
    <path id="path-1" opacity="1" fill-rule="evenodd" d="M67.4071044921875,30.183349609375 C60.8079833984375,30.183349609375 55.38800048828125,35.3121337890625 54.91497802734375,41.79296875 L49.9619140625,41.79296875 L49.9619140625,36.4486083984375 C49.9619140625,35.5843505859375 49.26123046875,34.8836669921875 48.39697265625,34.8836669921875 L47.634033203125,34.8836669921875 C47.05419921875,31.3936767578125 44.574920654296875,28.6300048828125 41.42669677734375,27.9549560546875 L41.42669677734375,24.966064453125 C43.253509521484375,24.7469482421875 44.961273193359375,24.1353759765625 46.4603271484375,23.21484375 C46.5238037109375,23.1763916015625 46.5653076171875,23.1495361328125 46.5970458984375,23.1275634765625 C46.59588623046875,23.12646484375 52.45526123046875,16.984130859375 52.45526123046875,12.5294189453125 C52.45526123046875,5.6207275390625 46.83447265625,0 39.92584228515625,0 C33.0172119140625,0 27.396453857421875,5.6207275390625 27.396453857421875,12.5294189453125 C27.396453857421875,16.9544677734375 29.704193115234375,20.8485107421875 33.3583984375,23.2069091796875 C33.33319091796875,23.190185546875 33.44805908203125,23.2410888671875 33.659271240234375,23.334716796875 C34.486785888671875,23.7015380859375 36.793365478515625,24.7239990234375 37.95257568359375,24.9019775390625 C38.03985595703125,24.916015625 38.12774658203125,24.927001953125 38.29681396484375,24.9508056640625 C38.24249267578125,24.94287109375 38.29681396484375,27.986083984375 38.29681396484375,27.986083984375 C35.216339111328125,28.71240234375 32.8017578125,31.4461669921875 32.2310791015625,34.8836669921875 L31.3271484375,34.8836669921875 C30.462890625,34.8836669921875 29.762176513671875,35.5843505859375 29.762176513671875,36.4486083984375 L29.762176513671875,41.79296875 L24.95745849609375,41.79296875 C24.18414306640625,35.620361328125 18.907623291015625,30.827880859375 12.529388427734375,30.827880859375 C5.620758056640625,30.827880859375 0,36.4486083984375 0,43.35791015625 C0,47.807373046875 2.333404541015625,51.7197265625 5.838653564453125,53.9432373046875 C5.877105712890625,53.9713134765625 5.914947509765625,54 5.955841064453125,54.0250244140625 C6.1312255859375,54.1314697265625 6.3060302734375,54.2303466796875 6.64996337890625,54.4169921875 L6.65753173828125,54.4210205078125 C6.664276123046875,54.4246826171875 6.671051025390625,54.428466796875 6.678192138671875,54.431640625 C6.74761962890625,54.4671630859375 6.936065673828125,54.5635986328125 7.153961181640625,54.67138671875 C7.17071533203125,54.677978515625 7.221221923828125,54.701416015625 7.27685546875,54.727294921875 C7.341949462890625,54.7574462890625 7.414093017578125,54.791015625 7.44696044921875,54.8056640625 C7.56903076171875,54.8599853515625 7.69110107421875,54.9130859375 7.81500244140625,54.963134765625 C7.921905517578125,55.007080078125 8.0294189453125,55.0499267578125 8.30859375,55.15283203125 C8.315277099609375,55.1552734375 8.322052001953125,55.15771484375 8.3291015625,55.1597900390625 C8.405792236328125,55.18603515625 8.65399169921875,55.27197265625 8.8297119140625,55.3284912109375 C8.832489013671875,55.329345703125 8.835235595703125,55.330322265625 8.838134765625,55.33056640625 C8.894927978515625,55.3466796875 9.228607177734375,55.445556640625 9.4635009765625,55.5059814453125 L9.471771240234375,55.508056640625 C9.52178955078125,55.52001953125 9.784576416015625,55.5830078125 9.90240478515625,55.607666015625 C9.9576416015625,55.61962890625 10.012298583984375,55.6317138671875 10.480224609375,55.716796875 C10.435821533203125,55.7078857421875 10.5426025390625,55.7196044921875 10.731781005859375,55.740478515625 C11.17333984375,55.7891845703125 12.063873291015625,55.88720703125 12.528778076171875,55.88720703125 C14.73828125,55.88720703125 16.8140869140625,55.309814453125 18.618316650390625,54.3021240234375 C18.942413330078125,54.12939453125 19.137725830078125,54.0042724609375 19.254913330078125,53.9200439453125 C19.250396728515625,53.91552734375 24.485809326171875,48.6844482421875 24.95745849609375,44.9222412109375 L29.761566162109375,44.9222412109375 L29.761566162109375,51.025146484375 C29.761566162109375,51.889404296875 30.462890625,52.590087890625 31.3265380859375,52.590087890625 L38.29681396484375,52.590087890625 L38.29681396484375,55.0528564453125 C32.163330078125,55.861083984375 27.412322998046875,61.119873046875 27.412322998046875,67.4705810546875 C27.412322998046875,71.9189453125 29.744476318359375,75.8306884765625 33.24853515625,78.0548095703125 C33.285614013671875,78.08203125 33.322723388671875,78.1103515625 33.826385498046875,78.4005126953125 C33.916015625,78.4486083984375 34.1243896484375,78.561279296875 34.30712890625,78.6566162109375 L34.3150634765625,78.6607666015625 C34.33026123046875,78.668701171875 34.34527587890625,78.676513671875 34.3604736328125,78.6832275390625 C34.433135986328125,78.7193603515625 34.559234619140625,78.7821044921875 34.604766845703125,78.8037109375 C34.698760986328125,78.8482666015625 34.792144775390625,78.88916015625 34.885528564453125,78.9306640625 C34.987060546875,78.97607421875 35.088623046875,79.0196533203125 35.48260498046875,79.1767578125 L35.506744384765625,79.1864013671875 L35.561798095703125,79.2083740234375 C35.626220703125,79.2313232421875 35.709381103515625,79.2626953125 35.735137939453125,79.2718505859375 C35.873016357421875,79.3214111328125 36.010894775390625,79.367431640625 36.2396240234375,79.4412841796875 C36.241729736328125,79.4420166015625 36.243865966796875,79.442626953125 36.246185302734375,79.4427490234375 C36.296966552734375,79.4569091796875 36.63177490234375,79.5572509765625 36.785552978515625,79.59716796875 C36.815460205078125,79.6051025390625 36.845977783203125,79.61181640625 36.875274658203125,79.619140625 C37.025421142578125,79.656982421875 37.174346923828125,79.691162109375 37.322052001953125,79.722900390625 C37.3729248046875,79.733642578125 37.423797607421875,79.7449951171875 37.89215087890625,79.8294677734375 C37.857696533203125,79.822265625 37.9595947265625,79.8333740234375 38.137725830078125,79.85302734375 C38.575653076171875,79.901123046875 39.4744873046875,80 39.94110107421875,80 C42.14874267578125,80 44.223358154296875,79.423828125 46.0263671875,78.41796875 C46.3529052734375,78.243408203125 46.5494384765625,78.11767578125 46.66845703125,78.0328369140625 C46.6680908203125,78.032470703125 46.68243408203125,78.0167236328125 46.71331787109375,77.98291015625 C47.25250244140625,77.3905029296875 52.47052001953125,71.65771484375 52.47052001953125,67.4705810546875 C52.47052001953125,61.06494140625 47.6370849609375,55.76953125 41.42608642578125,55.0321044921875 L41.42608642578125,52.590087890625 L43.616668701171875,52.590087890625 C44.480926513671875,52.590087890625 45.181640625,51.889404296875 45.181640625,51.025146484375 C45.181640625,50.160888671875 44.480926513671875,49.460205078125 43.616668701171875,49.460205078125 L32.890869140625,49.460205078125 L32.890869140625,38.0135498046875 L46.8314208984375,38.0135498046875 L46.8314208984375,46.113037109375 C46.8314208984375,46.9766845703125 47.5321044921875,47.6773681640625 48.395751953125,47.6773681640625 C49.260009765625,47.6773681640625 49.960693359375,46.9766845703125 49.960693359375,46.113037109375 L49.960693359375,44.9222412109375 L55.07611083984375,44.9222412109375 C55.70477294921875,48.4384765625 57.80316162109375,51.449951171875 60.8330078125,53.3804931640625 C60.7938232421875,53.353759765625 60.878173828125,53.403076171875 61.00396728515625,53.476806640625 L61.0125732421875,53.4818115234375 C61.13458251953125,53.55322265625 61.2864990234375,53.6422119140625 61.375,53.6905517578125 C61.42919921875,53.7205810546875 61.4844970703125,53.75 61.7723388671875,53.898193359375 L61.8062744140625,53.9156494140625 L61.8255615234375,53.92529296875 C61.89813232421875,53.96142578125 62.0240478515625,54.02392578125 62.069580078125,54.045166015625 C62.15850830078125,54.0870361328125 62.246826171875,54.1265869140625 62.6197509765625,54.287353515625 L62.62542724609375,54.289794921875 C62.64239501953125,54.297119140625 62.659912109375,54.3046875 62.67877197265625,54.310791015625 C62.78326416015625,54.352294921875 63.005859375,54.441162109375 63.17987060546875,54.5059814453125 C63.18707275390625,54.5086669921875 63.19415283203125,54.5113525390625 63.201416015625,54.5133056640625 C63.27655029296875,54.5389404296875 63.53143310546875,54.6270751953125 63.71221923828125,54.684814453125 C63.70751953125,54.6839599609375 64.10333251953125,54.800048828125 64.33697509765625,54.8599853515625 L64.3443603515625,54.8616943359375 C64.39306640625,54.873291015625 64.6737060546875,54.9398193359375 64.92730712890625,54.9940185546875 C64.93341064453125,54.995361328125 64.939453125,54.99658203125 64.94573974609375,54.9970703125 C65.0167236328125,55.010009765625 65.2735595703125,55.0589599609375 65.3831787109375,55.0760498046875 C66.0423583984375,55.1834716796875 66.7174072265625,55.2420654296875 67.4058837890625,55.2420654296875 C69.61541748046875,55.2420654296875 71.69183349609375,54.6646728515625 73.49603271484375,53.656982421875 C73.81951904296875,53.4842529296875 74.01483154296875,53.359130859375 74.13262939453125,53.2755126953125 C74.13226318359375,53.275146484375 74.1466064453125,53.2593994140625 74.177490234375,53.2255859375 C74.71673583984375,52.6331787109375 79.9359130859375,46.9000244140625 79.9359130859375,42.712158203125 C79.9365234375,35.8040771484375 74.31573486328125,30.183349609375 67.4071044921875,30.183349609375 L67.4071044921875,30.183349609375ZM33.846710205078125,15.816162109375 C33.301666259765625,16.6651611328125 32.929351806640625,17.6026611328125 32.741973876953125,18.582275390625 C31.3607177734375,16.9453125 30.5257568359375,14.83349609375 30.5257568359375,12.5294189453125 C30.5263671875,7.34619140625 34.742706298828125,3.1298828125 39.92584228515625,3.1298828125 C45.1090087890625,3.1298828125 49.3253173828125,7.34619140625 49.3253173828125,12.5294189453125 C49.3253173828125,14.8182373046875 48.501953125,16.9178466796875 47.1378173828125,18.5499267578125 C46.94677734375,17.5751953125 46.572021484375,16.6419677734375 46.0263671875,15.7978515625 C45.4654541015625,14.9305419921875 44.65185546875,14.29150390625 43.716156005859375,13.947265625 C43.808319091796875,13.615234375 43.858978271484375,13.2667236328125 43.858978271484375,12.906005859375 L43.858978271484375,11.15478515625 C43.858978271484375,9.01123046875 42.114593505859375,7.2674560546875 39.97100830078125,7.2674560546875 C37.82745361328125,7.2674560546875 36.083038330078125,9.01123046875 36.083038330078125,11.15478515625 L36.083038330078125,12.906005859375 C36.083038330078125,13.2618408203125 36.131866455078125,13.6060791015625 36.222198486328125,13.933837890625 C35.257232666015625,14.2744140625 34.418609619140625,14.9256591796875 33.846710205078125,15.816162109375 L33.846710205078125,15.816162109375ZM40.72906494140625,12.906005859375 L40.72906494140625,11.1549072265625 C40.72906494140625,10.7374267578125 40.38848876953125,10.3974609375 39.97100830078125,10.3974609375 C39.55291748046875,10.3974609375 39.21234130859375,10.7374267578125 39.21234130859375,11.1549072265625 L39.21234130859375,12.906005859375 C39.21234130859375,13.3143310546875 39.53765869140625,13.645751953125 39.94171142578125,13.6610107421875 L40.00030517578125,13.6610107421875 C40.40435791015625,13.6451416015625 40.72906494140625,13.313720703125 40.72906494140625,12.906005859375 L40.72906494140625,12.906005859375ZM36.703155517578125,21.358154296875 L36.675262451171875,21.3475341796875 L36.560333251953125,21.3038330078125 C36.485260009765625,21.275146484375 36.410186767578125,21.245849609375 36.335723876953125,21.21533203125 C36.291778564453125,21.197021484375 36.247222900390625,21.1781005859375 36.203277587890625,21.1585693359375 C36.090972900390625,21.1103515625 35.979888916015625,21.0609130859375 35.870025634765625,21.0078125 C35.862701416015625,21.004150390625 35.854766845703125,21.0010986328125 35.847442626953125,20.9974365234375 C35.808380126953125,20.978515625 35.770538330078125,20.9571533203125 35.732086181640625,20.938232421875 L35.730255126953125,20.0684814453125 C35.729034423828125,19.1590576171875 35.988433837890625,18.2734375 36.479766845703125,17.5074462890625 C36.766632080078125,17.0618896484375 37.253692626953125,16.7945556640625 37.78411865234375,16.7939453125 L39.86114501953125,16.7908935546875 C39.89776611328125,16.7921142578125 39.93377685546875,16.7939453125 39.97100830078125,16.7939453125 C40.01190185546875,16.7939453125 40.05340576171875,16.7921142578125 40.09490966796875,16.7908935546875 L42.092010498046875,16.7872314453125 C42.621795654296875,16.78662109375 43.110687255859375,17.0521240234375 43.398162841796875,17.4970703125 C43.891937255859375,18.26123046875 44.154388427734375,19.1456298828125 44.155609130859375,20.0556640625 L44.156829833984375,20.9052734375 C42.870819091796875,21.5211181640625 40.00885009765625,22.5343017578125 36.766021728515625,21.38134765625 L36.749542236328125,21.3758544921875 C36.749603271484375,21.3756103515625 36.7373046875,21.3709716796875 36.718505859375,21.3638916015625 L36.703155517578125,21.358154296875 L36.703155517578125,21.358154296875ZM39.93194580078125,30.9249267578125 C37.80181884765625,30.9249267578125 35.998809814453125,32.597900390625 35.423248291015625,34.8836669921875 L44.441253662109375,34.8836669921875 C43.865081787109375,32.597900390625 42.062713623046875,30.9249267578125 39.93194580078125,30.9249267578125 L39.93194580078125,30.9249267578125ZM74.61785888671875,48.7344970703125 C74.42803955078125,47.7628173828125 74.05572509765625,46.8326416015625 73.51312255859375,45.9903564453125 C72.95220947265625,45.119384765625 72.13555908203125,44.478515625 71.19622802734375,44.133056640625 C71.28900146484375,43.8004150390625 71.33966064453125,43.45068359375 71.33966064453125,43.08935546875 L71.33966064453125,41.338134765625 C71.33966064453125,39.194580078125 69.5958251953125,37.4508056640625 67.45166015625,37.4508056640625 C65.30810546875,37.4508056640625 63.5643310546875,39.194580078125 63.5643310546875,41.338134765625 L63.5643310546875,43.08935546875 C63.5643310546875,43.4439697265625 63.612548828125,43.78759765625 63.7022705078125,44.1141357421875 C62.7403564453125,44.4547119140625 61.90472412109375,45.103515625 61.33282470703125,45.9903564453125 C60.78472900390625,46.8411865234375 60.40997314453125,47.78173828125 60.22198486328125,48.764404296875 C58.84136962890625,47.1280517578125 58.00701904296875,45.0162353515625 58.00701904296875,42.7127685546875 C58.00701904296875,37.529541015625 62.2239990234375,33.313232421875 67.4071044921875,33.313232421875 C72.58966064453125,33.313232421875 76.80657958984375,37.529541015625 76.80657958984375,42.7127685546875 C76.80657958984375,45.002197265625 75.98321533203125,47.1024169921875 74.61785888671875,48.7344970703125 L74.61785888671875,48.7344970703125ZM19.740142822265625,49.3790283203125 C19.549713134765625,48.407958984375 19.178009033203125,47.4771728515625 18.635406494140625,46.6348876953125 C18.073883056640625,45.7645263671875 17.257843017578125,45.123046875 16.3184814453125,44.7781982421875 C16.4112548828125,44.445556640625 16.4619140625,44.0958251953125 16.4619140625,43.73388671875 L16.4619140625,41.9833984375 C16.4619140625,39.8397216796875 14.717529296875,38.0953369140625 12.573944091796875,38.0953369140625 C10.430389404296875,38.0953369140625 8.68658447265625,39.8397216796875 8.68658447265625,41.9833984375 L8.68658447265625,43.73388671875 C8.68658447265625,44.089111328125 8.73480224609375,44.43212890625 8.82452392578125,44.75927734375 C7.86322021484375,45.0992431640625 7.02703857421875,45.7486572265625 6.45513916015625,46.6348876953125 C5.90704345703125,47.486328125 5.53289794921875,48.4268798828125 5.34429931640625,49.4095458984375 C3.963653564453125,47.7725830078125 3.129302978515625,45.661376953125 3.129302978515625,43.35791015625 C3.129302978515625,38.1746826171875 7.34564208984375,33.957763671875 12.528778076171875,33.957763671875 C17.711944580078125,33.957763671875 21.92889404296875,38.1746826171875 21.92889404296875,43.35791015625 C21.92889404296875,45.6473388671875 21.10552978515625,47.7469482421875 19.740142822265625,49.3790283203125 L19.740142822265625,49.3790283203125ZM66.693603515625,41.3382568359375 L66.693603515625,43.08935546875 C66.693603515625,43.4976806640625 67.0189208984375,43.8291015625 67.423583984375,43.8443603515625 L67.48095703125,43.8443603515625 C67.885009765625,43.8291015625 68.2103271484375,43.4976806640625 68.2103271484375,43.08935546875 L68.2103271484375,41.3382568359375 C68.2103271484375,40.920166015625 67.8697509765625,40.5802001953125 67.4522705078125,40.5802001953125 C67.0341796875,40.5802001953125 66.693603515625,40.920166015625 66.693603515625,41.3382568359375 L66.693603515625,41.3382568359375ZM11.816497802734375,43.73388671875 L11.816497802734375,41.9833984375 C11.816497802734375,41.5653076171875 12.156463623046875,41.225341796875 12.573944091796875,41.225341796875 C12.992645263671875,41.225341796875 13.332611083984375,41.5653076171875 13.332611083984375,41.9833984375 L13.332611083984375,43.73388671875 C13.332611083984375,44.1422119140625 13.007293701171875,44.4736328125 12.603240966796875,44.4888916015625 L12.545867919921875,44.4888916015625 C12.141204833984375,44.4736328125 11.816497802734375,44.1422119140625 11.816497802734375,43.73388671875 L11.816497802734375,43.73388671875ZM71.63568115234375,51.09228515625 C70.21783447265625,51.7630615234375 66.854736328125,52.92578125 63.2103271484375,51.119140625 L63.2103271484375,50.2451171875 C63.2103271484375,49.335693359375 63.470947265625,48.4500732421875 63.9635009765625,47.6859130859375 C64.2509765625,47.2403564453125 64.7386474609375,46.9742431640625 65.26904296875,46.9742431640625 L67.33758544921875,46.9742431640625 C67.37542724609375,46.9754638671875 67.41387939453125,46.977294921875 67.45172119140625,46.977294921875 C67.49017333984375,46.977294921875 67.52801513671875,46.9754638671875 67.56646728515625,46.9742431640625 L69.57696533203125,46.9742431640625 C70.10736083984375,46.9742431640625 70.59503173828125,47.23974609375 70.88189697265625,47.6859130859375 C71.37506103515625,48.45068359375 71.63568115234375,49.335693359375 71.63568115234375,50.2451171875 L71.63568115234375,51.09228515625 L71.63568115234375,51.09228515625ZM12.459808349609375,47.6187744140625 L10.391326904296875,47.6187744140625 C9.86151123046875,47.6187744140625 9.37322998046875,47.8848876953125 9.08575439453125,48.3304443359375 C8.59320068359375,49.09521484375 8.33258056640625,49.9808349609375 8.33258056640625,50.8902587890625 L8.33258056640625,51.7642822265625 C11.986785888671875,53.5794677734375 15.335205078125,52.41796875 16.7579345703125,51.7398681640625 L16.7579345703125,50.8902587890625 C16.7579345703125,49.980224609375 16.497314453125,49.09521484375 16.004150390625,48.3304443359375 C15.71728515625,47.8848876953125 15.22900390625,47.6187744140625 14.69921875,47.6187744140625 L12.688690185546875,47.6187744140625 C12.650238037109375,47.6199951171875 12.612396240234375,47.621826171875 12.573944091796875,47.621826171875 C12.535491943359375,47.621826171875 12.497650146484375,47.6199951171875 12.459808349609375,47.6187744140625 L12.459808349609375,47.6187744140625ZM47.1524658203125,73.492431640625 C48.517822265625,71.8603515625 49.341796875,69.7607421875 49.341796875,67.4713134765625 C49.341796875,62.2880859375 45.1248779296875,58.0711669921875 39.94171142578125,58.0711669921875 C34.758575439453125,58.0711669921875 30.542236328125,62.2880859375 30.542236328125,67.470703125 C30.542236328125,69.7747802734375 31.3765869140625,71.885986328125 32.757232666015625,73.52294921875 C32.945220947265625,72.540283203125 33.319366455078125,71.5997314453125 33.867462158203125,70.748291015625 C34.439361572265625,69.8614501953125 35.275543212890625,69.212646484375 36.236846923828125,68.8726806640625 C36.147735595703125,68.546142578125 36.098907470703125,68.2025146484375 36.098907470703125,67.8472900390625 L36.098907470703125,66.0966796875 C36.098907470703125,63.953125 37.84332275390625,62.208740234375 39.98687744140625,62.208740234375 C42.130462646484375,62.208740234375 43.874847412109375,63.953125 43.874847412109375,66.0966796875 L43.874847412109375,67.8472900390625 C43.874847412109375,68.209228515625 43.823577880859375,68.5589599609375 43.730804443359375,68.8916015625 C44.6707763671875,69.2364501953125 45.48681640625,69.8779296875 46.0477294921875,70.7489013671875 C46.59033203125,71.590576171875 46.962646484375,72.520751953125 47.1524658203125,73.492431640625 L47.1524658203125,73.492431640625ZM39.22882080078125,67.8477783203125 L39.22882080078125,66.0966796875 C39.22882080078125,65.6785888671875 39.56878662109375,65.338623046875 39.98687744140625,65.338623046875 C40.40496826171875,65.338623046875 40.74493408203125,65.6785888671875 40.74493408203125,66.0966796875 L40.74493408203125,67.8477783203125 C40.74493408203125,68.256103515625 40.42022705078125,68.5875244140625 40.01556396484375,68.602783203125 L39.95819091796875,68.602783203125 C39.55352783203125,68.5875244140625 39.22882080078125,68.256103515625 39.22882080078125,67.8477783203125 L39.22882080078125,67.8477783203125ZM35.745513916015625,75.878173828125 C39.39910888671875,77.6927490234375 42.748138427734375,76.5318603515625 44.170257568359375,75.853759765625 L44.170257568359375,75.0035400390625 C44.170257568359375,74.0941162109375 43.909637451171875,73.2091064453125 43.417083740234375,72.4443359375 C43.129608154296875,71.9981689453125 42.641937255859375,71.732666015625 42.111541748046875,71.732666015625 L40.10101318359375,71.732666015625 C40.06317138671875,71.73388671875 40.02532958984375,71.735107421875 39.98687744140625,71.735107421875 C39.94842529296875,71.735107421875 39.91058349609375,71.7332763671875 39.87213134765625,71.732666015625 L37.80364990234375,71.732666015625 C37.273834228515625,71.732666015625 36.785552978515625,71.9981689453125 36.498687744140625,72.4437255859375 C36.006134033203125,73.20849609375 35.745513916015625,74.0941162109375 35.745513916015625,75.0035400390625 L35.745513916015625,75.878173828125 L35.745513916015625,75.878173828125Z"/>
    <path id="path-2" opacity="1" fill-rule="evenodd" d="M46.81982421875,51.5006103515625 C46.4957275390625,50.69921875 46.8826904296875,49.7867431640625 47.6834716796875,49.462646484375 C48.4842529296875,49.1385498046875 49.396728515625,49.5255126953125 49.7208251953125,50.326904296875 L49.743408203125,50.3812255859375 C50.06689453125,51.1826171875 49.6805419921875,52.094482421875 48.879150390625,52.4185791015625 C48.6868896484375,52.4967041015625 48.488525390625,52.5333251953125 48.2926025390625,52.5333251953125 C47.67431640625,52.5333251953125 47.08837890625,52.1640625 46.841796875,51.554931640625 L46.81982421875,51.5006103515625Z"/>
  </defs>
  <g opacity="1">
    <g opacity="1">
      <use xlink:href="#path-0" fill="rgb(250,153,23)" fill-opacity="1"/>
    </g>
    <g opacity="1">
      <use xlink:href="#path-1" fill="rgb(0,0,0)" fill-opacity="1"/>
    </g>
    <g opacity="1">
      <use xlink:href="#path-2" fill="rgb(250,153,23)" fill-opacity="1"/>
    </g>
  </g>
</svg>