<?xml version="1.0" encoding="utf-8"?>
<svg version="1.1" xmlns="http://www.w3.org/2000/svg" xmlns:xlink="http://www.w3.org/1999/xlink" height="80" width="80.0028076171875">
  <defs>
    <path id="path-0" opacity="1" fill-rule="evenodd" d="M73.14349365234375,38.2850341796875 C73.14349365234375,39.6417236328125 72.73040771484375,40.903564453125 72.02349853515625,41.9517822265625 C76.57501220703125,42.910888671875 80.0028076171875,46.95703125 80.0028076171875,51.789794921875 L80.0028076171875,54.935791015625 C80.0028076171875,55.7987060546875 79.3031005859375,56.4984130859375 78.44024658203125,56.4984130859375 L62.189697265625,56.4984130859375 C61.32684326171875,56.4984130859375 60.62713623046875,55.7987060546875 60.62713623046875,54.935791015625 C60.62713623046875,54.072998046875 61.32684326171875,53.373291015625 62.189697265625,53.373291015625 L76.87774658203125,53.373291015625 L76.87774658203125,51.789794921875 C76.87774658203125,47.9688720703125 73.7691650390625,44.8603515625 69.9482421875,44.8603515625 L62.5528564453125,44.8603515625 C60.21307373046875,55.1512451171875 50.99053955078125,62.856201171875 40.00140380859375,62.856201171875 C32.9613037109375,62.856201171875 26.6468505859375,59.693115234375 22.40185546875,54.714599609375 L4.900146484375,72.216064453125 C3.83563232421875,73.2808837890625 3.83563232421875,75.01318359375 4.900146484375,76.0780029296875 C5.96490478515625,77.142333984375 7.6971435546875,77.142578125 8.76202392578125,76.0777587890625 L18.5908203125,66.2486572265625 C19.2012939453125,65.638671875 20.19036865234375,65.638671875 20.80072021484375,66.2486572265625 C21.410888671875,66.8590087890625 21.410888671875,67.8485107421875 20.80072021484375,68.4586181640625 L10.9718017578125,78.2877197265625 C9.8302001953125,79.42919921875 8.33062744140625,80 6.83099365234375,80 C5.3314208984375,80 3.8321533203125,79.4293212890625 2.6905517578125,78.2877197265625 C0.40753173828125,76.0045166015625 0.40753173828125,72.28955078125 2.6904296875,70.0064697265625 L20.51898193359375,52.1778564453125 C19.100830078125,49.96630859375 18.0496826171875,47.498046875 17.45001220703125,44.8603515625 L10.0545654296875,44.8603515625 C6.233642578125,44.8603515625 3.1251220703125,47.9688720703125 3.1251220703125,51.789794921875 L3.1251220703125,53.373291015625 L9.6878662109375,53.373291015625 C10.5506591796875,53.373291015625 11.25042724609375,54.072998046875 11.25042724609375,54.935791015625 C11.25042724609375,55.7987060546875 10.5506591796875,56.4984130859375 9.6878662109375,56.4984130859375 L1.56256103515625,56.4984130859375 C0.69970703125,56.4984130859375 0,55.7987060546875 0,54.935791015625 L0,51.789794921875 C0,46.95703125 3.42779541015625,42.910888671875 7.9793701171875,41.9517822265625 C7.2724609375,40.903564453125 6.85931396484375,39.6417236328125 6.85931396484375,38.2850341796875 L6.85931396484375,37.03173828125 C6.85931396484375,33.4061279296875 9.80908203125,30.456298828125 13.4346923828125,30.456298828125 C15.24383544921875,30.456298828125 16.88433837890625,31.19091796875 18.07440185546875,32.377197265625 C21.153564453125,23.2193603515625 29.8193359375,16.6046142578125 40.00140380859375,16.6046142578125 C50.1834716796875,16.6046142578125 58.8492431640625,23.219482421875 61.92840576171875,32.377197265625 C63.11846923828125,31.19091796875 64.7591552734375,30.456298828125 66.568115234375,30.456298828125 C70.1937255859375,30.456298828125 73.14349365234375,33.4061279296875 73.14349365234375,37.03173828125 L73.14349365234375,38.2850341796875 L73.14349365234375,38.2850341796875ZM40.00140380859375,59.731201171875 C28.9730224609375,59.731201171875 20.00067138671875,50.7587890625 20.00067138671875,39.73046875 C20.00067138671875,28.7020263671875 28.9730224609375,19.729736328125 40.00140380859375,19.729736328125 C51.02972412109375,19.729736328125 60.0020751953125,28.7020263671875 60.0020751953125,39.73046875 C60.0020751953125,50.7587890625 51.02972412109375,59.731201171875 40.00140380859375,59.731201171875 L40.00140380859375,59.731201171875ZM13.4346923828125,41.7353515625 C15.3372802734375,41.7353515625 16.885009765625,40.1876220703125 16.885009765625,38.2852783203125 L16.885009765625,37.031982421875 C16.885009765625,35.12939453125 15.3372802734375,33.5816650390625 13.4346923828125,33.5816650390625 C11.53216552734375,33.5816650390625 9.98443603515625,35.12939453125 9.98443603515625,37.031982421875 L9.98443603515625,38.2852783203125 C9.98443603515625,40.1876220703125 11.53216552734375,41.7353515625 13.4346923828125,41.7353515625 L13.4346923828125,41.7353515625ZM66.56793212890625,41.7353515625 C68.47052001953125,41.7353515625 70.01824951171875,40.1876220703125 70.01824951171875,38.2852783203125 L70.01824951171875,37.031982421875 C70.01824951171875,35.12939453125 68.47052001953125,33.5816650390625 66.56793212890625,33.5816650390625 C64.6654052734375,33.5816650390625 63.11767578125,35.12939453125 63.11767578125,37.031982421875 L63.11767578125,38.2852783203125 C63.11767578125,40.1876220703125 64.6654052734375,41.7353515625 66.56793212890625,41.7353515625 L66.56793212890625,41.7353515625Z"/>
    <path id="path-1" opacity="1" fill-rule="evenodd" d="M23.12579345703125,39.73046875 C23.12579345703125,30.4251708984375 30.696044921875,22.8548583984375 40.00140380859375,22.8548583984375 C49.30670166015625,22.8548583984375 56.87701416015625,30.42529296875 56.87701416015625,39.73046875 C56.87701416015625,44.560302734375 54.8369140625,48.9222412109375 51.573974609375,52.001220703125 C51.5181884765625,52.0615234375 51.4583740234375,52.1185302734375 51.3927001953125,52.169921875 C48.3885498046875,54.9232177734375 44.387939453125,56.6060791015625 40.00140380859375,56.6060791015625 C35.61480712890625,56.6060791015625 31.61419677734375,54.92333984375 28.61004638671875,52.169921875 C28.54443359375,52.118408203125 28.48455810546875,52.0615234375 28.42877197265625,52.001220703125 C25.1658935546875,48.9222412109375 23.12579345703125,44.560302734375 23.12579345703125,39.73046875 L23.12579345703125,39.73046875ZM44.8236083984375,43.211669921875 C47.27587890625,44.204833984375 49.37109375,45.9466552734375 50.80255126953125,48.2305908203125 C52.64886474609375,45.8896484375 53.75189208984375,42.9365234375 53.75189208984375,39.73046875 C53.75189208984375,32.1484375 47.5833740234375,25.97998046875 40.00140380859375,25.97998046875 C32.41943359375,25.97998046875 26.25091552734375,32.1484375 26.25091552734375,39.73046875 C26.25091552734375,42.9365234375 27.35394287109375,45.8896484375 29.20025634765625,48.2305908203125 C30.6318359375,45.9466552734375 32.7269287109375,44.2049560546875 35.17919921875,43.211669921875 C34.18695068359375,42.08154296875 33.58349609375,40.6021728515625 33.58349609375,38.9837646484375 L33.58349609375,37.769775390625 C33.58349609375,34.2310791015625 36.46270751953125,31.3519287109375 40.00140380859375,31.3519287109375 C43.54010009765625,31.3519287109375 46.4193115234375,34.2310791015625 46.4193115234375,37.769775390625 L46.4193115234375,38.9837646484375 C46.4193115234375,40.6021728515625 45.815673828125,42.08154296875 44.8236083984375,43.211669921875 L44.8236083984375,43.211669921875ZM36.7086181640625,38.9835205078125 L36.7086181640625,37.76953125 C36.7086181640625,35.953857421875 38.18572998046875,34.476806640625 40.00140380859375,34.476806640625 C41.81707763671875,34.476806640625 43.294189453125,35.953857421875 43.294189453125,37.76953125 L43.294189453125,38.9835205078125 C43.294189453125,40.7991943359375 41.81707763671875,42.2762451171875 40.00140380859375,42.2762451171875 C38.18572998046875,42.2762451171875 36.7086181640625,40.7991943359375 36.7086181640625,38.9835205078125 L36.7086181640625,38.9835205078125ZM31.4859619140625,50.519287109375 C33.8294677734375,52.3729248046875 36.788330078125,53.48095703125 40.00140380859375,53.48095703125 C43.2144775390625,53.48095703125 46.17333984375,52.3729248046875 48.51690673828125,50.519287109375 C46.856689453125,47.3779296875 43.6212158203125,45.4014892578125 40.00140380859375,45.4014892578125 C36.381591796875,45.4014892578125 33.14617919921875,47.3779296875 31.4859619140625,50.519287109375 L31.4859619140625,50.519287109375Z"/>
    <path id="path-2" opacity="1" fill-rule="evenodd" d="M24.980561283899895,62.06937767693886 C24.68992602855889,61.77874242159786 24.28678680340847,61.61154902201997 23.87583480257684,61.61154902201997 C23.46488280174521,61.61154902201997 23.061743576594782,61.77874242159786 22.771108321253784,62.06937767693886 C22.480629321426406,62.360012932279865 22.313279666334893,62.763152157430284 22.313279666334893,63.17410415826191 C22.313279666334893,63.58505615909354 22.48047306591278,63.98819538424396 22.771108321253784,64.27883063958497 C23.06174357659479,64.56930963941234 23.46488280174521,64.73665929450385 23.87583480257684,64.73665929450385 C24.28678680340847,64.73665929450385 24.689926028558894,64.56946589492597 24.980561283899895,64.27883063958497 C25.271040283727274,63.98819538424396 25.438389938818787,63.58505615909354 25.438389938818787,63.17410415826191 C25.438389938818787,62.763152157430284 25.2711965392409,62.360012932279865 24.980561283899895,62.06937767693886Z"/>
    <path id="path-3" opacity="1" fill-rule="evenodd" d="M40.03312367785942,0 C39.17028073162662,0 38.47056854161747,0.6997121900091539 38.47056854161747,1.5625551362419696 L38.47056854161747,6.878992731791647 C38.47056854161747,7.741991933538086 39.17028073162662,8.441547868033616 40.03312367785942,8.441547868033616 C40.895966624092225,8.441547868033616 41.595678814101376,7.741835678024462 41.595678814101376,6.878992731791647 L41.595678814101376,1.5625551362419696 C41.595678814101376,0.6997121900091539 40.895966624092225,8.441547868033617e-17 40.03312367785942,0Z"/>
    <path id="path-4" opacity="1" fill-rule="evenodd" d="M41.1372251371279,10.926948067739994 C40.84674613730052,10.636312812398991 40.44501321177271,10.469119412821101 40.03265491131846,10.469119412821101 C39.6215466549732,10.469119412821101 39.2185636853364,10.636156556885366 38.9279284299954,10.926948067739994 C38.637293174654396,11.217739578594621 38.470099775076505,11.62072254823142 38.470099775076505,12.031674549063052 C38.470099775076505,12.442626549894683 38.637136919140765,12.845765775045107 38.9279284299954,13.136244774872488 C39.218563685336406,13.42688003021349 39.6215466549732,13.594229685305002 40.03265491131846,13.594229685305002 C40.445169467286334,13.594229685305002 40.846746137300514,13.427036285727114 41.1372251371279,13.136244774872488 C41.42786039246891,12.845765775045109 41.595210047560414,12.442626549894683 41.595210047560414,12.031674549063052 C41.595210047560414,11.62072254823142 41.428016647982524,11.217583323080996 41.1372251371279,10.926948067739994Z"/>
    <path id="path-5" opacity="1" fill-rule="evenodd" d="M53.27984110086396,6.129278777422594 C52.66950706464785,5.519257252233729 51.68040966340669,5.519257252233729 51.06991937167697,6.129278777422594 L48.323572464218095,8.875625684881486 C47.71339468351562,9.485803465583976 47.71339468351562,10.475213377852393 48.323572464218095,11.08554741406851 C48.62889573783978,11.390558176662942 49.02859734169047,11.543219813473783 49.42861145656841,11.543219813473783 C49.82862557144635,11.543219813473783 50.22832717529704,11.390558176662942 50.533494193405105,11.08554741406851 L53.27984110086397,8.339200506609618 C53.89001888156645,7.729022725907127 53.89001888156645,6.7396128136387095 53.27984110086396,6.129278777422594Z"/>
    <path id="path-6" opacity="1" fill-rule="evenodd" d="M31.70548607925785,8.894532602030132 L28.932731989996537,6.1217785127687865 C28.32239795378044,5.511756987579929 27.333300552539296,5.511756987579929 26.72281026080957,6.1217785127687865 C26.112632480107095,6.73195629347127 26.112632480107095,7.721366205739674 26.72281026080957,8.331700241955781 L29.495720605584506,11.104454331217127 C29.800887623692557,11.409465093811555 30.200745483056867,11.562126730622396 30.600603342421177,11.562126730622396 C31.000461201785487,11.562126730622396 31.400319061149798,11.409465093811555 31.70548607925785,11.104454331217127 C32.315663859960324,10.494276550514645 32.315663859960324,9.50486663824624 31.70548607925785,8.894532602030132Z"/>
  </defs>
  <g opacity="1">
    <g opacity="1">
      <use xlink:href="#path-0" fill="rgb(0,0,0)" fill-opacity="1"/>
    </g>
    <g opacity="1">
      <use xlink:href="#path-1" fill="rgb(250,153,23)" fill-opacity="1"/>
    </g>
    <g opacity="1">
      <use xlink:href="#path-2" fill="rgb(0,0,0)" fill-opacity="1"/>
    </g>
    <g opacity="1">
      <use xlink:href="#path-3" fill="rgb(250,153,23)" fill-opacity="1"/>
    </g>
    <g opacity="1">
      <use xlink:href="#path-4" fill="rgb(250,153,23)" fill-opacity="1"/>
    </g>
    <g opacity="1">
      <use xlink:href="#path-5" fill="rgb(0,0,0)" fill-opacity="1"/>
    </g>
    <g opacity="1">
      <use xlink:href="#path-6" fill="rgb(0,0,0)" fill-opacity="1"/>
    </g>
  </g>
</svg>