<?xml version="1.0" encoding="utf-8"?>
<svg version="1.1" xmlns="http://www.w3.org/2000/svg" xmlns:xlink="http://www.w3.org/1999/xlink" height="129.40926021895666" width="129.4092602189569">
  <defs>
    <ellipse id="ellipse-0" opacity="1" rx="60" ry="60" cx="64.70463010947856" cy="64.70463010947833"/>
    <path id="path-1" opacity="1" fill-rule="evenodd" d="M48.987034882608256,88.33137979652588 C47.94234368916318,90.11350006769689 47.999244080963024,92.31213120684274 49.78933040698601,93.63449631227104 C51.321088954237716,94.76340008557987 54.04775572928609,94.61659707473629 55.09472293840315,92.83333879572928 C57.259213842469094,89.14164137575563 61.184202868822105,86.36148823241541 61.184202868822105,86.36148823241541 C61.184202868822105,86.36148823241541 59.738932917106155,83.17734230729631 59.05499020767206,77.21076722316502 C59.053852199836065,77.21190523100101 51.44968383970536,84.12871685818965 48.987034882608256,88.33137979652588Z"/>
    <path id="path-2" opacity="1" fill-rule="evenodd" d="M79.8623254810378,56.219074680367655 C75.42068089714223,52.265635458114716 70.65584208782356,48.71846503331265 65.44149018328615,45.865479388468636 C64.88045232013972,45.44100246564182 64.23861590063753,45.10870417753075 63.561501238219414,44.88679264951137 C63.10857411949269,44.70357338791589 62.66361305561793,44.61480877670813 62.23572210928313,44.60229069051217 C61.51991518044113,44.5203541263204 60.802970243763134,44.5567703770723 60.14633972239298,44.7331615916518 C58.41315378816983,45.197468788738504 57.243281732765105,46.258092091887534 56.57754714870696,47.607769385379754 C53.36495102768796,51.359781220661255 50.681528550407464,55.437263297037845 48.27350396943821,59.745760964121786 C45.8825495060089,64.02011839612581 52.43519862567856,67.84496273291111 54.823877073435874,63.574019324415076 C55.57041021384978,62.23686011711881 56.33970351098363,60.919047043034496 57.143137043197385,59.62627014134212 C57.836183815319444,64.29665430027305 58.528092579605506,68.96703845920398 59.21886333605558,73.6362846102989 C59.35883829988318,74.58310712984826 59.80948940293792,75.39792074042198 60.43880773624416,76.06024130097212 C61.44480666326534,82.70848307886553 63.291793381088176,89.26682223771516 66.20395543340402,95.30053978417027 C68.32861606321008,99.70463010947795 74.86874709668378,95.85474960030072 72.75432853740169,91.471143416041 C70.57845755497578,86.96349437765761 69.12408354057186,81.97333001681159 68.22847137364236,76.93992135819767 C70.19722492991684,75.56862191582151 70.91075584308686,73.09914491170841 70.54204130422389,70.6023557195314 C69.85696058695382,65.99114796807231 69.17529389319171,61.37766420094122 68.49021317592164,56.76531844164613 C70.56366345310784,58.26179874598194 72.56428122879024,59.86638979473745 74.49320451080483,61.58364361925665 C78.14279564084661,64.82127591266759 83.52671071294755,59.47605310699054 79.8623254810378,56.219074680367655Z"/>
    <ellipse id="ellipse-3" opacity="1" rx="6.6095495114694955" ry="6.6095495114694955" cx="61.665580183448256" cy="36.314179620947826"/>
  </defs>
  <g opacity="1">
    <g opacity="1">
      <use xlink:href="#ellipse-0" fill-opacity="0" stroke="rgb(242,242,242)" stroke-opacity="1" stroke-width="2" stroke-linecap="butt" stroke-linejoin="miter"/>
    </g>
    <g opacity="1">
      <g opacity="1">
        <use xlink:href="#path-1" fill="rgb(255,157,0)" fill-opacity="1"/>
      </g>
      <g opacity="1">
        <use xlink:href="#path-2" fill="rgb(66,74,82)" fill-opacity="1"/>
      </g>
      <g opacity="1">
        <use xlink:href="#ellipse-3" fill="rgb(255,157,0)" fill-opacity="1"/>
      </g>
    </g>
  </g>
</svg>