<?xml version="1.0" encoding="UTF-8"?>
<svg width="265px" height="78px" viewBox="0 0 265 78" version="1.1" xmlns="http://www.w3.org/2000/svg" xmlns:xlink="http://www.w3.org/1999/xlink">
    <!-- Generator: Sketch 51.3 (57544) - http://www.bohemiancoding.com/sketch -->
    <title>Get_it_on_Google_Play_(2016)_(Print_2)</title>
    <desc>Created with Sketch.</desc>
    <defs></defs>
    <g id="Login" stroke="none" stroke-width="1" fill="none" fill-rule="evenodd">
        <g id="Get_it_on_Google_Play_(2016)_(Print_2)">
            <path d="M254.78396,1.5521 C259.32103,1.5521 263.01294,5.20108 263.01294,9.68538 L263.01294,67.79762 C263.01294,72.28193 259.32103,75.93091 254.78396,75.93091 L9.7993718,75.93091 C5.262226,75.93091 1.5703174,72.28193 1.5703174,67.79762 L1.5703174,9.68538 C1.5703174,5.20108 5.262226,1.5521 9.7993718,1.5521 L254.78396,1.5521 Z M254.78396,3.99999999e-05 L9.7993718,3.99999999e-05 C4.4121116,3.99999999e-05 0,4.36086 0,9.68538 L0,67.79762 C0,73.12214 4.4121116,77.48297 9.7993718,77.48297 L254.78396,77.48297 C260.17115,77.48297 264.58333,73.12214 264.58333,67.79762 L264.58333,9.68538 C264.58333,4.36086 260.17115,4e-05 254.78396,4e-05 Z" id="path16" fill="#FFFFFF" fill-rule="nonzero"></path>
            <path d="M132.102887,42.11634 C127.499607,42.11634 123.739117,45.57887 123.739117,50.35618 C123.739117,55.09477 127.499607,58.59358 132.102887,58.59358 C136.715927,58.59358 140.476487,55.09477 140.476487,50.35618 C140.476487,45.57887 136.715927,42.11634 132.102887,42.11634 Z M132.102887,55.34898 C129.577077,55.34898 127.404057,53.28842 127.404057,50.35618 C127.404057,47.38521 129.577077,45.36095 132.102887,45.36095 C134.628697,45.36095 136.811477,47.38521 136.811477,50.35618 C136.811477,53.28842 134.628697,55.34898 132.102887,55.34898 Z M113.853957,42.11634 C109.240917,42.11634 105.490187,45.57887 105.490187,50.35618 C105.490187,55.09477 109.240917,58.59358 113.853957,58.59358 C118.464547,58.59358 122.217717,55.09477 122.217717,50.35618 C122.217717,45.57887 118.464547,42.11634 113.853957,42.11634 Z M113.853957,55.34898 C111.325707,55.34898 109.145367,53.28842 109.145367,50.35618 C109.145367,47.38521 111.325707,45.36095 113.853957,45.36095 C116.379757,45.36095 118.552787,47.38521 118.552787,50.35618 C118.552787,53.28842 116.379757,55.34898 113.853957,55.34898 Z M92.138569,44.64178 L92.138569,48.14303 L100.597887,48.14303 C100.350327,50.09953 99.688947,51.5378 98.674707,52.54021 C97.440034,53.75087 95.516857,55.09477 92.138569,55.09477 C86.932652,55.09477 82.856108,50.94211 82.856108,45.79679 C82.856108,40.6514 86.932652,36.49881 92.138569,36.49881 C94.95339,36.49881 97.001454,37.58599 98.513023,38.99521 L101.009417,36.52785 C98.895217,34.5327 96.082763,33 92.138569,33 C84.999721,33 79,38.741 79,45.79679 C79,52.85258 84.999721,58.59358 92.138569,58.59358 C95.997042,58.59358 98.895217,57.34413 101.173547,55.00033 C103.508257,52.69274 104.235847,49.44813 104.235847,46.82825 C104.235847,46.01471 104.169347,45.2665 104.044457,44.64178 L92.138569,44.64178 Z M180.935617,47.3561 C180.246897,45.51347 178.123237,42.11634 173.796777,42.11634 C169.509547,42.11634 165.940157,45.45539 165.940157,50.35618 C165.940157,54.97121 169.472817,58.59358 174.208377,58.59358 C178.037517,58.59358 180.247267,56.28607 181.156127,54.94217 L178.314337,53.0705 C177.366237,54.441 176.075177,55.34898 174.208377,55.34898 C172.353857,55.34898 171.023557,54.50876 170.171007,52.85258 L181.320257,48.29319 L180.935617,47.3561 Z M169.568367,50.09953 C169.473067,46.92269 172.064767,45.29555 173.921737,45.29555 C175.376917,45.29555 176.611667,46.01457 177.023277,47.04381 L169.568367,50.09953 Z M160.506417,58.09234 L164.171357,58.09234 L164.171357,33.87893 L160.506417,33.87893 L160.506417,58.09234 Z M154.504257,43.95172 L154.381587,43.95172 C153.558447,42.98803 151.988127,42.11634 149.998817,42.11634 C145.824287,42.11634 142.007417,45.73863 142.007417,50.38278 C142.007417,55.00033 145.824287,58.59358 149.998817,58.59358 C151.988127,58.59358 153.558447,57.71465 154.381587,56.72191 L154.504257,56.72191 L154.504257,57.90346 C154.504257,61.05363 152.801597,62.74617 150.055347,62.74617 C147.816187,62.74617 146.427137,61.14807 145.853847,59.80424 L142.666577,61.11902 C143.585347,63.30306 146.017967,65.99078 150.055347,65.99078 C154.352397,65.99078 157.978167,63.49194 157.978167,57.41197 L157.978167,42.61758 L154.504257,42.61758 L154.504257,43.95172 Z M150.312587,55.34898 C147.786777,55.34898 145.672577,53.25938 145.672577,50.38278 C145.672577,47.47958 147.786777,45.36095 150.312587,45.36095 C152.801597,45.36095 154.763937,47.47958 154.763937,50.38278 C154.763937,53.25938 152.801597,55.34898 150.312587,55.34898 Z M198.094347,33.87893 L189.328797,33.87893 L189.328797,58.09234 L192.983987,58.09234 L192.983987,48.91792 L198.094347,48.91792 C202.153747,48.91792 206.134747,46.01471 206.134747,41.39717 C206.134747,36.78213 202.143997,33.87893 198.094347,33.87893 Z M198.189647,45.54983 L192.983727,45.54983 L192.983727,37.24702 L198.189647,37.24702 C200.918827,37.24702 202.476947,39.48678 202.476947,41.39717 C202.476947,43.27135 200.918827,45.54983 198.189647,45.54983 Z M220.784627,42.0703 C218.143687,42.0703 215.397367,43.22287 214.267997,45.77743 L217.511647,47.12125 C218.209977,45.77743 219.493567,45.34158 220.850767,45.34158 C222.746897,45.34158 224.670077,46.46748 224.699487,48.45539 L224.699487,48.7096 C224.038107,48.33199 222.622017,47.77251 220.880177,47.77251 C217.386687,47.77251 213.827057,49.6733 213.827057,53.22051 C213.827057,56.46512 216.688427,58.55479 219.905107,58.55479 C222.364777,58.55479 223.721977,57.45786 224.574527,56.18187 L224.699417,56.18187 L224.699417,58.05354 L228.229637,58.05354 L228.229637,48.76525 C228.229637,44.47226 224.986057,42.07022 220.784557,42.07022 L220.784627,42.0703 Z M220.343467,55.3393 C219.147957,55.3393 217.482017,54.75329 217.482017,53.28842 C217.482017,51.41432 219.559487,50.69515 221.357707,50.69515 C222.967257,50.69515 223.721757,51.04616 224.699267,51.50876 C224.412547,53.75087 222.460107,55.3393 220.343467,55.3393 Z M241.091167,42.60059 L236.889657,53.0971 L236.764767,53.0971 L232.421237,42.60059 L228.479337,42.60059 L235.005717,57.26912 L231.281967,65.43145 L235.101267,65.43145 L245.157877,42.60059 L241.091167,42.60059 Z M208.143167,58.09234 L211.808107,58.09234 L211.808107,33.87893 L208.143167,33.87893 L208.143167,58.09234 Z" id="path46" fill="#FFFFFF" fill-rule="nonzero"></path>
            <path d="M20.451262,14.60309 C19.875548,15.19874 19.542369,16.12611 19.542369,17.3271 L19.542369,60.16549 C19.542369,61.36647 19.875548,62.29385 20.451262,62.8895 L20.593353,63.02025 L44.881124,39.02475 L44.881124,38.45815 L20.593353,14.46265 L20.451262,14.60309 Z" id="path64" fill="#000000" fill-rule="nonzero"></path>
            <path d="M20.58399,63.33304 L45.17047,38.72008 L20.604587,14.15125 C19.948437,14.53376 19.54239,15.41941 19.54239,16.57872 L19.54239,60.92912 C19.55119,62.08842 19.942553,62.90934 20.58399,63.33304 Z" id="path20903" fill="#FFFFFF" fill-rule="nonzero"></path>
            <path d="M46.050932,38.0404 L53.374502,30.70799 L23.550595,14.33662 C23.0483973,14.0445093 22.4779537,13.890226 21.89698,13.88938 L46.04799,38.03745 L46.050932,38.0404 Z" id="path20905" fill="#FFFFFF" fill-rule="nonzero"></path>
            <path d="M46.050932,39.40271 L21.823421,63.6567 C22.4315052,63.6668655 23.0304657,63.5079577 23.553537,63.19769 L53.436293,46.78219 L46.050932,39.40271 Z" id="path20907" fill="#FFFFFF" fill-rule="nonzero"></path>
            <path d="M64.178903,36.64865 L54.254274,31.19054 L46.730621,38.72302 L54.310179,46.30258 L64.175959,40.85918 C66.273873,39.70283 66.273873,37.79912 64.178959,36.64865 L64.178903,36.64865 Z" id="path20909" fill="#FFFFFF" fill-rule="nonzero"></path>
            <text id="Coming-soon-to" font-family="Raleway-Bold, Raleway" font-size="16" font-weight="bold" fill="#FFFFFF">
                <tspan x="79.008" y="26">Coming soon to</tspan>
            </text>
        </g>
    </g>
</svg>