<?xml version="1.0" encoding="utf-8"?>
<svg version="1.1" xmlns="http://www.w3.org/2000/svg" xmlns:xlink="http://www.w3.org/1999/xlink" height="70" width="69.83472448538487">
  <defs>
    <rect id="rect-0" opacity="1" x="5.819560373782224" y="7.14874796315371" width="15.130856971833335" height="2.3278241495128356" rx="0" ry="0"/>
    <rect id="rect-1" opacity="1" x="5.819560373782224" y="11.80439626217958" width="15.130856971833335" height="2.3278241495128498" rx="0" ry="0"/>
    <rect id="rect-2" opacity="1" x="5.819560373782224" y="16.46004456120545" width="10.475208672807714" height="2.3278241495128498" rx="0" ry="0"/>
    <rect id="rect-3" opacity="1" x="5.819560373782224" y="21.115692860230865" width="10.475208672807714" height="2.3278241495128498" rx="0" ry="0"/>
    <rect id="rect-4" opacity="1" x="0" y="67.67217585048729" width="69.83472448538461" height="2.3278241495128214" rx="0" ry="0"/>
    <path id="path-5" opacity="1" fill-rule="evenodd" d="M67.38468956802254,10.120215490006983 L62.72904126899689,0.8089188919557043 C62.441991453560085,0.2336553490073492 61.743207741678205,0 61.16707126467379,0.28748628246483304 L51.85577466662249,4.9431345814904715 C51.280511123674124,5.230475374945961 51.047001263676115,5.929841042865218 51.334342057131614,6.505104585813574 C51.62168285058711,7.080368128761931 52.32104851850636,7.313877988759934 52.896312061454715,7.026537195304447 L59.64001862259337,3.65701173888464 L57.799873632403475,8.910910844335072 C49.711703135911826,31.945894715839174 28.879277376874832,48.106231917794545 4.556715772671396,50.21349472914102 L4.754580825379986,52.54131887865384 C29.993577699444753,50.35491004622393 51.60989824083019,33.583373516012095 59.99850354161834,9.679092813674302 L61.87705763027519,4.31113032489774 L65.30128695420856,11.16075288483921 C65.58862774766405,11.736016427787565 66.28799341558329,11.96952628778557 66.86325695853165,11.682185494330083 C67.43866599048935,11.394844700874595 67.67203036147802,10.69562452196468 67.38468956802254,10.120215490006983Z"/>
    <path id="path-6" opacity="1" fill-rule="evenodd" d="M5.819583922379934,56.032958984375 L13.966922789567434,56.032958984375 C14.609745055192434,56.032958984375 15.130863219254934,56.55419921875 15.130863219254934,57.19677734375 L15.130863219254934,64.180419921875 C15.130863219254934,64.822998046875 14.609745055192434,65.34423828125 13.966922789567434,65.34423828125 L5.819583922379934,65.34423828125 C5.176761656754934,65.34423828125 4.655643492692434,64.822998046875 4.655643492692434,64.180419921875 L4.655643492692434,57.19677734375 C4.655643492692434,56.55419921875 5.176761656754934,56.032958984375 5.819583922379934,56.032958984375 L5.819583922379934,56.032958984375ZM6.983524352067434,63.0166015625 L12.803104430192434,63.0166015625 L12.803104430192434,58.36083984375 L6.983524352067434,58.36083984375 L6.983524352067434,63.0166015625 L6.983524352067434,63.0166015625Z"/>
    <path id="path-7" opacity="1" fill-rule="evenodd" d="M18.622562438004934,52.541259765625 L26.769901305192434,52.541259765625 C27.412723570817434,52.541259765625 27.933841734879934,53.0625 27.933841734879934,53.705078125 L27.933841734879934,64.180419921875 C27.933841734879934,64.8232421875 27.412723570817434,65.34423828125 26.769901305192434,65.34423828125 L18.622562438004934,65.34423828125 C17.979740172379934,65.34423828125 17.458622008317434,64.8232421875 17.458622008317434,64.180419921875 L17.458622008317434,53.705078125 C17.458622008317434,53.0625 17.979740172379934,52.541259765625 18.622562438004934,52.541259765625 L18.622562438004934,52.541259765625ZM19.786502867692434,63.0166015625 L25.606082945817434,63.0166015625 L25.606082945817434,54.869140625 L19.786502867692434,54.869140625 L19.786502867692434,63.0166015625 L19.786502867692434,63.0166015625Z"/>
    <path id="path-8" opacity="1" fill-rule="evenodd" d="M31.42566302394266,46.7216796875 L39.57300189113016,46.7216796875 C40.21582415675516,46.7216796875 40.73694232081766,47.242919921875 40.73694232081766,47.885498046875 L40.73694232081766,64.180419921875 C40.73694232081766,64.8232421875 40.21582415675516,65.34423828125 39.57300189113016,65.34423828125 L31.42566302394266,65.34423828125 C30.78284075831766,65.34423828125 30.26172259425516,64.8232421875 30.26172259425516,64.180419921875 L30.26172259425516,47.885498046875 C30.26172259425516,47.242919921875 30.78284075831766,46.7216796875 31.42566302394266,46.7216796875 L31.42566302394266,46.7216796875ZM32.58948138331766,63.0166015625 L38.40906146144266,63.0166015625 L38.40906146144266,49.049560546875 L32.58948138331766,49.049560546875 L32.58948138331766,63.0166015625 L32.58948138331766,63.0166015625Z"/>
    <path id="path-9" opacity="1" fill-rule="evenodd" d="M44.22864153956766,38.574462890625 L52.37598040675516,38.574462890625 C53.01880267238016,38.574462890625 53.53992083644266,39.095703125 53.53992083644266,39.73828125 L53.53992083644266,64.180419921875 C53.53992083644266,64.8232421875 53.01880267238016,65.344482421875 52.37598040675516,65.344482421875 L44.22864153956766,65.344482421875 C43.58581927394266,65.344482421875 43.06470110988016,64.8232421875 43.06470110988016,64.180419921875 L43.06470110988016,39.73828125 C43.06470110988016,39.095703125 43.58581927394266,38.574462890625 44.22864153956766,38.574462890625 L44.22864153956766,38.574462890625ZM45.39258196925516,63.016357421875 L51.21216204738016,63.016357421875 L51.21216204738016,40.902099609375 L45.39258196925516,40.902099609375 L45.39258196925516,63.016357421875 L45.39258196925516,63.016357421875Z"/>
    <path id="path-10" opacity="1" fill-rule="evenodd" d="M57.031742125504934,22.279541015625 L65.17908099269243,22.279541015625 C65.82190325831743,22.279541015625 66.34302142237993,22.80078125 66.34302142237993,23.443359375 L66.34302142237993,64.180419921875 C66.34302142237993,64.8232421875 65.82190325831743,65.34423828125 65.17908099269243,65.34423828125 L57.031742125504934,65.34423828125 C56.388919859879934,65.34423828125 55.867801695817434,64.8232421875 55.867801695817434,64.180419921875 L55.867801695817434,23.443359375 C55.867801695817434,22.80078125 56.388919859879934,22.279541015625 57.031742125504934,22.279541015625 L57.031742125504934,22.279541015625ZM58.195560484879934,63.0166015625 L64.01514056300493,63.0166015625 L64.01514056300493,24.607421875 L58.195560484879934,24.607421875 L58.195560484879934,63.0166015625 L58.195560484879934,63.0166015625Z"/>
  </defs>
  <g opacity="1">
    <g opacity="1">
      <use xlink:href="#rect-0" fill="rgb(79,79,79)" fill-opacity="1"/>
    </g>
    <g opacity="1">
      <use xlink:href="#rect-1" fill="rgb(79,79,79)" fill-opacity="1"/>
    </g>
    <g opacity="1">
      <use xlink:href="#rect-2" fill="rgb(79,79,79)" fill-opacity="1"/>
    </g>
    <g opacity="1">
      <use xlink:href="#rect-3" fill="rgb(79,79,79)" fill-opacity="1"/>
    </g>
    <g opacity="1">
      <use xlink:href="#rect-4" fill="rgb(79,79,79)" fill-opacity="1"/>
    </g>
    <g opacity="1">
      <use xlink:href="#path-5" fill="rgb(79,79,79)" fill-opacity="1"/>
    </g>
    <g opacity="1">
      <use xlink:href="#path-6" fill="rgb(79,79,79)" fill-opacity="1"/>
    </g>
    <g opacity="1">
      <use xlink:href="#path-7" fill="rgb(79,79,79)" fill-opacity="1"/>
    </g>
    <g opacity="1">
      <use xlink:href="#path-8" fill="rgb(79,79,79)" fill-opacity="1"/>
    </g>
    <g opacity="1">
      <use xlink:href="#path-9" fill="rgb(79,79,79)" fill-opacity="1"/>
    </g>
    <g opacity="1">
      <use xlink:href="#path-10" fill="rgb(79,79,79)" fill-opacity="1"/>
    </g>
  </g>
</svg>