<?xml version="1.0" encoding="utf-8"?>
<svg version="1.1" xmlns="http://www.w3.org/2000/svg" xmlns:xlink="http://www.w3.org/1999/xlink" height="80" width="59.9095458984375">
  <defs>
    <path id="path-0" opacity="1" fill-rule="evenodd" d="M52.54815673828125,41.8115234375 C54.51531982421875,41.8115234375 56.36468505859375,42.5775146484375 57.75567626953125,43.968505859375 C60.62738037109375,46.839599609375 60.62738037109375,51.5118408203125 57.75628662109375,54.383544921875 L42.34002685546875,69.7991943359375 L42.34002685546875,77.65625 C42.34002685546875,78.9508056640625 41.29083251953125,80 39.99627685546875,80 L19.91326904296875,80 C18.61871337890625,80 17.56951904296875,78.9508056640625 17.56951904296875,77.65625 L17.56951904296875,69.7991943359375 L2.15325927734375,54.383544921875 C-0.71783447265625,51.5118408203125 -0.71783447265625,46.839599609375 2.15386962890625,43.968505859375 C3.54425048828125,42.576904296875 5.39361572265625,41.8115234375 7.36077880859375,41.8115234375 C9.32794189453125,41.8115234375 11.17730712890625,42.5775146484375 12.56829833984375,43.9678955078125 L17.89300537109375,49.2926025390625 C17.92718505859375,42.6702880859375 23.32391357421875,37.29248046875 29.95477294921875,37.29248046875 C36.58502197265625,37.29248046875 41.98236083984375,42.6702880859375 42.01654052734375,49.293212890625 L47.34063720703125,43.968505859375 C48.73162841796875,42.576904296875 50.58099365234375,41.8115234375 52.54815673828125,41.8115234375 L52.54815673828125,41.8115234375ZM37.330230712890625,49.3560791015625 C37.330230712890625,45.2886962890625 34.021514892578125,41.97998046875 29.954742431640625,41.97998046875 C25.887359619140625,41.97998046875 22.578643798828125,45.2886962890625 22.578643798828125,49.3560791015625 C22.578643798828125,53.4228515625 25.887359619140625,56.732177734375 29.954742431640625,56.732177734375 C34.021514892578125,56.732177734375 37.330230712890625,53.4228515625 37.330230712890625,49.3560791015625 L37.330230712890625,49.3560791015625ZM54.44146728515625,51.0687255859375 L38.33917236328125,67.1710205078125 C37.89971923828125,67.611083984375 37.65252685546875,68.206787109375 37.65252685546875,68.8287353515625 L37.65252685546875,75.3125 L22.25701904296875,75.3125 L22.25701904296875,68.8287353515625 C22.25701904296875,68.206787109375 22.00982666015625,67.6104736328125 21.57037353515625,67.1710205078125 L5.46746826171875,51.0687255859375 C4.42376708984375,50.0250244140625 4.42437744140625,48.326416015625 5.46807861328125,47.28271484375 C5.97344970703125,46.77734375 6.64605712890625,46.4990234375 7.36077880859375,46.4990234375 C8.07611083984375,46.4990234375 8.74810791015625,46.77734375 9.25408935546875,47.28271484375 L22.70379638671875,60.7330322265625 C23.14324951171875,61.1724853515625 23.73956298828125,61.419677734375 24.36090087890625,61.419677734375 L35.54803466796875,61.419677734375 C36.16998291015625,61.419677734375 36.76629638671875,61.1724853515625 37.20574951171875,60.7330322265625 L50.65545654296875,47.28271484375 C51.16143798828125,46.77734375 51.83343505859375,46.4990234375 52.54876708984375,46.4990234375 C53.26348876953125,46.4990234375 53.93609619140625,46.7767333984375 54.44146728515625,47.28271484375 C55.48516845703125,48.326416015625 55.48516845703125,50.0250244140625 54.44146728515625,51.0687255859375 L54.44146728515625,51.0687255859375Z"/>
    <path id="path-1" opacity="1" fill-rule="evenodd" d="M19.59161376953125,22.2088623046875 L17.94732666015625,31.7919921875 C17.79656982421875,32.6715087890625 18.15789794921875,33.5601806640625 18.87933349609375,34.08447265625 C19.28765869140625,34.381103515625 19.77166748046875,34.532470703125 20.25750732421875,34.532470703125 C20.63043212890625,34.532470703125 21.00457763671875,34.443359375 21.34820556640625,34.2626953125 L29.95477294921875,29.7381591796875 L38.56134033203125,34.2626953125 C38.90374755859375,34.443359375 39.27850341796875,34.532470703125 39.65814208984375,34.532470703125 C40.95086669921875,34.530029296875 41.99884033203125,33.4814453125 41.99884033203125,32.188720703125 C41.99884033203125,32.0086669921875 41.97869873046875,31.83349609375 41.94024658203125,31.6644287109375 L40.31793212890625,22.2088623046875 L47.28082275390625,15.4217529296875 C47.91986083984375,14.7991943359375 48.14935302734375,13.8677978515625 47.87408447265625,13.018798828125 C47.59820556640625,12.17041015625 46.86456298828125,11.5521240234375 45.98199462890625,11.4239501953125 L36.35980224609375,10.025634765625 L32.05621337890625,1.30615234375 C31.66131591796875,0.506591796875 30.84649658203125,0 29.95477294921875,0 C29.06243896484375,0 28.24761962890625,0.506591796875 27.85272216796875,1.30615234375 L23.54974365234375,10.025634765625 L13.92755126953125,11.4239501953125 C13.04437255859375,11.5521240234375 12.31134033203125,12.17041015625 12.03546142578125,13.018798828125 C11.75958251953125,13.8677978515625 11.98968505859375,14.7991943359375 12.62872314453125,15.4217529296875 L19.59161376953125,22.2088623046875 L19.59161376953125,22.2088623046875ZM25.44305419921875,14.4873046875 C26.20660400390625,14.376220703125 26.86578369140625,13.8970947265625 27.20758056640625,13.20556640625 L29.95477294921875,7.6397705078125 L32.70135498046875,13.20556640625 C33.04254150390625,13.8970947265625 33.70233154296875,14.376220703125 34.46588134765625,14.4873046875 L40.60845947265625,15.3802490234375 L36.16387939453125,19.7125244140625 C35.61151123046875,20.2508544921875 35.35943603515625,21.026611328125 35.48944091796875,21.787109375 L36.53863525390625,27.904052734375 L31.04547119140625,25.015869140625 C30.70367431640625,24.8358154296875 30.32891845703125,24.74609375 29.95477294921875,24.74609375 C29.58001708984375,24.74609375 29.20526123046875,24.8358154296875 28.86407470703125,25.015869140625 L23.37030029296875,27.904052734375 L24.42010498046875,21.787109375 C24.55072021484375,21.026611328125 24.29864501953125,20.2508544921875 23.74627685546875,19.7125244140625 L19.30108642578125,15.379638671875 L25.44305419921875,14.4873046875 L25.44305419921875,14.4873046875Z"/>
  </defs>
  <g opacity="1">
    <g opacity="1">
      <use xlink:href="#path-0" fill="rgb(0,0,0)" fill-opacity="1"/>
    </g>
    <g opacity="1">
      <use xlink:href="#path-1" fill="rgb(250,153,23)" fill-opacity="1"/>
    </g>
  </g>
</svg>