<?xml version="1.0" encoding="utf-8"?>
<svg version="1.1" xmlns="http://www.w3.org/2000/svg" xmlns:xlink="http://www.w3.org/1999/xlink" height="150" width="150.00341796875023">
  <defs>
    <path id="path-0" opacity="1" fill-rule="evenodd" d="M149.9447021484375,73.014892578125 C148.5640869140625,43.103515625 123.196533203125,19.974365234375 93.284912109375,21.355224609375 C65.3065185546875,22.64697265625 42.91650390625,45.03662109375 41.625244140625,73.014892578125 L33.94775390625,73.014892578125 L26.69775390625,61.322509765625 C26.2418212890625,60.587158203125 25.4381103515625,60.139892578125 24.57275390625,60.139892578125 L2.5150146484375,60.139892578125 C1.1343994140625,60.1396484375 0.0150146484375,61.259033203125 0.0146484375,62.6396484375 C0.0146484375,63.105224609375 0.1446533203125,63.561767578125 0.3900146484375,63.95751953125 L7.607421875,75.592529296875 L0.3900146484375,87.22998046875 C-0.3375244140625,88.4033203125 0.023681640625,89.9443359375 1.1971435546875,90.672119140625 C1.5927734375,90.91748046875 2.04931640625,91.047607421875 2.5150146484375,91.047607421875 L24.572509765625,91.047607421875 C25.437744140625,91.047607421875 26.2415771484375,90.600341796875 26.697509765625,89.864990234375 L34.044921875,78.014892578125 L41.625,78.014892578125 C43.005615234375,107.926513671875 68.373046875,131.0556640625 98.28466796875,129.674560546875 C128.1962890625,128.293701171875 151.3253173828125,102.9267578125 149.9447021484375,73.014892578125 L149.9447021484375,73.014892578125ZM95.9105224609375,124.737548828125 C69.673095703125,124.771484375 48.021240234375,104.21875 46.68994140625,78.01513671875 L56.9024658203125,78.01513671875 C58.2830810546875,99.509765625 76.827392578125,115.815673828125 98.3221435546875,114.434814453125 C119.8167724609375,113.0537109375 136.122802734375,94.509765625 134.7418212890625,73.01513671875 C133.36083984375,51.520263671875 114.8167724609375,35.21435546875 93.3221435546875,36.59521484375 C73.75244140625,37.8525390625 58.1593017578125,53.4453125 56.9024658203125,73.01513671875 L46.68994140625,73.01513671875 C48.0286865234375,46.8662109375 69.599365234375,26.339111328125 95.782470703125,26.297607421875 C122.9658203125,26.26220703125 145.03125,48.27001953125 145.0665283203125,75.453369140625 C145.101806640625,102.636962890625 123.093994140625,124.7021484375 95.9105224609375,124.737548828125 L95.9105224609375,124.737548828125ZM119.4468994140625,73.01513671875 C120.8275146484375,86.084228515625 111.3521728515625,97.7978515625 98.283447265625,99.178466796875 C85.21435546875,100.55908203125 73.5006103515625,91.084228515625 72.1199951171875,78.01513671875 L61.9024658203125,78.01513671875 C63.1414794921875,94.8212890625 76.5040283203125,108.18408203125 93.310302734375,109.423095703125 C112.036865234375,110.8037109375 128.337158203125,96.74169921875 129.7181396484375,78.01513671875 C131.0989990234375,59.28857421875 117.036865234375,42.98828125 98.310302734375,41.607177734375 C79.583740234375,40.226318359375 63.2830810546875,54.2880859375 61.9024658203125,73.01513671875 L72.1199951171875,73.01513671875 C73.29931640625,61.8515625 82.1202392578125,53.031005859375 93.283447265625,51.8515625 C106.3524169921875,50.470947265625 118.066162109375,59.9462890625 119.4468994140625,73.01513671875 L119.4468994140625,73.01513671875ZM98.3328857421875,83.728271484375 C102.8687744140625,82.347412109375 105.4266357421875,77.551025390625 104.045654296875,73.015380859375 C102.6650390625,68.4794921875 97.8685302734375,65.921630859375 93.3328857421875,67.302490234375 C90.5953369140625,68.1357421875 88.453125,70.278076171875 87.6199951171875,73.015380859375 L77.1700439453125,73.015380859375 C78.5506591796875,62.7275390625 88.010009765625,55.506591796875 98.2982177734375,56.88720703125 C108.5863037109375,58.267822265625 115.806884765625,67.727294921875 114.42626953125,78.015380859375 C113.045654296875,88.303466796875 103.5863037109375,95.524169921875 93.2982177734375,94.1435546875 C84.9019775390625,93.0166015625 78.296875,86.411865234375 77.1700439453125,78.015380859375 L87.6199951171875,78.015380859375 C89.0006103515625,82.551025390625 93.7972412109375,85.10888671875 98.3328857421875,83.728271484375 L98.3328857421875,83.728271484375ZM7,65.139892578125 L11.8924560546875,73.014892578125 L28.06494140625,73.014892578125 L23.1800537109375,65.139892578125 L7,65.139892578125 L7,65.139892578125ZM93.219970703125,73.01513671875 L95.780029296875,73.01513671875 C97.16064453125,73.01513671875 98.280029296875,74.134521484375 98.280029296875,75.51513671875 C98.280029296875,76.895751953125 97.16064453125,78.01513671875 95.780029296875,78.01513671875 L93.219970703125,78.01513671875 L93.292724609375,78.087890625 C94.7139892578125,79.46875 96.9852294921875,79.436279296875 98.365966796875,78.01513671875 C99.74658203125,76.59375 99.7137451171875,74.322509765625 98.292724609375,72.94189453125 C96.871826171875,71.561279296875 94.6005859375,71.593994140625 93.219970703125,73.01513671875 L93.219970703125,73.01513671875ZM23.1800537109375,86.047607421875 L7,86.047607421875 L11.885009765625,78.172607421875 L28.0574951171875,78.172607421875 L23.1800537109375,86.047607421875 L23.1800537109375,86.047607421875Z"/>
    <rect id="rect-1" opacity="1" x="24.999999999999545" y="0" width="20.00000000000004" height="5.000000000000052" rx="0" ry="0"/>
    <rect id="rect-2" opacity="1" x="45" y="17.5" width="20.00000000000002" height="5.00000000000006" rx="0" ry="0"/>
    <rect id="rect-3" opacity="1" x="14.999999999999773" y="0" width="4.999999999999998" height="5.000000000000052" rx="0" ry="0"/>
    <rect id="rect-4" opacity="1" x="9.999999999999773" y="47.500000000000455" width="20.000000000000043" height="5.000000000000021" rx="0" ry="0"/>
    <rect id="rect-5" opacity="1" x="-2.2737367544323206e-13" y="47.500000000000455" width="4.999999999999984" height="5.000000000000021" rx="0" ry="0"/>
    <rect id="rect-6" opacity="1" x="19.999999999999545" y="102.50000000000045" width="15.000000000000025" height="4.999999999999972" rx="0" ry="0"/>
    <rect id="rect-7" opacity="1" x="9.999999999999773" y="102.50000000000045" width="4.999999999999988" height="4.999999999999972" rx="0" ry="0"/>
    <rect id="rect-8" opacity="1" x="50.00000000000023" y="125.00000000000045" width="5.0000000000000355" height="4.999999999999858" rx="0" ry="0"/>
    <rect id="rect-9" opacity="1" x="9.999999999999773" y="145" width="20.000000000000043" height="5.000000000000057" rx="0" ry="0"/>
    <rect id="rect-10" opacity="1" x="-2.2737367544323206e-13" y="145" width="4.999999999999984" height="5.000000000000057" rx="0" ry="0"/>
  </defs>
  <g opacity="1">
    <g opacity="1">
      <use xlink:href="#path-0" fill="rgb(0,0,0)" fill-opacity="1"/>
    </g>
    <g opacity="1">
      <use xlink:href="#rect-1" fill="rgb(255,170,0)" fill-opacity="1"/>
    </g>
    <g opacity="1">
      <use xlink:href="#rect-2" fill="rgb(130,130,130)" fill-opacity="1"/>
    </g>
    <g opacity="1">
      <use xlink:href="#rect-3" fill="rgb(0,0,0)" fill-opacity="1"/>
    </g>
    <g opacity="1">
      <use xlink:href="#rect-4" fill="rgb(255,170,0)" fill-opacity="1"/>
    </g>
    <g opacity="1">
      <use xlink:href="#rect-5" fill="rgb(130,130,130)" fill-opacity="1"/>
    </g>
    <g opacity="1">
      <use xlink:href="#rect-6" fill="rgb(130,130,130)" fill-opacity="1"/>
    </g>
    <g opacity="1">
      <use xlink:href="#rect-7" fill="rgb(255,170,0)" fill-opacity="1"/>
    </g>
    <g opacity="1">
      <use xlink:href="#rect-8" fill="rgb(255,170,0)" fill-opacity="1"/>
    </g>
    <g opacity="1">
      <use xlink:href="#rect-9" fill="rgb(255,170,0)" fill-opacity="1"/>
    </g>
    <g opacity="1">
      <use xlink:href="#rect-10" fill="rgb(130,130,130)" fill-opacity="1"/>
    </g>
  </g>
</svg>