<?xml version="1.0" encoding="utf-8"?>
<svg version="1.1" xmlns="http://www.w3.org/2000/svg" xmlns:xlink="http://www.w3.org/1999/xlink" height="80" width="62.66668701171875">
  <defs>
    <path id="path-0" opacity="1" fill-rule="evenodd" d="M43.21868896484375,0 L0,0 L0,80 L62.66668701171875,80 L62.66668701171875,19.447998046875 L43.21868896484375,0 L43.21868896484375,0ZM2.6666259765625,2.6666259765625 L2.6666259765625,77.333251953125 L59.99993896484375,77.333251953125 L59.99993896484375,21.333251953125 L41.33331298828125,21.333251953125 L41.33331298828125,2.6666259765625 L2.6666259765625,2.6666259765625 L2.6666259765625,2.6666259765625ZM44,4.552001953125 L58.11468505859375,18.6666259765625 L44,18.6666259765625 L44,4.552001953125 L44,4.552001953125Z"/>
    <path id="path-1" opacity="1" fill-rule="evenodd" d="M13.333312988281099,22.666666666666664 L25.333312988281094,22.666666666666664 C26.070646321614433,22.666666666666664 26.66664632161443,22.070666666666668 26.66664632161443,21.333333333333332 C26.66664632161443,20.596 26.070646321614433,20 25.333312988281094,20 L13.333312988281099,20 C12.595979654947763,20 11.999979654947765,20.596 11.999979654947765,21.333333333333332 C11.999979654947765,22.070666666666668 12.595979654947763,22.666666666666664 13.333312988281099,22.666666666666664Z"/>
    <path id="path-2" opacity="1" fill-rule="evenodd" d="M13.333312988281097,33.33333333333364 L19.999979654947765,33.33333333333364 C20.737312988281097,33.33333333333364 21.333312988281097,32.73733333333364 21.333312988281097,32.000000000000306 C21.333312988281097,31.26266666666697 20.737312988281097,30.66666666666697 19.999979654947765,30.66666666666697 L13.333312988281097,30.66666666666697 C12.595979654947763,30.66666666666697 11.999979654947765,31.26266666666697 11.999979654947765,32.000000000000306 C11.999979654947765,32.73733333333364 12.595979654947763,33.33333333333364 13.333312988281097,33.33333333333364Z"/>
    <path id="path-3" opacity="1" fill-rule="evenodd" d="M33.3333129882811,33.33333333333364 L42.66664632161444,33.33333333333364 C43.40397965494776,33.33333333333364 43.999979654947765,32.73733333333364 43.999979654947765,32.000000000000306 C43.999979654947765,31.26266666666697 43.40397965494776,30.66666666666697 42.66664632161444,30.66666666666697 L33.3333129882811,30.66666666666697 C32.59597965494776,30.66666666666697 31.999979654947765,31.26266666666697 31.999979654947765,32.000000000000306 C31.999979654947765,32.73733333333364 32.59597965494776,33.33333333333364 33.3333129882811,33.33333333333364Z"/>
    <path id="path-4" opacity="1" fill-rule="evenodd" d="M25.719979654947917,31.066666666667064 C25.46664632161458,31.306666666667063 25.33331298828125,31.652000000000395 25.33331298828125,32.00000000000039 C25.33331298828125,32.346666666667055 25.466646321614586,32.69333333333372 25.719979654947917,32.94666666666705 C25.971979654947916,33.18666666666705 26.319979654947915,33.33333333333371 26.666646321614582,33.33333333333371 C27.01331298828125,33.33333333333371 27.359979654947914,33.19866666666705 27.613312988281248,32.933333333333714 C27.85331298828125,32.692000000000384 27.999979654947914,32.346666666667055 27.999979654947914,32.00000000000039 C27.999979654947914,31.652000000000395 27.85331298828125,31.305333333333728 27.613312988281248,31.05333333333373 C27.106646321614583,30.5600000000004 26.21331298828125,30.5600000000004 25.719979654947917,31.066666666667064Z"/>
    <path id="path-5" opacity="1" fill-rule="evenodd" d="M49.333312988281094,33.33333333333371 C49.67997965494776,33.33333333333371 50.026646321614436,33.18666666666705 50.279979654947766,32.94666666666705 C50.51997965494776,32.69333333333372 50.66664632161443,32.346666666667055 50.66664632161443,32.00000000000039 C50.66664632161443,31.652000000000395 50.51997965494776,31.305333333333728 50.279979654947766,31.05333333333373 C49.77331298828109,30.5600000000004 48.8933129882811,30.5600000000004 48.38664632161443,31.05333333333373 C48.1453129882811,31.305333333333728 47.999979654947765,31.652000000000395 47.999979654947765,32.00000000000039 C47.999979654947765,32.346666666667055 48.1453129882811,32.69333333333372 48.38664632161443,32.94666666666705 C48.63864632161443,33.18666666666705 48.98664632161444,33.33333333333371 49.333312988281094,33.33333333333371Z"/>
    <path id="path-6" opacity="1" fill-rule="evenodd" d="M29.333312988280944,41.33333333333303 L19.999979654947612,41.33333333333303 C19.26264632161428,41.33333333333303 18.66664632161428,41.92933333333303 18.66664632161428,42.66666666666636 C18.66664632161428,43.4039999999997 19.26264632161428,43.999999999999694 19.999979654947612,43.999999999999694 L29.333312988280944,43.999999999999694 C30.070646321614284,43.999999999999694 30.66664632161428,43.40399999999969 30.66664632161428,42.66666666666636 C30.66664632161428,41.929333333333034 30.070646321614284,41.33333333333303 29.333312988280944,41.33333333333303Z"/>
    <path id="path-7" opacity="1" fill-rule="evenodd" d="M13.333312988281095,43.99999999999977 C13.679979654947765,43.99999999999977 14.026646321614429,43.85333333333311 14.279979654947764,43.61333333333312 C14.531979654947765,43.359999999999786 14.66664632161443,43.013333333333115 14.66664632161443,42.66666666666645 C14.66664632161443,42.31866666666646 14.531979654947765,41.97199999999979 14.279979654947764,41.71999999999979 C13.773312988281099,41.22666666666646 12.893312988281098,41.22666666666646 12.38664632161443,41.71999999999979 C12.133312988281098,41.97199999999979 11.999979654947765,42.305333333333124 11.999979654947765,42.66666666666645 C11.999979654947765,43.013333333333115 12.145312988281098,43.359999999999786 12.38664632161443,43.61333333333312 C12.63864632161443,43.85333333333311 12.986646321614431,43.99999999999977 13.333312988281095,43.99999999999977Z"/>
    <path id="path-8" opacity="1" fill-rule="evenodd" d="M17.526646321614063,53.55466666666652 C14.606646321614061,55.074666666666516 13.623979654947398,57.98266666666651 13.26531298828073,60.99733333333318 C12.713312988280727,60.53466666666651 12.16131298828073,60.07333333333318 11.609312988280728,59.61066666666652 C10.302646321614063,58.51599999999985 8.406646321614062,60.39199999999985 9.723979654947396,61.49733333333318 C10.970646321614064,62.54133333333318 12.218646321614063,63.58666666666651 13.465312988280727,64.63199999999983 C14.342646321614062,65.3666666666665 15.701312988280725,64.9026666666665 15.741312988280725,63.689333333333174 C15.83864632161406,60.80133333333318 15.97464632161406,57.36666666666652 18.87197965494739,55.85866666666652 C20.394646321614054,55.065333333333186 19.04797965494739,52.76266666666652 17.526646321614063,53.55466666666652Z"/>
    <path id="path-9" opacity="1" fill-rule="evenodd" d="M26.393312988280798,58.873333333333 C24.54664632161412,59.301333333333 22.44531298828078,61.65066666666634 21.145312988280768,59.014666666666336 C20.386646321614098,57.47599999999966 18.085312988280748,58.825333333333 18.842646321614087,60.35999999999967 C19.531979654947424,61.75866666666634 20.8426463216141,62.73866666666635 22.401312988280775,62.93599999999968 C23.193312988280784,63.03599999999969 23.909312988280785,62.92399999999968 24.651979654947453,62.63466666666635 C25.19731298828079,62.42266666666635 27.234646321614136,60.89066666666635 27.67464632161414,61.67866666666635 C28.511979654947478,63.177333333333024 30.815979654947494,61.833333333333016 29.977312988280822,60.33333333333301 C29.261312988280817,59.05066666666634 27.811979654947475,58.54399999999967 26.393312988280798,58.873333333333Z"/>
    <path id="path-10" opacity="1" fill-rule="evenodd" d="M53.65997314453125,46.017333984375 C53.34930419921875,45.90673828125 53.21197509765625,45.6719970703125 53.1573486328125,45.5413818359375 C53.10400390625,45.4107666015625 53.0333251953125,45.146728515625 53.176025390625,44.8480224609375 C53.82269287109375,43.4853515625 53.552001953125,41.916015625 52.4853515625,40.8480224609375 C51.4173583984375,39.78271484375 49.8466796875,39.5107421875 48.4866943359375,40.1573486328125 C48.185302734375,40.300048828125 47.92132568359375,40.2293701171875 47.7919921875,40.176025390625 C47.65997314453125,40.121337890625 47.4266357421875,39.9840087890625 47.31597900390625,39.67333984375 C46.8106689453125,38.250732421875 45.50933837890625,37.3333740234375 44,37.3333740234375 C42.49066162109375,37.3333740234375 41.1893310546875,38.250732421875 40.68402099609375,39.67333984375 C40.5733642578125,39.9840087890625 40.33868408203125,40.121337890625 40.2080078125,40.176025390625 C40.07867431640625,40.2293701171875 39.8133544921875,40.3013916015625 39.5146484375,40.1573486328125 C38.1533203125,39.513427734375 36.583984375,39.7813720703125 35.5146484375,40.8480224609375 C34.447998046875,41.916015625 34.17730712890625,43.4853515625 34.823974609375,44.8466796875 C34.96533203125,45.146728515625 34.89599609375,45.4107666015625 34.8426513671875,45.5413818359375 C34.78802490234375,45.67333984375 34.65069580078125,45.90673828125 34.34002685546875,46.017333984375 C32.9173583984375,46.522705078125 32,47.8240966796875 32,49.3333740234375 C32,50.8426513671875 32.9173583984375,52.14404296875 34.34002685546875,52.6494140625 C34.65069580078125,52.760009765625 34.78802490234375,52.9947509765625 34.8426513671875,53.1253662109375 C34.89599609375,53.2559814453125 34.9666748046875,53.52001953125 34.823974609375,53.8187255859375 C34.17730712890625,55.181396484375 34.447998046875,56.750732421875 35.5146484375,57.8187255859375 C36.0306396484375,58.3333740234375 36.66400146484375,58.65869140625 37.33331298828125,58.7894287109375 L37.33331298828125,75.21875 L44,68.552001953125 L50.66668701171875,75.21875 L50.66668701171875,58.7880859375 C51.33599853515625,58.65869140625 51.97064208984375,58.334716796875 52.4853515625,57.8187255859375 C53.552001953125,56.750732421875 53.82269287109375,55.181396484375 53.176025390625,53.820068359375 C53.03466796875,53.52001953125 53.10400390625,53.2559814453125 53.1573486328125,53.1253662109375 C53.21197509765625,52.993408203125 53.34930419921875,52.760009765625 53.65997314453125,52.6494140625 C55.0826416015625,52.14404296875 56,50.8426513671875 56,49.3333740234375 C56,47.8240966796875 55.0826416015625,46.522705078125 53.65997314453125,46.017333984375 L53.65997314453125,46.017333984375ZM50.69464111328125,52.1053466796875 C51.07464599609375,51.1866455078125 51.83062744140625,50.4693603515625 52.7666015625,50.1373291015625 C53.27862548828125,49.9560546875 53.33331298828125,49.5146484375 53.33331298828125,49.3333740234375 C53.33331298828125,49.1519775390625 53.27862548828125,48.710693359375 52.769287109375,48.531982421875 C51.83331298828125,48.199951171875 51.0772705078125,47.4813232421875 50.697265625,46.56396484375 C50.31597900390625,45.64404296875 50.3426513671875,44.6026611328125 50.769287109375,43.7039794921875 C51.00262451171875,43.2120361328125 50.73065185546875,42.8626708984375 50.601318359375,42.734619140625 C50.474609375,42.6053466796875 50.12127685546875,42.3306884765625 49.63330078125,42.566650390625 C48.7332763671875,42.99462890625 47.68927001953125,43.022705078125 46.77197265625,42.638671875 C45.853271484375,42.2586669921875 45.13726806640625,41.502685546875 44.803955078125,40.566650390625 C44.62261962890625,40.0546875 44.1812744140625,40 43.99993896484375,40 C43.818603515625,40 43.3773193359375,40.0546875 43.1986083984375,40.56396484375 C42.86663818359375,41.5 42.14794921875,42.2559814453125 41.23065185546875,42.635986328125 C40.31060791015625,43.02001953125 39.2679443359375,42.99072265625 38.37060546875,42.56396484375 C37.8773193359375,42.3333740234375 37.529296875,42.6026611328125 37.40130615234375,42.7320556640625 C37.27197265625,42.8599853515625 36.99993896484375,43.210693359375 37.2332763671875,43.699951171875 C37.66131591796875,44.5999755859375 37.6866455078125,45.6427001953125 37.3052978515625,46.561279296875 C36.92529296875,47.47998046875 36.1693115234375,48.1973876953125 35.2332763671875,48.529296875 C34.7213134765625,48.710693359375 34.6666259765625,49.1519775390625 34.6666259765625,49.3333740234375 C34.6666259765625,49.5146484375 34.7213134765625,49.9560546875 35.23193359375,50.1346435546875 C36.16796875,50.4666748046875 36.9239501953125,51.185302734375 37.303955078125,52.1026611328125 C37.685302734375,53.022705078125 37.65863037109375,54.06396484375 37.23193359375,54.962646484375 C36.99859619140625,55.4547119140625 37.2706298828125,55.803955078125 37.39996337890625,55.9320068359375 C37.50927734375,56.042724609375 37.7879638671875,56.239990234375 38.170654296875,56.1533203125 L38.4732666015625,56.0587158203125 C38.88519287109375,55.8580322265625 39.86920166015625,55.7606201171875 39.8692626953125,55.7613525390625 C39.91107177734375,55.760498046875 39.94915771484375,55.765380859375 39.9857177734375,55.77001953125 C40.01092529296875,55.773193359375 40.03546142578125,55.7762451171875 40.0599365234375,55.77734375 C40.22265625,55.78662109375 40.38397216796875,55.7933349609375 40.546630859375,55.8253173828125 C40.74798583984375,55.864013671875 41.197265625,56.0146484375 41.13995361328125,56.0013427734375 C41.22528076171875,56.026611328125 41.22528076171875,56.0279541015625 41.22662353515625,56.0279541015625 C41.29193115234375,56.0546875 41.34796142578125,56.0972900390625 41.41064453125,56.1280517578125 C41.56927490234375,56.205322265625 41.73065185546875,56.280029296875 41.8746337890625,56.3800048828125 C42.0599365234375,56.508056640625 42.22796630859375,56.656005859375 42.38531494140625,56.8160400390625 C42.39996337890625,56.8306884765625 42.41729736328125,56.8399658203125 42.43060302734375,56.8546142578125 C42.7666015625,57.2080078125 43.029296875,57.630615234375 43.19598388671875,58.0999755859375 C43.3773193359375,58.612060546875 43.818603515625,58.6666259765625 43.99993896484375,58.6666259765625 C44.1812744140625,58.6666259765625 44.62261962890625,58.612060546875 44.80126953125,58.1026611328125 C44.96795654296875,57.6346435546875 45.23065185546875,57.210693359375 45.566650390625,56.8572998046875 C45.583984375,56.838623046875 45.60662841796875,56.8253173828125 45.62396240234375,56.8079833984375 C45.77728271484375,56.6533203125 45.9412841796875,56.5067138671875 46.12127685546875,56.3826904296875 C46.27197265625,56.2786865234375 46.4385986328125,56.199951171875 46.60394287109375,56.1199951171875 C46.66064453125,56.09375 46.7694091796875,56.03076171875 46.769287109375,56.0306396484375 C46.997314453125,55.93603515625 47.22930908203125,55.8680419921875 47.46527099609375,55.823974609375 C47.57598876953125,55.8026123046875 47.68798828125,55.8052978515625 47.79864501953125,55.794677734375 C47.8380126953125,55.7913818359375 47.87738037109375,55.787109375 47.916748046875,55.7828369140625 C48.0054931640625,55.773193359375 48.09442138671875,55.7635498046875 48.1839599609375,55.765380859375 C48.29193115234375,55.7679443359375 48.39727783203125,55.7906494140625 48.50531005859375,55.8026123046875 C48.63861083984375,55.8173828125 48.7733154296875,55.8253173828125 48.9039306640625,55.8546142578125 C48.99859619140625,55.8773193359375 49.08929443359375,55.9173583984375 49.1826171875,55.9466552734375 C49.3079833984375,55.9853515625 49.43597412109375,56.0146484375 49.55731201171875,56.0693359375 L49.85064697265625,56.161376953125 C50.22393798828125,56.2332763671875 50.4932861328125,56.042724609375 50.5986328125,55.9346923828125 C50.72796630859375,55.806640625 50.99993896484375,55.4560546875 50.7666015625,54.9666748046875 C50.338623046875,54.066650390625 50.31329345703125,53.0240478515625 50.69464111328125,52.1053466796875 L50.69464111328125,52.1053466796875ZM44,64.7813720703125 L40,68.7813720703125 C40,68.7813720703125 40.02398681640625,58.4427490234375 40.03466796875,58.4427490234375 C40.02813720703125,58.4415283203125 40.03631591796875,58.443603515625 40.05230712890625,58.4473876953125 C40.09149169921875,58.456787109375 40.17767333984375,58.4774169921875 40.2080078125,58.49072265625 C40.2733154296875,58.5186767578125 40.3653564453125,58.566650390625 40.45330810546875,58.6453857421875 C40.54266357421875,58.725341796875 40.62933349609375,58.83740234375 40.68402099609375,58.993408203125 C41.1893310546875,60.416015625 42.49066162109375,61.3333740234375 44,61.3333740234375 C45.50933837890625,61.3333740234375 46.8106689453125,60.416015625 47.31597900390625,58.993408203125 C47.37066650390625,58.83740234375 47.45733642578125,58.725341796875 47.54669189453125,58.6453857421875 C47.635986328125,58.5654296875 47.7266845703125,58.517333984375 47.7919921875,58.49072265625 C47.83465576171875,58.473388671875 47.8973388671875,58.4560546875 47.9986572265625,58.4373779296875 C47.97467041015625,58.44140625 47.9986572265625,68.780029296875 47.9986572265625,68.780029296875 L44,64.7813720703125 L44,64.7813720703125Z"/>
  </defs>
  <g opacity="1">
    <g opacity="1">
      <use xlink:href="#path-0" fill="rgb(0,0,0)" fill-opacity="1"/>
    </g>
    <g opacity="1">
      <use xlink:href="#path-1" fill="rgb(0,0,0)" fill-opacity="1"/>
    </g>
    <g opacity="1">
      <use xlink:href="#path-2" fill="rgb(0,0,0)" fill-opacity="1"/>
    </g>
    <g opacity="1">
      <use xlink:href="#path-3" fill="rgb(0,0,0)" fill-opacity="1"/>
    </g>
    <g opacity="1">
      <use xlink:href="#path-4" fill="rgb(0,0,0)" fill-opacity="1"/>
    </g>
    <g opacity="1">
      <use xlink:href="#path-5" fill="rgb(0,0,0)" fill-opacity="1"/>
    </g>
    <g opacity="1">
      <use xlink:href="#path-6" fill="rgb(0,0,0)" fill-opacity="1"/>
    </g>
    <g opacity="1">
      <use xlink:href="#path-7" fill="rgb(0,0,0)" fill-opacity="1"/>
    </g>
    <g opacity="1">
      <use xlink:href="#path-8" fill="rgb(250,153,23)" fill-opacity="1"/>
    </g>
    <g opacity="1">
      <use xlink:href="#path-9" fill="rgb(0,0,0)" fill-opacity="1"/>
    </g>
    <g opacity="1">
      <use xlink:href="#path-10" fill="rgb(250,153,23)" fill-opacity="1"/>
    </g>
  </g>
</svg>