<?xml version="1.0" encoding="utf-8"?>
<svg version="1.1" xmlns="http://www.w3.org/2000/svg" xmlns:xlink="http://www.w3.org/1999/xlink" height="93" width="96">
  <defs>
    <path id="path-0" opacity="1" fill-rule="evenodd" d="M92.93137174473844,46.5 C73.31513980917865,63.03113110986915 72.11079602874838,93 46.46568587236922,93 C20.820575715990056,93 1.0158724787299281e-14,72.16404863897101 0,46.50000000000001 C0,20.835951361029007 20.820575715990042,1.0166226834721434e-14 46.46568587236921,0 C72.11079602874838,0 106.51364915358482,35.05384615384615 92.93137174473844,46.5Z"/>
    <path id="path-1" opacity="1" fill-rule="evenodd" d="M67.13688659667969,63.4947509765625 L67.13688659667969,45.410888671875 C67.13688659667969,43.19970703125 65.33831787109375,41.40087890625 63.127197265625,41.40087890625 L52.701202392578125,41.40087890625 L52.701202392578125,37.3909912109375 C52.701202392578125,35.179931640625 50.90263366699219,33.381103515625 48.69151306152344,33.381103515625 L39.06773376464844,33.381103515625 C36.85661315917969,33.381103515625 35.057708740234375,35.179931640625 35.057708740234375,37.3909912109375 L35.057708740234375,41.40087890625 L24.631942749023438,41.40087890625 C22.420867919921875,41.40087890625 20.622024536132812,43.19970703125 20.622024536132812,45.410888671875 L20.622024536132812,73.4803466796875 C20.622024536132812,75.69140625 22.420867919921875,77.489990234375 24.631942749023438,77.489990234375 L47.76985168457031,77.489990234375 C49.973907470703125,79.945068359375 53.160186767578125,81.5 56.71122741699219,81.5 C63.344573974609375,81.5 68.740966796875,76.1036376953125 68.740966796875,69.4703369140625 C68.740966796875,67.2945556640625 68.15142822265625,65.25732421875 67.13688659667969,63.4947509765625 L67.13688659667969,63.4947509765625ZM36.661773681640625,37.3909912109375 C36.661773681640625,36.064453125 37.74125671386719,34.9849853515625 39.067718505859375,34.9849853515625 L48.69151306152344,34.9849853515625 C50.017974853515625,34.9849853515625 51.09745788574219,36.064453125 51.09745788574219,37.3909912109375 L51.09745788574219,41.40087890625 L49.493377685546875,41.40087890625 L49.493377685546875,37.3909912109375 C49.493377685546875,36.9482421875 49.135009765625,36.5888671875 48.69151306152344,36.5888671875 L39.067718505859375,36.5888671875 C38.62422180175781,36.5888671875 38.26551818847656,36.9482421875 38.26551818847656,37.3909912109375 L38.26551818847656,41.40087890625 L36.661773681640625,41.40087890625 L36.661773681640625,37.3909912109375 L36.661773681640625,37.3909912109375ZM47.889312744140625,41.40087890625 L47.889312744140625,38.1929931640625 L39.869598388671875,38.1929931640625 L39.869598388671875,41.40087890625 L47.889312744140625,41.40087890625 L47.889312744140625,41.40087890625ZM22.225997924804688,54.2327880859375 L22.225997924804688,45.410888671875 C22.225997924804688,44.0843505859375 23.305450439453125,43.0048828125 24.631942749023438,43.0048828125 L63.127197265625,43.0048828125 C64.45365905761719,43.0048828125 65.53314208984375,44.0843505859375 65.53314208984375,45.410888671875 L65.53314208984375,54.2327880859375 C65.53314208984375,56.44384765625 63.73423767089844,58.242431640625 61.52311706542969,58.242431640625 L60.994476318359375,58.242431640625 C59.66162109375,57.732666015625 58.22142028808594,57.4405517578125 56.71122741699219,57.4405517578125 C55.20103454589844,57.4405517578125 53.760833740234375,57.732666015625 52.42796325683594,58.242431640625 L48.69151306152344,58.242431640625 L48.69151306152344,55.83642578125 C48.69151306152344,55.39404296875 48.33280944824219,55.03466796875 47.889312744140625,55.03466796875 L39.869598388671875,55.03466796875 C39.42610168457031,55.03466796875 39.067718505859375,55.39404296875 39.067718505859375,55.83642578125 L39.067718505859375,58.242431640625 L26.235885620117188,58.242431640625 C24.02484130859375,58.242431640625 22.225997924804688,56.44384765625 22.225997924804688,54.2327880859375 L22.225997924804688,54.2327880859375ZM47.087432861328125,56.638671875 L47.087432861328125,58.242431640625 L40.67146301269531,58.242431640625 L40.67146301269531,56.638671875 L47.087432861328125,56.638671875 L47.087432861328125,56.638671875ZM24.631942749023438,75.88623046875 C23.305450439453125,75.88623046875 22.225997924804688,74.8067626953125 22.225997924804688,73.4803466796875 L22.225997924804688,58.153564453125 C23.246124267578125,59.1966552734375 24.665634155273438,59.846435546875 26.235885620117188,59.846435546875 L26.235885620117188,63.0543212890625 C26.235885620117188,63.4970703125 26.594390869140625,63.8564453125 27.037887573242188,63.8564453125 L31.047775268554688,63.8564453125 C31.491287231445312,63.8564453125 31.84979248046875,63.4970703125 31.84979248046875,63.0543212890625 L31.84979248046875,59.846435546875 L49.52400207519531,59.846435546875 C46.59111022949219,62.04248046875 44.681488037109375,65.533203125 44.681488037109375,69.47021484375 C44.681488037109375,71.829833984375 45.37432861328125,74.0263671875 46.55342102050781,75.88623046875 L24.631942749023438,75.88623046875 L24.631942749023438,75.88623046875ZM65.53314208984375,61.3189697265625 L65.53314208984375,58.153564453125 C64.95066833496094,58.74951171875 64.23629760742188,59.211181640625 63.43913269042969,59.5025634765625 C64.20802307128906,60.0228271484375 64.90423583984375,60.638916015625 65.53314208984375,61.3189697265625 L65.53314208984375,61.3189697265625ZM57.513092041015625,79.855224609375 C62.62178039550781,79.4638671875 66.70481872558594,75.380859375 67.09616088867188,70.2720947265625 L65.53314208984375,70.2720947265625 L65.53314208984375,68.66845703125 L67.09616088867188,68.66845703125 C66.70481872558594,63.5596923828125 62.62178039550781,59.4766845703125 57.513092041015625,59.0853271484375 L57.513092041015625,60.6483154296875 L55.90934753417969,60.6483154296875 L55.90934753417969,59.0853271484375 C50.80067443847656,59.4766845703125 46.717620849609375,63.5596923828125 46.32627868652344,68.66845703125 L47.88929748535156,68.66845703125 L47.88929748535156,70.2720947265625 L46.32560729980469,70.2720947265625 C46.487457275390625,72.38134765625 47.27655029296875,74.312744140625 48.51014709472656,75.88623046875 L48.69151306152344,75.88623046875 L48.69151306152344,76.122802734375 C50.44465637207031,78.23193359375 53.01414489746094,79.6331787109375 55.90934753417969,79.855224609375 L55.90934753417969,78.292236328125 L57.513092041015625,78.292236328125 L57.513092041015625,79.855224609375 L57.513092041015625,79.855224609375ZM30.245803833007812,62.25244140625 L30.245803833007812,59.846435546875 L27.839859008789062,59.846435546875 L27.839859008789062,62.25244140625 L30.245803833007812,62.25244140625 L30.245803833007812,62.25244140625Z"/>
    <path id="path-2" opacity="1" fill-rule="evenodd" d="M57.51309613462572,69.13814179668317 L57.51309613462572,62.2524228162365 L55.90935588828802,62.2524228162365 L55.90935588828802,69.4702634129516 C55.90935588828802,69.68292892610422 55.99347990456675,69.88718203762899 56.144230141738234,70.03725928267025 L60.956123872881555,74.84915301381365 L62.09011561231883,73.71516127437636 L57.51309613462572,69.13814179668317Z"/>
    <path id="path-3" opacity="1" fill-rule="evenodd" d="M53.79144965445458,54.23271209635277 L52.187709408116916,54.23271209635277 L52.187709408116916,55.83645234269048 L53.79144965445458,55.83645234269048 L53.79144965445458,54.23271209635277Z"/>
    <path id="path-4" opacity="1" fill-rule="evenodd" d="M56.999603139260486,54.23271209635277 L55.395526396857576,54.23271209635277 L55.395526396857576,55.83645234269048 L56.999603139260486,55.83645234269048 L56.999603139260486,54.23271209635277Z"/>
    <path id="path-5" opacity="1" fill-rule="evenodd" d="M50.58363266571406,54.23271209635277 L48.97955592331118,54.23271209635277 L48.97955592331118,55.83645234269048 L50.58363266571406,55.83645234269048 L50.58363266571406,54.23271209635277Z"/>
    <path id="path-6" opacity="1" fill-rule="evenodd" d="M65.6586563828625,20.432691843754128 L62.96668786194323,22.14882177584022 L64.82313665318217,24.47064462513317 L65.6586563828625,20.432691843754128Z"/>
    <path id="path-7" opacity="1" fill-rule="evenodd" d="M55.892194588967186,27.988307190631303 L55.94805293577626,31.180275214704974 L58.8977774425736,30.81110538166739 L55.892194588967186,27.988307190631303Z"/>
    <path id="path-8" opacity="1" fill-rule="evenodd" d="M73.0615698153908,16.394739062375038 L70.36960129447152,18.110868994461132 L72.22605008571047,20.432691843754082 L73.0615698153908,16.394739062375038Z"/>
    <path id="path-9" opacity="1" fill-rule="evenodd" d="M55.892194588967186,11.500000000000227 L55.94805293577626,14.691968024073896 L58.8977774425736,14.322811650878915 L55.892194588967186,11.500000000000227Z"/>
    <path id="path-10" opacity="1" fill-rule="evenodd" d="M41.96125749320959,21.84843173851209 L41.99356111546062,23.691555285572527 L43.69690419707231,23.47838502832223 L41.96125749320959,21.84843173851209Z"/>
    <path id="path-11" opacity="1" fill-rule="evenodd" d="M51.549039876528525,22.63748136159986 L49.70941588854521,22.52071722700498 L49.78411801500073,24.235635773256696 L51.549039876528525,22.63748136159986Z"/>
    <path id="path-12" opacity="1" fill-rule="evenodd" d="M52.39600047242327,15.534823367973559 L50.55267502772358,15.553095104309298 L50.75289018646698,17.25795241821402 L52.39600047242327,15.534823367973559Z"/>
    <path id="path-13" opacity="1" fill-rule="evenodd" d="M75.15020089155912,55.997297461815165 L75.37800872764193,52.81269870156757 L72.40708496874231,52.91835846601365 L75.15020089155912,55.997297461815165Z"/>
    <path id="path-14" opacity="1" fill-rule="evenodd" d="M36.37239434771553,23.828509184074164 L34.52903525340935,23.832580786462053 L34.71609341600674,25.538952332659868 L36.37239434771553,23.828509184074164Z"/>
    <path id="path-15" opacity="1" fill-rule="evenodd" d="M73.75677068591823,38.43896643372503 L74.84163399984877,36.948490762904996 L73.35364839991053,36.0923438244331 L73.75677068591823,38.43896643372503Z"/>
    <path id="path-16" opacity="1" fill-rule="evenodd" d="M74.91027919713227,43.6514923799944 L72.31488504690083,41.79268811629959 L70.85180015578112,44.38057840427889 L74.91027919713227,43.6514923799944Z"/>
    <path id="path-17" opacity="1" fill-rule="evenodd" d="M68.56093494447883,33.52296082003497 L69.75179451892058,32.115936173363444 L68.33077163594021,31.15315363185664 L68.56093494447883,33.52296082003497Z"/>
  </defs>
  <g opacity="1">
    <g opacity="1">
      <use xlink:href="#path-0" fill="rgb(255,255,255)" fill-opacity="1"/>
    </g>
    <g opacity="1">
      <g opacity="1">
        <g opacity="1">
          <g opacity="1">
            <use xlink:href="#path-1" fill="rgb(0,0,0)" fill-opacity="1"/>
          </g>
          <g opacity="1">
            <use xlink:href="#path-2" fill="rgb(255,157,0)" fill-opacity="1"/>
          </g>
        </g>
        <g opacity="1">
          <use xlink:href="#path-3" fill="rgb(0,0,0)" fill-opacity="1"/>
        </g>
        <g opacity="1">
          <use xlink:href="#path-4" fill="rgb(0,0,0)" fill-opacity="1"/>
        </g>
        <g opacity="1">
          <use xlink:href="#path-5" fill="rgb(0,0,0)" fill-opacity="1"/>
        </g>
        <g opacity="1">
          <use xlink:href="#path-6" fill="rgb(255,157,0)" fill-opacity="1"/>
        </g>
        <g opacity="1">
          <use xlink:href="#path-7" fill-opacity="0" stroke="rgb(121,121,121)" stroke-opacity="1" stroke-width="1"/>
        </g>
        <g opacity="1">
          <use xlink:href="#path-8" fill-opacity="0" stroke="rgb(121,121,121)" stroke-opacity="1" stroke-width="1"/>
        </g>
        <g opacity="1">
          <use xlink:href="#path-9" fill-opacity="0" stroke="rgb(121,121,121)" stroke-opacity="1" stroke-width="1"/>
        </g>
        <g opacity="1">
          <use xlink:href="#path-10" fill-opacity="0" stroke="rgb(121,121,121)" stroke-opacity="1" stroke-width="1"/>
        </g>
        <g opacity="1">
          <use xlink:href="#path-11" fill-opacity="0" stroke="rgb(121,121,121)" stroke-opacity="1" stroke-width="1"/>
        </g>
        <g opacity="1">
          <use xlink:href="#path-12" fill-opacity="0" stroke="rgb(121,121,121)" stroke-opacity="1" stroke-width="1"/>
        </g>
        <g opacity="1">
          <use xlink:href="#path-13" fill="rgb(196,196,196)" fill-opacity="1"/>
        </g>
        <g opacity="1">
          <use xlink:href="#path-14" fill-opacity="0" stroke="rgb(121,121,121)" stroke-opacity="1" stroke-width="1"/>
        </g>
        <g opacity="1">
          <use xlink:href="#path-15" fill-opacity="0" stroke="rgb(121,121,121)" stroke-opacity="1" stroke-width="1"/>
        </g>
        <g opacity="1">
          <use xlink:href="#path-16" fill-opacity="0" stroke="rgb(121,121,121)" stroke-opacity="1" stroke-width="1"/>
        </g>
        <g opacity="1">
          <use xlink:href="#path-17" fill-opacity="0" stroke="rgb(121,121,121)" stroke-opacity="1" stroke-width="1"/>
        </g>
      </g>
    </g>
  </g>
</svg>