<?xml version="1.0" encoding="utf-8"?>
<svg version="1.1" xmlns="http://www.w3.org/2000/svg" xmlns:xlink="http://www.w3.org/1999/xlink" height="90" width="90">
  <defs>
    <ellipse id="ellipse-0" opacity="1" rx="45" ry="45" cx="45" cy="45"/>
    <path id="path-1" opacity="1" fill-rule="evenodd" d="M47.973388671875,67.0711669921875 L57.7315673828125,67.0711669921875 C58.3304443359375,67.0711669921875 58.8157958984375,67.5535888671875 58.8157958984375,68.1485595703125 L58.8157958984375,78.922607421875 C58.8157958984375,79.517578125 58.330322265625,80 57.7315673828125,80 L36.046630859375,80 C35.4478759765625,80 34.96240234375,79.517578125 34.96240234375,78.922607421875 L34.96240234375,68.1485595703125 C34.96240234375,67.5535888671875 35.4478759765625,67.0711669921875 36.046630859375,67.0711669921875 L39.2994384765625,67.0711669921875 L39.2994384765625,61.68408203125 L31.709716796875,61.68408203125 L31.709716796875,78.922607421875 C31.709716796875,79.517578125 31.2242431640625,80 30.62548828125,80 L24.1199951171875,80 C23.521240234375,80 23.0357666015625,79.517578125 23.0357666015625,78.922607421875 L23.0357666015625,59.432373046875 L21.75634765625,61.2315673828125 C21.5699462890625,61.49365234375 21.27587890625,61.659423828125 20.9539794921875,61.68408203125 C20.63623046875,61.710205078125 20.3228759765625,61.595947265625 20.097412109375,61.3717041015625 L14.36181640625,55.639892578125 C12.317138671875,53.6195068359375 12.221923828125,50.3623046875 14.1448974609375,48.227294921875 L21.149169921875,40.4915771484375 C21.3541259765625,40.265869140625 21.6456298828125,40.13671875 21.9515380859375,40.135986328125 L23.155029296875,40.135986328125 C20.7420654296875,37.7978515625 20.169677734375,34.15869140625 21.7498779296875,31.2005615234375 C23.71484375,27.521484375 28.3094482421875,26.1219482421875 32.011962890625,28.07470703125 C35.71435546875,30.02734375 37.122802734375,34.593017578125 35.1575927734375,38.2720947265625 L46.2711181640625,30.63330078125 C46.749755859375,30.302490234375 47.406005859375,30.4072265625 47.7564697265625,30.8702392578125 L51.00927734375,35.179931640625 C51.1842041015625,35.410888671875 51.258544921875,35.7020263671875 51.2152099609375,35.988037109375 C51.1695556640625,36.2747802734375 51.00927734375,36.53125 50.770751953125,36.6990966796875 L36.046630859375,47.14990234375 L36.046630859375,53.0648193359375 L42.5521240234375,53.0648193359375 C45.546142578125,53.0648193359375 47.973388671875,55.476806640625 47.973388671875,58.451904296875 L47.973388671875,67.0711669921875 L47.973388671875,67.0711669921875ZM28.45703125,29.3619384765625 C25.4630126953125,29.3619384765625 23.0357666015625,31.7738037109375 23.0357666015625,34.7490234375 C23.0357666015625,37.72412109375 25.4630126953125,40.135986328125 28.45703125,40.135986328125 C31.4510498046875,40.135986328125 33.878173828125,37.72412109375 33.878173828125,34.7490234375 C33.878173828125,31.7738037109375 31.4510498046875,29.3619384765625 28.45703125,29.3619384765625 L28.45703125,29.3619384765625ZM30.62548828125,59.529296875 C30.0267333984375,59.529296875 29.541259765625,60.01171875 29.541259765625,60.606689453125 L29.541259765625,77.84521484375 L25.2042236328125,77.84521484375 L25.2042236328125,47.6778564453125 C25.2021484375,47.2427978515625 24.9368896484375,46.8519287109375 24.531982421875,46.6866455078125 C24.1282958984375,46.517822265625 23.662109375,46.607177734375 23.3502197265625,46.912841796875 L19.01318359375,51.2225341796875 C18.5999755859375,51.6414794921875 18.5999755859375,52.3118896484375 19.01318359375,52.7308349609375 L22.5587158203125,56.40478515625 L20.726318359375,58.947509765625 L15.868896484375,54.142333984375 C14.6302490234375,52.92431640625 14.5777587890625,50.95263671875 15.7496337890625,49.6710205078125 L22.439453125,42.290771484375 L25.6162109375,42.290771484375 L28.5762939453125,48.1627197265625 C28.849365234375,48.6922607421875 29.5025634765625,48.901611328125 30.03564453125,48.6302490234375 C30.238037109375,48.5272216796875 30.4027099609375,48.36376953125 30.5062255859375,48.1627197265625 L33.6396484375,41.946044921875 L46.650634765625,32.9927978515625 L48.6131591796875,35.58935546875 L34.3336181640625,45.727783203125 C34.04931640625,45.9288330078125 33.8798828125,46.253662109375 33.878173828125,46.6004638671875 L33.878173828125,54.142333984375 C33.878173828125,54.7373046875 34.3636474609375,55.2197265625 34.96240234375,55.2197265625 L42.5521240234375,55.2197265625 C44.3486328125,55.2197265625 45.804931640625,56.666748046875 45.804931640625,58.451904296875 L45.804931640625,67.0711669921875 L41.4678955078125,67.0711669921875 L41.4678955078125,60.606689453125 C41.4678955078125,60.01171875 40.982421875,59.529296875 40.3836669921875,59.529296875 L30.62548828125,59.529296875 L30.62548828125,59.529296875ZM31.0374755859375,42.290771484375 L29.5411376953125,45.264404296875 L28.044921875,42.290771484375 L31.0374755859375,42.290771484375 L31.0374755859375,42.290771484375ZM21.3009033203125,51.9874267578125 L23.03564453125,53.8297119140625 L23.03564453125,50.2635498046875 L21.3009033203125,51.9874267578125 L21.3009033203125,51.9874267578125ZM37.130859375,77.84521484375 L56.647216796875,77.84521484375 L56.647216796875,69.2259521484375 L37.130859375,69.2259521484375 L37.130859375,77.84521484375 L37.130859375,77.84521484375Z"/>
    <path id="path-2" opacity="1" fill-rule="evenodd" d="M68.50390625,11.0916748046875 C68.50390625,15.311767578125 71.925048828125,18.73291015625 76.145263671875,18.73291015625 C76.748291015625,18.73291015625 77.2369384765625,19.2216796875 77.2369384765625,19.8245849609375 C77.2369384765625,20.4273681640625 76.7481689453125,20.9161376953125 76.145263671875,20.9161376953125 C71.925048828125,20.9161376953125 68.50390625,24.3372802734375 68.50390625,28.5574951171875 C68.50390625,29.160400390625 68.01513671875,29.649169921875 67.412353515625,29.649169921875 C66.8094482421875,29.649169921875 66.3206787109375,29.160400390625 66.3206787109375,28.5574951171875 C66.3206787109375,24.3372802734375 62.8995361328125,20.9161376953125 58.679443359375,20.9161376953125 C58.0765380859375,20.9161376953125 57.5877685546875,20.4273681640625 57.5877685546875,19.8245849609375 C57.5877685546875,19.2216796875 58.0765380859375,18.73291015625 58.679443359375,18.73291015625 C62.8995361328125,18.73291015625 66.3206787109375,15.311767578125 66.3206787109375,11.0916748046875 C66.3206787109375,10.48876953125 66.8094482421875,10 67.412353515625,10 C68.01513671875,10 68.50390625,10.48876953125 68.50390625,11.0916748046875 L68.50390625,11.0916748046875ZM63.1767578125,19.8245849609375 C64.99169921875,20.765869140625 66.4710693359375,22.2452392578125 67.4122314453125,24.06005859375 C68.353515625,22.2452392578125 69.8328857421875,20.765869140625 71.647705078125,19.8245849609375 C69.8328857421875,18.88330078125 68.353515625,17.4039306640625 67.4122314453125,15.589111328125 C66.470947265625,17.4039306640625 64.9915771484375,18.88330078125 63.1767578125,19.8245849609375 L63.1767578125,19.8245849609375Z"/>
    <rect id="rect-3" opacity="1" x="45.92105427794286" y="42.543861960582035" width="3.684210526315823" height="1.8421052631578902" rx="0" ry="0"/>
    <rect id="rect-4" opacity="1" x="50.83333506454437" y="35.7894761231546" width="12.894736842105274" height="1.842105263157876" rx="0" ry="0"/>
    <rect id="rect-5" opacity="1" x="51.44737919202407" y="28.42107028245755" width="8.596491228070185" height="1.8421052631578902" rx="0" ry="0"/>
  </defs>
  <g opacity="1">
    <g opacity="1">
      <use xlink:href="#ellipse-0" fill="rgb(247,247,247)" fill-opacity="1"/>
    </g>
    <g opacity="1">
      <g opacity="1">
        <use xlink:href="#path-1" fill="rgb(0,0,0)" fill-opacity="1"/>
      </g>
      <g opacity="1">
        <use xlink:href="#path-2" fill="rgb(255,157,0)" fill-opacity="1"/>
      </g>
      <g transform="translate(47.76315954110077, 43.46491459216098) rotate(-36.251078367815936) translate(-47.76315954110077, -43.46491459216098)" opacity="1">
        <use xlink:href="#rect-3" fill="rgb(255,157,0)" fill-opacity="1"/>
      </g>
      <g transform="translate(57.28070348559701, 36.71052875473354) rotate(-36.27171655587918) translate(-57.28070348559701, -36.71052875473354)" opacity="1">
        <use xlink:href="#rect-4" fill="rgb(155,155,155)" fill-opacity="1"/>
      </g>
      <g transform="translate(55.74562480605917, 29.342122914036494) rotate(-33.69166873859094) translate(-55.74562480605917, -29.342122914036494)" opacity="1">
        <use xlink:href="#rect-5" fill="rgb(255,157,0)" fill-opacity="1"/>
      </g>
    </g>
  </g>
</svg>