<?xml version="1.0" encoding="utf-8"?>
<svg version="1.1" xmlns="http://www.w3.org/2000/svg" xmlns:xlink="http://www.w3.org/1999/xlink" height="150" width="138.15789031982422">
  <defs>
    <path id="path-0" opacity="1" fill-rule="evenodd" d="M75.45040130615234,122.295166015625 L96.36083221435547,122.295166015625 C97.64420318603516,122.295166015625 98.68421173095703,123.328857421875 98.68421173095703,124.60400390625 L98.68421173095703,147.691162109375 C98.68421173095703,148.96630859375 97.64391326904297,150 96.36083221435547,150 L49.89319610595703,150 C48.61011505126953,150 47.56981658935547,148.96630859375 47.56981658935547,147.691162109375 L47.56981658935547,124.60400390625 C47.56981658935547,123.328857421875 48.61011505126953,122.295166015625 49.89319610595703,122.295166015625 L56.86333465576172,122.295166015625 L56.86333465576172,110.75146484375 L40.59966278076172,110.75146484375 L40.59966278076172,147.691162109375 C40.59966278076172,148.96630859375 39.55937957763672,150 38.27629852294922,150 L24.33600616455078,150 C23.05290985107422,150 22.01262664794922,148.96630859375 22.01262664794922,147.691162109375 L22.01262664794922,105.92626953125 L19.271034240722656,109.781982421875 C18.87169647216797,110.343505859375 18.241477966308594,110.69873046875 17.551719665527344,110.75146484375 C16.870689392089844,110.8076171875 16.19922637939453,110.5625 15.716255187988281,110.08203125 L3.425567626953125,97.799560546875 C-0.95574951171875,93.47021484375 -1.1599197387695312,86.49072265625 2.9608917236328125,81.91552734375 L17.969932556152344,65.3388671875 C18.40904998779297,64.855224609375 19.03374481201172,64.578369140625 19.689231872558594,64.5771484375 L22.26819610595703,64.5771484375 C17.097511291503906,59.56689453125 15.871055603027344,51.7685546875 19.25708770751953,45.4296875 C23.467933654785156,37.5458984375 33.31354522705078,34.546875 41.24730682373047,38.7314453125 C49.18108367919922,42.915771484375 52.19915008544922,52.69921875 47.98802947998047,60.5830078125 L71.80269622802734,44.214111328125 C72.82845306396484,43.50537109375 74.23468780517578,43.729736328125 74.98571014404297,44.721923828125 L81.95586395263672,53.956787109375 C82.33080291748047,54.451904296875 82.48995208740234,55.07568359375 82.39730072021484,55.6884765625 C82.29943084716797,56.30322265625 81.95586395263672,56.8525390625 81.4447250366211,57.212158203125 L49.89319610595703,79.60693359375 L49.89319610595703,92.28173828125 L63.83348846435547,92.28173828125 C70.24921417236328,92.28173828125 75.45040130615234,97.4501953125 75.45040130615234,103.825439453125 L75.45040130615234,122.295166015625 L75.45040130615234,122.295166015625ZM33.62952423095703,41.48974609375 C27.21379852294922,41.48974609375 22.012611389160156,46.658203125 22.012611389160156,53.033447265625 C22.012611389160156,59.40869140625 27.21379852294922,64.576904296875 33.62952423095703,64.576904296875 C40.045249938964844,64.576904296875 45.246421813964844,59.40869140625 45.246421813964844,53.033447265625 C45.246421813964844,46.658203125 40.045249938964844,41.48974609375 33.62952423095703,41.48974609375 L33.62952423095703,41.48974609375ZM38.276283264160156,106.13427734375 C36.993202209472656,106.13427734375 35.952903747558594,107.16796875 35.952903747558594,108.44287109375 L35.952903747558594,145.382568359375 L26.659385681152344,145.382568359375 L26.659385681152344,80.73828125 C26.65473175048828,79.80615234375 26.08637237548828,78.96826171875 25.21887969970703,78.6142578125 C24.35370635986328,78.252685546875 23.354652404785156,78.44384765625 22.68639373779297,79.09912109375 L13.392875671386719,88.333984375 C12.507377624511719,89.231689453125 12.507377624511719,90.66845703125 13.392875671386719,91.566162109375 L20.990318298339844,99.43896484375 L17.063804626464844,104.887451171875 L6.655059814453125,94.590576171875 C4.000892639160156,91.98046875 3.8882064819335938,87.755615234375 6.3994903564453125,85.00927734375 L20.73474884033203,69.194580078125 L27.542259216308594,69.194580078125 L33.885093688964844,81.777099609375 C34.470298767089844,82.911865234375 35.870140075683594,83.360595703125 37.012367248535156,82.779052734375 C37.445960998535156,82.558349609375 37.79883575439453,82.2080078125 38.020713806152344,81.777099609375 L44.73528289794922,68.455810546875 L72.6158676147461,49.270263671875 L76.8211898803711,54.834228515625 L46.222251892089844,76.559326171875 C45.612937927246094,76.990234375 45.249916076660156,77.686279296875 45.246421813964844,78.429443359375 L45.246421813964844,94.590576171875 C45.246421813964844,95.865478515625 46.286720275878906,96.8994140625 47.56981658935547,96.8994140625 L63.83348846435547,96.8994140625 C67.68303680419922,96.8994140625 70.80362701416016,100.000244140625 70.80362701416016,103.825439453125 L70.80362701416016,122.29541015625 L61.510093688964844,122.29541015625 L61.510093688964844,108.44287109375 C61.510093688964844,107.16796875 60.469810485839844,106.13427734375 59.18671417236328,106.13427734375 L38.276283264160156,106.13427734375 L38.276283264160156,106.13427734375ZM39.15917205810547,69.194580078125 L35.952903747558594,75.566650390625 L32.74663543701172,69.194580078125 L39.15917205810547,69.194580078125 L39.15917205810547,69.194580078125ZM18.295204162597656,89.972900390625 L22.012611389160156,93.9208984375 L22.012611389160156,86.279052734375 L18.295204162597656,89.972900390625 L18.295204162597656,89.972900390625ZM52.216575622558594,145.382568359375 L94.03743743896484,145.382568359375 L94.03743743896484,126.912841796875 L52.216575622558594,126.912841796875 L52.216575622558594,145.382568359375 L52.216575622558594,145.382568359375Z"/>
    <path id="path-1" opacity="1" fill-rule="evenodd" d="M119.44445037841797,2.339111328125 C119.44445037841797,11.382568359375 126.77544403076172,18.71337890625 135.81871795654297,18.71337890625 C137.11083221435547,18.71337890625 138.15789031982422,19.7607421875 138.15789031982422,21.052734375 C138.15789031982422,22.344482421875 137.11052703857422,23.391845703125 135.81871795654297,23.391845703125 C126.77544403076172,23.391845703125 119.44445037841797,30.722900390625 119.44445037841797,39.76611328125 C119.44445037841797,41.057861328125 118.39708709716797,42.105224609375 117.10526275634766,42.105224609375 C115.8134536743164,42.105224609375 114.7660903930664,41.057861328125 114.7660903930664,39.76611328125 C114.7660903930664,30.722900390625 107.43509674072266,23.391845703125 98.3918228149414,23.391845703125 C97.0999984741211,23.391845703125 96.0526351928711,22.344482421875 96.0526351928711,21.052734375 C96.0526351928711,19.7607421875 97.0999984741211,18.71337890625 98.3918228149414,18.71337890625 C107.43509674072266,18.71337890625 114.7660903930664,11.382568359375 114.7660903930664,2.339111328125 C114.7660903930664,1.04736328125 115.8134536743164,0 117.10526275634766,0 C118.39708709716797,0 119.44445037841797,1.04736328125 119.44445037841797,2.339111328125 L119.44445037841797,2.339111328125ZM108.02924346923828,21.052490234375 C111.91841888427734,23.069580078125 115.0886001586914,26.23974609375 117.10526275634766,30.128662109375 C119.12223052978516,26.23974609375 122.29239654541016,23.069580078125 126.1812973022461,21.052490234375 C122.29239654541016,19.03564453125 119.12223052978516,15.865478515625 117.10526275634766,11.9765625 C115.08831024169922,15.865478515625 111.91812896728516,19.03564453125 108.02924346923828,21.052490234375 L108.02924346923828,21.052490234375Z"/>
    <rect id="rect-2" opacity="1" x="71.05263344331865" y="69.7368470583906" width="7.894736842105402" height="3.9473684210527225" rx="0" ry="0"/>
    <rect id="rect-3" opacity="1" x="81.57894941460722" y="55.26316312104609" width="27.63157894736863" height="3.947368421052701" rx="0" ry="0"/>
    <rect id="rect-4" opacity="1" x="82.89475825920658" y="39.47372203383793" width="18.421052631579023" height="3.9473684210527153" rx="0" ry="0"/>
  </defs>
  <g opacity="1">
    <g opacity="1">
      <use xlink:href="#path-0" fill="rgb(0,0,0)" fill-opacity="1"/>
    </g>
    <g opacity="1">
      <use xlink:href="#path-1" fill="rgb(255,157,0)" fill-opacity="1"/>
    </g>
    <g transform="translate(75.00000186437136, 71.71053126891695) rotate(-36.251078367815936) translate(-75.00000186437136, -71.71053126891695)" opacity="1">
      <use xlink:href="#rect-2" fill="rgb(255,157,0)" fill-opacity="1"/>
    </g>
    <g transform="translate(95.39473888829154, 57.23684733157244) rotate(-36.27171655587918) translate(-95.39473888829154, -57.23684733157244)" opacity="1">
      <use xlink:href="#rect-3" fill="rgb(155,155,155)" fill-opacity="1"/>
    </g>
    <g transform="translate(92.10528457499609, 41.44740624436429) rotate(-33.69166873859094) translate(-92.10528457499609, -41.44740624436429)" opacity="1">
      <use xlink:href="#rect-4" fill="rgb(255,157,0)" fill-opacity="1"/>
    </g>
  </g>
</svg>