<?xml version="1.0" encoding="utf-8"?>
<svg version="1.1" xmlns="http://www.w3.org/2000/svg" xmlns:xlink="http://www.w3.org/1999/xlink" height="93" width="96">
  <defs>
    <path id="path-0" opacity="1" fill-rule="evenodd" d="M92.93137174473844,46.5 C73.31513980917865,63.03113110986915 72.11079602874838,93 46.46568587236922,93 C20.820575715990056,93 1.0158724787299281e-14,72.16404863897101 0,46.50000000000001 C0,20.835951361029007 20.820575715990042,1.0166226834721434e-14 46.46568587236921,0 C72.11079602874838,0 106.51364915358482,35.05384615384615 92.93137174473844,46.5Z"/>
    <path id="path-1" opacity="1" fill-rule="evenodd" d="M50.973342895507756,68.5711669921875 L60.73153686523432,68.5711669921875 C61.33044433593744,68.5711669921875 61.81578063964838,69.0535888671875 61.81578063964838,69.6485595703125 L61.81578063964838,80.422607421875 C61.81578063964838,81.017578125 61.33032226562494,81.5 60.73153686523432,81.5 L39.046646118164006,81.5 C38.44787597656244,81.5 37.96240234374994,81.017578125 37.96240234374994,80.422607421875 L37.96240234374994,69.6485595703125 C37.96240234374994,69.0535888671875 38.44787597656244,68.5711669921875 39.046646118164006,68.5711669921875 L42.29937744140619,68.5711669921875 L42.29937744140619,63.18408203125 L34.709671020507756,63.18408203125 L34.709671020507756,80.422607421875 C34.709671020507756,81.017578125 34.224197387695256,81.5 33.62542724609369,81.5 L27.119949340820256,81.5 C26.521179199218693,81.5 26.035705566406193,81.017578125 26.035705566406193,80.422607421875 L26.035705566406193,60.932373046875 L24.756301879882756,62.7315673828125 C24.569946289062443,62.99365234375 24.275848388671818,63.159423828125 23.95396423339838,63.18408203125 C23.636138916015568,63.210205078125 23.32279968261713,63.095947265625 23.097412109374943,62.8717041015625 L17.361755371093693,57.139892578125 C15.317138671874943,55.1195068359375 15.221862792968693,51.8623046875 17.144897460937443,49.727294921875 L24.149124145507756,41.9915771484375 C24.35404968261713,41.765869140625 24.645568847656193,41.63671875 24.95146179199213,41.635986328125 L26.154968261718693,41.635986328125 C23.74198913574213,39.2978515625 23.169647216796818,35.65869140625 24.749786376953068,32.7005615234375 C26.714859008789006,29.021484375 31.309478759765568,27.6219482421875 35.01190185546869,29.57470703125 C38.71432495117182,31.52734375 40.122756958007756,36.093017578125 38.15756225585932,39.7720947265625 L49.271072387695256,32.13330078125 C49.749771118164006,31.802490234375 50.40600585937494,31.9072265625 50.756484985351506,32.3702392578125 L54.00921630859369,36.679931640625 C54.18418884277338,36.910888671875 54.25846862792963,37.2020263671875 54.215225219726506,37.488037109375 C54.16955566406244,37.7747802734375 54.00921630859369,38.03125 53.77069091796869,38.1990966796875 L39.046646118164006,48.64990234375 L39.046646118164006,54.5648193359375 L45.55210876464838,54.5648193359375 C48.54611206054682,54.5648193359375 50.973342895507756,56.976806640625 50.973342895507756,59.951904296875 L50.973342895507756,68.5711669921875 L50.973342895507756,68.5711669921875ZM31.456939697265568,30.8619384765625 C28.46293640136713,30.8619384765625 26.035720825195256,33.2738037109375 26.035720825195256,36.2490234375 C26.035720825195256,39.22412109375 28.46293640136713,41.635986328125 31.456939697265568,41.635986328125 C34.45095825195307,41.635986328125 36.87817382812494,39.22412109375 36.87817382812494,36.2490234375 C36.87817382812494,33.2738037109375 34.45095825195307,30.8619384765625 31.456939697265568,30.8619384765625 L31.456939697265568,30.8619384765625ZM33.62542724609369,61.029296875 C33.02664184570307,61.029296875 32.54118347167963,61.51171875 32.54118347167963,62.106689453125 L32.54118347167963,79.34521484375 L28.204193115234318,79.34521484375 L28.204193115234318,49.1778564453125 C28.202026367187443,48.7427978515625 27.936798095703068,48.3519287109375 27.53196716308588,48.1866455078125 C27.12821960449213,48.017822265625 26.661987304687443,48.107177734375 26.35014343261713,48.412841796875 L22.013153076171818,52.7225341796875 C21.599929809570256,53.1414794921875 21.599929809570256,53.8118896484375 22.013153076171818,54.2308349609375 L25.55863952636713,57.90478515625 L23.726272583007756,60.447509765625 L18.868850708007756,55.642333984375 C17.63023376464838,54.42431640625 17.577651977539006,52.45263671875 18.749588012695256,51.1710205078125 L25.43937683105463,43.790771484375 L28.616210937499943,43.790771484375 L31.576202392578068,49.6627197265625 C31.84928894042963,50.1922607421875 32.50254821777338,50.401611328125 33.035598754882756,50.1302490234375 C33.23794555664057,50.0272216796875 33.402603149414006,49.86376953125 33.50614929199213,49.6627197265625 L36.63961791992182,43.446044921875 L49.65055847167963,34.4927978515625 L51.61303710937494,37.08935546875 L37.33354187011713,47.227783203125 C37.04919433593744,47.4288330078125 36.879776000976506,47.753662109375 36.87815856933588,48.1004638671875 L36.87815856933588,55.642333984375 C36.87815856933588,56.2373046875 37.36363220214838,56.7197265625 37.96240234374994,56.7197265625 L45.55210876464838,56.7197265625 C47.34857177734369,56.7197265625 48.80484008789057,58.166748046875 48.80484008789057,59.951904296875 L48.80484008789057,68.5711669921875 L44.46786499023432,68.5711669921875 L44.46786499023432,62.106689453125 C44.46786499023432,61.51171875 43.98239135742182,61.029296875 43.383621215820256,61.029296875 L33.62542724609369,61.029296875 L33.62542724609369,61.029296875ZM34.03744506835932,43.790771484375 L32.54118347167963,46.764404296875 L31.044921874999943,43.790771484375 L34.03744506835932,43.790771484375 L34.03744506835932,43.790771484375ZM24.300918579101506,53.4874267578125 L26.035705566406193,55.3297119140625 L26.035705566406193,51.7635498046875 L24.300918579101506,53.4874267578125 L24.300918579101506,53.4874267578125ZM40.13088989257807,79.34521484375 L59.647293090820256,79.34521484375 L59.647293090820256,70.7259521484375 L40.13088989257807,70.7259521484375 L40.13088989257807,79.34521484375 L40.13088989257807,79.34521484375Z"/>
    <path id="path-2" opacity="1" fill-rule="evenodd" d="M71.50390625000006,12.5916748046875 C71.50390625000006,16.811767578125 74.925033569336,20.23291015625 79.14523315429693,20.23291015625 C79.74821472167974,20.23291015625 80.23684692382818,20.7216796875 80.23684692382818,21.3245849609375 C80.23684692382818,21.9273681640625 79.74807739257818,22.4161376953125 79.14523315429693,22.4161376953125 C74.925033569336,22.4161376953125 71.50390625000006,25.8372802734375 71.50390625000006,30.0574951171875 C71.50390625000006,30.660400390625 71.01513671875006,31.149169921875 70.41227722167974,31.149169921875 C69.8094329833985,31.149169921875 69.3206634521485,30.660400390625 69.3206634521485,30.0574951171875 C69.3206634521485,25.8372802734375 65.89953613281256,22.4161376953125 61.67933654785162,22.4161376953125 C61.07649230957037,22.4161376953125 60.58772277832037,21.9273681640625 60.58772277832037,21.3245849609375 C60.58772277832037,20.7216796875 61.07649230957037,20.23291015625 61.67933654785162,20.23291015625 C65.89953613281256,20.23291015625 69.3206634521485,16.811767578125 69.3206634521485,12.5916748046875 C69.3206634521485,11.98876953125 69.8094329833985,11.5 70.41227722167974,11.5 C71.01513671875006,11.5 71.50390625000006,11.98876953125 71.50390625000006,12.5916748046875 L71.50390625000006,12.5916748046875ZM66.17680358886724,21.3245849609375 C67.9917602539063,22.265869140625 69.471176147461,23.7452392578125 70.41227722167974,25.56005859375 C71.35353088378912,23.7452392578125 72.8329467773438,22.265869140625 74.6477661132813,21.3245849609375 C72.8329467773438,20.38330078125 71.35353088378912,18.9039306640625 70.41227722167974,17.089111328125 C69.47103881835943,18.9039306640625 67.99162292480474,20.38330078125 66.17680358886724,21.3245849609375 L66.17680358886724,21.3245849609375Z"/>
    <rect id="rect-3" opacity="1" x="48.921054277943085" y="44.043861960582035" width="3.684210526315823" height="1.8421052631578902" rx="0" ry="0"/>
    <rect id="rect-4" opacity="1" x="53.83333506454437" y="37.2894761231546" width="12.894736842105274" height="1.842105263157876" rx="0" ry="0"/>
    <rect id="rect-5" opacity="1" x="54.44737919202407" y="29.921070282457777" width="8.596491228070185" height="1.8421052631578902" rx="0" ry="0"/>
  </defs>
  <g opacity="1">
    <g opacity="1">
      <use xlink:href="#path-0" fill="rgb(255,255,255)" fill-opacity="1"/>
    </g>
    <g opacity="1">
      <g opacity="1">
        <use xlink:href="#path-1" fill="rgb(0,0,0)" fill-opacity="1"/>
      </g>
      <g opacity="1">
        <use xlink:href="#path-2" fill="rgb(255,157,0)" fill-opacity="1"/>
      </g>
      <g transform="translate(50.763159541101, 44.96491459216098) rotate(-36.251078367815936) translate(-50.763159541101, -44.96491459216098)" opacity="1">
        <use xlink:href="#rect-3" fill="rgb(255,157,0)" fill-opacity="1"/>
      </g>
      <g transform="translate(60.28070348559701, 38.21052875473354) rotate(-36.27171655587918) translate(-60.28070348559701, -38.21052875473354)" opacity="1">
        <use xlink:href="#rect-4" fill="rgb(155,155,155)" fill-opacity="1"/>
      </g>
      <g transform="translate(58.74562480605917, 30.84212291403672) rotate(-33.69166873859094) translate(-58.74562480605917, -30.84212291403672)" opacity="1">
        <use xlink:href="#rect-5" fill="rgb(255,157,0)" fill-opacity="1"/>
      </g>
    </g>
  </g>
</svg>