<?xml version="1.0" encoding="utf-8"?>
<svg version="1.1" xmlns="http://www.w3.org/2000/svg" xmlns:xlink="http://www.w3.org/1999/xlink" height="130" width="134.2926480659271">
  <defs>
    <path id="path-0" opacity="1" fill-rule="evenodd" d="M130,65 C102.55921112810697,88.1080327342257 100.87447659211,130 65,130 C29.125523407890007,130 1.4210854715202004e-14,100.87447659211 0,65.00000000000001 C0,29.125523407890007 29.125523407889986,1.4210854715202004e-14 64.99999999999999,0 C100.87447659211,0 149,49 130,65Z"/>
    <path id="path-1" opacity="1" fill-rule="evenodd" d="M70.96920000952605,93.3770751953125 L83.51546465796355,93.3770751953125 C84.28548418921355,93.3770751953125 84.9094465915573,93.997314453125 84.9094465915573,94.7623291015625 L84.9094465915573,108.61474609375 C84.9094465915573,109.3797607421875 84.2853010837448,110 83.51546465796355,110 L55.63484942358855,110 C54.8650129978073,110 54.24080645483855,109.3797607421875 54.24080645483855,108.61474609375 L54.24080645483855,94.7623291015625 C54.24080645483855,93.997314453125 54.8650129978073,93.3770751953125 55.63484942358855,93.3770751953125 L59.8169172946823,93.3770751953125 L59.8169172946823,86.450927734375 L50.0587385837448,86.450927734375 L50.0587385837448,108.61474609375 C50.0587385837448,109.3797607421875 49.43453204077605,110 48.6646956149948,110 L40.3005598728073,110 C39.5306624118698,110 38.9065169040573,109.3797607421875 38.9065169040573,108.61474609375 L38.9065169040573,83.5557861328125 L37.26155840796355,85.869140625 C37.02193438452605,86.2060546875 36.6438215915573,86.4193115234375 36.22994219702605,86.450927734375 C35.82137286108855,86.4844970703125 35.4184797946823,86.3375244140625 35.1286848728073,86.0491943359375 L27.7542952243698,78.6798095703125 C25.1255110446823,76.0821533203125 25.00301348608855,71.8944091796875 27.4754866306198,69.1492919921875 L36.48091875952605,59.203369140625 C36.74434649390105,58.9130859375 37.1191633884323,58.7470703125 37.5124739353073,58.7462158203125 L39.0598372165573,58.7462158203125 C35.9574202243698,55.7401123046875 35.2215803806198,51.0611572265625 37.2531965915573,47.2578125 C39.7796858493698,42.527587890625 45.68709551733855,40.7281494140625 50.44734942358855,43.2388916015625 C55.20760332983855,45.7493896484375 57.0184553806198,51.6195068359375 54.4917219821823,56.3497314453125 L68.7805403415573,46.5284423828125 C69.3960188571823,46.1031494140625 70.2397688571823,46.2379150390625 70.69039141577605,46.8331298828125 L74.8724592868698,52.3741455078125 C75.0974348728073,52.671142578125 75.1928938571823,53.04541015625 75.13729082983855,53.4130859375 C75.07857500952605,53.7818603515625 74.8724592868698,54.111572265625 74.56575762671355,54.3272705078125 L55.63484942358855,67.76416015625 L55.63484942358855,75.3690185546875 L63.9990462009323,75.3690185546875 C67.84847247046355,75.3690185546875 70.96920000952605,78.4700927734375 70.96920000952605,82.2952880859375 L70.96920000952605,93.3770751953125 L70.96920000952605,93.3770751953125ZM45.87667071265105,44.8939208984375 C42.0272444431198,44.8939208984375 38.9065169040573,47.9949951171875 38.9065169040573,51.820068359375 C38.9065169040573,55.645263671875 42.0272444431198,58.746337890625 45.87667071265105,58.746337890625 C49.7260969821823,58.746337890625 52.8468245212448,55.645263671875 52.8468245212448,51.820068359375 C52.8468245212448,47.9949951171875 49.7260969821823,44.8939208984375 45.87667071265105,44.8939208984375 L45.87667071265105,44.8939208984375ZM48.66475665015105,83.6805419921875 C47.89485918921355,83.6805419921875 47.27071368140105,84.30078125 47.27071368140105,85.0657958984375 L47.27071368140105,107.2294921875 L41.6946028415573,107.2294921875 L41.6946028415573,68.44287109375 C41.6917952243698,67.8836669921875 41.35079180640105,67.3809814453125 40.83028399390105,67.16845703125 C40.3111799899948,66.9515380859375 39.71175372046355,67.0662841796875 39.3108137790573,67.4593505859375 L33.73470293921355,73.0003662109375 C33.2033919040573,73.5390625 33.2033919040573,74.4010009765625 33.73470293921355,74.939697265625 L38.29317461890105,79.663330078125 L35.93721758765105,82.9324951171875 L29.69197832983855,76.7542724609375 C28.0995100681198,75.1883544921875 28.0318831149948,72.6533203125 29.53865801733855,71.005615234375 L38.1397932712448,61.5167236328125 L42.22432696265105,61.5167236328125 L46.02999102515105,69.0662841796875 C46.3811262790573,69.7470703125 47.22103106421355,70.016357421875 47.9063948337448,69.66748046875 C48.1665266696823,69.5350341796875 48.37825762671355,69.3248291015625 48.5113753024948,69.0662841796875 L52.54012286108855,61.073486328125 L69.2684553806198,49.5621337890625 L71.7916487399948,52.9005126953125 L53.43233477515105,65.9356689453125 C53.06673418921355,66.194091796875 52.8488997165573,66.61181640625 52.8468245212448,67.0576171875 L52.8468245212448,76.7542724609375 C52.8468245212448,77.519287109375 53.4709700290573,78.1395263671875 54.2408674899948,78.1395263671875 L63.9990462009323,78.1395263671875 C66.30879961890105,78.1395263671875 68.18111407202605,80.0001220703125 68.18111407202605,82.2952880859375 L68.18111407202605,93.377197265625 L62.6050032321823,93.377197265625 L62.6050032321823,85.0657958984375 C62.6050032321823,84.30078125 61.9808577243698,83.6805419921875 61.21102129858855,83.6805419921875 L48.66475665015105,83.6805419921875 L48.66475665015105,83.6805419921875ZM49.1944807712448,61.5167236328125 L47.27071368140105,65.3399658203125 L45.3469465915573,61.5167236328125 L49.1944807712448,61.5167236328125 L49.1944807712448,61.5167236328125ZM36.67610918921355,73.98388671875 L38.90657793921355,76.3525390625 L38.90657793921355,71.7674560546875 L36.67610918921355,73.98388671875 L36.67610918921355,73.98388671875ZM57.02889239233855,107.2294921875 L82.12142168921355,107.2294921875 L82.12142168921355,96.1475830078125 L57.02889239233855,96.1475830078125 L57.02889239233855,107.2294921875 L57.02889239233855,107.2294921875Z"/>
    <path id="path-2" opacity="1" fill-rule="evenodd" d="M97.3656233493698,21.403564453125 C97.3656233493698,26.8294677734375 101.7641829196823,31.22802734375 107.19014727515105,31.22802734375 C107.96541582983855,31.22802734375 108.59371172827605,31.8564453125 108.59371172827605,32.631591796875 C108.59371172827605,33.4066162109375 107.96529375952605,34.0350341796875 107.19014727515105,34.0350341796875 C101.7641829196823,34.0350341796875 97.3656233493698,38.4337158203125 97.3656233493698,43.859619140625 C97.3656233493698,44.634765625 96.7372053806198,45.26318359375 95.96211993140105,45.26318359375 C95.1870344821823,45.26318359375 94.5586165134323,44.634765625 94.5586165134323,43.859619140625 C94.5586165134323,38.4337158203125 90.15999590796355,34.0350341796875 84.7340315524948,34.0350341796875 C83.95894610327605,34.0350341796875 83.33052813452605,33.4066162109375 83.33052813452605,32.631591796875 C83.33052813452605,31.8564453125 83.95894610327605,31.22802734375 84.7340315524948,31.22802734375 C90.15999590796355,31.22802734375 94.5586165134323,26.8294677734375 94.5586165134323,21.403564453125 C94.5586165134323,20.62841796875 95.1870344821823,20 95.96211993140105,20 C96.7372053806198,20 97.3656233493698,20.62841796875 97.3656233493698,21.403564453125 L97.3656233493698,21.403564453125ZM90.5165022556198,32.6314697265625 C92.8499983493698,33.8416748046875 94.7520979587448,35.7437744140625 95.96211993140105,38.0771484375 C97.1722639743698,35.7437744140625 99.07442461890105,33.8416748046875 101.4077376071823,32.6314697265625 C99.07442461890105,31.42138671875 97.1722639743698,29.519287109375 95.96211993140105,27.1859130859375 C94.75191485327605,29.519287109375 92.84981524390105,31.42138671875 90.5165022556198,32.6314697265625 L90.5165022556198,32.6314697265625Z"/>
    <rect id="rect-3" opacity="1" x="68.33053667603326" y="61.842108235034175" width="4.736842105263193" height="2.3684210526315894" rx="0" ry="0"/>
    <rect id="rect-4" opacity="1" x="74.64632625880631" y="53.157897872627245" width="16.578947368421062" height="2.3684210526315823" rx="0" ry="0"/>
    <rect id="rect-5" opacity="1" x="75.43581156556593" y="43.684233220302986" width="11.052631578947384" height="2.3684210526316" rx="0" ry="0"/>
  </defs>
  <g opacity="1">
    <g opacity="1">
      <use xlink:href="#path-0" fill="rgb(247,247,247)" fill-opacity="1"/>
    </g>
    <g opacity="1">
      <g opacity="1">
        <use xlink:href="#path-1" fill="rgb(0,0,0)" fill-opacity="1"/>
      </g>
      <g opacity="1">
        <use xlink:href="#path-2" fill="rgb(255,157,0)" fill-opacity="1"/>
      </g>
      <g transform="translate(70.69895772866485, 63.02631876134997) rotate(-36.251078367815936) translate(-70.69895772866485, -63.02631876134997)" opacity="1">
        <use xlink:href="#rect-3" fill="rgb(255,157,0)" fill-opacity="1"/>
      </g>
      <g transform="translate(82.93579994301685, 54.34210839894304) rotate(-36.27171655587918) translate(-82.93579994301685, -54.34210839894304)" opacity="1">
        <use xlink:href="#rect-4" fill="rgb(155,155,155)" fill-opacity="1"/>
      </g>
      <g transform="translate(80.96212735503963, 44.86844374661879) rotate(-33.69166873859094) translate(-80.96212735503963, -44.86844374661879)" opacity="1">
        <use xlink:href="#rect-5" fill="rgb(255,157,0)" fill-opacity="1"/>
      </g>
    </g>
  </g>
</svg>