<?xml version="1.0" encoding="utf-8"?>
<svg version="1.1" xmlns="http://www.w3.org/2000/svg" xmlns:xlink="http://www.w3.org/1999/xlink" height="129.40926021895666" width="129.40926021895712">
  <defs>
    <ellipse id="ellipse-0" opacity="1" rx="60" ry="60" cx="64.70463010947856" cy="64.70463010947833"/>
    <path id="path-1" opacity="1" fill-rule="evenodd" d="M68.38668968001639,27.70463010947833 C69.87318240686929,28.763969753902245 69.95861302335508,29.703706535246038 68.69423989936526,30.968079659235872 C67.66907250153567,31.993247057065467 66.64390510370608,33.03550057819222 65.61873770587647,34.06066797602181 C65.58456545928216,34.094840222616135 65.58456545928216,34.163184715804775 65.55039321268784,34.299873702182055 C66.60973285711175,34.47073493515365 67.68615862483281,34.59033779823377 68.72841214595958,34.79537127779969 C81.44048787904654,37.289945279185034 91.0941475419419,47.11446617505197 93.11031009100677,59.9290586479219 C94.59680281785968,69.3093403380627 92.18765943296015,77.74988524685968 85.9341383061996,84.92605703166683 C79.93690902889648,91.82885084371942 72.24815354517452,95.2119032565571 63.10707758119396,95.22898937985426 C52.00109743804002,95.24607550315142 40.89511729488608,95.22898937985426 29.789137151732135,95.24607550315142 C28.83231424709118,95.24607550315142 28.063438698718983,95.00686977699118 27.550854999804187,94.16964973543034 L27.550854999804187,92.80275987165756 C28.063438698718983,91.96553983009672 28.83231424709118,91.72633410393648 29.806223275029296,91.72633410393648 C40.96346178807472,91.74342022723363 52.12070030112014,91.74342022723363 63.277938814165566,91.74342022723363 C69.34351258465733,91.74342022723363 74.72564142326272,89.72725767816877 79.45849757657601,86.01956892268507 C84.97731540155866,81.69677972850361 88.47997067747644,76.07544516373801 89.57348256849467,69.13847910509108 C90.88911406237598,60.83462318267138 88.82169314341964,53.38507342510966 83.26870307184267,46.994863311971855 C79.21929185041577,42.347437775144364 74.12762710786211,39.4769690612215 68.09622558396467,38.263854307123154 C67.37860840548394,38.127165320745874 66.66099122700322,37.92213184117995 65.90920180192819,38.02464858096291 C65.89211567863103,38.36637104690611 66.16549365138559,38.48597390998623 66.33635488435718,38.656835142957824 C67.25900554240383,39.59657192430162 68.19874232374761,40.502136459051094 69.1043068584971,41.44187324039489 C69.77066566708633,42.142404295578444 69.73649342049201,43.184657816705204 69.08722073519994,43.83393050199727 C68.45503417320501,44.48320318728935 67.34443615888962,44.551547680477995 66.69516347359755,43.90227499518592 C64.16641722561788,41.407700993800574 61.65475710093538,38.878954745820906 59.14309697625286,36.3672946211384 C58.90389125009263,36.12808889497816 58.81846063360682,35.92305541541224 59.09183860636138,35.64967744265768 C61.80853221060982,33.01841445489506 64.35436458188664,30.216290234160837 67.19066104921518,27.70463010947833 L68.38668968001639,27.70463010947833Z"/>
    <path id="path-2" opacity="1" fill-rule="evenodd" d="M92.47812352901214,101.68754398618125 C90.76951119929615,100.74780720483746 90.59864996632454,99.55177857403628 91.9826259533945,98.16780258696633 C92.88819048814399,97.26223805221684 93.82792726948779,96.40793188735886 94.75057792753442,95.51945347590656 L94.64806118775147,95.26316162644916 L75.93875617736126,95.26316162644916 C76.12670353363002,94.80183629742584 76.45133987627605,94.78475017412867 76.69054560243629,94.69931955764288 C78.48458854863809,94.03296074905364 80.21028700165125,93.22991295408713 81.8163825915843,92.20474555625755 C82.31188016720193,91.8801092136115 82.84154998941389,91.76050635053139 83.42247818151733,91.76050635053139 C87.01056407392093,91.77759247382855 90.59864996632453,91.76050635053139 94.16964973543097,91.76050635053139 L95.0923003934776,91.76050635053139 C95.16064488666623,91.36752551469671 94.87018079061453,91.24792265161659 94.71640568094008,91.09414754194215 C93.6912382831105,90.0518940208154 92.66607088528089,89.04381274628298 91.64090348745128,88.00155922515623 C90.88911406237625,87.21559755348687 90.87202793907909,86.08791341587433 91.57255899426265,85.40446848398794 C92.27309004944621,84.72102355210154 93.38368806376161,84.75519579869587 94.16964973543097,85.52407134706804 L101.85840521915297,93.16156846089848 L101.85840521915297,93.50329092684169 C99.53469245073921,95.80991757195825 97.19389355902828,98.09945809377767 94.88726691391169,100.40608473889424 C94.4088554615912,100.88449619121472 93.91335788597357,101.34582152023803 93.31534357057296,101.70463010947839 C93.0419655978184,101.68754398618123 92.76858762506384,101.68754398618123 92.47812352901214,101.68754398618125Z"/>
    <path id="path-3" opacity="1" fill-rule="evenodd" d="M50.00202101227056,88.53122904736989 C50.03619325886487,88.3945400609926 44.22691133783049,88.53122904736989 44.22691133783049,88.53122904736989 C43.936447241778765,88.53122904736989 43.69724151561852,88.32619556780396 43.4922080360526,88.1382482115352 C37.51206488204661,83.01241122238724 33.87272061975153,76.58802886265511 32.83046709862477,68.77967051585304 C31.651524591120733,59.860714154735575 34.04358185272313,51.89858069825905 39.78451928056889,45.01287300950362 C43.253002309892366,40.84385892499661 47.60996375066816,37.83670122469647 52.735800739816156,35.9913999086032 C53.40215954840539,35.75219418244296 53.74388201434859,35.85471092222592 53.93182937061735,36.53815585411232 C54.08560448029179,37.08491179962144 54.27355183656056,37.63166774513055 54.51275756272079,38.14425144404535 C54.820307782069676,38.827696375931744 54.666532672395235,39.13524659528062 53.94891549391451,39.39153844473802 C50.03619325886487,40.809686678402294 46.58479635283856,42.99671046043876 43.71432763891568,46.003868160738904 C39.357366198139886,50.582949204377755 36.76027545697156,56.016336412874594 36.26477788135392,62.372374279418075 C35.56424682617036,71.2229861473469 38.622662896362,78.60419141171997 45.029959132796996,84.65267905891457 C46.328504503381154,85.88287993631009 47.81499723023407,86.92513345743686 49.35274832697847,87.84778411548348 C49.59195405313871,87.98447310186077 49.83115977929895,88.1382482115352 50.00202101227056,88.53122904736989Z"/>
  </defs>
  <g opacity="1">
    <g opacity="1">
      <use xlink:href="#ellipse-0" fill-opacity="0" stroke="rgb(242,242,242)" stroke-opacity="1" stroke-width="2" stroke-linecap="butt" stroke-linejoin="miter"/>
    </g>
    <g opacity="1">
      <g opacity="1">
        <use xlink:href="#path-1" fill="rgb(66,74,82)" fill-opacity="1"/>
      </g>
      <g opacity="1">
        <use xlink:href="#path-2" fill="rgb(255,157,0)" fill-opacity="1"/>
      </g>
      <g opacity="1">
        <use xlink:href="#path-3" fill="rgb(255,157,0)" fill-opacity="1"/>
      </g>
    </g>
  </g>
</svg>