<?xml version="1.0" encoding="utf-8"?>
<svg version="1.1" xmlns="http://www.w3.org/2000/svg" xmlns:xlink="http://www.w3.org/1999/xlink" height="98.70463010947879" width="331.7046364428113">
  <defs>
    <path id="path-0" opacity="1" fill-rule="evenodd" d="M49.352315054738256,2.3523150547393925 L282.3523213880719,2.3523150547393983 C308.3097046301192,2.3523150547393983 329.3523213880719,23.39493181269211 329.3523213880719,49.35231505473939 C329.3523213880719,75.30969829678668 308.3097046301192,96.35231505473939 282.3523213880719,96.35231505473939 L49.352315054738256,96.35231505473939 L49.352315054738256,2.3523150547393925Z"/>
    <path id="path-1" opacity="1" fill-rule="evenodd" d="M49.35231505473894,2.3523150547393925 L55.35231505473865,2.3523150547393925 C81.29232120595665,2.3523150547393925 102.35231505473865,23.412308903521392 102.35231505473865,49.35231505473939 C102.35231505473865,75.29232120595739 81.29232120595665,96.35231505473939 55.35231505473865,96.35231505473939 L49.35231505473894,96.35231505473939 C23.412308903520945,96.35231505473939 2.352315054738945,75.29232120595739 2.3523150547389378,49.35231505473939 C2.3523150547389378,23.4123089035214 23.412308903520927,2.3523150547393996 49.35231505473894,2.3523150547393925Z"/>
    <path id="path-2" opacity="1" fill-rule="evenodd" d="M38.35232138807237,43.35231505473939 C38.35232138807237,35.55226622661439 44.55227255994737,29.352315054739393 52.35232138807237,29.352315054739393 C60.15237021619737,29.352315054739393 66.35232138807237,35.55226622661439 66.35232138807237,43.35231505473939 C66.35232138807237,53.75221739848939 52.35232138807237,69.35231505473939 52.35232138807237,69.35231505473939 C52.35232138807237,69.35231505473939 38.35232138807237,53.75221739848939 38.35232138807237,43.35231505473939 L38.35232138807237,43.35231505473939ZM47.35232138807237,43.35231505473939 C47.35232138807237,46.15236388286439 49.55227255994737,48.35231505473939 52.35232138807237,48.35231505473939 C55.15237021619737,48.35231505473939 57.35232138807237,46.15236388286439 57.35232138807237,43.35231505473939 C57.35232138807237,40.55226622661439 55.15237021619737,38.35231505473939 52.35232138807237,38.35231505473939 C49.55227255994737,38.35231505473939 47.35232138807237,40.55226622661439 47.35232138807237,43.35231505473939 L47.35232138807237,43.35231505473939Z"/>
  </defs>
  <g opacity="1">
    <g opacity="1">
      <use xlink:href="#path-0" fill="rgb(255,255,255)" fill-opacity="1"/>
      <use xlink:href="#path-0" fill-opacity="0" stroke="rgb(128,128,128)" stroke-opacity="1" stroke-width="1" stroke-linecap="butt" stroke-linejoin="miter"/>
    </g>
    <g opacity="1">
      <use xlink:href="#path-1" fill="rgb(250,153,23)" fill-opacity="1"/>
    </g>
    <g opacity="1">
      <g opacity="1">
        <use xlink:href="#path-2" fill="rgb(255,255,255)" fill-opacity="1"/>
      </g>
    </g>
  </g>
</svg>