<?xml version="1.0" encoding="utf-8"?>
<svg version="1.1" xmlns="http://www.w3.org/2000/svg" xmlns:xlink="http://www.w3.org/1999/xlink" height="120" width="120">
  <defs>
    <path id="path-0" opacity="1" fill-rule="evenodd" d="M120,60 C120,93.137451171875 93.13751220703125,120 60,120 C26.8634033203125,120 0,93.137451171875 0,60 C0,26.8634033203125 26.8634033203125,0 60,0 C93.13751220703125,0 120,26.8634033203125 120,60Z"/>
    <path id="path-1" opacity="1" fill-rule="evenodd" d="M60,105.2550048828125 C35.04620361328125,105.2550048828125 14.7449951171875,84.9537353515625 14.7449951171875,60 C14.7449951171875,35.0462646484375 35.04620361328125,14.7449951171875 60,14.7449951171875 C84.95379638671875,14.7449951171875 105.2550048828125,35.0462646484375 105.2550048828125,60 C105.2550048828125,84.9537353515625 84.95379638671875,105.2550048828125 60,105.2550048828125Z"/>
    <path id="path-2" opacity="1" fill-rule="evenodd" d="M60,85.5084228515625 C45.93475341796875,85.5084228515625 34.4915771484375,74.065185546875 34.4915771484375,60 C34.4915771484375,45.934814453125 45.93475341796875,34.4915771484375 60,34.4915771484375 C74.06524658203125,34.4915771484375 85.5084228515625,45.934814453125 85.5084228515625,60 C85.5084228515625,74.065185546875 74.06524658203125,85.5084228515625 60,85.5084228515625Z"/>
    <path id="path-3" opacity="1" fill-rule="evenodd" d="M60,71.0899658203125 C53.88482666015625,71.0899658203125 48.9100341796875,66.115234375 48.9100341796875,60 C48.9100341796875,53.8848876953125 53.88482666015625,48.9100341796875 60,48.9100341796875 C66.11517333984375,48.9100341796875 71.0899658203125,53.8848876953125 71.0899658203125,60 C71.0899658203125,66.115234375 66.11517333984375,71.0899658203125 60,71.0899658203125Z"/>
    <path id="path-4" opacity="1" fill-rule="evenodd" d="M58.7017822265625,61.2982177734375 C59.0606689453125,61.65625 59.53033447265625,61.835693359375 60,61.835693359375 C60.46966552734375,61.835693359375 60.9393310546875,61.65625 61.2982177734375,61.2982177734375 C62.01507568359375,60.581298828125 62.01507568359375,59.418701171875 61.2982177734375,58.7017822265625 L31.08123779296875,28.48486328125 C30.3643798828125,27.7679443359375 29.20166015625,27.7679443359375 28.48480224609375,28.48486328125 C27.7679443359375,29.20166015625 27.7679443359375,30.363525390625 28.48480224609375,31.081298828125 L58.7017822265625,61.2982177734375Z"/>
    <path id="path-5" opacity="1" fill-rule="evenodd" d="M39.9609375,22.9990234375 L19.20684814453125,2.244873046875 L15.399169921875,15.399169921875 L36.15325927734375,36.1533203125 L39.9609375,22.9990234375Z"/>
    <path id="path-6" opacity="1" fill-rule="evenodd" d="M36.15325927734375,36.1533203125 L15.399169921875,15.399169921875 L2.244873046875,19.206787109375 L22.99896240234375,39.9609375 L36.15325927734375,36.1533203125Z"/>
  </defs>
  <g opacity="1">
    <g opacity="1">
      <use xlink:href="#path-0" fill="rgb(66,74,82)" fill-opacity="0.54"/>
    </g>
    <g opacity="1">
      <use xlink:href="#path-1" fill="rgb(242,242,242)" fill-opacity="1"/>
    </g>
    <g opacity="1">
      <use xlink:href="#path-2" fill="rgb(66,74,82)" fill-opacity="1"/>
    </g>
    <g opacity="1">
      <use xlink:href="#path-3" fill="rgb(242,242,242)" fill-opacity="1"/>
    </g>
    <g opacity="1">
      <use xlink:href="#path-4" fill="rgb(255,157,0)" fill-opacity="1"/>
    </g>
    <g opacity="1">
      <use xlink:href="#path-5" fill="rgb(255,157,0)" fill-opacity="1"/>
    </g>
    <g opacity="1">
      <use xlink:href="#path-6" fill="rgb(255,157,0)" fill-opacity="1"/>
    </g>
  </g>
</svg>