<?xml version="1.0" encoding="utf-8"?>
<svg version="1.1" xmlns="http://www.w3.org/2000/svg" xmlns:xlink="http://www.w3.org/1999/xlink" height="93" width="96">
  <defs>
    <path id="path-0" opacity="1" fill-rule="evenodd" d="M92.93137174473844,46.5 C73.31513980917865,63.03113110986915 72.11079602874838,93 46.46568587236922,93 C20.820575715990056,93 1.0158724787299281e-14,72.16404863897101 0,46.50000000000001 C0,20.835951361029007 20.820575715990042,1.0166226834721434e-14 46.46568587236921,0 C72.11079602874838,0 106.51364915358482,35.05384615384615 92.93137174473844,46.5Z"/>
    <path id="path-1" opacity="1" fill-rule="evenodd" d="M18.45269775390625,76.1143798828125 C18.45269775390625,76.93115234375 19.123291015625,77.5933837890625 19.95025634765625,77.5933837890625 L61.955078125,77.5933837890625 C62.78204345703125,77.5933837890625 63.45269775390625,76.93115234375 63.45269775390625,76.1143798828125 L63.45269775390625,36.072265625 C63.45269775390625,35.255615234375 62.78204345703125,34.5933837890625 61.955078125,34.5933837890625 L19.95025634765625,34.5933837890625 C19.123291015625,34.5933837890625 18.45269775390625,35.255615234375 18.45269775390625,36.072265625 L18.45269775390625,76.1143798828125 L18.45269775390625,76.1143798828125ZM21.44769287109375,37.55126953125 L60.45782470703125,37.55126953125 L60.45782470703125,61.43603515625 L39.97918701171875,61.43603515625 L39.97918701171875,56.2103271484375 L45.72601318359375,50.58056640625 C46.00872802734375,50.3035888671875 46.16815185546875,49.9268798828125 46.16888427734375,49.53369140625 C46.169677734375,49.140380859375 46.01190185546875,48.7630615234375 45.689208984375,48.4442138671875 L54.2056884765625,42.1361083984375 C54.86724853515625,41.6461181640625 55.0013427734375,40.7188720703125 54.5052490234375,40.0654296875 C54.009033203125,39.412109375 53.0704345703125,39.2796630859375 52.4085693359375,39.7696533203125 L43.5498046875,46.3311767578125 L43.259521484375,46.04443359375 C42.77569580078125,45.5670166015625 42.025390625,45.4737548828125 41.43707275390625,45.818115234375 L38.44921875,47.567138671875 C38.60784912109375,47.015625 38.69451904296875,46.4345703125 38.69451904296875,45.8333740234375 C38.69451904296875,42.3267822265625 35.80584716796875,39.4739990234375 32.2552490234375,39.4739990234375 C28.70452880859375,39.4739990234375 25.8160400390625,42.3267822265625 25.8160400390625,45.8333740234375 C25.8160400390625,47.287841796875 26.31402587890625,48.628662109375 27.14892578125,49.7012939453125 C25.67706298828125,50.97021484375 25.27862548828125,52.8953857421875 25.11676025390625,53.6798095703125 C24.69635009765625,55.7174072265625 24.6390380859375,58.3731689453125 24.63116455078125,61.4361572265625 L21.44769287109375,61.4361572265625 L21.44769287109375,37.55126953125 L21.44769287109375,37.55126953125ZM28.8111572265625,45.833251953125 C28.8111572265625,47.708984375 30.35614013671875,49.2347412109375 32.25537109375,49.2347412109375 C34.15447998046875,49.2347412109375 35.699462890625,47.708984375 35.699462890625,45.833251953125 C35.699462890625,43.957763671875 34.15447998046875,42.431884765625 32.25537109375,42.431884765625 C30.35614013671875,42.431884765625 28.8111572265625,43.957763671875 28.8111572265625,45.833251953125 L28.8111572265625,45.833251953125ZM28.051513671875,54.270263671875 C28.2645263671875,53.23779296875 28.5496826171875,52.596435546875 28.87225341796875,52.1925048828125 L36.0108642578125,52.1925048828125 C36.27935791015625,52.1925048828125 36.5433349609375,52.1212158203125 36.77435302734375,51.9859619140625 L41.9637451171875,48.947998046875 L42.5491943359375,49.5262451171875 L37.4271240234375,54.5440673828125 C37.1434326171875,54.82177734375 36.98406982421875,55.1998291015625 36.98406982421875,55.5941162109375 L36.98406982421875,61.4359130859375 L27.62603759765625,61.4359130859375 C27.63360595703125,58.5362548828125 27.68572998046875,56.04248046875 28.051513671875,54.270263671875 L28.051513671875,54.270263671875ZM60.4576416015625,74.635498046875 L60.4576416015625,64.393798828125 L21.44769287109375,64.393798828125 L21.44769287109375,74.635498046875 L60.4576416015625,74.635498046875 L60.4576416015625,74.635498046875Z"/>
    <path id="path-2" opacity="1" fill-rule="evenodd" d="M57.544034459566625,67.86929508944408 L30.591320974241967,67.86929508944408 L30.591320974241967,67.41425202984473 C30.591320974241967,66.59753877128068 29.92086677175185,65.93524985915087 29.093745982736362,65.93524985915087 C28.26677670879488,65.93524985915087 27.596322506304766,66.59753877128068 27.596322506304766,67.41425202984473 L27.596322506304766,67.86929508944408 L24.36086961591518,67.86929508944408 C23.533900341973702,67.86929508944408 22.863446139483585,68.53158400157389 22.863446139483585,69.34829726013794 C22.863446139483585,70.165010518702 23.533900341973702,70.8272994308318 24.36086961591518,70.8272994308318 L27.596322506304766,70.8272994308318 L27.596322506304766,71.28234249043116 C27.596322506304766,72.09905574899521 28.26677670879488,72.76134466112502 29.093745982736362,72.76134466112502 C29.92086677175185,72.76134466112502 30.591320974241967,72.09905574899521 30.591320974241967,71.28234249043116 L30.591320974241967,70.8272994308318 L57.544034459566625,70.8272994308318 C58.37115524858211,70.8272994308318 59.04160945107223,70.165010518702 59.04160945107223,69.34829726013794 C59.04160945107223,68.53158400157389 58.37115524858211,67.86929508944408 57.544034459566625,67.86929508944408Z"/>
    <path id="path-3" opacity="1" fill-rule="evenodd" d="M70.10697215812861,24.384456670239842 L67.40139674021384,26.1092609991605 L69.26756738472055,28.44281979711198 L70.10697215812861,24.384456670239842Z"/>
    <path id="path-4" opacity="1" fill-rule="evenodd" d="M71.45269082000505,36.59339222079916 L71.50883150992678,39.80149445289892 L74.4738039710342,39.43045860402463 L71.45269082000505,36.59339222079916Z"/>
    <path id="path-5" opacity="1" fill-rule="evenodd" d="M77.54730455739426,20.326093543367506 L74.84172913947941,22.050897872288164 L76.70789978398618,24.38445667023964 L77.54730455739426,20.326093543367506Z"/>
    <path id="path-6" opacity="1" fill-rule="evenodd" d="M60.29114454193359,15.406613400358538 L60.347285231855324,18.614715632458253 L63.312257692962746,18.243679783583964 L60.29114454193359,15.406613400358538Z"/>
    <path id="path-7" opacity="1" fill-rule="evenodd" d="M46.28979175422455,25.80735260221377 L46.32259685616677,27.659792451474583 L48.03421150492508,27.445544698068456 L46.28979175422455,25.80735260221377Z"/>
    <path id="path-8" opacity="1" fill-rule="evenodd" d="M55.92637499898275,26.60039057689759 L54.07745239776523,26.483036243145534 L54.15253211561237,28.206623063128127 L55.92637499898275,26.60039057689759Z"/>
    <path id="path-9" opacity="1" fill-rule="evenodd" d="M56.7776166648439,19.461831295807542 L54.92497389742675,19.480195388956638 L55.12620106913416,21.19367012081479 L56.7776166648439,19.461831295807542Z"/>
    <path id="path-10" opacity="1" fill-rule="evenodd" d="M72.85711252403969,50.36323031094355 L73.05711226828402,47.59339222079916 L70.45269082000505,47.68500791584462 L72.85711252403969,50.36323031094355Z"/>
  </defs>
  <g opacity="1">
    <g opacity="1">
      <use xlink:href="#path-0" fill="rgb(255,255,255)" fill-opacity="1"/>
    </g>
    <g opacity="1">
      <g opacity="1">
        <g opacity="1">
          <use xlink:href="#path-1" fill="rgb(0,0,0)" fill-opacity="1"/>
        </g>
        <g opacity="1">
          <use xlink:href="#path-2" fill="rgb(255,170,0)" fill-opacity="1"/>
        </g>
      </g>
      <g opacity="1">
        <use xlink:href="#path-3" fill="rgb(255,157,0)" fill-opacity="1"/>
      </g>
      <g opacity="1">
        <use xlink:href="#path-4" fill-opacity="0" stroke="rgb(121,121,121)" stroke-opacity="1" stroke-width="1"/>
      </g>
      <g opacity="1">
        <use xlink:href="#path-5" fill-opacity="0" stroke="rgb(121,121,121)" stroke-opacity="1" stroke-width="1"/>
      </g>
      <g opacity="1">
        <use xlink:href="#path-6" fill-opacity="0" stroke="rgb(121,121,121)" stroke-opacity="1" stroke-width="1"/>
      </g>
      <g opacity="1">
        <use xlink:href="#path-7" fill-opacity="0" stroke="rgb(121,121,121)" stroke-opacity="1" stroke-width="1"/>
      </g>
      <g opacity="1">
        <use xlink:href="#path-8" fill-opacity="0" stroke="rgb(121,121,121)" stroke-opacity="1" stroke-width="1"/>
      </g>
      <g opacity="1">
        <use xlink:href="#path-9" fill-opacity="0" stroke="rgb(121,121,121)" stroke-opacity="1" stroke-width="1"/>
      </g>
      <g opacity="1">
        <use xlink:href="#path-10" fill="rgb(255,170,0)" fill-opacity="1"/>
      </g>
    </g>
  </g>
</svg>