<?xml version="1.0" encoding="utf-8"?>
<svg version="1.1" xmlns="http://www.w3.org/2000/svg" xmlns:xlink="http://www.w3.org/1999/xlink" height="129.40926021895666" width="129.40926021895712">
  <defs>
    <ellipse id="ellipse-0" opacity="1" rx="60" ry="60" cx="64.70463010947856" cy="64.70463010947833"/>
    <path id="path-1" opacity="1" fill-rule="evenodd" d="M58.76328864603758,46.48853146017143 C58.884378848458454,45.43361880398194 58.884378848458454,44.36833235297397 58.76328864603758,43.313273586998314 L56.20067524281458,42.18209162242505 C56.05475351516868,41.526497011854104 55.85405636423227,40.88434450161133 55.60106694252786,40.26220903207465 L57.01310432105936,37.82553612802035 C56.49690073196964,36.90387559682323 55.880348567411716,36.04226618774436 55.174841115430006,35.256195538118405 L52.463238560856844,35.87730823915185 C51.96733839533347,35.441170527417 51.43565161992697,35.04755076345932 50.873436675273226,34.70097835065025 L50.61416633836483,31.866302389052994 C49.67173692217726,31.424466395657287 48.68183547247125,31.091482192962573 47.66403507383595,30.87407083113294 L45.81598532591203,33.019108601980285 C45.49069234546415,32.99134774260688 45.16393868706186,32.968408506177276 44.83148838463735,32.968408506177276 C44.49903808221285,32.968408506177276 44.17243049160599,32.991493852393056 43.84713751115812,33.019108601980285 L41.999233831029635,30.874363050705295 C40.981433432394326,31.091774412534928 39.99153198268832,31.424758615229642 39.04910256650075,31.86659460862535 L38.78983222959236,34.701270570222604 C38.22776335273406,35.04784298303167 37.69593050953212,35.44131663720318 37.200030344008745,35.87745434893803 L34.48842778943558,35.25634164790458 C33.782920337453874,36.04241229753054 33.16636817289595,36.9040217066094 32.65016458380623,37.82568223780653 L34.06220196233773,40.26235514186083 C33.80906647283788,40.88449061139751 33.608515389696905,41.52664312164028 33.462593662051,42.18223773221122 L30.899980258828013,43.313273586998314 C30.778890056407135,44.3681862431878 30.778890056407135,45.43347269419577 30.899980258828013,46.48853146017143 L33.462593662051,47.619713424744695 C33.608661457492346,48.27530803531564 33.80921254063332,48.91746054555841 34.06220196233773,49.539596015095086 L32.65001851601079,51.97626891914938 C33.16622210510051,52.89792945034651 33.78277426965843,53.759538859425376 34.48828172164014,54.54560950905133 L37.199884276213304,53.92449680801789 C37.695638373941236,54.36078062953891 38.227471217143176,54.754254283710424 38.78968616179692,55.10082669651948 L39.04895649870531,57.93550265811675 C39.99138591489288,58.377338651512446 40.98128736459889,58.71032285420716 41.99908776323419,58.9277342160368 L43.84699144336267,56.7829886647618 C44.17228442381055,56.81074952413521 44.49903808221285,56.83368876056482 44.83148838463735,56.83368876056482 C45.16393868706185,56.83368876056482 45.490546277668706,56.81060341434904 45.81583925811658,56.7829886647618 L47.663742938245065,58.9277342160368 C48.68154333688037,58.71017674442099 49.671298718790936,58.377338651512446 50.61387420277395,57.93550265811675 L50.87314453968234,55.10097280630566 C51.43521341654065,54.754400393496596 51.96704625974259,54.36092673932509 52.46294642526596,53.924789027590236 L55.174548979839116,54.54590172862369 C55.88005643182083,53.75983107899773 56.49660859637875,52.89822166991887 57.012812185468476,51.976561138721735 L55.600774806936975,49.53988823466744 C55.85391029643682,48.91775276513076 56.054461379577795,48.27560025488799 56.2003831072237,47.62000564431705 L58.76328864603758,46.48853146017143Z"/>
    <path id="path-2" opacity="1" fill-rule="evenodd" d="M86.00098866537137,78.04956026222635 L80.97757111234802,84.07994946706135 L78.37683401451484,81.47861083398689 L76.72451511248232,83.13140473520788 L80.23014220307464,86.63803960342779 C80.44895176064577,86.85764261205006 80.74634579216436,86.98081316179628 81.0563016540909,86.98052094222392 C81.07339158615754,86.98052094222392 81.09165006058771,86.98052094222392 81.10873999265434,86.97935206393453 C81.43695432901104,86.96459497553076 81.74369669943786,86.8126407979079 81.95432646046429,86.56045530696841 L87.79703827811815,79.54718557052861 L86.00098866537137,78.04956026222635Z"/>
    <ellipse id="ellipse-3" opacity="1" rx="7.01125418118464" ry="7.01326973643976" cx="44.83163445243268" cy="44.90090252358463"/>
    <path id="path-4" opacity="1" fill-rule="evenodd" d="M98.5087739890141,43.886170058593585 C98.60970683566407,43.00702747517363 98.60970683566407,42.11926441436929 98.5087739890141,41.24012183094933 L96.37326281966162,40.29742149054288 C96.25158834605898,39.751117000031456 96.08448678807409,39.21591685326939 95.87356489145678,38.69751933191755 L97.05028705153227,36.66703163343205 C96.6201173939575,35.8990785972919 96.10639695739029,35.1809489982377 95.51847408073887,34.52593882681146 L93.25880528526125,35.043605799232424 C92.84557949195766,34.680084651226956 92.40240980058863,34.3522142910484 91.93397038060823,34.06335524377879 L91.71779004335504,31.701198330674156 C90.93238350726692,31.33300166951107 90.10753866640964,31.05553918556317 89.25932297828174,30.874363050705142 L87.71933021094364,32.66157795520788 C87.4482283826045,32.6384926089921 87.17595801190183,32.61920611721689 86.89901347174504,32.61920611721689 C86.62206893158825,32.61920611721689 86.34979856088557,32.63834649920592 86.07869673254643,32.66157795520788 L84.53885003300378,30.874363050705142 C83.69063434487589,31.05553918556317 82.86578950401861,31.33300166951107 82.08038296793049,31.70119833067416 L81.86434869847274,34.06335524377879 C81.39590927849234,34.3522142910484 80.9527395871233,34.680084651226956 80.53951379381974,35.043459689446244 L78.27984499834211,34.52579271702528 C77.6919221216907,35.180802888451524 77.17805561732804,35.898932487505725 76.74788595975328,36.66688552364588 L77.92460811982876,38.697373222131375 C77.71368622321145,39.21577074348322 77.54658466522655,39.75097089024528 77.42491019162391,40.2972753807567 L75.289252954476,41.23997572116315 C75.18832010782603,42.11911830458311 75.18832010782603,43.00688136538745 75.289252954476,43.88602394880741 L77.42476412382847,44.82872428921386 C77.54643859743112,45.375028779725284 77.71368622321145,45.91022892648735 77.92446205203332,46.428626447839186 L76.74773989195783,48.45911414632468 C77.1779095495326,49.227067182464836 77.69162998609981,49.94519678151904 78.27955286275123,50.60020695294528 L80.53922165822885,50.08253998052432 C80.95244745153242,50.44606112852978 81.39561714290147,50.77393148870834 81.86405656288187,51.06279053597795 L82.08023690013506,53.42494744908258 C82.86564343622318,53.79314411024567 83.69034220928502,54.07060659419356 84.53855789741291,54.25192883883777 L86.07855066475102,52.46471393433503 C86.34965249309016,52.48779928055081 86.62192286379283,52.50708577232602 86.89886740394962,52.50708577232602 C87.1758119441064,52.50708577232602 87.44808231480907,52.48794539033699 87.71918414314821,52.46471393433503 L89.25903084269088,54.25192883883777 C90.10724653081877,54.07060659419356 90.93209137167605,53.79329022003184 91.71749790776417,53.42509355886875 L91.93353217722192,51.062936645764125 C92.40197159720232,50.774223708280694 92.84514128857136,50.446353348102136 93.25836708187492,50.08283220009667 L95.51803587735256,50.60049917251763 C96.10595875400396,49.94548900109139 96.61982525836663,49.227359402037195 97.0499949159414,48.45940636589704 L95.87327275586591,46.42891866741154 C96.0841946524832,45.91052114605969 96.25129621046811,45.375320999297635 96.37297068407075,44.82901650878621 L98.5087739890141,43.886170058593585Z"/>
    <ellipse id="ellipse-5" opacity="1" rx="4.674169454123145" ry="4.675513157626561" cx="86.89915953954055" cy="42.56314594477143"/>
    <path id="path-6" opacity="1" fill-rule="evenodd" d="M98.45122327760981,84.29838359739404 C98.62898778466193,82.97535948357188 98.62898778466193,81.63465608562247 98.45122327760981,80.31163197180032 L96.01145289035301,79.79878662232316 C95.87371095925182,79.04193792993236 95.67315987611086,78.29794689872504 95.41213672565718,77.57426512779614 L97.28151237171551,75.89911642929026 C96.75523010474035,74.67763861686032 96.0817114999603,73.52512462350538 95.27585547251039,72.46714366180619 L92.91744484731441,73.24196385789661 C92.41906152926855,72.65431029789742 91.87335224549967,72.1085902465307 91.28586757223458,71.61006365609877 L92.06061115925547,69.25082893871765 C91.00293425246468,68.44459513859941 89.85060541422791,67.77073680475648 88.62933257654282,67.24430324516496 L86.95451923401234,69.11407017885706 C86.23104544319136,68.85297199096087 85.48712216100857,68.65250936432761 84.7304909806224,68.51458172617764 L84.21764695082783,66.07410996768274 C82.89500306310644,65.89629435790675 81.55468497213666,65.89629435790675 80.23204108441526,66.07410996768274 L79.71934312241613,68.51458172617764 C78.96271194202997,68.65250936432761 78.21893472764263,68.85297199096085 77.49546093682164,69.11407017885706 L75.82079366208661,67.24415713537879 C74.59966689219695,67.77059069497031 73.44748412175562,68.44430291902707 72.38980721496483,69.25039060935912 L73.1644047341903,71.60947921695407 C72.5769200609252,72.108005807386 72.03135684495177,72.65387196853891 71.5329735269059,73.24152552853809 L69.17441683391449,72.4665592226615 C68.36841473866914,73.52454018436067 67.69489613388909,74.6772002875018 67.16861386691393,75.89867809993174 L69.03784344517683,77.57397290822382 C68.77682029472315,78.2976546791527 68.57641527937763,79.0417918201462 68.438527280481,79.798640512537 L65.99875689322418,80.31163197180035 C65.82099238617207,81.6346560856225 65.82099238617207,82.9753594835719 65.99875689322418,84.29838359739405 L68.438527280481,84.81122894687121 C68.57626921158217,85.56807763926201 68.77682029472314,86.31221478025553 69.03784344517683,87.03575044139824 L67.16846779911849,88.71089913990413 C67.69475006609366,89.93237695233407 68.3682686708737,91.08489094568901 69.17412469832361,92.1428719073882 L71.53253532351958,91.36805171129777 C72.03091864156545,91.95570527129695 72.57662792533434,92.50142532266369 73.16411259859943,92.99995191309561 L72.38936901157852,95.35918663047674 C73.44704591836931,96.16542043059496 74.5993747566061,96.8392787644379 75.82064759429119,97.36571232402942 L77.49546093682167,95.49594539033731 C78.21893472764265,95.75704357823352 78.96285800982542,95.95765231465295 79.7194891902116,96.09557995280292 L80.23233322000617,98.5360517112978 C81.55497710772757,98.71386732107379 82.89529519869735,98.71386732107379 84.21793908641874,98.5360517112978 L84.73063704841786,96.09557995280292 C85.48726822880404,95.95765231465293 86.23104544319138,95.75718968801971 86.95451923401237,95.4960915001235 L88.6291865087474,97.36600454360176 C89.85031327863705,96.83957098401025 91.00249604907839,96.1658587599535 92.06017295586918,95.35977106962144 L91.28557543664371,93.00068246202649 C91.8730601099088,92.50215587159455 92.41862332588224,91.95628971044165 92.9170066439281,91.36863615044246 L95.27556333691952,92.14360245631906 C96.08156543216487,91.08562149461987 96.75523010474035,89.93296139147874 97.28151237171552,88.71133746926263 L95.41228279345262,87.03604266097057 C95.6733059439063,86.31236089004167 95.87371095925182,85.56822374904817 96.01159895814845,84.81137505665737 L98.45122327760981,84.29838359739404Z"/>
    <ellipse id="ellipse-7" opacity="1" rx="9.34833890824612" ry="9.351026315253108" cx="82.22499008541732" cy="82.30500778459705"/>
    <path id="path-8" opacity="1" fill-rule="evenodd" d="M53.011430997147954,77.62949462697043 L53.011430997147954,84.64276436341015 L61.1912275418634,81.13612949519029 L53.011430997147954,77.62949462697043Z"/>
    <path id="path-9" opacity="1" fill-rule="evenodd" d="M29.731729718853558,43.31278440635333 C29.731592389751995,42.84989378135333 30.004587384869183,42.43046018760333 30.427896711041058,42.24344846885333 L32.46729490440043,41.34403440635333 C32.55974790733012,41.00150510947833 32.66010496299418,40.67728635947833 32.77198240440043,40.36454221885333 L31.63878843467387,38.41263792197833 C31.432260724712933,38.05570432822833 31.428751203228558,37.61649534385333 31.629587384869183,37.25638792197833 C32.18772337119731,36.25931760947833 32.85436460654887,35.32718870322833 33.61742612998637,34.47684690635333 C33.90006467979106,34.15799925010333 34.33477232139262,34.01981565635333 34.74946043174418,34.11722776572833 L36.895044538189495,34.60795042197833 C37.14496824424418,34.40824339072833 37.40729734580668,34.21537229697833 37.677820417095745,34.03031370322833 L37.885523053814495,31.76005003135333 C37.92365476768168,31.34452268760333 38.18015501182231,30.98099729697833 38.55875608604106,30.80570432822833 C39.58136961143168,30.32670042197833 40.65526792686137,29.96610471885333 41.75968382041606,29.73050901572833 C42.17627927940043,29.64139768760333 42.60819456260356,29.78788206260333 42.88483640830668,30.11161253135333 L44.38218137900981,31.85038206260333 L45.28138181846293,31.85038206260333 L46.77857420127543,30.11185667197833 C47.05552122275981,29.78812620322833 47.48716184775981,29.64188596885333 47.90372678916606,29.73075315635333 C49.00815794150981,29.96610471885333 50.08204099815043,30.32670042197833 51.10465452354106,30.80594846885333 C51.48282835166606,30.98075315635333 51.73932859580668,31.34379026572833 51.77790281455668,31.75907346885333 L51.98560545127543,34.03055784385333 C52.25757810752543,34.21586057822833 52.51844236533793,34.40848753135333 52.76838133018168,34.60819456260333 L54.91367551963481,34.11722776572833 C55.32834837119731,34.02005979697833 55.76291868369731,34.15799925010333 56.04569456260356,34.47684690635333 C56.80860349815043,35.32718870322833 57.47525999229106,36.25956175010333 58.03354856650981,37.25638792197833 C58.23438474815043,37.61649534385333 58.23087522666606,38.05570432822833 58.02433225791606,38.41263792197833 L56.89115354697856,40.36454221885333 C57.00303098838481,40.67728635947833 57.10337278525981,41.00150510947833 57.19584104697856,41.34403440635333 L59.23508665244731,42.24344846885333 C59.65854856650981,42.43070432822833 59.93152830283793,42.84989378135333 59.93125364463481,43.31302854697833 L59.93125364463481,46.48832151572833 C59.93140623252543,46.95145628135333 59.65839597861918,47.37088987510333 59.23508665244731,47.55790159385333 L57.19584104697856,48.45731565635333 C57.10337278525981,48.79984495322833 57.00303098838481,49.12406370322833 56.89115354697856,49.43680784385333 L58.02433225791606,51.38871214072833 C58.23072263877543,51.74564573447833 58.23423216025981,52.18485471885333 58.03339597861918,52.54496214072833 C57.47525999229106,53.54203245322833 56.80860349815043,54.47416135947833 56.04554197471293,55.32450315635333 C55.76261350791606,55.64286253135333 55.32822630088481,55.78080198447833 54.91352293174418,55.68412229697833 L52.76807615440043,55.19339964072833 C52.51816770713481,55.39310667197833 52.25583860557231,55.58597776572833 51.98530027549418,55.77103635947833 L51.77759763877543,58.04130003135333 C51.73948118369731,58.45682737510333 51.48298093955668,58.82035276572833 51.10437986533793,58.99564573447833 C50.08176633994731,59.47464964072833 49.00785276572856,59.83524534385333 47.90345213096293,60.07084104697833 C47.82456419150981,60.08768675010333 47.74424192588481,60.09598753135333 47.66373655479106,60.09598753135333 C47.32340452354106,60.09623167197833 47.00000974815043,59.94779417197833 46.77814695518168,59.68949339072833 L45.28095457236918,57.95121214072833 L44.38175413291606,57.95121214072833 L42.88456175010356,59.68949339072833 C42.60730955283793,60.01273557822833 42.17597410361918,60.15897581260333 41.75937864463481,60.07084104697833 C40.65497800986918,59.83548948447833 39.581079694439495,59.47464964072833 38.55846616904887,58.99564573447833 C38.18029234092387,58.82059690635333 37.923792096783245,58.45755979697833 37.88523313682231,58.04252073447833 L37.67753050010356,55.77103635947833 C37.405542585064495,55.58573362510333 37.144678327251995,55.39310667197833 36.89475462119731,55.19339964072833 L34.74946043174418,55.68436643760333 C34.33477232139262,55.78055784385333 33.900659772564495,55.64261839072833 33.61742612998637,55.32474729697833 C32.854517194439495,54.47416135947833 32.18786070029887,53.54203245322833 31.629587384869183,52.54520628135333 C31.428598615337933,52.18485471885333 31.432108136822308,51.74564573447833 31.638651105572308,51.38871214072833 L32.77184507529887,49.43705198447833 C32.65995237510356,49.12406370322833 32.55961057822856,48.80008909385333 32.46714231650981,48.45755979697833 L30.427896711041058,47.55790159385333 C30.004434796978558,47.37088987510333 29.73143980186137,46.95145628135333 29.731729718853558,46.48832151572833 L29.731729718853558,43.31278440635333 L29.731729718853558,43.31278440635333ZM34.60119077842387,42.44339964072833 C34.51867124717387,42.80277464072833 34.27166196983012,43.10233518760333 33.93468687217387,43.25150510947833 L32.06867429893168,44.07450315635333 L32.06867429893168,45.72757932822833 L33.93439695518168,46.55057737510333 C34.27152464072856,46.69999143760333 34.51838133018168,46.99955198447833 34.60090086143168,47.35868284385333 C34.73192808311137,47.95096800010333 34.91291258018168,48.53104612510333 35.14179441611918,49.09256956260333 C35.28113767783793,49.42923948447833 35.25573179404887,49.81156370322833 35.07328245322856,50.12674925010333 L34.00406858604106,51.97025510947833 C34.283350202251995,52.41361448447833 34.58849546592387,52.84012815635333 34.91816160361918,53.24759885947833 L36.93799802940043,52.78519651572833 C37.305200788189495,52.69925901572833 37.69126341025981,52.79715940635333 37.97303220908793,53.04789182822833 C38.419702741314495,53.44071409385333 38.89879820029887,53.79520628135333 39.40522215049418,54.10721800010333 C39.71634885947856,54.30033323447833 39.919092389751995,54.62821409385333 39.95298216025981,54.99271604697833 L40.14928648154887,57.13993284385333 C40.61612913291606,57.32914182822833 41.09348508994731,57.49125120322833 41.57914182822856,57.62504026572833 L42.96109983604106,56.02005979697833 C43.18326780479106,55.76224729697833 43.50650999229106,55.61380979697833 43.84671995322856,55.61380979697833 L45.81641599815043,55.61380979697833 C46.15677854697856,55.61380979697833 46.48002073447856,55.76224729697833 46.70203611533793,56.02005979697833 L48.08399412315043,57.62504026572833 C48.56922361533793,57.49125120322833 49.04627439658793,57.32914182822833 49.51267454307231,57.13993284385333 L49.70899412315043,54.99491331260333 C49.74213621299418,54.62967893760333 49.94504758994731,54.30130979697833 50.25675413291606,54.10819456260333 C50.76316282432231,53.79520628135333 51.24256345908793,53.44046995322833 51.68995115440043,53.04764768760333 C51.97171995322856,52.79667112510333 52.35776731650981,52.69877073447833 52.72498533408793,52.78519651572833 L54.74482175986918,53.24735471885333 C55.07450315635356,52.84012815635333 55.37977049033793,52.41361448447833 55.65891477744731,51.97001096885333 L54.58970091025981,50.12674925010333 C54.40711424033793,49.81131956260333 54.38184568565043,49.42899534385333 54.52118894736918,49.09256956260333 C54.75007078330668,48.53080198447833 54.93107053916606,47.95072385947833 55.06208250205668,47.35868284385333 C55.14460203330668,46.99930784385333 55.39161131065043,46.69974729697833 55.72858640830668,46.55033323447833 L57.59430906455668,45.72733518760333 L57.59430906455668,44.07450315635333 L55.72858640830668,43.25150510947833 C55.39145872275981,43.10209104697833 55.14460203330668,42.80253050010333 55.06208250205668,42.44339964072833 C54.93107053916606,41.85111448447833 54.75007078330668,41.27103635947833 54.52118894736918,40.70951292197833 C54.38184568565043,40.37284300010333 54.40726682822856,39.99051878135333 54.58970091025981,39.67533323447833 L55.65891477744731,37.83182737510333 C55.37977049033793,37.38822385947833 55.07450315635356,36.96195432822833 54.74482175986918,36.55448362510333 L52.72498533408793,37.01688596885333 C52.35776731650981,37.10233518760333 51.97187254111918,37.00443479697833 51.68995115440043,36.75419065635333 C51.24329588096293,36.36136839072833 50.76416990440043,36.00687620322833 50.25776121299418,35.69486448447833 C49.94663450400981,35.50174925010333 49.74390623252543,35.17386839072833 49.71000120322856,34.80912229697833 L49.51371214072856,32.66214964072833 C49.04685423057231,32.47269651572833 48.56952879111918,32.31083128135333 48.08384153525981,32.17704221885333 L46.70188352744731,33.78202268760333 C46.47971555869731,34.03983518760333 46.15647337119731,34.18802854697833 45.81629392783793,34.18827268760333 L43.84671995322856,34.18827268760333 C43.50635740440043,34.18802854697833 43.18311521690043,34.03983518760333 42.96109983604106,33.78202268760333 L41.57914182822856,32.17704221885333 C41.09391233604106,32.31083128135333 40.61686155479106,32.47269651572833 40.15046140830668,32.66214964072833 L39.95414182822856,34.80692503135333 C39.920984479595745,35.17240354697833 39.718103620220745,35.50077268760333 39.406397077251995,35.69388792197833 C38.89997312705668,36.00663206260333 38.42057249229106,36.36136839072833 37.973169538189495,36.75443479697833 C37.69111082236918,37.00467893760333 37.30535337608012,37.10233518760333 36.938135358501995,37.01688596885333 L34.91831419150981,36.55472776572833 C34.58878538291606,36.96195432822833 34.28350279014262,37.38846800010333 34.004358503033245,37.83182737510333 L35.07358762900981,39.67533323447833 C35.25615904014262,39.99076292197833 35.28144285361918,40.37284300010333 35.14208433311137,40.70951292197833 C34.91320249717387,41.27128050010333 34.73221800010356,41.85135862510333 34.60119077842387,42.44339964072833 L34.60119077842387,42.44339964072833Z"/>
    <path id="path-10" opacity="1" fill-rule="evenodd" d="M53.01142332236918,44.90091917197833 C53.01142332236918,49.41971800010333 49.34922239463481,53.08304807822833 44.83164426963481,53.08304807822833 C40.31623289268168,53.07767698447833 36.65723631065043,49.41752073447833 36.65183469932231,44.90091917197833 C36.65183469932231,40.38212034385333 40.314050885845745,36.71879026572833 44.83164426963481,36.71879026572833 C49.34922239463481,36.71879026572833 53.01142332236918,40.38212034385333 53.01142332236918,44.90091917197833 L53.01142332236918,44.90091917197833ZM50.67432615440043,44.90091917197833 C50.67432615440043,41.67313596885333 48.05842039268168,39.05643675010333 44.83161375205668,39.05643675010333 C41.60630247275981,39.06034300010333 38.99271604697856,41.67460081260333 38.988916608501995,44.90091917197833 C38.988916608501995,48.12845823447833 41.60483762900981,50.74515745322833 44.83161375205668,50.74515745322833 C48.05842039268168,50.74515745322833 50.67432615440043,48.12845823447833 50.67432615440043,44.90091917197833 L50.67432615440043,44.90091917197833Z"/>
    <path id="path-11" opacity="1" fill-rule="evenodd" d="M74.12058469932231,41.24027464072833 C74.12027952354106,40.77689573447833 74.39386961143168,40.35721800010333 74.81775877158793,40.17069456260333 L76.43122312705668,39.45829221885333 C76.49433347861918,39.23270628135333 76.56238767783793,39.01420042197833 76.63541624229106,38.80301878135333 L75.73740598838481,37.25419065635333 C75.53101560752543,36.89725706260333 75.52750608604106,36.45804807822833 75.72834226768168,36.09794065635333 C76.20041868369731,35.25443479697833 76.76410886924418,34.46586057822833 77.40928098838481,33.74637815635333 C77.69220945518168,33.42875120322833 78.12574217002543,33.29081175010333 78.54014036338481,33.38675901572833 L80.23804685752543,33.77494260947833 C80.40470335166606,33.64432737510333 80.57590696494731,33.51810667197833 80.75159666221293,33.39579221885333 L80.91593382041606,31.59452268760333 C80.95362302940043,31.17899534385333 81.21027586143168,30.81522581260333 81.58915159385356,30.64042112510333 C82.45533201377543,30.23563596885333 83.36460325400981,29.93046018760333 84.29944822471293,29.73050901572833 C84.71604368369731,29.64115354697833 85.14811155479106,29.78763792197833 85.42460081260356,30.11185667197833 L86.61374876182231,31.49296018760333 L87.18430540244731,31.49296018760333 L88.37342283408793,30.11185667197833 C88.65009519736918,29.78788206260333 89.08201048057231,29.64164182822833 89.49857542197856,29.73050901572833 C90.43357298057231,29.93046018760333 91.34269163291606,30.23563596885333 92.20887205283793,30.64042112510333 C92.58777830283793,30.81522581260333 92.84443113486918,31.17899534385333 92.88208982627543,31.59452268760333 L93.04642698447856,33.39579221885333 C93.22214719932231,33.51835081260333 93.39335081260356,33.64481565635333 93.56000730674418,33.77494260947833 L95.25803587119731,33.38675901572833 C95.67243406455668,33.29032346885333 96.10627195518168,33.42826292197833 96.38889524619731,33.74637815635333 C97.03394529502543,34.46610471885333 97.59806272666606,35.25419065635333 98.07102415244731,36.09671995322833 C98.27186033408793,36.45731565635333 98.26835081260356,36.89676878135333 98.06180784385356,37.25419065635333 L97.16260740440043,38.80423948447833 C97.23566648643168,39.01566526572833 97.30402586143168,39.23246214072833 97.36683103721293,39.45853635947833 L98.98044798057231,40.17069456260333 C99.40433714072856,40.35721800010333 99.67789671104106,40.77689573447833 99.67762205283793,41.24027464072833 L99.67762205283793,43.88627073447833 C99.67789671104106,44.34964964072833 99.40433714072856,44.76932737510333 98.98044798057231,44.95585081260333 L97.36683103721293,45.66800901572833 C97.30414793174418,45.89408323447833 97.23566648643168,46.11112425010333 97.16260740440043,46.32230589072833 L98.06180784385356,47.87235471885333 C98.26835081260356,48.22977659385333 98.27186033408793,48.66922971885333 98.07102415244731,49.02982542197833 C97.59791013877543,49.87235471885333 97.03379270713481,50.66044065635333 96.38889524619731,51.38016721885333 C96.10611936729106,51.69779417197833 95.67243406455668,51.83573362510333 95.25803587119731,51.73978635947833 L93.56000730674418,51.35160276572833 C93.39335081260356,51.48197385947833 93.22214719932231,51.60843870322833 93.04642698447856,51.73050901572833 L92.88208982627543,53.53177854697833 C92.84443113486918,53.94730589072833 92.58777830283793,54.31131956260333 92.20887205283793,54.48612425010333 C91.34269163291606,54.89090940635333 90.43342039268168,55.19608518760333 89.49857542197856,55.39603635947833 C89.41971800010356,55.41263792197833 89.33936521690043,55.42118284385333 89.25889036338481,55.42093870322833 C88.91871092002543,55.42142698447833 88.59531614463481,55.27298948447833 88.37342283408793,55.01468870322833 L87.18430540244731,53.63358518760333 L86.61374876182231,53.63358518760333 L85.42460081260356,55.01468870322833 C85.14753172080668,55.33817503135333 84.71604368369731,55.48417112510333 84.29944822471293,55.39603635947833 C83.36448118369731,55.19608518760333 82.45533201377543,54.89090940635333 81.58915159385356,54.48612425010333 C81.21039793174418,54.31131956260333 80.95362302940043,53.94755003135333 80.91593382041606,53.53177854697833 L80.75159666221293,51.73050901572833 C80.57590696494731,51.60843870322833 80.40366575400981,51.48172971885333 80.23700925986918,51.35038206260333 L78.54130003135356,51.73978635947833 C78.12662717979106,51.83646604697833 77.69220945518168,51.69828245322833 77.40928098838481,51.38016721885333 C76.76426145713481,50.66044065635333 76.20014402549418,49.87235471885333 75.72718259971293,49.02982542197833 C75.52631590049418,48.66922971885333 75.52982542197856,48.22977659385333 75.73636839072856,47.87235471885333 L76.63556883018168,46.32206175010333 C76.56254026572856,46.11088010947833 76.49418089072856,45.89408323447833 76.43137571494731,45.66800901572833 L74.81775877158793,44.95560667197833 C74.39386961143168,44.76908323447833 74.12027952354106,44.34940550010333 74.12058469932231,43.88602659385333 L74.12058469932231,41.24027464072833 L74.12058469932231,41.24027464072833ZM77.89655515830668,41.36698362510333 L76.45749876182231,42.00150510947833 L76.45734617393168,43.12504026572833 L77.89640257041606,43.75980589072833 C78.23484251182231,43.90873167197833 78.48258421104106,44.20926878135333 78.56394407432231,44.57035276572833 C78.67072508018168,45.05155393760333 78.81809446494731,45.52323362510333 79.00446531455668,45.98002073447833 C79.14383909385356,46.31693479697833 79.11841795127543,46.69950315635333 78.93598386924418,47.01517698447833 L78.10410520713481,48.44901487510333 C78.29239866416606,48.74125120322833 78.49558469932231,49.02665159385333 78.71351072471293,49.30179807822833 L80.27805540244731,48.94339964072833 C80.64539549033793,48.86039182822833 81.03013059775981,48.95829221885333 81.31308958213481,49.20707151572833 C81.67649290244731,49.52665159385333 82.06620237510356,49.81498167197833 82.47825071494731,50.06888792197833 C82.79099485557231,50.26200315635333 82.99460813682231,50.59086057822833 83.02836057822856,50.95682737510333 L83.18012449424418,52.62577268760333 C83.49387571494731,52.74906370322833 83.80893919150981,52.85648557822833 84.12269041221293,52.94535276572833 L85.19306394736918,51.70218870322833 C85.41510984580668,51.44462034385333 85.73835203330668,51.29618284385333 86.07853147666606,51.29593870322833 L87.71946165244731,51.29593870322833 C88.05967161338481,51.29618284385333 88.38291380088481,51.44437620322833 88.60492918174418,51.70218870322833 L89.67530271690043,52.94535276572833 C89.98905393760356,52.85624143760333 90.30414793174418,52.74906370322833 90.61789915244731,52.62577268760333 L90.76966306846293,50.95682737510333 C90.80338499229106,50.59086057822833 91.00715086143168,50.26200315635333 91.31974241416606,50.06888792197833 C91.73194334190043,49.81473753135333 92.12195799033793,49.52640745322833 92.48594114463481,49.20707151572833 C92.76697752158793,48.95658323447833 93.15217039268168,48.85868284385333 93.51865598838481,48.94437620322833 L95.08436033408793,49.30277464072833 C95.30228635947856,49.02591917197833 95.50547239463481,48.74125120322833 95.69373533408793,48.44901487510333 L94.86188718955668,47.01517698447833 C94.67930051963481,46.69950315635333 94.65403196494731,46.31693479697833 94.79337522666606,45.98002073447833 C94.97977659385356,45.52323362510333 95.12714597861918,45.05179807822833 95.23392698447856,44.57035276572833 C95.31513425986918,44.20926878135333 95.56287595908793,43.90873167197833 95.90146848838481,43.75980589072833 L97.34052488486918,43.12504026572833 L97.34052488486918,42.00174925010333 L95.90146848838481,41.36698362510333 C95.56302854697856,41.21830198447833 95.31528684775981,40.91752073447833 95.23392698447856,40.55668089072833 C95.12714597861918,40.07523557822833 94.97977659385356,39.60355589072833 94.79337522666606,39.14701292197833 C94.65403196494731,38.81009885947833 94.67945310752543,38.42728635947833 94.86188718955668,38.11161253135333 L95.69373533408793,36.67777464072833 C95.50547239463481,36.38480589072833 95.30228635947856,36.10013792197833 95.08436033408793,35.82401487510333 L93.51865598838481,36.18241331260333 C93.15232298057231,36.26761839072833 92.76728269736918,36.16971800010333 92.48594114463481,35.91971800010333 C92.12195799033793,35.60038206260333 91.73194334190043,35.31205198447833 91.31974241416606,35.05814573447833 C91.00715086143168,34.86478635947833 90.80338499229106,34.53592893760333 90.76966306846293,34.16996214072833 L90.61789915244731,32.50101682822833 C90.30414793174418,32.37772581260333 89.98905393760356,32.27030393760333 89.67530271690043,32.18143675010333 L88.60492918174418,33.42460081260333 C88.38291380088481,33.68241331260333 88.05951902549418,33.83060667197833 87.71930906455668,33.83085081260333 L86.07837888877543,33.83085081260333 C85.73819944541606,33.83060667197833 85.41495725791606,33.68241331260333 85.19294187705668,33.42460081260333 L84.12253782432231,32.18143675010333 C83.80878660361918,32.27054807822833 83.49372312705668,32.37772581260333 83.17997190635356,32.50101682822833 L83.02820799033793,34.16996214072833 C82.99445554893168,34.53592893760333 82.79068967979106,34.86478635947833 82.47812864463481,35.05814573447833 C82.06589719932231,35.31205198447833 81.67591306846293,35.60038206260333 81.31189939658793,35.91971800010333 C81.03043577354106,36.16947385947833 80.64570066611918,36.26713010947833 80.27921507041606,36.18241331260333 L78.71351072471293,35.82401487510333 C78.49558469932231,36.10013792197833 78.29239866416606,36.38553831260333 78.10529539268168,36.67655393760333 L78.93610593955668,38.11039182822833 C79.11869260947856,38.42557737510333 79.14396116416606,38.80790159385333 79.00461790244731,39.14432737510333 C78.81839964072856,39.60184690635333 78.67099973838481,40.07425901572833 78.56409666221293,40.55643675010333 C78.48285886924418,40.91727659385333 78.23514768760356,41.21805784385333 77.89655515830668,41.36698362510333 L77.89655515830668,41.36698362510333Z"/>
    <path id="path-12" opacity="1" fill-rule="evenodd" d="M92.74186155479106,42.56327268760333 C92.74186155479106,45.79081175010333 90.12592527549418,48.40751096885333 86.89914915244731,48.40751096885333 C83.67383787315043,48.40384885947833 81.06022092979106,45.78934690635333 81.05643675010356,42.56327268760333 C81.05643675010356,39.33548948447833 83.67237302940043,36.71879026572833 86.89914915244731,36.71879026572833 C90.12592527549418,36.71879026572833 92.74186155479106,39.33548948447833 92.74186155479106,42.56327268760333 L92.74186155479106,42.56327268760333ZM90.40479490440043,42.56302854697833 C90.40479490440043,40.62650510947833 88.83527586143168,39.05643675010333 86.89914915244731,39.05643675010333 C84.96390745322856,39.05838987510333 83.39557859580668,40.62723753135333 83.39353391807231,42.56302854697833 C83.39353391807231,44.49979612510333 84.96302244346293,46.06962034385333 86.89914915244731,46.06962034385333 C88.83527586143168,46.06962034385333 90.40479490440043,44.49979612510333 90.40479490440043,42.56302854697833 L90.40479490440043,42.56302854697833Z"/>
    <path id="path-13" opacity="1" fill-rule="evenodd" d="M85.36078855674418,98.77665159385333 C85.24686643760356,99.31742307822833 84.76993772666606,99.70463010947833 84.21735593955668,99.70463010947833 L80.23234007041606,99.70463010947833 C79.67975828330668,99.70463010947833 79.20286008994731,99.31742307822833 79.08893797080668,98.77665159385333 L78.73282835166606,97.08255979697833 C78.43952390830668,97.01297971885333 78.14621946494731,96.93412229697833 77.85523435752543,96.84525510947833 L76.69123289268168,98.14530393760333 C76.35804197471293,98.51908323447833 75.82312986533793,98.63822385947833 75.36289426963481,98.44071409385333 C74.05381223838481,97.87699339072833 72.81882688682231,97.15506956260333 71.68488523643168,96.29130003135333 C71.28583738486918,95.99027464072833 71.12253782432231,95.46854612510333 71.27869627158793,94.99344846885333 L71.81504270713481,93.36112425010333 C71.59476682822856,93.15336057822833 71.37919065635356,92.93778440635333 71.17145750205668,92.71732542197833 L69.53843137900981,93.25394651572833 C69.06284544150981,93.40897581260333 68.54151365440043,93.24540159385333 68.23975584190043,92.84647581260333 C67.37778684775981,91.71195432822833 66.65696165244731,90.47709104697833 66.09327146690043,89.16849729697833 C65.89695188682231,88.70804807822833 66.01584837119731,88.17362425010333 66.38877317588481,87.83988401572833 L67.68744871299418,86.67557737510333 C67.59968015830668,86.38431760947833 67.52094480674418,86.09110471885333 67.45127317588481,85.79764768760333 L65.75776121299418,85.44144651572833 C65.21702024619731,85.32743284385333 64.83008787315043,84.85038206260333 64.82993528525981,84.29764768760333 L64.82993528525981,80.31156370322833 C64.83008787315043,79.75882932822833 65.21717283408793,79.28177854697833 65.75776121299418,79.16800901572833 L67.45127317588481,78.81180784385333 C67.52094480674418,78.51835081260333 67.59968015830668,78.22489378135333 67.68863889854106,77.93387815635333 L66.38892576377543,76.76957151572833 C66.01600095908793,76.43558714072833 65.89710447471293,75.90140745322833 66.09342405479106,75.44071409385333 C66.65708372275981,74.13138792197833 67.37882444541606,72.89603635947833 68.24222776572856,71.76175901572833 C68.54459592979106,71.36454221885333 69.06489011924418,71.20145628135333 69.53974363486918,71.35550901572833 L71.17161008994731,71.89188596885333 C71.37931272666606,71.67167112510333 71.59491941611918,71.45585081260333 71.81519529502543,71.24808714072833 L71.27881834190043,69.61478635947833 C71.12269041221293,69.13920042197833 71.28641721885356,68.61673948447833 71.68619749229106,68.31571409385333 C72.82029173057231,67.45340940635333 74.05484983604106,66.73246214072833 75.36301633994731,66.16849729697833 C75.82358762900981,65.97416135947833 76.35672971885356,66.09281370322833 76.69138548057231,66.46415159385333 L77.85538694541606,67.76322385947833 C78.14634153525981,67.67533323447833 78.43964597861918,67.59671995322833 78.73295042197856,67.52689573447833 L79.08906004111918,65.83280393760333 C79.20301267783793,65.29203245322833 79.67991087119731,64.90506956260333 80.23249265830668,64.90482542197833 L84.21750852744731,64.90482542197833 C84.77009031455668,64.90506956260333 85.24698850791606,65.29227659385333 85.36094114463481,65.83280393760333 L85.71705076377543,67.52689573447833 C86.01035520713481,67.59671995322833 86.30365965049418,67.67533323447833 86.59461424033793,67.76444456260333 L87.75864622275981,66.46415159385333 C88.09342405479106,66.09305784385333 88.62641355674418,65.97440550010333 89.08698484580668,66.16874143760333 C90.39603635947856,66.73246214072833 91.63105222861918,67.45438596885333 92.76496336143168,68.31815550010333 C93.16401121299418,68.61918089072833 93.32731077354106,69.14090940635333 93.17118284385356,69.61600706260333 L92.63480589072856,71.24833128135333 C92.85508176963481,71.45609495322833 93.07068845908793,71.67167112510333 93.27839109580668,71.89213010947833 L94.91141721885356,71.35550901572833 C95.38703367393168,71.20047971885333 95.90833494346293,71.36429807822833 96.21012327354106,71.76297971885333 C97.07206175010356,72.89750120322833 97.79291746299418,74.13236448447833 98.35657713096293,75.44095823447833 C98.55289671104106,75.90140745322833 98.43400022666606,76.43583128135333 98.06107542197856,76.76957151572833 L96.76239988486918,77.93412229697833 C96.85019895713481,78.22513792197833 96.92893430869731,78.51835081260333 96.99857542197856,78.81180784385333 L98.69211790244731,79.16800901572833 C99.23282835166606,79.28202268760333 99.61979124229106,79.75907346885333 99.61991331260356,80.31180784385333 L99.61991331260356,84.29789182822833 C99.61979124229106,84.85062620322833 99.23270628135356,85.32767698447833 98.69211790244731,85.44169065635333 L96.99857542197856,85.79789182822833 C96.92893430869731,86.09110471885333 96.85019895713481,86.38456175010333 96.76124021690043,86.67557737510333 L98.06095335166606,87.83988401572833 C98.43384763877543,88.17386839072833 98.55274412315043,88.70804807822833 98.35642454307231,89.16874143760333 C97.79276487510356,90.47806760947833 97.07105467002543,91.71341917197833 96.20762083213481,92.84769651572833 C95.90586301963481,93.24588987510333 95.38498899619731,93.40897581260333 94.91010496299418,93.25394651572833 L93.27823850791606,92.71756956260333 C93.07053587119731,92.93778440635333 92.85492918174418,93.15360471885333 92.63468382041606,93.36136839072833 L93.17103025596293,94.99491331260333 C93.32718870322856,95.47049925010333 93.16343137900981,95.99271604697833 92.76365110557231,96.29398557822833 C91.62958738486918,97.15604612510333 90.39499876182231,97.87723753135333 89.08683225791606,98.44095823447833 C88.62656614463481,98.63822385947833 88.09165403525981,98.51932737510333 87.75849363486918,98.14530393760333 L86.59446165244731,96.84623167197833 C86.30350706260356,96.93412229697833 86.01020261924418,97.01297971885333 85.71689817588481,97.08255979697833 L85.36078855674418,98.77665159385333 L85.36078855674418,98.77665159385333ZM76.62418577354106,94.71634885947833 C76.94260618369731,94.36356565635333 77.44187376182231,94.23710081260333 77.88971922080668,94.39554807822833 C78.55225584190043,94.63480589072833 79.23368284385356,94.81839964072833 79.92676756065043,94.94462034385333 C80.39463255088481,95.02909300010333 80.76462766807231,95.38895628135333 80.86246702354106,95.85453245322833 L81.18091795127543,97.36698362510333 L83.26923582236918,97.36698362510333 L83.58765623252543,95.85453245322833 C83.68537351768168,95.38895628135333 84.05552122275981,95.02909300010333 84.52338621299418,94.94462034385333 C85.21573850791606,94.81888792197833 85.89640257041606,94.63505003135333 86.55808469932231,94.39554807822833 C87.00623533408793,94.23588010947833 87.50650999229106,94.36258909385333 87.82480833213481,94.71634885947833 L88.92365476768168,95.94217893760333 C89.53263303916606,95.63749143760333 90.12040159385356,95.29252073447833 90.68335935752543,94.90921995322833 L90.17545530479106,93.36600706260333 C90.02735349815043,92.91410276572833 90.16715452354106,92.41752073447833 90.52924558799418,92.10917112510333 C91.06809446494731,91.65262815635333 91.56809446494731,91.15213987510333 92.02408811729106,90.61283323447833 C92.33243772666606,90.25028440635333 92.82923338096293,90.10990354697833 93.28159544150981,90.25760862510333 L94.82554075400981,90.76566526572833 C95.20838377158793,90.20267698447833 95.55338499229106,89.61454221885333 95.85822508018168,89.00541135947833 L94.63257810752543,87.90726682822833 C94.27793333213481,87.59012815635333 94.15098020713481,87.08939573447833 94.31196043174418,86.64139768760333 C94.55106565635356,85.97855589072833 94.73468992393168,85.29715940635333 94.86088010947856,84.60380003135333 C94.94544431846293,84.13578245322833 95.30506345908793,83.76566526572833 95.77045652549418,83.66776487510333 L97.28238889854106,83.34940550010333 L97.28238889854106,81.26053831260333 L95.77030393760356,80.94193479697833 C95.30494138877543,80.84427854697833 94.94532224815043,80.47391721885333 94.86072752158793,80.00614378135333 C94.73496458213481,79.31351682822833 94.55137083213481,78.63260862510333 94.31180784385356,77.97074339072833 C94.15085813682231,77.52250120322833 94.27762815635356,77.02128050010333 94.63242551963481,76.70365354697833 L95.85810300986918,75.60453245322833 C95.55353758018168,74.99540159385333 95.20853635947856,74.40751096885333 94.82538816611918,73.84427854697833 L93.28263303916606,74.35233518760333 C92.83069822471293,74.49833128135333 92.33536741416606,74.35868284385333 92.02613279502543,73.99833128135333 C91.56968137900981,73.45951292197833 91.06925413291606,72.95926878135333 90.53013059775981,72.50321409385333 C90.16715452354106,72.19510862510333 90.02677366416606,71.69779417197833 90.17518064658793,71.24540159385333 L90.68305418174418,69.70096800010333 C90.12009641807231,69.31791135947833 89.53217527549418,68.97294065635333 88.92338010947856,68.66800901572833 L87.82554075400981,69.89383909385333 C87.50812742393168,70.24833128135333 87.00785276572856,70.37504026572833 86.56000730674418,70.21463987510333 C85.89744016807231,69.97538206260333 85.21616575400981,69.79178831260333 84.52308103721293,69.66556760947833 C84.05521604697856,69.58085081260333 83.68525144736918,69.22123167197833 83.58738157432231,68.75565550010333 L83.26893064658793,67.24320432822833 L81.18061277549418,67.24320432822833 L80.86219236533793,68.75565550010333 C80.76447508018168,69.22123167197833 80.39432737510356,69.58085081260333 79.92646238486918,69.66556760947833 C79.23411008994731,69.79130003135333 78.55344602744731,69.97513792197833 77.89176389854106,70.21463987510333 C77.44361326377543,70.37479612510333 76.94303342979106,70.24808714072833 76.62504026572856,69.89383909385333 L75.52619383018168,68.66800901572833 C74.91721555869731,68.97245237510333 74.32944700400981,69.31766721885333 73.76648924033793,69.70096800010333 L74.27439329307231,71.24418089072833 C74.42249509971293,71.69608518760333 74.28269407432231,72.19266721885333 73.92060300986918,72.50101682822833 C73.38175413291606,72.95755979697833 72.88178465049418,73.45804807822833 72.42576048057231,73.99735471885333 C72.11741087119731,74.35990354697833 71.62061521690043,74.50028440635333 71.16825315635356,74.35257932822833 L69.62430784385356,73.84452268760333 C69.24146482627543,74.40751096885333 68.89646360557231,74.99564573447833 68.59162351768168,75.60453245322833 L69.81727049033793,76.70267698447833 C70.17191526572856,77.01981565635333 70.29886839072856,77.52054807822833 70.13788816611918,77.96854612510333 C69.89878294150981,78.63138792197833 69.71515867393168,79.31278440635333 69.58896848838481,80.00614378135333 C69.50440427940043,80.47416135947833 69.14478513877543,80.84427854697833 68.67939207236918,80.94217893760333 L67.16730711143168,81.26078245322833 L67.16730711143168,83.34964964072833 L68.67939207236918,83.66825315635333 C69.14478513877543,83.76590940635333 69.50440427940043,84.13602659385333 69.58896848838481,84.60404417197833 C69.71473142783793,85.29667112510333 69.89832517783793,85.97757932822833 70.13788816611918,86.63944456260333 C70.29886839072856,87.08768675010333 70.17206785361918,87.58890745322833 69.81727049033793,87.90653440635333 L68.59162351768168,89.00565550010333 C68.89615842979106,89.61478635947833 69.24119016807231,90.20267698447833 69.62430784385356,90.76590940635333 L71.16709348838481,90.25785276572833 C71.61902830283793,90.11063596885333 72.11490842979106,90.25028440635333 72.42356321494731,90.61161253135333 C72.88001463096293,91.15067503135333 73.38044187705668,91.65091917197833 73.91959592979106,92.10697385947833 C74.28257200400981,92.41507932822833 74.42292234580668,92.91239378135333 74.27451536338481,93.36478635947833 L73.76664182822856,94.90921995322833 C74.32959959190043,95.29227659385333 74.91752073447856,95.63724729697833 75.52631590049418,95.94217893760333 L76.62418577354106,94.71634885947833 L76.62418577354106,94.71634885947833Z"/>
    <path id="path-14" opacity="1" fill-rule="evenodd" d="M82.22498533408793,71.78519651572833 C88.03324339072856,71.78519651572833 92.74186155479106,76.49515745322833 92.74186155479106,82.30521604697833 C92.73545286338481,88.11258909385333 88.03058836143168,92.81864378135333 82.22498533408793,92.82499143760333 C76.41675779502543,92.82499143760333 71.70810911338481,88.11503050010333 71.70810911338481,82.30521604697833 C71.70810911338481,76.49515745322833 76.41675779502543,71.78519651572833 82.22498533408793,71.78519651572833 L82.22498533408793,71.78519651572833ZM82.22501585166606,74.12284300010333 C77.70740720908793,74.12284300010333 74.04520628135356,77.78617307822833 74.04520628135356,82.30497190635333 C74.05060789268168,86.82157346885333 77.70960447471293,90.48172971885333 82.22501585166606,90.48710081260333 C86.74259397666606,90.48710081260333 90.40479490440043,86.82377073447833 90.40479490440043,82.30497190635333 C90.40479490440043,77.78617307822833 86.74259397666606,74.12284300010333 82.22501585166606,74.12284300010333 L82.22501585166606,74.12284300010333Z"/>
    <path id="path-15" opacity="1" fill-rule="evenodd" d="M62.35976990539417,42.56314594477135 L71.70810881364044,42.56314594477135 L71.70810881364044,44.9009025235847 L62.35976990539416,44.9009025235847 L62.35976990539417,42.56314594477135Z"/>
    <path id="path-16" opacity="1" fill-rule="evenodd" d="M53.47126218955668,76.55521604697833 L61.65104124229106,80.06180784385333 C61.92740842979106,80.18021604697833 62.14753172080668,80.40043089072833 62.26569578330668,80.67655393760333 C62.51926633994731,81.26981565635333 62.24408933799418,81.95633909385333 61.65104124229106,82.21000120322833 L53.47126218955668,85.71659300010333 C53.32621214072856,85.77958128135333 53.16962644736918,85.81156370322833 53.01142332236918,85.81131956260333 C52.36493894736918,85.81083128135333 51.84244749229106,85.28763792197833 51.84287473838481,84.64261839072833 L51.84287473838481,82.30472776572833 L36.65052244346293,82.30472776572833 C36.00548765342387,82.30423948447833 35.48285886924418,81.78104612510333 35.483301374126995,81.13578245322833 L35.483301374126995,61.26493284385333 L37.82038328330668,61.26493284385333 L37.82038328330668,79.96708128135333 L51.84287473838481,79.96708128135333 L51.84287473838481,77.62919065635333 C51.84275266807231,77.47049925010333 51.87488767783793,77.31351682822833 51.93754026572856,77.16776487510333 C52.19199583213481,76.57499143760333 52.87864133994731,76.30057737510333 53.47126218955668,76.55521604697833 L53.47126218955668,76.55521604697833ZM58.22428342979106,81.13602659385333 L54.17997190635356,79.40213987510333 L54.17997190635356,82.86991331260333 L58.22428342979106,81.13602659385333 L58.22428342979106,81.13602659385333Z"/>
  </defs>
  <g opacity="1">
    <g opacity="1">
      <use xlink:href="#ellipse-0" fill-opacity="0" stroke="rgb(242,242,242)" stroke-opacity="1" stroke-width="2" stroke-linecap="butt" stroke-linejoin="miter"/>
    </g>
    <g opacity="1">
      <g opacity="1">
        <use xlink:href="#path-1" fill="rgb(223,222,237)" fill-opacity="1"/>
      </g>
      <g opacity="1">
        <use xlink:href="#path-2" fill="rgb(0,0,0)" fill-opacity="1"/>
      </g>
      <g opacity="1">
        <use xlink:href="#ellipse-3" fill="rgb(255,157,0)" fill-opacity="1"/>
      </g>
      <g opacity="1">
        <use xlink:href="#path-4" fill="rgb(223,222,237)" fill-opacity="1"/>
      </g>
      <g opacity="1">
        <use xlink:href="#ellipse-5" fill="rgb(255,191,0)" fill-opacity="1"/>
      </g>
      <g opacity="1">
        <use xlink:href="#path-6" fill="rgb(223,222,237)" fill-opacity="1"/>
      </g>
      <g opacity="1">
        <use xlink:href="#ellipse-7" fill="rgb(130,130,130)" fill-opacity="1"/>
      </g>
      <g opacity="1">
        <use xlink:href="#path-8" fill="rgb(146,177,249)" fill-opacity="1"/>
      </g>
      <g opacity="1">
        <use xlink:href="#path-9" fill="rgb(66,74,82)" fill-opacity="1"/>
      </g>
      <g opacity="1">
        <use xlink:href="#path-10" fill="rgb(66,74,82)" fill-opacity="1"/>
      </g>
      <g opacity="1">
        <use xlink:href="#path-11" fill="rgb(66,74,82)" fill-opacity="1"/>
      </g>
      <g opacity="1">
        <use xlink:href="#path-12" fill="rgb(66,74,82)" fill-opacity="1"/>
      </g>
      <g opacity="1">
        <use xlink:href="#path-13" fill="rgb(66,74,82)" fill-opacity="1"/>
      </g>
      <g opacity="1">
        <use xlink:href="#path-14" fill="rgb(66,74,82)" fill-opacity="1"/>
      </g>
      <g opacity="1">
        <use xlink:href="#path-15" fill="rgb(66,74,82)" fill-opacity="1"/>
      </g>
      <g opacity="1">
        <use xlink:href="#path-16" fill="rgb(66,74,82)" fill-opacity="1"/>
      </g>
    </g>
  </g>
</svg>