<?xml version="1.0" encoding="utf-8"?>
<svg version="1.1" xmlns="http://www.w3.org/2000/svg" xmlns:xlink="http://www.w3.org/1999/xlink" height="80" width="139.59824417600157">
  <defs>
    <path id="path-0" opacity="1" fill-rule="evenodd" d="M60.71568968215742,17.432663987658092 C59.75775093348626,17.432663987658092 58.981122947804124,18.20929197334024 58.981122947804124,19.167230722011418 L58.981122947804124,29.57430590703185 C58.981122947804124,30.53224465570303 59.757750933486264,31.30887264138518 60.71568968215742,31.30887264138518 L71.12276486717768,31.30887264138518 C72.08070361584885,31.30887264138518 72.85733160153097,30.53224465570303 72.85733160153097,29.57430590703185 C72.85716899098121,22.86873466633361 67.42126092285554,17.43266398765809 60.71568968215742,17.432663987658092Z"/>
    <path id="path-1" opacity="1" fill-rule="evenodd" d="M60.715689682157375,34.77784349954213 C57.841873436143864,34.77784349954213 55.5121520896472,32.44812215304543 55.5121520896472,29.57430590703188 L55.5121520896472,21.078717734510064 C48.88853656603105,22.020883259853953 44.282917965010256,28.154227975925878 45.22508349035412,34.77784349954213 C46.167249015698,41.40145902315838 52.30059373176983,46.00707762417926 58.92420925538598,45.06491209883538 C64.2597866143061,44.30584605252794 68.45221180837163,40.11342085846234 69.21127785467905,34.777843499542136 L60.715689682157375,34.77784349954213Z"/>
    <path id="path-2" opacity="1" fill-rule="evenodd" d="M47.92181684767261,0.4621391824348088 C47.51024954621501,0.12781189211603042 46.96843119439489,0 46.451004425039656,0.11529087978405361 L1.3537328268014668,10.522366064804372 C0.5600307333939064,10.704815101641758 0,11.414772761919863 0.007642695838999523,12.229126395147702 L0.007642695838999523,71.20260664711275 C0.007967916938531109,72.0584259705309 0.6325550385895168,72.78627079128326 1.478455118471951,72.91635923109601 L46.57572671671014,79.85446355795949 C47.52260794799722,80 48.40818500202255,79.35053346423483 48.57388515223405,78.14087358452598 C48.56705550914387,78.31681819937273 48.57388515223405,1.8220512101273856 48.57388515223405,1.8220512101273856 C48.575511257731705,1.2930790917387744 48.33533547572741,0.7924012090094377 47.92181684767261,0.4621391824348088Z"/>
    <path id="path-3" opacity="1" fill-rule="evenodd" d="M81.52984005219804,72.93701077091595 L46.83948102843046,72.93701077091595 C45.881542279759294,72.93701077091595 45.10491429407716,72.16038278523381 45.10491429407716,71.20244403656265 C45.10491429407716,70.24450528789151 45.8815422797593,69.46787730220936 46.83948102843046,69.46787730220936 L79.79527331784473,69.46787730220936 L79.79527331784473,10.494559660794508 L46.83948102843046,10.494559660794508 C45.881542279759294,10.494559660794508 45.10491429407716,9.717931675112373 45.10491429407716,8.759992926441214 C45.10491429407716,7.802054177770053 45.881542279759294,7.025588802637685 46.83948102843046,7.025588802637685 L81.52967744164826,7.025588802637685 C82.48761619031944,7.025588802637685 83.26424417600157,7.802216788319821 83.26424417600157,8.760155536990979 L83.26424417600157,71.20260664711242 C83.26424417600157,72.16054539578357 82.4877788008692,72.93701077091595 81.52984005219804,72.93701077091595Z"/>
    <path id="path-4" opacity="1" fill-rule="evenodd" d="M71.12276486717775,62.52993558589611 L46.83948102843047,62.52993558589611 C45.881542279759294,62.52993558589611 45.10491429407716,61.75330760021412 45.10491429407716,60.795368851543145 C45.10491429407716,59.83743010287217 45.88154227975931,59.06080211719018 46.83948102843047,59.06080211719018 L71.12260225662797,59.06080211719018 C72.08054100529915,59.06080211719018 72.85716899098128,59.83743010287217 72.85716899098128,60.795368851543145 C72.85716899098128,61.75347021076389 72.0807036158489,62.52993558589611 71.12276486717775,62.52993558589611Z"/>
    <path id="path-5" opacity="1" fill-rule="evenodd" d="M71.12276486717775,52.122860400874856 L46.83948102843047,52.122860400874856 C45.881542279759294,52.122860400874856 45.10491429407716,51.34623241519285 45.10491429407716,50.38829366652186 C45.10491429407716,49.43035491785087 45.88154227975931,48.653726932168865 46.83948102843047,48.653726932168865 L71.12260225662797,48.653726932168865 C72.08054100529915,48.653726932168865 72.85716899098128,49.43035491785087 72.85716899098128,50.38829366652186 C72.85716899098128,51.34639502574262 72.0807036158489,52.122860400874856 71.12276486717775,52.122860400874856Z"/>
    <path id="path-6" opacity="1" fill-rule="evenodd" d="M13.883709002063483,53.857421875 C13.883709002063483,54.8154296875 14.660320330188483,55.592041015625 15.618267107532233,55.592041015625 C16.576396990344733,55.592041015625 17.352825213000983,54.8154296875 17.352825213000983,53.857177734375 L17.352825213000983,45.1845703125 L22.556377459094733,45.1845703125 C27.346050310657233,45.1845703125 31.228862810657233,41.3017578125 31.228862810657233,36.51220703125 L31.228862810657233,33.043212890625 C31.228862810657233,28.25341796875 27.346050310657233,24.37060546875 22.556377459094733,24.37060546875 L15.618267107532233,24.37060546875 C14.660320330188483,24.37060546875 13.883709002063483,25.147216796875 13.883709002063483,26.105224609375 L13.883709002063483,53.857421875 L13.883709002063483,53.857421875ZM22.556377459094733,41.7158203125 L17.352825213000983,41.7158203125 L17.352825213000983,27.83984375 L22.556377459094733,27.83984375 C25.430156755969733,27.83984375 27.759929705188483,30.169677734375 27.759929705188483,33.04345703125 L27.759929705188483,36.512451171875 C27.759929705188483,39.38623046875 25.430156755969733,41.7158203125 22.556377459094733,41.7158203125 L22.556377459094733,41.7158203125Z"/>
  </defs>
  <g opacity="1">
    <g opacity="1">
      <g opacity="1">
        <use xlink:href="#path-0" fill="rgb(255,87,34)" fill-opacity="1"/>
      </g>
      <g opacity="1">
        <use xlink:href="#path-1" fill="rgb(255,87,34)" fill-opacity="1"/>
      </g>
      <g opacity="1">
        <use xlink:href="#path-2" fill="rgb(255,87,34)" fill-opacity="1"/>
      </g>
      <g opacity="1">
        <use xlink:href="#path-3" fill="rgb(255,87,34)" fill-opacity="1"/>
      </g>
      <g opacity="1">
        <use xlink:href="#path-4" fill="rgb(255,87,34)" fill-opacity="1"/>
      </g>
      <g opacity="1">
        <use xlink:href="#path-5" fill="rgb(255,87,34)" fill-opacity="1"/>
      </g>
    </g>
    <g opacity="1">
      <use xlink:href="#path-6" fill="rgb(250,250,250)" fill-opacity="1"/>
    </g>
  </g>
</svg>