<?xml version="1.0" encoding="utf-8"?>
<svg version="1.1" xmlns="http://www.w3.org/2000/svg" xmlns:xlink="http://www.w3.org/1999/xlink" height="70" width="70">
  <defs>
    <path id="path-0" opacity="1" fill-rule="evenodd" d="M68.87054443359375,55.32275390625 L62.096405029296875,55.32275390625 L62.096405029296875,44.032470703125 C62.096405029296875,40.477783203125 60.58807373046875,37.27587890625 58.18670654296875,35.01025390625 C60.68511962890625,32.67041015625 62.096405029296875,29.446044921875 62.096405029296875,25.968017578125 L62.096405029296875,14.677734375 L68.87054443359375,14.677734375 C69.3270263671875,14.677734375 69.73883056640625,14.402099609375 69.91412353515625,13.98095703125 C70.0888671875,13.55859375 69.99188232421875,13.072998046875 69.6688232421875,12.75048828125 L57.24951171875,0.331298828125 C56.807952880859375,-0.1103515625 56.0946044921875,-0.1103515625 55.65301513671875,0.331298828125 L43.233734130859375,12.75048828125 C42.911224365234375,13.072998046875 42.814208984375,13.55859375 42.98895263671875,13.98095703125 C43.163726806640625,14.402099609375 43.576080322265625,14.677734375 44.031982421875,14.677734375 L50.80615234375,14.677734375 L50.80615234375,23.7099609375 C50.80615234375,25.5771484375 49.28680419921875,27.09716796875 47.4190673828125,27.09716796875 L45.1610107421875,27.09716796875 C45.1610107421875,19.913818359375 40.341156005859375,13.846435546875 33.770416259765625,11.9306640625 L36.82012939453125,6.702880859375 C38.356536865234375,6.382568359375 39.515899658203125,5.018798828125 39.515899658203125,3.387451171875 C39.515899658203125,1.519775390625 37.996551513671875,0.00048828125 36.128814697265625,0.00048828125 C34.6160888671875,0.00048828125 33.3470458984375,1.00390625 32.913726806640625,2.3759765625 L17.817413330078125,4.388671875 C17.315765380859375,3.142333984375 16.100189208984375,2.258544921875 14.677337646484375,2.258544921875 C12.81011962890625,2.258544921875 11.290252685546875,3.77783203125 11.290252685546875,5.6455078125 C11.290252685546875,5.83740234375 11.316162109375,6.022705078125 11.347015380859375,6.206298828125 L4.022705078125,12.483642578125 C3.817626953125,12.444580078125 3.605377197265625,12.419677734375 3.387054443359375,12.419677734375 C1.519866943359375,12.419677734375 0,13.93896484375 0,15.806884765625 C0,17.674072265625 1.519866943359375,19.19384765625 3.387054443359375,19.19384765625 C3.569000244140625,19.19384765625 3.745391845703125,19.16748046875 3.9190673828125,19.139404296875 L8.120361328125,24.600341796875 C8.002960205078125,25.334716796875 7.918060302734375,26.078369140625 7.905364990234375,26.841796875 L0.10638427734375,43.554443359375 C-0.057342529296875,43.904541015625 -0.03033447265625,44.31298828125 0.177490234375,44.638427734375 C0.384246826171875,44.964599609375 0.743133544921875,45.161376953125 1.1290283203125,45.161376953125 L7.903167724609375,45.161376953125 L7.903167724609375,58.709716796875 C7.903167724609375,59.332763671875 8.40924072265625,59.8388671875 9.032196044921875,59.8388671875 L20.32244873046875,59.8388671875 L20.32244873046875,70 L22.58050537109375,70 L22.58050537109375,58.709716796875 C22.58050537109375,58.086181640625 22.074981689453125,57.580810546875 21.45147705078125,57.580810546875 L10.161224365234375,57.580810546875 L10.161224365234375,44.032470703125 C10.161224365234375,43.408935546875 9.65570068359375,42.9033203125 9.032196044921875,42.9033203125 L2.901947021484375,42.9033203125 L10.055389404296875,27.574462890625 C10.107208251953125,27.463623046875 10.119873046875,27.3408203125 10.13421630859375,27.219970703125 L14.510284423828125,32.9091796875 C13.244537353515625,33.944580078125 12.419281005859375,35.499267578125 12.419281005859375,37.25830078125 C12.419281005859375,40.370849609375 14.951873779296875,42.9033203125 18.06439208984375,42.9033203125 C21.177490234375,42.9033203125 23.70953369140625,40.370849609375 23.70953369140625,37.25830078125 C23.70953369140625,35.66845703125 23.0435791015625,34.235595703125 21.98236083984375,33.2080078125 L26.65667724609375,24.793701171875 C26.802215576171875,24.813720703125 26.9466552734375,24.839111328125 27.09661865234375,24.839111328125 C28.96435546875,24.839111328125 30.483673095703125,23.319091796875 30.483673095703125,21.451904296875 C30.483673095703125,20.55712890625 30.12921142578125,19.750244140625 29.5614013671875,19.143798828125 L32.588470458984375,13.955078125 C38.4998779296875,15.41162109375 42.9029541015625,20.742431640625 42.9029541015625,27.09716796875 L28.225616455078125,27.09716796875 L28.225616455078125,29.355224609375 L47.4190673828125,29.355224609375 C50.53216552734375,29.355224609375 53.064208984375,26.822509765625 53.064208984375,23.7099609375 L53.064208984375,13.548828125 C53.064208984375,12.92529296875 52.55865478515625,12.419677734375 51.9351806640625,12.419677734375 L46.757537841796875,12.419677734375 L56.451263427734375,2.725341796875 L66.14501953125,12.419677734375 L60.967376708984375,12.419677734375 C60.34442138671875,12.419677734375 59.838348388671875,12.92529296875 59.838348388671875,13.548828125 L59.838348388671875,25.968017578125 C59.838348388671875,28.928955078125 58.57757568359375,31.658935546875 56.3746337890625,33.590087890625 C54.43963623046875,32.3447265625 52.14410400390625,31.61328125 49.6771240234375,31.61328125 L28.225616455078125,31.61328125 L28.225616455078125,33.871337890625 L49.6771240234375,33.871337890625 C55.27923583984375,33.871337890625 59.838348388671875,38.4296875 59.838348388671875,44.032470703125 L59.838348388671875,56.45166015625 C59.838348388671875,57.07470703125 60.34442138671875,57.580810546875 60.967376708984375,57.580810546875 L66.14501953125,57.580810546875 L56.451263427734375,67.2744140625 L46.757537841796875,57.580810546875 L51.9351806640625,57.580810546875 C52.55865478515625,57.580810546875 53.064208984375,57.07470703125 53.064208984375,56.45166015625 L53.064208984375,46.29052734375 C53.064208984375,43.177490234375 50.53216552734375,40.645263671875 47.4190673828125,40.645263671875 L28.225616455078125,40.645263671875 L28.225616455078125,42.9033203125 L41.22650146484375,42.9033203125 C41.22650146484375,42.9033203125 36.128814697265625,54.030029296875 36.128814697265625,54.193603515625 C36.16339111328125,54.19384765625 36.128814697265625,70 36.128814697265625,70 L38.386871337890625,70 L38.386871337890625,54.441650390625 L43.712799072265625,42.9033203125 L47.4190673828125,42.9033203125 C49.28680419921875,42.9033203125 50.80615234375,44.4228515625 50.80615234375,46.29052734375 L50.80615234375,55.32275390625 L44.031982421875,55.32275390625 C43.576080322265625,55.32275390625 43.163726806640625,55.597900390625 42.98895263671875,56.01904296875 C42.814208984375,56.441162109375 42.911224365234375,56.927001953125 43.233734130859375,57.24951171875 L55.65301513671875,69.668701171875 C55.87353515625,69.88916015625 56.16241455078125,70 56.451263427734375,70 C56.740692138671875,70 57.029571533203125,69.88916015625 57.24951171875,69.668701171875 L69.6688232421875,57.24951171875 C69.99188232421875,56.927001953125 70.0888671875,56.441162109375 69.91412353515625,56.01904296875 C69.73883056640625,55.597900390625 69.3270263671875,55.32275390625 68.87054443359375,55.32275390625 L68.87054443359375,55.32275390625ZM37.257843017578125,3.387451171875 C37.257843017578125,2.76513671875 36.751220703125,2.258544921875 36.128814697265625,2.258544921875 C35.5069580078125,2.258544921875 34.999786376953125,2.76513671875 34.999786376953125,3.387451171875 C34.999786376953125,4.009521484375 35.5069580078125,4.5166015625 36.128814697265625,4.5166015625 C36.751220703125,4.5166015625 37.257843017578125,4.009521484375 37.257843017578125,3.387451171875 L37.257843017578125,3.387451171875ZM14.67730712890625,4.5166015625 C15.299713134765625,4.5166015625 15.80633544921875,5.023193359375 15.80633544921875,5.6455078125 C15.80633544921875,6.267578125 15.299713134765625,6.774658203125 14.67730712890625,6.774658203125 C14.055450439453125,6.774658203125 13.54827880859375,6.267578125 13.54827880859375,5.6455078125 C13.54827880859375,5.023193359375 14.055450439453125,4.5166015625 14.67730712890625,4.5166015625 L14.67730712890625,4.5166015625ZM17.251800537109375,7.82080078125 C17.5384521484375,7.482421875 17.7562255859375,7.08935546875 17.8929443359375,6.656982421875 L32.9892578125,4.643798828125 C33.272613525390625,5.348388671875 33.787506103515625,5.926025390625 34.436370849609375,6.304931640625 L31.43792724609375,11.44384765625 C30.754913330078125,11.353515625 30.0625,11.29052734375 29.354644775390625,11.29052734375 L23.709503173828125,11.29052734375 C22.660980224609375,11.29052734375 21.637786865234375,11.396484375 20.6455078125,11.5927734375 L17.251800537109375,7.82080078125 L17.251800537109375,7.82080078125ZM6.642364501953125,14.922607421875 L12.011871337890625,16.501953125 C13.70428466796875,14.636962890625 15.828948974609375,13.180419921875 18.23419189453125,12.28857421875 L15.252288818359375,8.974609375 C15.063751220703125,9.006103515625 14.874114990234375,9.03271484375 14.67730712890625,9.03271484375 C13.83770751953125,9.03271484375 13.077484130859375,8.7138671875 12.48486328125,8.20458984375 L6.041473388671875,13.727783203125 C6.316009521484375,14.077880859375 6.521636962890625,14.48095703125 6.642364501953125,14.922607421875 L6.642364501953125,14.922607421875ZM27.550872802734375,18.110595703125 C27.400360107421875,18.0908203125 27.25262451171875,18.06494140625 27.096588134765625,18.06494140625 C26.900360107421875,18.06494140625 26.710693359375,18.0908203125 26.52215576171875,18.122314453125 L22.46197509765625,13.611572265625 C22.87432861328125,13.57470703125 23.288360595703125,13.548828125 23.70953369140625,13.548828125 L29.354644775390625,13.548828125 C29.63580322265625,13.548828125 29.91033935546875,13.57373046875 30.187103271484375,13.590087890625 L27.550872802734375,18.110595703125 L27.550872802734375,18.110595703125ZM24.029266357421875,20.036865234375 L14.461761474609375,17.2236328125 C15.982757568359375,15.798583984375 17.82403564453125,14.717041015625 19.873138427734375,14.110595703125 L24.52264404296875,19.276123046875 C24.3275146484375,19.506591796875 24.15771484375,19.759521484375 24.029266357421875,20.036865234375 L24.029266357421875,20.036865234375ZM3.387054443359375,14.677734375 C2.76519775390625,14.677734375 2.258026123046875,15.184326171875 2.258026123046875,15.806640625 C2.258026123046875,16.4287109375 2.76519775390625,16.935791015625 3.387054443359375,16.935791015625 C4.00946044921875,16.935791015625 4.516082763671875,16.4287109375 4.516082763671875,15.806640625 C4.516082763671875,15.184326171875 4.00946044921875,14.677734375 3.387054443359375,14.677734375 L3.387054443359375,14.677734375ZM5.917449951171875,18.034912109375 C6.13299560546875,17.791259765625 6.3160400390625,17.52001953125 6.453857421875,17.222412109375 L10.519561767578125,18.418212890625 C9.824951171875,19.469970703125 9.256011962890625,20.609375 8.826019287109375,21.816162109375 L5.917449951171875,18.034912109375 L5.917449951171875,18.034912109375ZM18.06439208984375,31.613037109375 C17.5340576171875,31.613037109375 17.030181884765625,31.710205078125 16.5428466796875,31.847412109375 L10.526153564453125,24.02587890625 C10.94842529296875,22.212646484375 11.735107421875,20.5439453125 12.805694580078125,19.089599609375 L23.840728759765625,22.33544921875 C23.98956298828125,22.880859375 24.26300048828125,23.3720703125 24.64117431640625,23.771728515625 L20.071044921875,31.9990234375 C19.445343017578125,31.758544921875 18.773345947265625,31.613037109375 18.06439208984375,31.613037109375 L18.06439208984375,31.613037109375ZM25.967559814453125,21.45166015625 C25.967559814453125,22.07373046875 26.4747314453125,22.580810546875 27.096588134765625,22.580810546875 C27.718994140625,22.580810546875 28.225616455078125,22.07373046875 28.225616455078125,21.45166015625 C28.225616455078125,20.829345703125 27.718994140625,20.32275390625 27.096588134765625,20.32275390625 C26.4747314453125,20.32275390625 25.967559814453125,20.829345703125 25.967559814453125,21.45166015625 L25.967559814453125,21.45166015625ZM14.67730712890625,37.258056640625 C14.67730712890625,39.125244140625 16.19720458984375,40.645263671875 18.06439208984375,40.645263671875 C19.93212890625,40.645263671875 21.451446533203125,39.125244140625 21.451446533203125,37.258056640625 C21.451446533203125,35.390380859375 19.93212890625,33.87109375 18.06439208984375,33.87109375 C16.19720458984375,33.87109375 14.67730712890625,35.390380859375 14.67730712890625,37.258056640625 L14.67730712890625,37.258056640625Z"/>
  </defs>
  <g opacity="1">
    <g opacity="1">
      <use xlink:href="#path-0" fill="rgb(79,79,79)" fill-opacity="1"/>
    </g>
  </g>
</svg>