<?xml version="1.0" encoding="utf-8"?>
<svg version="1.1" xmlns="http://www.w3.org/2000/svg" xmlns:xlink="http://www.w3.org/1999/xlink" height="130" width="134.2926480659271">
  <defs>
    <path id="path-0" opacity="1" fill-rule="evenodd" d="M130,65 C102.55921112810697,88.1080327342257 100.87447659211,130 65,130 C29.125523407890007,130 1.4210854715202004e-14,100.87447659211 0,65.00000000000001 C0,29.125523407890007 29.125523407889986,1.4210854715202004e-14 64.99999999999999,0 C100.87447659211,0 149,49 130,65Z"/>
    <path id="path-1" opacity="1" fill-rule="evenodd" d="M89.6044921875,86.8504638671875 L89.6044921875,63.599609375 C89.6044921875,60.7568359375 87.2919921875,58.4439697265625 84.44921875,58.4439697265625 L71.0443115234375,58.4439697265625 L71.0443115234375,53.2884521484375 C71.0443115234375,50.445556640625 68.73193359375,48.1328125 65.8890380859375,48.1328125 L53.515625,48.1328125 C50.6727294921875,48.1328125 48.35986328125,50.445556640625 48.35986328125,53.2884521484375 L48.35986328125,58.4439697265625 L34.955322265625,58.4439697265625 C32.1124267578125,58.4439697265625 29.7996826171875,60.7568359375 29.7996826171875,63.599609375 L29.7996826171875,99.68896484375 C29.7996826171875,102.5318603515625 32.1124267578125,104.84423828125 34.955322265625,104.84423828125 L64.7039794921875,104.84423828125 C67.537841796875,108.0008544921875 71.634521484375,110 76.2000732421875,110 C84.7286376953125,110 91.6668701171875,103.061767578125 91.6668701171875,94.533203125 C91.6668701171875,91.73583984375 90.908935546875,89.1165771484375 89.6044921875,86.8504638671875 L89.6044921875,86.8504638671875ZM50.4222412109375,53.2884521484375 C50.4222412109375,51.5828857421875 51.8101806640625,50.195068359375 53.515625,50.195068359375 L65.8890380859375,50.195068359375 C67.594482421875,50.195068359375 68.982421875,51.5828857421875 68.982421875,53.2884521484375 L68.982421875,58.4439697265625 L66.9200439453125,58.4439697265625 L66.9200439453125,53.2884521484375 C66.9200439453125,52.71923828125 66.459228515625,52.25732421875 65.8890380859375,52.25732421875 L53.515625,52.25732421875 C52.9454345703125,52.25732421875 52.4842529296875,52.71923828125 52.4842529296875,53.2884521484375 L52.4842529296875,58.4439697265625 L50.4222412109375,58.4439697265625 L50.4222412109375,53.2884521484375 L50.4222412109375,53.2884521484375ZM64.857666015625,58.4439697265625 L64.857666015625,54.3194580078125 L54.546630859375,54.3194580078125 L54.546630859375,58.4439697265625 L64.857666015625,58.4439697265625 L64.857666015625,58.4439697265625ZM31.8619384765625,74.9420166015625 L31.8619384765625,63.599609375 C31.8619384765625,61.8941650390625 33.249755859375,60.5062255859375 34.955322265625,60.5062255859375 L84.44921875,60.5062255859375 C86.1546630859375,60.5062255859375 87.5426025390625,61.8941650390625 87.5426025390625,63.599609375 L87.5426025390625,74.9420166015625 C87.5426025390625,77.784912109375 85.2296142578125,80.097412109375 82.3868408203125,80.097412109375 L81.7071533203125,80.097412109375 C79.993408203125,79.44189453125 78.1417236328125,79.06640625 76.2000732421875,79.06640625 C74.2584228515625,79.06640625 72.40673828125,79.44189453125 70.6929931640625,80.097412109375 L65.8890380859375,80.097412109375 L65.8890380859375,77.0040283203125 C65.8890380859375,76.43505859375 65.4278564453125,75.9730224609375 64.857666015625,75.9730224609375 L54.5465087890625,75.9730224609375 C53.976318359375,75.9730224609375 53.515625,76.43505859375 53.515625,77.0040283203125 L53.515625,80.097412109375 L37.0174560546875,80.097412109375 C34.1746826171875,80.097412109375 31.8619384765625,77.784912109375 31.8619384765625,74.9420166015625 L31.8619384765625,74.9420166015625ZM63.8267822265625,78.035400390625 L63.8267822265625,80.097412109375 L55.57763671875,80.097412109375 L55.57763671875,78.035400390625 L63.8267822265625,78.035400390625 L63.8267822265625,78.035400390625ZM34.955322265625,102.7823486328125 C33.249755859375,102.7823486328125 31.8619384765625,101.3944091796875 31.8619384765625,99.68896484375 L31.8619384765625,79.983154296875 C33.173583984375,81.3243408203125 34.9986572265625,82.1597900390625 37.0174560546875,82.1597900390625 L37.0174560546875,86.2840576171875 C37.0174560546875,86.8533935546875 37.4783935546875,87.3155517578125 38.0487060546875,87.3155517578125 L43.2042236328125,87.3155517578125 C43.7744140625,87.3155517578125 44.2353515625,86.8533935546875 44.2353515625,86.2840576171875 L44.2353515625,82.1597900390625 L66.9593505859375,82.1597900390625 C63.1884765625,84.983154296875 60.7332763671875,89.4713134765625 60.7332763671875,94.533203125 C60.7332763671875,97.56689453125 61.6241455078125,100.39111328125 63.1400146484375,102.7823486328125 L34.955322265625,102.7823486328125 L34.955322265625,102.7823486328125ZM87.5426025390625,84.052978515625 L87.5426025390625,79.983154296875 C86.793701171875,80.7493896484375 85.875244140625,81.3428955078125 84.850341796875,81.7176513671875 C85.8388671875,82.386474609375 86.7340087890625,83.1785888671875 87.5426025390625,84.052978515625 L87.5426025390625,84.052978515625ZM77.2310791015625,107.88525390625 C83.7994384765625,107.382080078125 89.049072265625,102.1324462890625 89.5521240234375,95.564208984375 L87.5426025390625,95.564208984375 L87.5426025390625,93.502197265625 L89.5521240234375,93.502197265625 C89.049072265625,86.9339599609375 83.7994384765625,81.684326171875 77.2310791015625,81.18115234375 L77.2310791015625,83.1907958984375 L75.1690673828125,83.1907958984375 L75.1690673828125,81.18115234375 C68.600830078125,81.684326171875 63.3511962890625,86.9339599609375 62.8480224609375,93.502197265625 L64.857666015625,93.502197265625 L64.857666015625,95.564208984375 L62.84716796875,95.564208984375 C63.0552978515625,98.2760009765625 64.06982421875,100.75927734375 65.6558837890625,102.7823486328125 L65.8890380859375,102.7823486328125 L65.8890380859375,103.08642578125 C68.14306640625,105.7982177734375 71.4466552734375,107.5997314453125 75.1690673828125,107.88525390625 L75.1690673828125,105.875732421875 L77.2310791015625,105.875732421875 L77.2310791015625,107.88525390625 L77.2310791015625,107.88525390625ZM42.1732177734375,85.253173828125 L42.1732177734375,82.1597900390625 L39.079833984375,82.1597900390625 L39.079833984375,85.253173828125 L42.1732177734375,85.253173828125 L42.1732177734375,85.253173828125Z"/>
    <path id="path-2" opacity="1" fill-rule="evenodd" d="M77.23110315438893,94.10618231002103 L77.23110315438893,85.2531150494467 L75.1691514090976,85.2531150494467 L75.1691514090976,94.53319581665187 C75.1691514090976,94.80662290499097 75.27731085859882,95.06923404837994 75.47113259210501,95.26219050629012 L81.65785310357502,101.44891101776024 L83.11584248285152,99.99092163848371 L77.23110315438893,94.10618231002103Z"/>
    <path id="path-3" opacity="1" fill-rule="evenodd" d="M72.4461291084547,74.94205840959603 L70.38417736316342,74.94205840959603 L70.38417736316342,77.0040101548874 L72.4461291084547,77.0040101548874 L72.4461291084547,74.94205840959603Z"/>
    <path id="path-4" opacity="1" fill-rule="evenodd" d="M76.57089787463383,74.94205840959603 L74.50851349154436,74.94205840959603 L74.50851349154436,77.0040101548874 L76.57089787463383,77.0040101548874 L76.57089787463383,74.94205840959603Z"/>
    <path id="path-5" opacity="1" fill-rule="evenodd" d="M68.32179298007392,74.94205840959603 L66.25940859698449,74.94205840959603 L66.25940859698449,77.0040101548874 L68.32179298007392,77.0040101548874 L68.32179298007392,74.94205840959603Z"/>
    <path id="path-6" opacity="1" fill-rule="evenodd" d="M87.70396633069339,31.484889513397547 L84.24286394665432,33.69134228322253 L86.62972667824727,36.67654308945633 L87.70396633069339,31.484889513397547Z"/>
    <path id="path-7" opacity="1" fill-rule="evenodd" d="M75.14708688139945,41.199252102239825 L75.21890475586825,45.30321099033454 L79.01140769317911,44.82856406214336 L75.14708688139945,41.199252102239825Z"/>
    <path id="path-8" opacity="1" fill-rule="evenodd" d="M97.22199788680128,26.29323593733875 L93.7608955027622,28.499688707163735 L96.14775823435514,31.484889513397537 L97.22199788680128,26.29323593733875Z"/>
    <path id="path-9" opacity="1" fill-rule="evenodd" d="M75.14708688139945,19.999999999999773 L75.21890475586825,24.103958888094486 L79.01140769317911,23.629329265415226 L75.14708688139945,19.999999999999773Z"/>
    <path id="path-10" opacity="1" fill-rule="evenodd" d="M57.23588204399675,33.30512652094353 L57.277415272605225,35.67485679573555 L59.46742780610598,35.400780750699454 L57.23588204399675,33.30512652094353Z"/>
    <path id="path-11" opacity="1" fill-rule="evenodd" d="M69.56303082254972,34.31961889348515 L67.19779998085687,34.16949357757744 L67.29384557201396,36.37438885132968 L69.56303082254972,34.31961889348515Z"/>
    <path id="path-12" opacity="1" fill-rule="evenodd" d="M70.65198016012855,25.187630044536945 L68.2819903026575,25.21112227696861 L68.53940979247044,27.403081680560422 L70.65198016012855,25.187630044536945Z"/>
    <path id="path-13" opacity="1" fill-rule="evenodd" d="M99.90738069901784,77.21081102233344 L100.20027648826715,73.11632690201509 L96.38051736968191,73.25217517058863 L99.90738069901784,77.21081102233344Z"/>
    <path id="path-14" opacity="1" fill-rule="evenodd" d="M50.05020085693287,35.850940379523536 L47.68016773568206,35.85617529687939 L47.920671087593,38.05008157056229 L50.05020085693287,35.850940379523536Z"/>
    <path id="path-15" opacity="1" fill-rule="evenodd" d="M98.11582757747932,54.635813986217585 L99.51065183824718,52.71948812373469 L97.59752749546942,51.61872777427084 L98.11582757747932,54.635813986217585Z"/>
    <path id="path-16" opacity="1" fill-rule="evenodd" d="M99.59890994904023,61.33763305999229 L96.26197461302836,58.947741863813235 L94.38086546730301,62.27502937692951 L99.59890994904023,61.33763305999229Z"/>
    <path id="path-17" opacity="1" fill-rule="evenodd" d="M91.4354673384859,48.315235340044566 L92.96657250562532,46.506203651466876 L91.13954308465054,45.26834038381526 L91.4354673384859,48.315235340044566Z"/>
  </defs>
  <g opacity="1">
    <g opacity="1">
      <use xlink:href="#path-0" fill="rgb(247,247,247)" fill-opacity="1"/>
    </g>
    <g opacity="1">
      <g opacity="1">
        <g opacity="1">
          <g opacity="1">
            <use xlink:href="#path-1" fill="rgb(0,0,0)" fill-opacity="1"/>
          </g>
          <g opacity="1">
            <use xlink:href="#path-2" fill="rgb(255,157,0)" fill-opacity="1"/>
          </g>
        </g>
        <g opacity="1">
          <use xlink:href="#path-3" fill="rgb(0,0,0)" fill-opacity="1"/>
        </g>
        <g opacity="1">
          <use xlink:href="#path-4" fill="rgb(0,0,0)" fill-opacity="1"/>
        </g>
        <g opacity="1">
          <use xlink:href="#path-5" fill="rgb(0,0,0)" fill-opacity="1"/>
        </g>
        <g opacity="1">
          <use xlink:href="#path-6" fill="rgb(255,157,0)" fill-opacity="1"/>
        </g>
        <g opacity="1">
          <use xlink:href="#path-7" fill-opacity="0" stroke="rgb(121,121,121)" stroke-opacity="1" stroke-width="1"/>
        </g>
        <g opacity="1">
          <use xlink:href="#path-8" fill-opacity="0" stroke="rgb(121,121,121)" stroke-opacity="1" stroke-width="1"/>
        </g>
        <g opacity="1">
          <use xlink:href="#path-9" fill-opacity="0" stroke="rgb(121,121,121)" stroke-opacity="1" stroke-width="1"/>
        </g>
        <g opacity="1">
          <use xlink:href="#path-10" fill-opacity="0" stroke="rgb(121,121,121)" stroke-opacity="1" stroke-width="1"/>
        </g>
        <g opacity="1">
          <use xlink:href="#path-11" fill-opacity="0" stroke="rgb(121,121,121)" stroke-opacity="1" stroke-width="1"/>
        </g>
        <g opacity="1">
          <use xlink:href="#path-12" fill-opacity="0" stroke="rgb(121,121,121)" stroke-opacity="1" stroke-width="1"/>
        </g>
        <g opacity="1">
          <use xlink:href="#path-13" fill="rgb(196,196,196)" fill-opacity="1"/>
        </g>
        <g opacity="1">
          <use xlink:href="#path-14" fill-opacity="0" stroke="rgb(121,121,121)" stroke-opacity="1" stroke-width="1"/>
        </g>
        <g opacity="1">
          <use xlink:href="#path-15" fill-opacity="0" stroke="rgb(121,121,121)" stroke-opacity="1" stroke-width="1"/>
        </g>
        <g opacity="1">
          <use xlink:href="#path-16" fill-opacity="0" stroke="rgb(121,121,121)" stroke-opacity="1" stroke-width="1"/>
        </g>
        <g opacity="1">
          <use xlink:href="#path-17" fill-opacity="0" stroke="rgb(121,121,121)" stroke-opacity="1" stroke-width="1"/>
        </g>
      </g>
    </g>
  </g>
</svg>