<?xml version="1.0" encoding="utf-8"?>
<svg version="1.1" xmlns="http://www.w3.org/2000/svg" xmlns:xlink="http://www.w3.org/1999/xlink" height="70" width="56.21327064416255">
  <defs>
    <path id="path-0" opacity="1" fill-rule="evenodd" d="M25.4833512105688,24.893310546875 C24.7862076558813,24.893310546875 24.07850501916255,24.74658203125 23.4048599996313,24.436279296875 C22.1950211324438,23.879150390625 21.27442787072505,22.88427734375 20.81288001916255,21.634765625 C20.3512711324438,20.385009765625 20.4038834371313,19.03076171875 20.96119544885005,17.82080078125 C21.51832435510005,16.61083984375 22.51344154260005,15.6904296875 23.76295326135005,15.228759765625 C25.01258705041255,14.767333984375 26.3671402730688,14.820068359375 27.5768570699438,15.377197265625 C30.0745377340063,16.52734375 31.17066810510005,19.4951171875 30.02052162072505,21.992919921875 C29.1804947652563,23.816650390625 27.37110755822505,24.893310546875 25.4833512105688,24.893310546875 L25.4833512105688,24.893310546875ZM24.47364662072505,17.15234375 C23.73805091760005,17.424072265625 23.15223548791255,17.966064453125 22.82423255822505,18.678466796875 C22.49610755822505,19.390625 22.4650406636938,20.188232421875 22.73670814416255,20.923828125 C23.0083756246313,21.659423828125 23.5503678121313,22.2451171875 24.26270912072505,22.5732421875 C25.73304603478755,23.250732421875 27.48048255822505,22.605224609375 28.1576676168188,21.134521484375 C28.8349137105688,19.6640625 28.1895279683813,17.916748046875 26.7190689840063,17.239501953125 C26.32777259728755,17.059326171875 25.91078040978755,16.96875 25.4925064840063,16.96875 C25.14918373010005,16.96875 24.80518958947505,17.02978515625 24.47364662072505,17.15234375 L24.47364662072505,17.15234375Z"/>
    <path id="path-1" opacity="1" fill-rule="evenodd" d="M19.036940077756185,48.457275390625 L15.535841444943685,46.844970703125 L13.186781386349935,50.474853515625 C12.876417616818685,50.95458984375 12.361952284787435,51.22119140625 11.826918105099935,51.22119140625 C11.596693495724935,51.22119140625 11.362928847287435,51.171875 11.139662245724935,51.069091796875 C10.397352675412435,50.727294921875 10.027540663693685,49.910400390625 10.260206679318685,49.127197265625 L11.491957167599935,44.98193359375 L7.990858534787435,43.36962890625 C7.597547987912435,43.1884765625 7.360304335568685,42.779541015625 7.398451308224935,42.347900390625 C8.104200819943685,34.3642578125 10.399549941037435,23.5927734375 12.980238417599935,16.1533203125 C13.165724257443685,15.618408203125 13.749830702756185,15.3349609375 14.285109023068685,15.520751953125 C14.820265273068685,15.706298828125 15.103407362912435,16.29052734375 14.917860487912435,16.825439453125 C12.462416151974935,23.903564453125 10.270338515256185,34.057373046875 9.508375624631185,41.810546875 L12.082228163693685,42.995849609375 L13.378797987912435,38.63232421875 C13.392714003537435,38.585693359375 13.409925917599935,38.539794921875 13.430311659787435,38.49560546875 C13.785536269162435,37.72412109375 14.419813612912435,37.137451171875 15.216322401974935,36.84326171875 C16.012648085568685,36.549072265625 16.876051405881185,36.58251953125 17.647413710568685,36.937744140625 C18.418714980099935,37.29296875 19.005384901974935,37.92724609375 19.299635390256185,38.723876953125 C19.534925917599935,39.36083984375 19.305250624631185,40.589599609375 19.226393202756185,41.01171875 C19.206617812131185,41.117431640625 19.196302870724935,41.17236328125 19.205152968381185,41.155029296875 C19.184645155881185,41.19921875 16.661390761349935,45.105224609375 16.661390761349935,45.105224609375 L19.894789198849935,46.59423828125 C20.409132460568685,46.8310546875 20.634047011349935,47.440185546875 20.397230605099935,47.95458984375 C20.224440077756185,48.330078125 19.853041151974935,48.551513671875 19.465162734006185,48.551513671875 C19.321730116818685,48.551513671875 19.175856093381185,48.521240234375 19.036940077756185,48.457275390625 L19.036940077756185,48.457275390625ZM15.927015761349935,38.76708984375 C15.663710097287435,38.864501953125 15.450392226193685,39.051513671875 15.320509413693685,39.2978515625 L13.065382460568685,46.8876953125 L17.366835097287435,40.240234375 C17.469679335568685,39.9814453125 17.473219374631185,39.697509765625 17.376051405881185,39.434326171875 C17.271559218381185,39.15185546875 17.063490370724935,38.9267578125 16.789747694943685,38.80078125 C16.516005019162435,38.674560546875 16.209608534787435,38.66259765625 15.927015761349935,38.76708984375 L15.927015761349935,38.76708984375Z"/>
    <path id="path-2" opacity="1" fill-rule="evenodd" d="M54.9855484761938,13.474365234375 C55.34278724572505,13.40234375 55.71180580041255,13.525634765625 55.95411537072505,13.798095703125 C56.1964859761938,14.070556640625 56.2758316793188,14.451416015625 56.16248939416255,14.797607421875 L54.9661392965063,18.46044921875 C54.40443275353755,20.18115234375 53.07752845666255,21.548583984375 51.4070572652563,22.1865234375 C51.3900894918188,22.784423828125 51.0996842183813,23.95654296875 51.0996842183813,23.95654296875 L50.2135758199438,26.665771484375 C49.3686051168188,29.25439453125 46.9707779683813,30.994140625 44.24708412072505,30.994140625 C43.58302162072505,30.994140625 42.92603919885005,30.888916015625 42.29493568322505,30.681884765625 C39.4870133199438,29.764404296875 37.76417396447505,27.0419921875 37.9881119527563,24.218017578125 C37.0519547261938,26.054931640625 35.8069596090063,28.1689453125 34.3081803121313,30.46630859375 C36.1635269918188,29.08642578125 38.7782730855688,29.011962890625 40.7294449605688,30.455322265625 C42.09583900353755,31.4677734375 42.9114517965063,33.08740234375 42.9114517965063,34.7880859375 C42.9114517965063,35.9462890625 42.54554603478755,37.05322265625 41.85328529260005,37.989990234375 L35.57166908166255,46.474609375 L41.78834388635005,50.23291015625 C43.25416419885005,51.119140625 43.94178626916255,52.885498046875 43.4604019918188,54.528564453125 L39.3216080465063,69.252197265625 C39.2475113668188,69.515869140625 39.0709976949438,69.73876953125 38.83143470666255,69.87158203125 C38.6780533590063,69.95654296875 38.50672767541255,70 38.3344254293188,70 C38.23780677697505,70 38.1406998433813,69.986328125 38.0463394918188,69.958740234375 L32.7603287496313,68.4111328125 C32.2217545308813,68.25341796875 31.90992591760005,67.69189453125 32.0608658590063,67.1513671875 L34.88270423791255,57.042724609375 L25.4325699605688,51.20703125 C24.5736832418188,50.6767578125 23.93177650353755,49.927734375 23.5358414449438,49.075927734375 L22.3809342183813,51.146240234375 L15.334425429318799,63.78125 L18.40553138635005,65.6552734375 L26.42286537072505,55.17822265625 C26.7671646871313,54.728515625 27.4108414449438,54.64306640625 27.8604264058813,54.987060546875 C28.31007240197505,55.3310546875 28.3957047261938,55.974609375 28.05152748010005,56.424560546875 L19.4734635152563,67.634521484375 C19.2730240621313,67.896728515625 18.96827552697505,68.036865234375 18.65846107385005,68.036865234375 C18.4756607808813,68.036865234375 18.2910904683813,67.988037109375 18.1249527730688,67.88671875 L13.424391249631299,65.018310546875 C12.954176405881299,64.7314453125 12.794630507443799,64.12451171875 13.062880019162549,63.6435546875 L23.69605873010005,44.578369140625 C23.6990494527563,44.5732421875 24.02296302697505,43.99267578125 24.0224137105688,43.992431640625 C24.0348648824438,43.971435546875 24.0330338277563,43.974853515625 24.0281510152563,43.9833984375 L24.1101822652563,43.851318359375 L25.7569107808813,41.627685546875 L29.0884537496313,37.12890625 L20.10951087853755,36.1259765625 C20.01283119103755,36.1162109375 19.8148941793188,36.082275390625 19.8148941793188,36.082275390625 C19.71412513635005,36.062255859375 19.5324234761938,36.012939453125 19.5324234761938,36.012939453125 C19.43922279260005,35.98486328125 19.29835365197505,35.9326171875 19.25977943322505,35.91845703125 L19.2498307027563,35.91455078125 C19.1541275777563,35.8740234375 19.0402359761938,35.8193359375 18.9958023824438,35.798095703125 C18.9888443746313,35.7958984375 18.98267982385005,35.79248046875 18.97669837853755,35.789306640625 C18.82545326135005,35.70703125 18.7814469136938,35.6806640625 18.73817298791255,35.653076171875 C18.71192787072505,35.636474609375 18.64332435510005,35.588623046875 18.6078629293188,35.564208984375 C18.5999283590063,35.559814453125 18.5928482808813,35.554443359375 18.58607337853755,35.54931640625 C18.4445328511938,35.442626953125 18.40663001916255,35.41162109375 18.36927650353755,35.37939453125 C18.3285660543188,35.34423828125 18.2887711324438,35.30810546875 18.24976966760005,35.271240234375 C18.2327408590063,35.2548828125 18.1845230855688,35.205078125 18.15394447228755,35.173828125 C18.14393470666255,35.164794921875 18.13551185510005,35.155517578125 18.12757728478755,35.146728515625 C18.01283119103755,35.01953125 17.9987320699438,35.00634765625 17.9860367574438,34.99072265625 C17.52296302697505,34.427978515625 17.2686295308813,33.01318359375 17.2674088277563,33.013427734375 C17.26710365197505,32.967041015625 17.26930091760005,32.876708984375 17.2696060933813,32.88134765625 C17.2713150777563,32.829833984375 17.2755875386938,32.763427734375 17.27735755822505,32.740234375 L17.27808998010005,32.731689453125 C17.4521012105688,31.0302734375 20.43202064416255,29.951904296875 20.7287125386938,29.844482421875 L31.4595474996313,31.04296875 C33.8158707418188,27.5791015625 35.64588783166255,24.477783203125 36.7638687886938,22.04931640625 C37.57301185510005,20.292236328125 37.92042396447505,18.41943359375 37.9596695699438,16.54736328125 L19.9405045308813,8.2490234375 C18.5418228902563,9.49560546875 17.3434586324438,10.97607421875 16.5347428121313,12.73193359375 L16.37147376916255,13.092041015625 C16.1387467183813,13.6083984375 15.531874159787549,13.838134765625 15.015333632443799,13.605712890625 C14.499037245725049,13.373046875 14.269056776975049,12.765869140625 14.501783827756299,12.24951171875 L14.669935683225049,11.87890625 C15.611280898068799,9.8349609375 17.0781998433813,7.974853515625 19.01624915978755,6.34326171875 C19.0463394918188,6.310791015625 19.07862708947505,6.280029296875 19.1132340230688,6.251220703125 C25.0048355855688,1.364990234375 34.01771400353755,0.01171875 34.0176529683813,0.011474609375 C34.06593177697505,0.0048828125 34.0816178121313,0.00537109375 34.0974869527563,0.004150390625 C34.47474525353755,-0.029296875 34.84156654260005,0.146484375 35.0485367574438,0.466796875 C35.2456803121313,0.772216796875 39.9861588277563,15.885009765625 40.0132584371313,15.87646484375 C40.0108170308813,16.568115234375 39.99085853478755,17.115966796875 39.94862220666255,17.6533203125 L40.37794349572505,16.34033203125 C41.2726578511938,13.600830078125 44.2305435933813,12.099609375 46.9718766011938,12.994873046875 C46.9718766011938,12.994873046875 50.95899818322505,14.284423828125 50.85658119103755,14.26513671875 C50.9058365621313,14.28125 54.9855484761938,13.474365234375 54.9855484761938,13.474365234375 L54.9855484761938,13.474365234375ZM33.6688980855688,2.149169921875 C31.79139564416255,2.494140625 26.24378822228755,3.72265625 21.7556900777563,6.8271484375 L37.8616471090063,14.243896484375 C37.83595130822505,13.9931640625 37.8058609761938,13.7431640625 37.7715592183813,13.49462890625 L37.7553238668188,13.376953125 L37.7110123433813,13.081787109375 L37.69129798791255,12.960205078125 C37.6405777730688,12.647705078125 37.5835709371313,12.337646484375 37.5211930074438,12.0302734375 L37.49061439416255,11.880859375 L37.43470619103755,11.6201171875 L37.3966812886938,11.451416015625 C37.36756751916255,11.323486328125 37.3377213277563,11.1962890625 37.3069596090063,11.06982421875 C37.28822181603755,10.99267578125 37.26978919885005,10.915771484375 37.25050208947505,10.839111328125 C37.2328629293188,10.768798828125 37.2144303121313,10.69873046875 37.1962418355688,10.62890625 L37.1380142965063,10.408203125 L37.08546302697505,10.215576171875 C37.05933998010005,10.120849609375 37.0325455465063,10.026611328125 37.00562904260005,9.9326171875 L36.97035072228755,9.808837890625 C36.93128822228755,9.675048828125 36.8913101949438,9.54248046875 36.85084388635005,9.41064453125 L36.81288001916255,9.28857421875 C36.78748939416255,9.207275390625 36.7285904683813,9.02294921875 36.7138199605688,8.9765625 L36.7104019918188,8.9658203125 C36.5871109761938,8.588134765625 36.4933609761938,8.31396484375 36.39747474572505,8.045654296875 L36.3855728902563,8.01220703125 C35.4093766011938,5.287353515625 34.23780677697505,3.1279296875 33.6688980855688,2.149169921875 L33.6688980855688,2.149169921875ZM50.13172767541255,20.4365234375 C51.4833512105688,20.13671875 52.58851478478755,19.1357421875 53.01673744103755,17.82421875 L53.6674332418188,15.83154296875 L51.41407630822505,16.284912109375 C51.0171646871313,16.36474609375 50.6038346090063,16.34033203125 50.2189469136938,16.214599609375 L46.33473060510005,14.9443359375 C44.66834876916255,14.400634765625 42.87098548791255,15.312744140625 42.3273453511938,16.9775390625 L41.1255631246313,20.65283203125 L42.38026283166255,21.063232421875 C42.4281754293188,20.989013671875 42.53736732385005,20.84375 42.5369400777563,20.84375 C42.5961441793188,20.767822265625 42.65125892541255,20.70263671875 42.7086930074438,20.639404296875 L42.71839759728755,20.62890625 C42.95167396447505,20.374755859375 43.5436539449438,19.979248046875 43.54286048791255,19.978515625 C43.59559486291255,19.949462890625 43.6276383199438,19.930419921875 43.6610855855688,19.91357421875 C44.2741226949438,19.602783203125 45.6288590230688,19.590576171875 45.6287369527563,19.5888671875 C45.72852943322505,19.60400390625 45.90455482385005,19.64111328125 45.90308998010005,19.64013671875 C46.0194840230688,19.66845703125 46.10438392541255,19.691650390625 46.18861244103755,19.718994140625 L48.06898353478755,20.33447265625 C48.7370133199438,20.552978515625 49.4502701558813,20.588134765625 50.13172767541255,20.4365234375 L50.13172767541255,20.4365234375ZM49.1504654683813,23.320068359375 L48.2643570699438,26.029052734375 C47.69532630822505,27.772216796875 46.0810074605688,28.943603515625 44.2472672261938,28.943603515625 C43.8007340230688,28.943603515625 43.3590836324438,28.872802734375 42.93336341760005,28.733154296875 C40.7174820699438,28.00927734375 39.5036148824438,25.61767578125 40.22743080041255,23.402099609375 L40.4888443746313,22.601806640625 L42.61329505822505,23.296630859375 C42.6607193746313,23.312255859375 42.7085709371313,23.32275390625 42.78675697228755,23.336181640625 L42.8039078511938,23.337646484375 C42.83521888635005,23.3408203125 42.89625404260005,23.34716796875 42.9273209371313,23.347412109375 L42.94398353478755,23.3466796875 C42.93604896447505,23.34765625 43.03370521447505,23.342529296875 43.0777115621313,23.336181640625 L43.09864662072505,23.33349609375 C43.14515540978755,23.325927734375 43.19080970666255,23.314697265625 43.25929115197505,23.292724609375 C43.2592301168188,23.292724609375 43.3521256246313,23.25830078125 43.39161537072505,23.238525390625 C43.39173744103755,23.23876953125 43.4745621480688,23.192138671875 43.53626869103755,23.1494140625 L43.54627845666255,23.140869140625 C43.5698990621313,23.121826171875 43.62391517541255,23.07861328125 43.6575455465063,23.04541015625 C43.6575455465063,23.04541015625 43.71937415978755,22.978759765625 43.7576432027563,22.929443359375 C43.75489662072505,22.93310546875 43.7580094136938,22.92822265625 43.76661537072505,22.914794921875 C43.78431556603755,22.887451171875 43.8218521871313,22.829833984375 43.84705970666255,22.781982421875 L43.85279701135005,22.76904296875 C43.8651871480688,22.74169921875 43.8939957418188,22.67822265625 43.90528724572505,22.644287109375 L43.9612564840063,22.475341796875 C43.97462318322505,22.434326171875 43.9899430074438,22.39453125 44.01576087853755,22.33837890625 C44.0148453511938,22.33935546875 44.04810951135005,22.270751953125 44.06666419885005,22.238525390625 C44.0670914449438,22.239013671875 44.71900794885005,21.603515625 45.17835853478755,21.60595703125 C45.2234635152563,21.608642578125 45.26600501916255,21.611083984375 45.30384681603755,21.6142578125 C45.2946305074438,21.613525390625 45.3091568746313,21.615966796875 45.33448646447505,21.619873046875 C45.3594498433813,21.62353515625 45.39491126916255,21.629150390625 45.4285416402563,21.635009765625 C45.4165787496313,21.633056640625 45.4328141011938,21.63720703125 45.4578385152563,21.643310546875 C45.4873795308813,21.65087890625 45.52906654260005,21.6611328125 45.55103919885005,21.66845703125 L47.43128822228755,22.28369140625 C47.5468277730688,22.321533203125 47.66358802697505,22.3544921875 47.78089759728755,22.38525390625 L47.8395523824438,22.400634765625 C47.95533607385005,22.4296875 48.0717301168188,22.455078125 48.18873451135005,22.477294921875 L48.23206947228755,22.48486328125 C48.4771256246313,22.529052734375 48.72413490197505,22.557861328125 48.9717545308813,22.57080078125 L49.0137467183813,22.5732421875 C49.1162857808813,22.577880859375 49.2188248433813,22.580810546875 49.3212418355688,22.580078125 C49.2870621480688,22.828857421875 49.2300553121313,23.075927734375 49.1504654683813,23.320068359375 L49.1504654683813,23.320068359375ZM39.50904701135005,32.10400390625 C40.36793373010005,32.740478515625 40.8605484761938,33.718994140625 40.8605484761938,34.78857421875 C40.8605484761938,35.504638671875 40.6336197652563,36.190185546875 40.2045426168188,36.770751953125 L33.8090348043188,45.4091796875 L31.5119156636938,44.020751953125 L28.0757584371313,41.943359375 L31.44557044885005,37.39208984375 L36.55555580041255,37.962646484375 C36.55555580041255,37.96240234375 36.7658219136938,37.977783203125 36.86671302697505,37.977783203125 C37.59547279260005,37.977783203125 38.29591224572505,37.727783203125 38.8660416402563,37.258544921875 C39.51710365197505,36.72314453125 39.9206070699438,35.9658203125 40.00221107385005,35.126953125 C40.0838150777563,34.287841796875 39.83375404260005,33.46728515625 39.29823158166255,32.81640625 C38.76429603478755,32.167236328125 38.01026771447505,31.764404296875 37.17433021447505,31.680908203125 L36.5198502340063,31.60791015625 C37.50428626916255,31.2978515625 38.61842201135005,31.4453125 39.50904701135005,32.10400390625 L39.50904701135005,32.10400390625ZM21.19471595666255,34.183837890625 L20.3306412496313,34.087158203125 L20.3161148824438,34.085693359375 C20.2783951558813,34.08203125 20.24134681603755,34.07666015625 20.20496986291255,34.069091796875 L20.19227455041255,34.06591796875 C19.7268814840063,33.966796875 19.3797135152563,33.57861328125 19.32557533166255,33.11376953125 L19.3238053121313,33.101318359375 C19.32093665978755,33.074462890625 19.32008216760005,33.047119140625 19.3192887105688,33.01953125 L19.31776283166255,32.990234375 C19.31764076135005,32.96923828125 19.3190445699438,32.947998046875 19.3214859761938,32.910888671875 C19.32215736291255,32.900146484375 19.32203529260005,32.889404296875 19.3229508199438,32.878662109375 L19.3260025777563,32.857666015625 C19.3294205465063,32.82861328125 19.3332047261938,32.79931640625 19.3388199605688,32.77099609375 C19.34181068322505,32.755615234375 19.34632728478755,32.740478515625 19.3500504293188,32.72509765625 C19.3546891011938,32.705810546875 19.3590836324438,32.686279296875 19.3646988668188,32.667236328125 C19.36988685510005,32.64990234375 19.3762955465063,32.63330078125 19.38233802697505,32.6162109375 C19.38807533166255,32.60009765625 19.3933853902563,32.583740234375 19.39979408166255,32.568115234375 C19.4071793355688,32.550048828125 19.41554115197505,32.53271484375 19.42371986291255,32.515380859375 C19.43031165978755,32.50146484375 19.4364762105688,32.487548828125 19.4435562886938,32.473876953125 C19.45301673791255,32.4560546875 19.46339271447505,32.4384765625 19.47376869103755,32.421142578125 L19.49537513635005,32.385498046875 C19.50684974572505,32.36767578125 19.51930091760005,32.3505859375 19.53187415978755,32.33349609375 L19.55470130822505,32.302734375 C19.56837318322505,32.28564453125 19.5825943746313,32.268798828125 19.5972428121313,32.25244140625 L19.6209244527563,32.226318359375 C19.63648841760005,32.2099609375 19.65260169885005,32.1943359375 19.6691422261938,32.1787109375 L19.69373939416255,32.156494140625 C19.7110123433813,32.14111328125 19.72877357385005,32.12646484375 19.74696205041255,32.112548828125 L19.7726578511938,32.09326171875 C19.79151771447505,32.07958984375 19.81068275353755,32.06640625 19.83033607385005,32.0537109375 L19.85731361291255,32.037109375 C19.8773941793188,32.025146484375 19.8977799215063,32.013671875 19.9185318746313,32.0029296875 L19.94752357385005,31.989013671875 C19.9684586324438,31.97900390625 19.98951576135005,31.96923828125 20.01112220666255,31.960693359375 C20.02162025353755,31.956298828125 20.0324234761938,31.95263671875 20.04310462853755,31.94873046875 C20.0644058980688,31.940673828125 20.0858902730688,31.933349609375 20.1077408590063,31.9267578125 C20.11952064416255,31.923095703125 20.1315445699438,31.92041015625 20.14356849572505,31.917236328125 C20.16493080041255,31.91162109375 20.1862320699438,31.906005859375 20.2079605855688,31.90185546875 C20.2216324605688,31.899169921875 20.23560951135005,31.897216796875 20.24952552697505,31.89501953125 C20.27003333947505,31.891845703125 20.29041908166255,31.888427734375 20.3113541402563,31.886474609375 C20.3283219136938,31.884765625 20.3455338277563,31.88427734375 20.3626236715063,31.88330078125 C20.3808121480688,31.88232421875 20.3988785543188,31.880859375 20.4173111715063,31.880859375 C20.4524674215063,31.880615234375 20.4878678121313,31.8818359375 20.52357337853755,31.885009765625 L20.88246009728755,31.92529296875 L21.49293373010005,31.993408203125 L21.19471595666255,34.183837890625 L21.19471595666255,34.183837890625ZM37.9608902730688,34.928466796875 C38.0196060933813,34.32421875 36.96595619103755,33.724853515625 36.96790931603755,33.721435546875 L36.95338294885005,33.719970703125 L33.76978919885005,33.3642578125 L23.53199623010005,32.220947265625 L23.23353431603755,34.411376953125 L36.7600846090063,35.922119140625 C37.0517105855688,35.948486328125 37.3367447652563,35.861328125 37.5630631246313,35.6748046875 C37.7910904683813,35.4873046875 37.9323258199438,35.222412109375 37.9608902730688,34.928466796875 L37.9608902730688,34.928466796875ZM41.4890885152563,53.963134765625 C41.7122330465063,53.201416015625 40.72730873010005,51.98876953125 40.7272476949438,51.98876953125 L30.3476090230688,45.713623046875 L26.84937904260005,43.59912109375 L25.8032974996313,45.01171875 L25.49207923791255,45.5693359375 C24.7362808980688,46.93408203125 25.18226478478755,48.642578125 26.51026771447505,49.462890625 L36.6165299215063,55.703369140625 C37.0052017965063,55.943359375 37.1881851949438,56.41162109375 37.0653824605688,56.8515625 L34.30836341760005,66.72802734375 L37.6277603902563,67.69970703125 L41.4890885152563,53.963134765625 L41.4890885152563,53.963134765625Z"/>
    <path id="path-3" opacity="1" fill-rule="evenodd" d="M11.215214842818625,65.60895606054419 L1.025431697970689,65.60895606054419 C0.4591199522380761,65.60895606054419 0,66.06807601278226 0,66.63438775851486 C0,67.20069950424747 0.4591199522380761,67.65981945648554 1.025431697970689,67.65981945648554 L11.215214842818625,67.65981945648554 C11.781526588551237,67.65981945648554 12.240646540789314,67.20069950424747 12.240646540789314,66.63438775851486 C12.240646540789314,66.06807601278226 11.781526588551237,65.60895606054419 11.215214842818625,65.60895606054419Z"/>
    <path id="path-4" opacity="1" fill-rule="evenodd" d="M11.215214842818742,59.72256794151326 L4.05469365800252,59.72256794151326 C3.488381912269901,59.72256794151326 3.0292619600318176,60.181687893751345 3.0292619600318176,60.747999639483965 C3.0292619600318176,61.314311385216584 3.488381912269901,61.77343133745467 4.05469365800252,61.77343133745467 L11.215214842818739,61.77343133745467 C11.781526588551358,61.77343133745467 12.240646540789442,61.314311385216584 12.240646540789442,60.747999639483965 C12.240646540789442,60.181687893751345 11.781526588551358,59.72256794151326 11.215214842818742,59.72256794151326Z"/>
    <path id="path-5" opacity="1" fill-rule="evenodd" d="M11.215214842818737,53.83631654670853 L8.185405985881378,53.83631654670853 C7.619094240148772,53.83631654670853 7.1599742879107,54.2954364989466 7.1599742879107,54.861748244679205 C7.1599742879107,55.42805999041181 7.619094240148772,55.88717994264988 8.185405985881378,55.88717994264988 L11.215214842818737,55.88717994264988 C11.781526588551342,55.88717994264988 12.240646540789413,55.42805999041181 12.240646540789413,54.861748244679205 C12.240646540789413,54.2954364989466 11.781526588551342,53.83631654670853 11.215214842818737,53.83631654670853Z"/>
  </defs>
  <g opacity="1">
    <g opacity="1">
      <use xlink:href="#path-0" fill="rgb(79,79,79)" fill-opacity="1"/>
    </g>
    <g opacity="1">
      <use xlink:href="#path-1" fill="rgb(79,79,79)" fill-opacity="1"/>
    </g>
    <g opacity="1">
      <use xlink:href="#path-2" fill="rgb(79,79,79)" fill-opacity="1"/>
    </g>
    <g opacity="1">
      <use xlink:href="#path-3" fill="rgb(79,79,79)" fill-opacity="1"/>
    </g>
    <g opacity="1">
      <use xlink:href="#path-4" fill="rgb(79,79,79)" fill-opacity="1"/>
    </g>
    <g opacity="1">
      <use xlink:href="#path-5" fill="rgb(79,79,79)" fill-opacity="1"/>
    </g>
  </g>
</svg>