<?xml version="1.0" encoding="utf-8"?>
<svg version="1.1" xmlns="http://www.w3.org/2000/svg" xmlns:xlink="http://www.w3.org/1999/xlink" height="129.40926021895666" width="129.40926021895712">
  <defs>
    <ellipse id="ellipse-0" opacity="1" rx="60" ry="60" cx="64.70463010947856" cy="64.70463010947833"/>
    <path id="path-1" opacity="1" fill-rule="evenodd" d="M64.18589231650981,78.82059690635333 C67.10373899619731,84.71610471885333 71.61026975791606,88.66800901572833 78.32139036338481,89.70463010947833 C80.03971311729106,89.70463010947833 81.79044553916606,89.70463010947833 83.54117796104106,89.67215940635333 C86.88053342979106,88.99198362510333 90.05777952354106,87.89066526572833 92.74875852744731,85.65555784385333 C99.71927854697856,79.85721800010333 100.27042600791606,71.30546018760333 94.04557249229106,64.69730589072833 C92.13273069541606,62.72123167197833 89.92814085166606,61.10160276572833 87.69108030479106,59.25541135947833 L102.31290647666606,59.25541135947833 L102.31290647666606,52.77665159385333 C100.69272825400981,52.77665159385333 99.07255003135356,52.77128050010333 97.45243284385356,52.76615354697833 C93.39890501182231,52.75296995322833 89.34543821494731,52.73978635947833 85.29191038291606,52.80912229697833 C81.07718870322856,52.90629026572833 76.89487669150981,53.26273557822833 72.93955442588481,55.01175901572833 C63.24564573447856,59.28763792197833 59.48484251182231,69.32938596885333 64.18589231650981,78.82059690635333 L64.18589231650981,78.82059690635333ZM70.24259397666606,73.33402464072833 C70.07309934775981,72.42606565635333 69.90854856650981,71.54471800010333 69.98923704307231,70.81962034385333 C70.21616575400981,62.81864378135333 75.20896360557231,59.02860471885333 82.30918333213481,59.32010862510333 C82.99003050010356,59.35257932822833 83.41147825400981,59.67655393760333 83.83298704307231,60.12992307822833 C85.38913938682231,61.78202268760333 86.97776243369731,63.43412229697833 88.14493772666606,65.37772581260333 C91.38706419150981,70.85209104697833 91.35459348838481,76.52079221885333 88.56644651572856,82.05985471885333 C86.32938596885356,86.49784300010333 81.36893675010356,87.59916135947833 77.05698606650981,84.87821409385333 C73.00437376182231,82.35135862510333 71.12394163291606,78.43192503135333 70.34586546104106,73.89701292197833 C70.31266233604106,73.70902464072833 70.27750608604106,73.52079221885333 70.24259397666606,73.33402464072833 L70.24259397666606,73.33402464072833Z"/>
    <path id="path-2" opacity="1" fill-rule="evenodd" d="M31.181314679791058,53.84574339072833 C29.009134504009808,57.63578245322833 27.874368879009808,61.78202268760333 27.096292707134808,66.05790159385333 L27.096292707134808,73.18436643760333 C27.615030500103558,75.71097776572833 28.133768293072308,78.23758909385333 29.300943586041058,80.56986448447833 C31.700052472759808,85.39652464072833 35.33121702354106,88.60331175010333 40.71311399619731,89.70463010947833 L44.60361692588481,89.70463010947833 C44.76572630088481,89.67240354697833 44.89542600791606,89.57523557822833 45.05747434775981,89.54276487510333 C53.32486936729106,88.05277464072833 59.38755247275981,79.85721800010333 57.89621946494731,70.33378050010333 C56.40482542197856,60.77787229697833 46.28946897666606,55.85428831260333 37.17923948447856,60.09769651572833 C36.94095823447856,60.21048948447833 36.58146116416606,60.32328245322833 36.23392698447856,60.43216917197833 C35.75370237510356,60.58280393760333 35.29624387900981,60.72611448447833 35.21286985557231,60.85257932822833 C36.88468382041606,52.82865354697833 43.39652464072856,42.82914182822833 54.32987425010356,41.47171995322833 C54.91349241416606,41.40702268760333 55.59433958213481,41.34208128135333 55.59433958213481,40.53226682822833 C55.56571409385356,39.76151487510333 55.00821897666606,39.74564573447833 54.47678587119731,39.73026487510333 C54.40525266807231,39.72831175010333 54.33426878135356,39.72635862510333 54.26505491416606,39.72245237510333 C52.25498411338481,39.65775510947833 50.24485227744731,39.75492307822833 48.29960081260356,40.24076292197833 C40.51859495322856,42.15189573447833 35.10428831260356,47.07572385947833 31.181314679791058,53.84574339072833 L31.181314679791058,53.84574339072833ZM48.88315794150981,66.41410276572833 C50.63389036338481,69.52396604697833 51.44437620322856,72.89286253135333 51.41196653525981,75.90531370322833 C51.41196653525981,78.17289182822833 51.37955686729106,79.85721800010333 50.76359007041606,81.41214964072833 C49.75852415244731,84.13309690635333 48.07261106650981,86.10892698447833 45.08988401572856,86.59501096885333 C41.91263792197856,87.11332151572833 39.22171995322856,86.04422971885333 37.21158811729106,83.48514768760333 C34.71518919150981,80.34305784385333 33.96952268760356,76.58548948447833 33.71012327354106,72.73075315635333 C33.54801389854106,70.49564573447833 33.48319456260356,68.22806760947833 33.90464231650981,65.96073362510333 C34.03434202354106,65.37748167197833 34.16404173057231,64.85941526572833 34.74759885947856,64.50296995322833 C37.56821653525981,62.78617307822833 40.61582395713481,62.07352659385333 43.89029905479106,62.62430784385333 C46.19223997275981,63.01297971885333 47.78086301963481,64.43827268760333 48.88315794150981,66.41410276572833 L48.88315794150981,66.41410276572833Z"/>
  </defs>
  <g opacity="1">
    <g opacity="1">
      <use xlink:href="#ellipse-0" fill-opacity="0" stroke="rgb(242,242,242)" stroke-opacity="1" stroke-width="2" stroke-linecap="butt" stroke-linejoin="miter"/>
    </g>
    <g opacity="1">
      <g opacity="1">
        <use xlink:href="#path-1" fill="rgb(255,157,0)" fill-opacity="1"/>
      </g>
      <g opacity="1">
        <use xlink:href="#path-2" fill="rgb(66,74,82)" fill-opacity="1"/>
      </g>
    </g>
  </g>
</svg>