<?xml version="1.0" encoding="utf-8"?>
<svg version="1.1" xmlns="http://www.w3.org/2000/svg" xmlns:xlink="http://www.w3.org/1999/xlink" height="129.40926021895666" width="129.40926021895712">
  <defs>
    <ellipse id="ellipse-0" opacity="1" rx="60" ry="60" cx="64.70463010947856" cy="64.70463010947833"/>
    <path id="path-1" opacity="1" fill-rule="evenodd" d="M90.81909008316282,39.2918842792569 C85.23183591338426,33.70463010947833 76.139869627243,33.7068350243046 70.5515130000513,39.2918842792569 L60.41772445849555,49.42567282081265 C59.55670521883552,50.28669206047269 59.55670521883552,51.682403145504196 60.41772445849555,52.543422385164234 C61.27874369815559,53.404441624824265 62.67445478318709,53.404441624824265 63.535474022847126,52.543422385164234 L73.66926256440289,42.409633843608475 C75.53351805001763,40.54648081540686 78.02507180370736,39.518990506363124 80.68419908419392,39.518990506363124 C83.34442882209362,39.518990506363124 85.83598257578335,40.54648081540686 87.7002380613981,42.41073630102161 C89.56449354701286,44.27499178663636 90.59198385605657,46.76654554032609 90.59198385605657,49.42677527822579 C90.59198385605657,52.085902558712355 89.56449354701284,54.57745631240209 87.7002380613981,56.44171179801684 L74.4498024129039,69.69545481875045 C70.58017689279288,73.56287542403521 64.28624752119346,73.56287542403521 60.416622001082416,69.69545481875045 C59.55560276142238,68.83443557909041 58.15989167639088,68.83443557909041 57.29887243673084,69.69545481875045 C56.43785319707081,70.55647405841049 56.43785319707081,71.95328760085513 57.29887243673084,72.81320438310203 C60.09249952162012,75.6068314679913 63.76258024995336,77.00364501043595 67.43266097828659,77.00364501043595 C71.10274170661984,77.00364501043595 74.77282243495307,75.6068314679913 77.56644951984234,72.81320438310203 L90.81909008316282,59.56056381978155 C93.51680337310917,56.863952987248325 95.00291596601791,53.264429533355866 95.00291596601791,49.42677527822579 C95.00291596601791,45.58801856568259 93.51680337310917,41.989597569203255 90.81909008316282,39.2918842792569Z"/>
    <path id="path-2" opacity="1" fill-rule="evenodd" d="M64.31491141393437,79.82814090289175 L55.739997654554394,88.40305466227171 C53.87574216893964,90.26731014788646 51.38418841524991,91.29480045693019 48.723958677350204,91.29480045693019 C46.06483139686364,91.29480045693019 43.57217518576077,90.26731014788646 41.70791970014602,88.40305466227171 C37.83939663744811,84.53453159957381 37.83939663744811,78.23949977056125 41.70791970014602,74.37097670786335 L54.1811228723786,61.89777353563076 C56.04537835799336,60.034620507429146 58.536932111683086,59.00713019838542 61.19716184958279,59.00713019838542 C63.85628913006936,59.00713019838542 66.34784288375909,60.034620507429146 68.21209836937385,61.89777353563076 C69.07311760903387,62.75879277529079 70.46882869406538,62.75879277529079 71.32984793372542,61.89777353563076 C72.19086717338547,61.036754295970724 72.19086717338546,59.641043210939216 71.32984793372542,58.780023971279185 C65.74369622135998,53.19387225891375 56.65172993521874,53.19276980150062 51.06227085061389,58.780023971279185 L38.589067678381305,71.2543296009249 C35.89245684584808,73.95094043345813 34.406344252939334,77.55046388735059 34.406344252939334,81.38811814248066 C34.406344252939334,85.2246699401976 35.89245684584808,88.82419339409006 38.59017013579444,91.5208042266233 C41.28678096832766,94.21851751656965 44.886304422220135,95.7046301094784 48.72285621993707,95.7046301094784 C52.56051047506713,95.7046301094784 56.160033928959606,94.21851751656965 58.85664476149283,91.5208042266233 L67.43155852087281,82.94589046724332 C68.29257776053285,82.08487122758329 68.29257776053285,80.68916014255178 67.43155852087281,79.82814090289175 C66.57053928121277,78.9671216632317 65.1759306535944,78.96712166323171 64.31491141393437,79.82814090289175Z"/>
    <path id="path-3" opacity="1" fill-rule="evenodd" d="M71.88989629960118,83.61728703184417 C70.67278331549787,83.61728703184417 69.68498147332707,84.60508887401497 69.68498147332707,85.82220185811826 L69.68498147332707,92.43694633694057 C69.68498147332707,93.65405932104386 70.67278331549787,94.64186116321466 71.88989629960118,94.64186116321466 C73.10700928370449,94.64186116321466 74.09481112587528,93.65405932104386 74.09481112587528,92.43694633694057 L74.09481112587528,85.82220185811826 C74.09481112587528,84.60398641660183 73.10811174111761,83.61728703184417 71.88989629960118,83.61728703184417Z"/>
    <path id="path-4" opacity="1" fill-rule="evenodd" d="M79.79672086661817,82.05841224967031 C78.93570162695814,81.19739301001027 77.53999054192663,81.19739301001027 76.67897130226659,82.05841224967031 C75.81795206260654,82.91943148933035 75.81795206260655,84.31514257436184 76.67897130226659,85.1761618140219 L81.35559564879397,89.85278616054926 C81.78665649733055,90.28384700908585 82.35001223544359,90.49882620464757 82.91447043096976,90.49882620464757 C83.47892862649593,90.49882620464757 84.04228436460897,90.28384700908585 84.47334521314556,89.85278616054926 C85.3343644528056,88.99176692088922 85.3343644528056,87.59605583585773 84.47334521314556,86.73503659619767 L79.79672086661817,82.05841224967031Z"/>
    <path id="path-5" opacity="1" fill-rule="evenodd" d="M85.08079924778262,74.79762772674758 L78.46605476896032,74.79762772674758 C77.24894178485701,74.79762772674758 76.26113994268621,75.78542956891837 76.26113994268621,77.00254255302168 C76.26113994268621,78.21965553712499 77.24894178485701,79.20745737929579 78.46605476896032,79.20745737929579 L85.08079924778262,79.20745737929579 C86.29791223188593,79.20745737929579 87.28571407405673,78.21965553712499 87.28571407405673,77.00254255302168 C87.28571407405673,75.78542956891837 86.29901468929906,74.79762772674758 85.08079924778262,74.79762772674758Z"/>
    <path id="path-6" opacity="1" fill-rule="evenodd" d="M54.25057768940663,49.441107224597424 C55.46769067350994,49.441107224597424 56.455492515680746,48.45330538242663 56.455492515680746,47.236192398323325 L56.455492515680746,40.621447919501016 C56.455492515680746,39.40433493539771 55.46769067350994,38.41653309322692 54.25057768940663,38.41653309322692 C53.033464705303324,38.41653309322692 52.04566286313252,39.40433493539771 52.04566286313252,40.621447919501016 L52.04566286313252,47.236192398323325 C52.04566286313252,48.45330538242663 53.033464705303324,49.441107224597424 54.25057768940663,49.441107224597424Z"/>
    <path id="path-7" opacity="1" fill-rule="evenodd" d="M46.07695842840665,50.99998200677032 C46.50801927694323,51.4310428553069 47.07137501505626,51.64602205086862 47.63583321058243,51.64602205086862 C48.200291406108605,51.64602205086862 48.763647144221636,51.4310428553069 49.19470799275822,50.99998200677032 C50.05572723241825,50.13896276711028 50.05572723241825,48.74325168207877 49.19470799275822,47.88223244241873 L44.51808364623086,43.204505638478224 C43.657064406570825,42.343486398818186 42.261353321539325,42.343486398818186 41.400334081879286,43.204505638478224 C40.539314842219255,44.06552487813826 40.539314842219255,45.46123596316977 41.400334081879286,46.3222552028298 L46.07695842840665,50.99998200677032Z"/>
    <path id="path-8" opacity="1" fill-rule="evenodd" d="M40.98250272230128,58.26076652969111 L47.59724720112358,58.26076652969111 C48.81436018522689,58.26076652969111 49.802162027397685,57.27296468752031 49.802162027397685,56.055851703417 C49.802162027397685,54.83873871931369 48.81436018522689,53.850936877142885 47.59724720112358,53.850936877142885 L40.98250272230128,53.850936877142885 C39.76538973819797,53.850936877142885 38.77758789602717,54.83873871931369 38.77758789602717,56.055851703417 C38.77758789602717,57.27296468752031 39.76538973819797,58.26076652969111 40.98250272230128,58.26076652969111Z"/>
  </defs>
  <g opacity="1">
    <g opacity="1">
      <use xlink:href="#ellipse-0" fill-opacity="0" stroke="rgb(242,242,242)" stroke-opacity="1" stroke-width="2" stroke-linecap="butt" stroke-linejoin="miter"/>
    </g>
    <g opacity="1">
      <g opacity="1">
        <use xlink:href="#path-1" fill="rgb(66,74,82)" fill-opacity="1"/>
      </g>
      <g opacity="1">
        <use xlink:href="#path-2" fill="rgb(66,74,82)" fill-opacity="1"/>
      </g>
      <g opacity="1">
        <use xlink:href="#path-3" fill="rgb(66,74,82)" fill-opacity="1"/>
      </g>
      <g opacity="1">
        <use xlink:href="#path-4" fill="rgb(255,157,0)" fill-opacity="1"/>
      </g>
      <g opacity="1">
        <use xlink:href="#path-5" fill="rgb(66,74,82)" fill-opacity="1"/>
      </g>
      <g opacity="1">
        <use xlink:href="#path-6" fill="rgb(255,157,0)" fill-opacity="1"/>
      </g>
      <g opacity="1">
        <use xlink:href="#path-7" fill="rgb(66,74,82)" fill-opacity="1"/>
      </g>
      <g opacity="1">
        <use xlink:href="#path-8" fill="rgb(255,157,0)" fill-opacity="1"/>
      </g>
    </g>
  </g>
</svg>