<?xml version="1.0" encoding="utf-8"?>
<svg version="1.1" xmlns="http://www.w3.org/2000/svg" xmlns:xlink="http://www.w3.org/1999/xlink" height="90" width="90">
  <defs>
    <ellipse id="ellipse-0" opacity="1" rx="45" ry="45" cx="45" cy="45"/>
    <path id="path-1" opacity="1" fill-rule="evenodd" d="M66.05191704847557,18.977843269881305 L63.3463416305608,20.702647598801963 L65.21251227506751,23.036206396753443 L66.05191704847557,18.977843269881305Z"/>
    <path id="path-2" opacity="1" fill-rule="evenodd" d="M56.23608943228055,26.571649434727988 L56.292230122202284,29.779751666827746 L59.257202583309706,29.408715817953453 L56.23608943228055,26.571649434727988Z"/>
    <path id="path-3" opacity="1" fill-rule="evenodd" d="M73.49224944774122,14.919480143008968 L70.78667402982637,16.644284471929627 L72.65284467433314,18.977843269881102 L73.49224944774122,14.919480143008968Z"/>
    <path id="path-4" opacity="1" fill-rule="evenodd" d="M56.23608943228055,10 L56.292230122202284,13.208102232099714 L59.257202583309706,12.837066383225427 L56.23608943228055,10Z"/>
    <path id="path-5" opacity="1" fill-rule="evenodd" d="M42.23473664457151,20.40073920185523 L42.26754174651373,22.253179051116046 L43.97915639527204,22.03893129770992 L42.23473664457151,20.40073920185523Z"/>
    <path id="path-6" opacity="1" fill-rule="evenodd" d="M51.87131988932971,21.19377717653905 L50.02239728811219,21.076422842786997 L50.09747700595933,22.80000966276959 L51.87131988932971,21.19377717653905Z"/>
    <path id="path-7" opacity="1" fill-rule="evenodd" d="M52.72256155519086,14.055217895449005 L50.86991878777371,14.0735819885981 L51.07114595948112,15.78705672045625 L52.72256155519086,14.055217895449005Z"/>
    <path id="path-8" opacity="1" fill-rule="evenodd" d="M69.80205741438665,46.95661691058524 L70.00205715863098,44.18677882044085 L67.397635710352,44.27839451548631 L69.80205741438665,46.95661691058524Z"/>
    <path id="path-9" opacity="1" fill-rule="evenodd" d="M61.48822021484375,41.15087890625 L61.48822021484375,44.497314453125 C63.2554931640625,44.842041015625 64.59027099609375,46.3392333984375 64.59027099609375,48.1285400390625 L64.59027099609375,71.8468017578125 C64.59027099609375,73.890380859375 62.85076904296875,75.5526123046875 60.71270751953125,75.5526123046875 L51.40625,75.5526123046875 L51.40625,78.5174560546875 L54.50860595703125,78.5174560546875 L54.50860595703125,80 L26.58953857421875,80 L26.58953857421875,78.5174560546875 L29.69171142578125,78.5174560546875 L29.69171142578125,75.5526123046875 L20.3853759765625,75.5526123046875 C18.24725341796875,75.5526123046875 16.50775146484375,73.890380859375 16.50775146484375,71.8468017578125 L16.50775146484375,48.1285400390625 C16.50775146484375,46.0848388671875 18.24725341796875,44.422607421875 20.3853759765625,44.422607421875 L32.01824951171875,44.422607421875 L32.01824951171875,34.0457763671875 L54.05401611328125,34.0457763671875 L61.48822021484375,41.15087890625 L61.48822021484375,41.15087890625ZM33.56927490234375,35.5281982421875 L52.18170166015625,35.5281982421875 L52.18170166015625,42.940185546875 L59.93719482421875,42.940185546875 L59.93719482421875,66.6583251953125 L33.56927490234375,66.6583251953125 L33.56927490234375,35.5281982421875 L33.56927490234375,35.5281982421875ZM59.615966796875,41.4578857421875 L53.73309326171875,35.8350830078125 L53.73309326171875,41.4578857421875 L59.615966796875,41.4578857421875 L59.615966796875,41.4578857421875ZM18.058837890625,69.6231689453125 L63.039306640625,69.6231689453125 L63.039306640625,48.1285400390625 C63.039306640625,47.16357421875 62.3885498046875,46.3480224609375 61.48828125,46.041259765625 L61.48828125,68.140869140625 L32.01824951171875,68.140869140625 L32.01824951171875,45.9049072265625 L20.38543701171875,45.9049072265625 C19.1026611328125,45.9049072265625 18.058837890625,46.9027099609375 18.058837890625,48.1285400390625 L18.058837890625,69.6231689453125 L18.058837890625,69.6231689453125ZM63.039306640625,71.8468017578125 C63.039306640625,73.072998046875 61.995361328125,74.0704345703125 60.7127685546875,74.0704345703125 L20.38543701171875,74.0704345703125 C19.1026611328125,74.0704345703125 18.058837890625,73.072998046875 18.058837890625,71.8468017578125 L18.058837890625,71.105712890625 L63.039306640625,71.105712890625 L63.039306640625,71.8468017578125 L63.039306640625,71.8468017578125ZM31.24273681640625,78.5174560546875 L49.855224609375,78.5174560546875 L49.855224609375,75.552734375 L31.24273681640625,75.552734375 L31.24273681640625,78.5174560546875 L31.24273681640625,78.5174560546875Z"/>
    <path id="path-10" opacity="1" fill-rule="evenodd" d="M25.03851318359375,47.387451171875 C28.03131103515625,47.387451171875 30.46722412109375,49.71533203125 30.46722412109375,52.5755615234375 C30.46722412109375,55.4359130859375 28.03131103515625,57.7640380859375 25.03851318359375,57.7640380859375 C22.0457763671875,57.7640380859375 19.60986328125,55.4359130859375 19.60986328125,52.5755615234375 C19.60986328125,49.71533203125 22.0457763671875,47.387451171875 25.03851318359375,47.387451171875 L25.03851318359375,47.387451171875ZM22.20477294921875,55.0869140625 C22.68634033203125,54.046142578125 23.77288818359375,53.3170166015625 25.03851318359375,53.3170166015625 C26.30413818359375,53.3170166015625 27.39068603515625,54.046142578125 27.87225341796875,55.0869140625 C28.514404296875,54.4248046875 28.9161376953125,53.5467529296875 28.9161376953125,52.5755615234375 C28.9161376953125,50.685546875 27.4224853515625,49.138671875 25.5069580078125,48.9150390625 C26.5662841796875,49.12255859375 27.36505126953125,50.0208740234375 27.36505126953125,51.0933837890625 C27.36505126953125,52.3192138671875 26.32122802734375,53.3170166015625 25.03851318359375,53.3170166015625 C23.75579833984375,53.3170166015625 22.7119140625,52.3192138671875 22.7119140625,51.0933837890625 C22.7119140625,50.0208740234375 23.51068115234375,49.12255859375 24.570068359375,48.9150390625 C22.654541015625,49.138671875 21.160888671875,50.685546875 21.160888671875,52.5755615234375 C21.160888671875,53.5467529296875 21.5626220703125,54.4248046875 22.20477294921875,55.0869140625 L22.20477294921875,55.0869140625ZM25.03851318359375,51.83447265625 C25.46661376953125,51.83447265625 25.8140869140625,51.50244140625 25.8140869140625,51.09326171875 C25.8140869140625,50.68408203125 25.46661376953125,50.3521728515625 25.03851318359375,50.3521728515625 C24.61041259765625,50.3521728515625 24.26300048828125,50.68408203125 24.26300048828125,51.09326171875 C24.26300048828125,51.50244140625 24.61041259765625,51.83447265625 25.03851318359375,51.83447265625 L25.03851318359375,51.83447265625ZM25.03851318359375,56.28173828125 C24.49957275390625,56.28173828125 23.98614501953125,56.1749267578125 23.519287109375,55.9837646484375 C23.66351318359375,55.30908203125 24.2901611328125,54.7991943359375 25.03851318359375,54.7991943359375 C25.78692626953125,54.7991943359375 26.41351318359375,55.30908203125 26.55780029296875,55.9837646484375 C26.09088134765625,56.1749267578125 25.5775146484375,56.28173828125 25.03851318359375,56.28173828125 L25.03851318359375,56.28173828125Z"/>
    <path id="path-11" opacity="1" fill-rule="evenodd" d="M25.03851318359375,68.140869140625 C22.0457763671875,68.140869140625 19.60986328125,65.812744140625 19.60986328125,62.9525146484375 C19.60986328125,60.0921630859375 22.0457763671875,57.7640380859375 25.03851318359375,57.7640380859375 C28.03131103515625,57.7640380859375 30.46722412109375,60.0921630859375 30.46722412109375,62.9525146484375 C30.46722412109375,65.812744140625 28.03131103515625,68.140869140625 25.03851318359375,68.140869140625 L25.03851318359375,68.140869140625ZM22.7119140625,61.47021484375 C22.7119140625,60.3974609375 23.51068115234375,59.4991455078125 24.570068359375,59.2916259765625 C22.654541015625,59.5155029296875 21.160888671875,61.0625 21.160888671875,62.952392578125 C21.160888671875,63.92333984375 21.5626220703125,64.8017578125 22.20477294921875,65.4635009765625 C22.68634033203125,64.4229736328125 23.77288818359375,63.693603515625 25.03851318359375,63.693603515625 C26.30413818359375,63.693603515625 27.39068603515625,64.4229736328125 27.87225341796875,65.4635009765625 C28.514404296875,64.8017578125 28.9161376953125,63.92333984375 28.9161376953125,62.952392578125 C28.9161376953125,61.0625 27.4224853515625,59.5155029296875 25.5069580078125,59.2916259765625 C26.5662841796875,59.4991455078125 27.36505126953125,60.3974609375 27.36505126953125,61.47021484375 C27.36505126953125,62.696044921875 26.32122802734375,63.693603515625 25.03851318359375,63.693603515625 C23.75579833984375,63.693603515625 22.7119140625,62.696044921875 22.7119140625,61.47021484375 L22.7119140625,61.47021484375ZM25.8140869140625,61.47021484375 C25.8140869140625,61.8790283203125 25.46661376953125,62.2113037109375 25.03851318359375,62.2113037109375 C24.61041259765625,62.2113037109375 24.26300048828125,61.8790283203125 24.26300048828125,61.47021484375 C24.26300048828125,61.06103515625 24.61041259765625,60.728759765625 25.03851318359375,60.728759765625 C25.46661376953125,60.728759765625 25.8140869140625,61.06103515625 25.8140869140625,61.47021484375 L25.8140869140625,61.47021484375ZM23.519287109375,66.3604736328125 C23.98614501953125,66.5518798828125 24.49957275390625,66.658447265625 25.03851318359375,66.658447265625 C25.5775146484375,66.658447265625 26.09088134765625,66.5518798828125 26.55780029296875,66.3604736328125 C26.41351318359375,65.68603515625 25.78692626953125,65.1761474609375 25.03851318359375,65.1761474609375 C24.2901611328125,65.1761474609375 23.66351318359375,65.68603515625 23.519287109375,66.3604736328125 L23.519287109375,66.3604736328125Z"/>
    <path id="path-12" opacity="1" fill-rule="evenodd" d="M44.42657470703125,38.4930419921875 L44.42657470703125,39.91162109375 L46.302734375,38.630859375 L47.203857421875,39.8369140625 L44.42657470703125,41.7327880859375 L44.42657470703125,45.9049072265625 L36.67144775390625,45.9049072265625 L36.67144775390625,38.4930419921875 L44.42657470703125,38.4930419921875 L44.42657470703125,38.4930419921875ZM41.4083251953125,41.97216796875 L42.87554931640625,40.9708251953125 L42.87554931640625,39.975341796875 L38.22247314453125,39.975341796875 L38.22247314453125,44.422607421875 L42.87554931640625,44.422607421875 L42.87554931640625,42.7919921875 L41.24078369140625,43.9080810546875 L39.22509765625,41.9818115234375 L40.3218994140625,40.93359375 L41.4083251953125,41.97216796875 L41.4083251953125,41.97216796875Z"/>
    <path id="path-13" opacity="1" fill-rule="evenodd" d="M44.42657470703125,47.387451171875 L44.42657470703125,48.805908203125 L46.302734375,47.5252685546875 L47.203857421875,48.731201171875 L44.42657470703125,50.6270751953125 L44.42657470703125,54.7991943359375 L36.67144775390625,54.7991943359375 L36.67144775390625,47.387451171875 L44.42657470703125,47.387451171875 L44.42657470703125,47.387451171875ZM41.4083251953125,50.866455078125 L42.87554931640625,49.8651123046875 L42.87554931640625,48.86962890625 L38.22247314453125,48.86962890625 L38.22247314453125,53.31689453125 L42.87554931640625,53.31689453125 L42.87554931640625,51.686279296875 L41.24078369140625,52.8023681640625 L39.22509765625,50.8760986328125 L40.3218994140625,49.827880859375 L41.4083251953125,50.866455078125 L41.4083251953125,50.866455078125Z"/>
    <path id="path-14" opacity="1" fill-rule="evenodd" d="M44.42657470703125,56.28173828125 L44.42657470703125,57.700439453125 L46.302734375,56.420166015625 L47.203857421875,57.62548828125 L44.42657470703125,59.5213623046875 L44.42657470703125,63.6934814453125 L36.67144775390625,63.6934814453125 L36.67144775390625,56.28173828125 L44.42657470703125,56.28173828125 L44.42657470703125,56.28173828125ZM41.4083251953125,59.7608642578125 L42.87554931640625,58.759521484375 L42.87554931640625,57.7640380859375 L38.22247314453125,57.7640380859375 L38.22247314453125,62.2113037109375 L42.87554931640625,62.2113037109375 L42.87554931640625,60.5806884765625 L41.24078369140625,61.69677734375 L39.22509765625,59.7705078125 L40.3218994140625,58.7222900390625 L41.4083251953125,59.7608642578125 L41.4083251953125,59.7608642578125Z"/>
    <path id="path-15" opacity="1" fill-rule="evenodd" d="M56.83514025101492,44.42266932464645 L47.52866247643669,44.42266932464645 L47.52866247643669,45.90491175183565 L56.83514025101492,45.90491175183565 L56.83514025101492,44.42266932464645Z"/>
    <path id="path-16" opacity="1" fill-rule="evenodd" d="M56.83514025101492,53.31700199348461 L47.52866247643669,53.31700199348461 L47.52866247643669,54.7992444206738 L56.83514025101492,54.7992444206738 L56.83514025101492,53.31700199348461Z"/>
    <path id="path-17" opacity="1" fill-rule="evenodd" d="M56.83514025101492,62.21133466232277 L47.52866247643669,62.21133466232277 L47.52866247643669,63.69357708951199 L56.83514025101492,63.69357708951199 L56.83514025101492,62.21133466232277Z"/>
    <path id="path-18" opacity="1" fill-rule="evenodd" d="M56.83514025101492,59.24655710604338 L47.52866247643669,59.24655710604338 L47.52866247643669,60.72879953323258 L56.83514025101492,60.72879953323258 L56.83514025101492,59.24655710604338Z"/>
    <path id="path-19" opacity="1" fill-rule="evenodd" d="M56.83514025101492,50.35222443720522 L47.52866247643669,50.35222443720522 L47.52866247643669,51.8344668643944 L56.83514025101492,51.8344668643944 L56.83514025101492,50.35222443720522Z"/>
    <path id="path-20" opacity="1" fill-rule="evenodd" d="M50.630723406338255,41.45789176836661 L47.52866247643669,41.45789176836661 L47.52866247643669,42.94013419555581 L50.630723406338255,42.94013419555581 L50.630723406338255,41.45789176836661Z"/>
  </defs>
  <g opacity="1">
    <g opacity="1">
      <use xlink:href="#ellipse-0" fill="rgb(247,247,247)" fill-opacity="1"/>
    </g>
    <g opacity="1">
      <g opacity="1">
        <g opacity="1">
          <use xlink:href="#path-1" fill="rgb(255,157,0)" fill-opacity="1"/>
        </g>
        <g opacity="1">
          <use xlink:href="#path-2" fill-opacity="0" stroke="rgb(121,121,121)" stroke-opacity="1" stroke-width="1"/>
        </g>
        <g opacity="1">
          <use xlink:href="#path-3" fill-opacity="0" stroke="rgb(121,121,121)" stroke-opacity="1" stroke-width="1"/>
        </g>
        <g opacity="1">
          <use xlink:href="#path-4" fill-opacity="0" stroke="rgb(121,121,121)" stroke-opacity="1" stroke-width="1"/>
        </g>
        <g opacity="1">
          <use xlink:href="#path-5" fill-opacity="0" stroke="rgb(121,121,121)" stroke-opacity="1" stroke-width="1"/>
        </g>
        <g opacity="1">
          <use xlink:href="#path-6" fill-opacity="0" stroke="rgb(121,121,121)" stroke-opacity="1" stroke-width="1"/>
        </g>
        <g opacity="1">
          <use xlink:href="#path-7" fill-opacity="0" stroke="rgb(121,121,121)" stroke-opacity="1" stroke-width="1"/>
        </g>
        <g opacity="1">
          <use xlink:href="#path-8" fill="rgb(196,196,196)" fill-opacity="1"/>
        </g>
        <g opacity="1">
          <g opacity="1">
            <use xlink:href="#path-9" fill="rgb(0,0,0)" fill-opacity="1"/>
          </g>
          <g opacity="1">
            <use xlink:href="#path-10" fill="rgb(255,157,0)" fill-opacity="1"/>
          </g>
          <g opacity="1">
            <use xlink:href="#path-11" fill="rgb(255,157,0)" fill-opacity="1"/>
          </g>
          <g opacity="1">
            <use xlink:href="#path-12" fill="rgb(0,0,0)" fill-opacity="1"/>
          </g>
          <g opacity="1">
            <use xlink:href="#path-13" fill="rgb(0,0,0)" fill-opacity="1"/>
          </g>
          <g opacity="1">
            <use xlink:href="#path-14" fill="rgb(0,0,0)" fill-opacity="1"/>
          </g>
          <g opacity="1">
            <use xlink:href="#path-15" fill="rgb(0,0,0)" fill-opacity="1"/>
          </g>
          <g opacity="1">
            <use xlink:href="#path-16" fill="rgb(0,0,0)" fill-opacity="1"/>
          </g>
          <g opacity="1">
            <use xlink:href="#path-17" fill="rgb(0,0,0)" fill-opacity="1"/>
          </g>
          <g opacity="1">
            <use xlink:href="#path-18" fill="rgb(0,0,0)" fill-opacity="1"/>
          </g>
          <g opacity="1">
            <use xlink:href="#path-19" fill="rgb(0,0,0)" fill-opacity="1"/>
          </g>
          <g opacity="1">
            <use xlink:href="#path-20" fill="rgb(0,0,0)" fill-opacity="1"/>
          </g>
        </g>
      </g>
    </g>
  </g>
</svg>