<?xml version="1.0" encoding="utf-8"?>
<svg version="1.1" xmlns="http://www.w3.org/2000/svg" xmlns:xlink="http://www.w3.org/1999/xlink" height="70" width="126.33091772460944">
  <defs>
    <path id="path-0" opacity="1" fill-rule="evenodd" d="M46.682861328125,27.708984375 L54.25239562988281,37.344970703125 C62.16987609863281,37.63330078125 68.73841857910156,43.562744140625 69.83283996582031,51.40966796875 C71.07902526855469,60.343017578125 64.84722900390625,68.59521484375 55.913726806640625,69.84130859375 C46.980377197265625,71.08740234375 38.72819519042969,64.855712890625 37.48200988769531,55.922119140625 C36.23582458496094,46.98876953125 42.46763610839844,38.736572265625 51.40113830566406,37.490478515625 L44.93128967285156,29.255126953125 C39.04655456542969,33.81201171875 30.815521240234375,33.77880859375 24.967819213867188,29.174560546875 L15.9884033203125,38.154052734375 C20.035995483398438,39.7626953125 22.848770141601562,43.494384765625 23.280838012695312,47.828369140625 C23.919296264648438,54.2333984375 19.244613647460938,59.943115234375 12.83978271484375,60.58154296875 L12.83978271484375,65.3056640625 L22.383621215820312,65.3056640625 C22.735794067382812,64.3095703125 23.519454956054688,63.525634765625 24.515792846679688,63.173583984375 C26.337326049804688,62.529296875 28.33612060546875,63.484130859375 28.98028564453125,65.3056640625 C29.624435424804688,67.127197265625 28.669647216796875,69.1259765625 26.848114013671875,69.770263671875 C25.026565551757812,70.414306640625 23.027633666992188,69.459716796875 22.383621215820312,67.637939453125 L11.673614501953125,67.637939453125 C11.02960205078125,67.637939453125 10.507461547851562,67.115966796875 10.507461547851562,66.471923828125 L10.507461547851562,60.58154296875 C10.314163208007812,60.5625 10.121322631835938,60.53857421875 9.929183959960938,60.509765625 C3.563568115234375,59.555908203125 -0.823516845703125,53.622314453125 0.1302490234375,47.2568359375 C1.0840301513671875,40.89111328125 7.0175933837890625,36.504150390625 13.383209228515625,37.457763671875 L23.227920532226562,27.613037109375 C20.590362548828125,24.870361328125 18.998550415039062,21.2890625 18.73004150390625,17.4931640625 L8.175140380859375,17.4931640625 C7.714508056640625,17.493408203125 7.2967376708984375,17.222412109375 7.1092681884765625,16.8017578125 L2.70703125,6.896240234375 C1.7213287353515625,6.666748046875 0.884033203125,6.02001953125 0.412750244140625,5.124267578125 C-0.4840240478515625,3.420166015625 0.1704864501953125,1.311767578125 1.874542236328125,0.4150390625 C3.5787353515625,-0.48193359375 5.687286376953125,0.172607421875 6.5840606689453125,1.876708984375 C7.4808502197265625,3.5810546875 6.8263397216796875,5.689453125 5.1221466064453125,6.586181640625 L8.934463500976562,15.160888671875 L18.730194091796875,15.160888671875 C18.995773315429688,11.345947265625 20.595016479492188,7.74609375 23.24774169921875,4.991455078125 C29.489166259765625,-1.489013671875 39.80238342285156,-1.68310546875 46.28300476074219,4.55810546875 L48.16636657714844,2.6748046875 C48.385009765625,2.4560546875 48.68150329589844,2.333251953125 48.99082946777344,2.333251953125 L63.19929504394531,2.333251953125 C63.551483154296875,1.3369140625 64.33514404296875,0.55322265625 65.33148193359375,0.200927734375 C67.15303039550781,-0.443115234375 69.15167236328125,0.51171875 69.79582214355469,2.333251953125 C70.43998718261719,4.15478515625 69.48533630371094,6.15380859375 67.66365051269531,6.7978515625 C65.84211730957031,7.44189453125 63.843170166015625,6.4873046875 63.19915771484375,4.66552734375 L49.473480224609375,4.66552734375 L47.8466796875,6.29248046875 C49.84547424316406,8.841064453125 51.03553771972656,11.929931640625 51.26353454589844,15.1611328125 L64.15074157714844,15.1611328125 C64.79475402832031,15.1611328125 65.31690979003906,15.68310546875 65.31690979003906,16.3271484375 L65.31690979003906,18.776123046875 C68.03128051757812,19.330078125 69.98095703125,21.717529296875 69.98153686523438,24.488037109375 C69.98211669921875,27.708251953125 67.37211608886719,30.3193359375 64.15190124511719,30.31982421875 C60.93171691894531,30.320556640625 58.3206787109375,27.71044921875 58.31996154785156,24.490234375 C58.32301330566406,21.720458984375 60.27137756347656,19.333740234375 62.984588623046875,18.776123046875 L62.984588623046875,17.493408203125 L51.26353454589844,17.493408203125 C50.99385070800781,21.333251953125 49.37071228027344,24.953369140625 46.682861328125,27.708984375 L46.682861328125,27.708984375ZM40.08473205566406,18.71337890625 C41.90394592285156,17.28173828125 43.02330017089844,15.1396484375 43.15989685058594,12.828857421875 C43.15989685058594,5.1181640625 38.72032165527344,3.49951171875 34.99678039550781,3.49951171875 C31.273239135742188,3.49951171875 26.83367919921875,5.1181640625 26.83367919921875,12.828857421875 C26.96923828125,15.14111328125 28.088760375976562,17.284423828125 29.908828735351562,18.716796875 C26.817642211914062,19.09765625 24.496841430664062,21.7255859375 24.501358032226562,24.84033203125 L24.501358032226562,25.54931640625 C19.389358520507812,19.7529296875 19.94415283203125,10.909912109375 25.740692138671875,5.7978515625 C31.5372314453125,0.685791015625 40.38020324707031,1.240478515625 45.49220275878906,7.036865234375 C50.15684509277344,12.326171875 50.15684509277344,20.260009765625 45.49220275878906,25.549072265625 L45.49220275878906,24.840087890625 C45.49847412109375,21.724365234375 43.17724609375,19.09423828125 40.08473205566406,18.71337890625 L40.08473205566406,18.71337890625ZM2.3443603515625,3.49951171875 C2.3443603515625,4.143310546875 2.8665008544921875,4.66552734375 3.5105133056640625,4.66552734375 C4.1545257568359375,4.66552734375 4.6766815185546875,4.143310546875 4.6766815185546875,3.49951171875 C4.6766815185546875,2.85546875 4.1545257568359375,2.333251953125 3.5105133056640625,2.333251953125 C2.8665008544921875,2.333251953125 2.3443603515625,2.85546875 2.3443603515625,3.49951171875 L2.3443603515625,3.49951171875ZM67.64923095703125,3.49951171875 C67.64923095703125,4.143310546875 67.1270751953125,4.66552734375 66.48306274414062,4.66552734375 C65.83905029296875,4.66552734375 65.31690979003906,4.143310546875 65.31690979003906,3.49951171875 C65.31690979003906,2.85546875 65.83905029296875,2.333251953125 66.48306274414062,2.333251953125 C67.1270751953125,2.333251953125 67.64923095703125,2.85546875 67.64923095703125,3.49951171875 L67.64923095703125,3.49951171875ZM35.05757141113281,8.96044921875 C35.08439636230469,8.879638671875 35.119964599609375,8.802490234375 35.1636962890625,8.7294921875 C35.494873046875,8.177490234375 36.21119689941406,7.998291015625 36.76365661621094,8.329345703125 L40.64930725097656,10.661865234375 C40.128021240234375,7.396484375 38.306488037109375,5.83154296875 34.99693298339844,5.83154296875 C31.382278442382812,5.83154296875 29.543243408203125,7.6865234375 29.230422973632812,11.5947265625 C31.281692504882812,11.39990234375 34.467498779296875,10.7294921875 35.05757141113281,8.96044921875 L35.05757141113281,8.96044921875ZM36.60491943359375,10.955810546875 L40.77276611328125,13.457275390625 C40.305145263671875,16.31201171875 36.78684997558594,18.659423828125 34.996795654296875,18.659423828125 C32.39581298828125,18.216552734375 30.232162475585938,16.412841796875 29.328094482421875,13.93408203125 C31.324554443359375,13.769775390625 34.92915344238281,13.16455078125 36.60491943359375,10.955810546875 L36.60491943359375,10.955810546875ZM43.15989685058594,24.84033203125 L43.15989685058594,27.6669921875 C38.2916259765625,31.201416015625 31.701950073242188,31.201416015625 26.83367919921875,27.6669921875 L26.83367919921875,24.84033203125 C26.83367919921875,22.71484375 28.556671142578125,20.991943359375 30.6820068359375,20.991943359375 L33.2708740234375,20.991943359375 L31.578781127929688,25.22265625 C31.40545654296875,25.65625 31.507354736328125,26.1513671875 31.837661743164062,26.48095703125 L34.16998291015625,28.8134765625 C34.6253662109375,29.2685546875 35.36354064941406,29.2685546875 35.81892395019531,28.8134765625 L38.1512451171875,26.48095703125 C38.4815673828125,26.151123046875 38.58345031738281,25.65625 38.41014099121094,25.22265625 L36.719207763671875,20.991943359375 L39.31156921386719,20.991943359375 C41.43690490722656,20.991943359375 43.15989685058594,22.71484375 43.15989685058594,24.84033203125 L43.15989685058594,24.84033203125ZM64.15074157714844,27.989013671875 C66.08291625976562,27.989013671875 67.64921569824219,26.422607421875 67.64921569824219,24.490478515625 C67.64921569824219,22.558349609375 66.08291625976562,20.991943359375 64.15074157714844,20.991943359375 C62.21856689453125,20.991943359375 60.65226745605469,22.558349609375 60.65226745605469,24.490478515625 C60.65226745605469,26.422607421875 62.21856689453125,27.989013671875 64.15074157714844,27.989013671875 L64.15074157714844,27.989013671875ZM34.99678039550781,26.33984375 L35.96003723144531,25.37548828125 L34.99678039550781,22.965087890625 L34.033538818359375,25.37548828125 L34.99678039550781,26.33984375 L34.99678039550781,26.33984375ZM21.002883911132812,48.979736328125 C21.007843017578125,46.7001953125 20.178131103515625,44.498046875 18.670578002929688,42.78857421875 C15.262619018554688,38.924072265625 9.36724853515625,38.55419921875 5.502899169921875,41.962158203125 C1.6386871337890625,45.3701171875 1.2687225341796875,51.265380859375 4.6766815185546875,55.1298828125 L4.6766815185546875,54.810302734375 C4.6779937744140625,52.260986328125 6.0655670166015625,49.9140625 8.29876708984375,48.6845703125 C6.5782470703125,46.882080078125 6.5782470703125,44.04541015625 8.29876708984375,42.2431640625 C10.077590942382812,40.379638671875 13.030303955078125,40.310791015625 14.893829345703125,42.089599609375 C16.757339477539062,43.868408203125 16.826156616210938,46.821044921875 15.047317504882812,48.6845703125 C17.28094482421875,49.913818359375 18.669113159179688,52.260986328125 18.670578002929688,54.810546875 L18.670578002929688,55.1298828125 C20.172882080078125,53.433349609375 21.002456665039062,51.245849609375 21.002883911132812,48.979736328125 L21.002883911132812,48.979736328125ZM64.15074157714844,62.1572265625 L64.15074157714844,62.86962890625 C66.40419006347656,60.324951171875 67.64848327636719,57.04345703125 67.64921569824219,53.64404296875 C67.65228271484375,50.24072265625 66.41426086425781,46.953125 64.16706848144531,44.397216796875 C59.0670166015625,38.59619140625 50.22987365722656,38.028076171875 44.42897033691406,43.128173828125 C38.6280517578125,48.228271484375 38.059844970703125,57.0654296875 43.15989685058594,62.8662109375 L43.15989685058594,62.1572265625 C43.15538024902344,59.04248046875 45.47618103027344,56.41455078125 48.56736755371094,56.03369140625 C46.747283935546875,54.601318359375 45.627777099609375,52.4580078125 45.49220275878906,50.145751953125 C45.49220275878906,42.43505859375 49.93177795410156,40.81640625 53.65531921386719,40.81640625 C57.37886047363281,40.81640625 61.81842041015625,42.43505859375 61.81842041015625,50.145751953125 C61.68183898925781,52.45654296875 60.562469482421875,54.5986328125 58.74327087402344,56.0302734375 C61.83576965332031,56.4111328125 64.15701293945312,59.041259765625 64.15074157714844,62.1572265625 L64.15074157714844,62.1572265625ZM9.34130859375,45.481201171875 C9.34130859375,44.193115234375 10.385452270507812,43.14892578125 11.673629760742188,43.14892578125 C12.9617919921875,43.14892578125 14.005935668945312,44.193115234375 14.005935668945312,45.481201171875 C14.005935668945312,46.76953125 12.9617919921875,47.8134765625 11.673629760742188,47.8134765625 C10.385452270507812,47.8134765625 9.34130859375,46.769287109375 9.34130859375,45.481201171875 L9.34130859375,45.481201171875ZM53.65531921386719,43.14892578125 C50.04023742675781,43.14892578125 48.201202392578125,45.00439453125 47.888671875,48.912109375 C49.93994140625,48.71728515625 53.125885009765625,48.046875 53.71595764160156,46.27783203125 C53.74278259277344,46.197021484375 53.778350830078125,46.119873046875 53.82208251953125,46.046875 C54.15342712402344,45.49462890625 54.86973571777344,45.3154296875 55.42205810546875,45.646728515625 L59.30769348144531,47.979248046875 C58.78642272949219,44.7138671875 56.96488952636719,43.14892578125 53.65531921386719,43.14892578125 L53.65531921386719,43.14892578125ZM55.263458251953125,48.271728515625 L59.431304931640625,50.773193359375 C58.96368408203125,53.629150390625 55.44538879394531,55.9765625 53.65533447265625,55.9765625 C51.054351806640625,55.533447265625 48.89070129394531,53.72998046875 47.98663330078125,51.251220703125 C49.98309326171875,51.0869140625 53.58769226074219,50.4814453125 55.263458251953125,48.271728515625 L55.263458251953125,48.271728515625ZM16.3382568359375,57.047119140625 L16.3382568359375,54.810302734375 C16.3382568359375,52.234130859375 14.24981689453125,50.145751953125 11.673614501953125,50.145751953125 C9.097427368164062,50.145751953125 7.0089874267578125,52.234130859375 7.0089874267578125,54.810302734375 L7.0089874267578125,57.047119140625 C9.891006469726562,58.730224609375 13.45623779296875,58.730224609375 16.3382568359375,57.047119140625 L16.3382568359375,57.047119140625ZM45.492218017578125,62.1572265625 L45.492218017578125,64.98388671875 C50.36048889160156,68.518310546875 56.950164794921875,68.518310546875 61.81843566894531,64.98388671875 L61.81843566894531,62.1572265625 C61.81843566894531,60.03173828125 60.09544372558594,58.308837890625 57.97010803222656,58.308837890625 L55.37774658203125,58.308837890625 L57.06867980957031,62.53955078125 C57.24198913574219,62.97314453125 57.140106201171875,63.468017578125 56.809783935546875,63.7978515625 L54.47746276855469,66.13037109375 C54.02207946777344,66.58544921875 53.283905029296875,66.58544921875 52.828521728515625,66.13037109375 L50.49620056152344,63.7978515625 C50.1658935546875,63.468017578125 50.063995361328125,62.97314453125 50.23731994628906,62.53955078125 L51.929412841796875,58.308837890625 L49.340545654296875,58.308837890625 C47.2152099609375,58.308837890625 45.492218017578125,60.03173828125 45.492218017578125,62.1572265625 L45.492218017578125,62.1572265625ZM54.61857604980469,62.6923828125 L53.65531921386719,63.65673828125 L52.69207763671875,62.6923828125 L53.65531921386719,60.281982421875 L54.61857604980469,62.6923828125 L54.61857604980469,62.6923828125ZM25.667510986328125,65.305908203125 C26.3115234375,65.305908203125 26.83367919921875,65.828125 26.83367919921875,66.47216796875 C26.83367919921875,67.115966796875 26.3115234375,67.63818359375 25.667510986328125,67.63818359375 C25.02349853515625,67.63818359375 24.501358032226562,67.115966796875 24.501358032226562,66.47216796875 C24.501358032226562,65.828125 25.02349853515625,65.305908203125 25.667510986328125,65.305908203125 L25.667510986328125,65.305908203125Z"/>
  </defs>
  <g opacity="1">
    <g opacity="1">
      <use xlink:href="#path-0" fill="rgb(79,79,79)" fill-opacity="1"/>
    </g>
  </g>
</svg>