<?xml version="1.0" encoding="utf-8"?>
<svg version="1.1" xmlns="http://www.w3.org/2000/svg" xmlns:xlink="http://www.w3.org/1999/xlink" height="98.70463010947879" width="362.7046301094779">
  <defs>
    <path id="path-0" opacity="1" fill-rule="evenodd" d="M51.35231505473871,2.3523150547393925 L313.3523150547387,2.3523150547393983 C339.309698296786,2.3523150547393983 360.3523150547387,23.394931812692114 360.3523150547387,49.35231505473939 C360.3523150547387,75.30969829678666 339.309698296786,96.35231505473939 313.3523150547387,96.35231505473939 L51.35231505473871,96.35231505473939 L51.35231505473871,2.3523150547393925Z"/>
    <path id="path-1" opacity="1" fill-rule="evenodd" d="M49.352315054739165,2.3523150547393925 L55.35231505473888,2.3523150547393925 C81.29232120595688,2.3523150547393925 102.35231505473888,23.412308903521392 102.35231505473888,49.35231505473939 C102.35231505473888,75.29232120595739 81.29232120595688,96.35231505473939 55.35231505473888,96.35231505473939 L49.352315054739165,96.35231505473939 C23.412308903521172,96.35231505473939 2.3523150547391722,75.29232120595739 2.352315054739165,49.35231505473939 C2.352315054739165,23.4123089035214 23.412308903521154,2.3523150547393996 49.352315054739165,2.3523150547393925Z"/>
    <path id="path-2" opacity="1" fill-rule="evenodd" d="M52.35231505473894,29.352315054739393 C41.35231505473894,29.352315054739393 32.35231505473894,38.35231505473939 32.35231505473894,49.35231505473939 C32.35231505473894,60.35231505473939 41.35231505473894,69.35231505473939 52.35231505473894,69.35231505473939 C63.35231505473894,69.35231505473939 72.35231505473894,60.35231505473939 72.35231505473894,49.35231505473939 C72.35231505473894,38.35231505473939 63.35231505473894,29.352315054739393 52.35231505473894,29.352315054739393 L52.35231505473894,29.352315054739393ZM52.35231505473894,65.35231505473939 C43.55232726177019,65.35231505473939 36.35231505473894,58.15236388286439 36.35231505473894,49.35231505473939 C36.35231505473894,40.55226622661439 43.55232726177019,33.35231505473939 52.35231505473894,33.35231505473939 C61.15230284770769,33.35231505473939 68.35231505473894,40.55226622661439 68.35231505473894,49.35231505473939 C68.35231505473894,58.15236388286439 61.15230284770769,65.35231505473939 52.35231505473894,65.35231505473939 L52.35231505473894,65.35231505473939ZM50.35231505473894,39.35231505473939 L53.35231505473894,39.35231505473939 L53.35231505473894,49.75221739848939 L62.35231505473894,55.15236388286439 L60.75233946880144,57.75221739848939 L50.35231505473894,51.35231505473939 L50.35231505473894,39.35231505473939 L50.35231505473894,39.35231505473939Z"/>
  </defs>
  <g opacity="1">
    <g opacity="1">
      <use xlink:href="#path-0" fill="rgb(255,255,255)" fill-opacity="1"/>
      <use xlink:href="#path-0" fill-opacity="0" stroke="rgb(128,128,128)" stroke-opacity="1" stroke-width="1" stroke-linecap="butt" stroke-linejoin="miter"/>
    </g>
    <g opacity="1">
      <use xlink:href="#path-1" fill="rgb(250,153,23)" fill-opacity="1"/>
    </g>
    <g opacity="1">
      <g opacity="1">
        <use xlink:href="#path-2" fill="rgb(255,255,255)" fill-opacity="1"/>
      </g>
    </g>
  </g>
</svg>