<?xml version="1.0" encoding="utf-8"?>
<svg version="1.1" xmlns="http://www.w3.org/2000/svg" xmlns:xlink="http://www.w3.org/1999/xlink" height="119.99993896484375" width="139.28082275390625">
  <defs>
    <path id="path-0" opacity="1" fill-rule="evenodd" d="M0,86.1051025390625 C0.84344482421875,79.003662109375 4.89752197265625,73.20819091796875 7.70001220703125,66.89581298828125 C14.55657958984375,51.4957275390625 21.630859375,36.20452880859375 28.54180908203125,20.804443359375 C30.31036376953125,16.88641357421875 33.03125,14.05670166015625 36.92205810546875,12.31536865234375 C37.68389892578125,11.961669921875 37.98321533203125,11.52630615234375 38.01043701171875,10.682861328125 C38.25531005859375,5.077880859375 42.49981689453125,0.4796142578125 47.7783203125,0.07147216796875 C53.6553955078125,-0.39105224609375 58.444091796875,3.0916748046875 59.722900390625,8.75103759765625 C59.9405517578125,9.70330810546875 59.9405517578125,10.62841796875 59.9405517578125,11.58074951171875 C59.9405517578125,13.2132568359375 59.9422607421875,14.84576416015625 59.9439697265625,16.478271484375 L59.9439697265625,16.49774169921875 C59.94903564453125,21.3887939453125 59.9541015625,26.27984619140625 59.913330078125,31.1708984375 C59.913330078125,32.39532470703125 60.29425048828125,32.7218017578125 61.4642333984375,32.694580078125 C66.8515625,32.64019775390625 72.26605224609375,32.64019775390625 77.6533203125,32.694580078125 C78.93212890625,32.7218017578125 79.36749267578125,32.36810302734375 79.36749267578125,31.03485107421875 C79.31304931640625,24.4232177734375 79.31304931640625,17.7843017578125 79.34027099609375,11.172607421875 C79.39471435546875,2.41143798828125 88.37353515625,-2.8126220703125 95.9647216796875,1.59515380859375 C99.2841796875,3.5269775390625 101.107177734375,6.51995849609375 101.24322509765625,10.4107666015625 C101.297607421875,11.471923828125 101.6241455078125,11.98883056640625 102.6036376953125,12.451416015625 C106.08636474609375,14.05670166015625 108.77996826171875,16.5054931640625 110.38531494140625,20.06982421875 C118.27581787109375,37.48333740234375 126.1934814453125,54.92401123046875 134.083984375,72.3375244140625 C135.36279296875,75.1400146484375 137.076904296875,77.724853515625 137.974853515625,80.7177734375 C138.51898193359375,82.5135498046875 138.81829833984375,84.3365478515625 139.28082275390625,86.13232421875 L139.28082275390625,93.4786376953125 C139.2264404296875,93.750732421875 139.1175537109375,93.99560546875 139.09039306640625,94.2677001953125 C136.6143798828125,110.756103515625 121.4320068359375,122.0748291015625 104.943603515625,119.68048095703125 C92.34600830078125,117.8575439453125 82.14276123046875,108.00799560546875 79.8028564453125,95.4376220703125 C79.2332763671875,92.3580322265625 79.28515625,89.2784423828125 79.3372802734375,86.18609619140625 C79.35235595703125,85.28961181640625 79.36749267578125,84.39202880859375 79.36749267578125,83.4930419921875 C79.36749267578125,82.15985107421875 78.93212890625,81.80615234375 77.6533203125,81.8333740234375 C72.29327392578125,81.88775634765625 66.96038818359375,81.88775634765625 61.60028076171875,81.8333740234375 C60.32147216796875,81.80615234375 59.8861083984375,82.15985107421875 59.8861083984375,83.4930419921875 C59.8861083984375,84.45184326171875 59.90838623046875,85.41058349609375 59.93060302734375,86.368896484375 C59.9935302734375,89.0826416015625 60.05633544921875,91.7913818359375 59.61407470703125,94.4853515625 C57.1380615234375,109.9942626953125 43.1800537109375,121.55792236328125 26.99090576171875,119.789306640625 C14.33892822265625,118.42889404296875 5.76824951171875,111.30023193359375 1.36041259765625,99.2740478515625 C0.68023681640625,97.39666748046875 0.40814208984375,95.410400390625 0,93.4786376953125 L0,86.1051025390625 L0,86.1051025390625ZM54.009033203125,9.59454345703125 C54.25390625,10.57403564453125 54.38995361328125,11.55352783203125 54.2811279296875,12.83233642578125 C54.2547607421875,12.94671630859375 54.2852783203125,13.120849609375 54.31927490234375,13.315185546875 C54.39056396484375,13.72174072265625 54.477294921875,14.21673583984375 54.09063720703125,14.4376220703125 C53.73138427734375,14.6456298828125 53.37213134765625,14.31488037109375 53.012939453125,13.98419189453125 C52.855224609375,13.8389892578125 52.697509765625,13.69378662109375 52.539794921875,13.59417724609375 C50.1998291015625,12.1793212890625 47.723876953125,11.03656005859375 44.94854736328125,10.9549560546875 C43.72418212890625,10.927734375 43.72418212890625,10.383544921875 43.94183349609375,9.51287841796875 C44.45880126953125,7.390625 46.68994140625,5.73089599609375 49.00262451171875,5.75811767578125 C51.31536865234375,5.78533935546875 53.46484375,7.4178466796875 54.009033203125,9.59454345703125 L54.009033203125,9.59454345703125ZM84.99969482421875,12.34259033203125 C84.99969482421875,12.4141845703125 84.99676513671875,12.4886474609375 84.9937744140625,12.564208984375 C84.9876708984375,12.71832275390625 84.9814453125,12.876708984375 84.99969482421875,13.02276611328125 C85.02655029296875,13.19268798828125 85.00335693359375,13.3831787109375 84.98040771484375,13.57159423828125 C84.9337158203125,13.9552001953125 84.88836669921875,14.3277587890625 85.27178955078125,14.4920654296875 C85.55645751953125,14.62493896484375 85.8411865234375,14.36053466796875 86.1259765625,14.0960693359375 C86.24932861328125,13.9814453125 86.37274169921875,13.86688232421875 86.49615478515625,13.78460693359375 C88.917724609375,12.2337646484375 91.50250244140625,11.06378173828125 94.4410400390625,10.9549560546875 C95.58380126953125,10.927734375 95.556640625,10.383544921875 95.36614990234375,9.594482421875 C94.4954833984375,6.0301513671875 89.81561279296875,4.5609130859375 86.98590087890625,6.95526123046875 C85.27178955078125,8.3973388671875 84.99969482421875,10.30194091796875 84.99969482421875,12.34259033203125 L84.99969482421875,12.34259033203125ZM54.31439208984375,31.4578857421875 C54.3204345703125,29.6142578125 54.32611083984375,27.87579345703125 54.0906982421875,26.1373291015625 C53.5465087890625,21.91998291015625 51.3154296875,18.9542236328125 47.4517822265625,17.4305419921875 C43.397705078125,15.82525634765625 39.6429443359375,16.61431884765625 36.323486328125,19.47119140625 C34.60931396484375,20.91326904296875 33.92913818359375,22.95391845703125 33.05841064453125,24.8857421875 C32.62310791015625,25.865234375 31.88848876953125,26.79034423828125 31.83404541015625,28.04193115234375 C40.40478515625,25.97406005859375 47.80548095703125,27.9058837890625 54.3355712890625,34.32708740234375 C54.308349609375,33.3367919921875 54.3114013671875,32.38592529296875 54.31439208984375,31.4613037109375 L54.31439208984375,31.4578857421875ZM85.83709716796875,33.56182861328125 C85.6510009765625,33.78363037109375 85.45068359375,34.0223388671875 84.972412109375,34.0006103515625 C85.021728515625,32.9786376953125 85.00537109375,31.951171875 84.989013671875,30.92437744140625 C84.942138671875,27.98736572265625 84.8953857421875,25.05584716796875 86.38726806640625,22.27374267578125 C90.0604248046875,15.41717529296875 99.66510009765625,14.62811279296875 104.3177490234375,20.8861083984375 C105.73260498046875,22.81793212890625 106.44000244140625,25.18505859375 107.392333984375,27.36175537109375 C107.7762451171875,28.219970703125 107.2041015625,28.02838134765625 106.7962646484375,27.89178466796875 C106.7127685546875,27.86383056640625 106.63616943359375,27.838134765625 106.5760498046875,27.82427978515625 C102.87567138671875,26.9263916015625 99.2025146484375,26.9808349609375 95.55657958984375,27.9603271484375 C91.8834228515625,28.9398193359375 88.72723388671875,30.7900390625 85.9791259765625,33.40203857421875 C85.92987060546875,33.4512939453125 85.8839111328125,33.50604248046875 85.83709716796875,33.56182861328125 L85.83709716796875,33.56182861328125ZM54.25390625,72.2015380859375 C54.308349609375,71.82061767578125 54.33551025390625,71.630126953125 54.33551025390625,71.4669189453125 C54.33551025390625,64.20220947265625 54.33551025390625,56.9647216796875 54.308349609375,49.70001220703125 C54.308349609375,48.44842529296875 54.199462890625,47.14239501953125 53.92742919921875,45.91802978515625 C51.83233642578125,36.04132080078125 41.90118408203125,30.5179443359375 32.4326171875,33.97344970703125 C30.50079345703125,34.68084716796875 28.3240966796875,35.44268798828125 27.3990478515625,37.428955078125 C23.5626220703125,45.59149169921875 19.88946533203125,53.835693359375 16.1890869140625,62.052734375 C16.1644287109375,62.11444091796875 16.1298828125,62.17755126953125 16.0948486328125,62.24176025390625 C15.9752197265625,62.46075439453125 15.848876953125,62.6920166015625 16.08026123046875,62.92340087890625 C16.3092041015625,63.131591796875 16.5382080078125,63.00531005859375 16.7550048828125,62.8857421875 C16.82159423828125,62.8489990234375 16.88702392578125,62.81292724609375 16.950927734375,62.787353515625 C19.04595947265625,61.807861328125 21.22265625,61.0460205078125 23.5081787109375,60.58343505859375 C32.867919921875,58.6788330078125 41.3026123046875,60.61065673828125 48.81219482421875,66.5421142578125 C50.79840087890625,68.1474609375 52.4853515625,70.0792236328125 54.25390625,72.2015380859375 L54.25390625,72.2015380859375ZM123.4454345703125,62.678466796875 C123.52703857421875,62.84173583984375 123.52703857421875,63.0050048828125 123.58148193359375,63.22265625 C108.56231689453125,56.71978759765625 95.7742919921875,59.685546875 85.0540771484375,71.98382568359375 C85.0540771484375,71.73895263671875 85.02685546875,71.54852294921875 85.02685546875,71.330810546875 C85.0223388671875,70.1353759765625 85.01702880859375,68.93914794921875 85.01177978515625,67.7423095703125 C84.9853515625,61.747802734375 84.9588623046875,55.73748779296875 85.02685546875,49.7271728515625 C85.1085205078125,43.4964599609375 87.6116943359375,38.51727294921875 93.05340576171875,35.19781494140625 C98.5223388671875,31.87835693359375 106.00469970703125,32.34088134765625 111.038330078125,36.3133544921875 C111.5008544921875,36.639892578125 111.82733154296875,37.0479736328125 112.0450439453125,37.56494140625 C115.8270263671875,45.9451904296875 119.63623046875,54.2982177734375 123.4454345703125,62.678466796875 L123.4454345703125,62.678466796875ZM79.34027099609375,51.9310302734375 C79.34027099609375,50.9251708984375 79.33856201171875,49.9176025390625 79.33685302734375,48.9091796875 L79.33685302734375,48.899658203125 C79.331787109375,45.87420654296875 79.32672119140625,42.841064453125 79.36749267578125,39.8232421875 C79.36749267578125,38.7620849609375 79.14984130859375,38.2723388671875 77.95263671875,38.299560546875 C72.4293212890625,38.35394287109375 66.87872314453125,38.35394287109375 61.35540771484375,38.299560546875 C60.29425048828125,38.299560546875 59.9405517578125,38.59881591796875 59.9405517578125,39.68719482421875 C59.9677734375,47.79534912109375 59.9677734375,55.93072509765625 59.9405517578125,64.03887939453125 C59.9405517578125,65.07281494140625 60.29425048828125,65.37213134765625 61.30096435546875,65.34490966796875 C66.8243408203125,65.31768798828125 72.3748779296875,65.31768798828125 77.89825439453125,65.34490966796875 C79.0137939453125,65.34490966796875 79.39471435546875,65.04559326171875 79.39471435546875,63.90283203125 C79.32940673828125,60.7083740234375 79.333740234375,57.531005859375 79.33807373046875,54.33642578125 L79.33807373046875,54.3299560546875 C79.33917236328125,53.5311279296875 79.34027099609375,52.73162841796875 79.34027099609375,51.9310302734375 L79.34027099609375,51.9310302734375ZM54.308349609375,89.96868896484375 C54.0362548828125,76.446044921875 43.80584716796875,65.67144775390625 29.98382568359375,65.64422607421875 C16.21630859375,65.61700439453125 5.65936279296875,76.25555419921875 5.65936279296875,90.02313232421875 C5.65936279296875,103.43695068359375 16.10748291015625,114.15716552734375 29.9022216796875,114.23876953125 C43.34326171875,114.293212890625 53.9818115234375,103.73626708984375 54.308349609375,89.96868896484375 L54.308349609375,89.96868896484375ZM109.296875,65.64422607421875 C123.0916748046875,65.61700439453125 133.40374755859375,76.201171875 133.730224609375,89.99591064453125 C133.40374755859375,103.21929931640625 123.55419921875,114.07550048828125 109.43292236328125,114.2115478515625 C96.372802734375,114.34759521484375 85.1900634765625,104.25323486328125 85.08123779296875,89.99591064453125 C84.972412109375,76.6092529296875 95.393310546875,65.67144775390625 109.296875,65.64422607421875 L109.296875,65.64422607421875ZM63.6953125,70.97711181640625 L69.68121337890625,70.97711181640625 C70.6153564453125,70.97711181640625 71.55255126953125,70.98016357421875 72.48974609375,70.983154296875 C74.3641357421875,70.98919677734375 76.238525390625,70.9952392578125 78.08868408203125,70.97711181640625 C79.01373291015625,70.94989013671875 79.31304931640625,71.2763671875 79.34027099609375,72.22869873046875 L79.34136962890625,72.30926513671875 C79.39483642578125,76.2015380859375 79.39520263671875,76.22833251953125 75.50384521484375,76.22833251953125 C74.3277587890625,76.22833251953125 73.151611328125,76.22662353515625 71.97552490234375,76.22491455078125 C68.44451904296875,76.2198486328125 64.91357421875,76.21478271484375 61.382568359375,76.25555419921875 C60.26702880859375,76.28277587890625 59.913330078125,75.90185546875 59.913330078125,74.78631591796875 C59.927001953125,72.8726806640625 59.9200439453125,71.92041015625 60.39276123046875,71.446533203125 C60.8609619140625,70.97711181640625 61.79974365234375,70.97711181640625 63.6953125,70.97711181640625 L63.6953125,70.97711181640625Z"/>
    <path id="path-1" opacity="1" fill-rule="evenodd" d="M49.05708648285704,89.64220891370678 C49.05708648285704,100.36239823137431 40.56800255617613,109.09635957901716 30.419193887419794,109.04194237435895 C28.40575731506599,109.04194237435895 27.20857881258535,108.06243269051114 27.126953005598036,106.40270794843573 C27.04532719861072,104.68856600170209 28.079254087116727,103.57301330620876 30.065482057141427,103.40976169223413 C35.262325102000574,102.94721545263934 39.289198246708175,100.7433186639818 41.81959826331499,96.03623046104656 C44.56766709855464,90.89380462084563 43.47932300539041,84.20048844788569 39.18036383739176,80.20082390550719 C38.8538606094425,79.90152927988703 38.50014877916412,79.60223465426688 38.200854153543965,79.24852282398851 C37.139718662708844,77.99692711684965 37.11251006037975,76.39161957943243 38.09201974422754,75.30327548626822 C39.12594663273355,74.16051418844579 40.64962836316346,74.02447117680026 42.01005847961873,75.08560666763536 C44.97579613349122,77.42554646793845 47.01644130817414,80.41849272414004 48.15920260599656,84.01002823158196 C48.81220906189509,85.94183899694845 49.19312949450257,87.90085836464404 49.05708648285704,89.64220891370678Z"/>
    <path id="path-2" opacity="1" fill-rule="evenodd" d="M32.73192508539339,73.56192493720538 C32.759133687722496,75.1672324746226 31.534746582912778,76.39161957943234 29.92943904549559,76.41882818176146 C28.324131508078406,76.41882818176146 27.099744403268687,75.22164967928082 27.099744403268687,73.58913353953449 C27.099744403268687,72.03824320677548 28.269714303420194,70.84106470429482 29.820604636179173,70.81385610196573 C31.480329378254567,70.75943889730752 32.70471648306429,71.95661739978816 32.73192508539339,73.56192493720538Z"/>
    <path id="path-3" opacity="1" fill-rule="evenodd" d="M128.50620528384485,89.80546052768149 C128.50620528384485,100.41681543603262 120.01712135716397,109.09635957901725 109.86831268840768,109.06915097668815 C107.85487611605389,109.06915097668815 106.65769761357325,108.08964129284035 106.57607180658593,106.40270794843582 C106.49444599959861,104.71577460403128 107.55558149043372,103.60022190853795 109.54180946045841,103.43697029456332 C113.65030841215332,103.08325846428495 117.1602181126079,101.58678533618415 119.79945253853111,98.3217530566915 C124.23445471817529,92.88003259087041 123.63586546693497,84.71745189213877 118.41181381974674,80.01036368920353 C117.75880736384822,79.43898304029231 117.10580090794967,78.84039378905199 116.91534069164594,77.96971851452062 C116.670463270684,76.77254001203998 116.96975789630415,75.71140452120487 117.97647618248105,74.9495636559899 C119.03761167331615,74.16051418844586 120.31641598278411,74.18772279077496 121.51359448526473,75.11281526996454 C123.17331922734017,76.41882818176161 124.56095794612453,77.96971851452062 125.64930203928874,79.76548626824159 C127.52669559999701,82.89447553608872 128.64224829549033,86.24113362256868 128.50620528384485,89.80546052768149Z"/>
    <path id="path-4" opacity="1" fill-rule="evenodd" d="M109.32414064182564,76.39161957943242 C107.74604170673754,76.3644109771033 106.52165460192782,75.08560666763536 106.57607180658603,73.50750773254725 C106.63048901124424,71.92940879745916 107.90929332071217,70.73223029497854 109.51460085812936,70.78664749963674 C111.03828258855924,70.84106470429495 112.20825248871074,72.06545180910469 112.18104388638164,73.61634214186367 C112.15383528405253,75.22164967928087 110.92944817924281,76.41882818176151 109.32414064182564,76.39161957943242Z"/>
  </defs>
  <g opacity="1">
    <g opacity="1">
      <g opacity="1">
        <use xlink:href="#path-0" fill="rgb(66,74,82)" fill-opacity="1"/>
      </g>
      <g opacity="1">
        <use xlink:href="#path-1" fill="rgb(255,157,0)" fill-opacity="1"/>
      </g>
      <g opacity="1">
        <use xlink:href="#path-2" fill="rgb(66,74,82)" fill-opacity="1"/>
      </g>
      <g opacity="1">
        <use xlink:href="#path-3" fill="rgb(66,74,82)" fill-opacity="1"/>
      </g>
      <g opacity="1">
        <use xlink:href="#path-4" fill="rgb(255,157,0)" fill-opacity="1"/>
      </g>
    </g>
  </g>
</svg>